%TF.GenerationSoftware,KiCad,Pcbnew,9.0.0*%
%TF.CreationDate,2025-03-17T14:32:24+01:00*%
%TF.ProjectId,pcb,7063622e-6b69-4636-9164-5f7063625858,v1.0.0*%
%TF.SameCoordinates,Original*%
%TF.FileFunction,Copper,L2,Bot*%
%TF.FilePolarity,Positive*%
%FSLAX46Y46*%
G04 Gerber Fmt 4.6, Leading zero omitted, Abs format (unit mm)*
G04 Created by KiCad (PCBNEW 9.0.0) date 2025-03-17 14:32:24*
%MOMM*%
%LPD*%
G01*
G04 APERTURE LIST*
%TA.AperFunction,SMDPad,CuDef*%
%ADD10R,2.600000X2.600000*%
%TD*%
%TA.AperFunction,SMDPad,CuDef*%
%ADD11R,0.900000X1.200000*%
%TD*%
%TA.AperFunction,ComponentPad*%
%ADD12R,1.778000X1.778000*%
%TD*%
%TA.AperFunction,ComponentPad*%
%ADD13C,1.905000*%
%TD*%
%TA.AperFunction,ComponentPad*%
%ADD14C,1.752600*%
%TD*%
%TA.AperFunction,ComponentPad*%
%ADD15R,1.752600X1.752600*%
%TD*%
%TA.AperFunction,SMDPad,CuDef*%
%ADD16R,1.800000X1.100000*%
%TD*%
%TA.AperFunction,ComponentPad*%
%ADD17C,4.400000*%
%TD*%
%TA.AperFunction,ComponentPad*%
%ADD18C,0.700000*%
%TD*%
%TA.AperFunction,Conductor*%
%ADD19C,0.250000*%
%TD*%
G04 APERTURE END LIST*
D10*
%TO.P,S1,1*%
%TO.N,D23*%
X96725000Y-94050000D03*
%TO.P,S1,2*%
%TO.N,outer_lbottom*%
X108275000Y-96250000D03*
%TD*%
%TO.P,S2,1*%
%TO.N,D23*%
X96725000Y-77050000D03*
%TO.P,S2,2*%
%TO.N,outer_ltop*%
X108275000Y-79250000D03*
%TD*%
%TO.P,S3,1*%
%TO.N,D20*%
X114725000Y-94050000D03*
%TO.P,S3,2*%
%TO.N,pinky_lbottom*%
X126275000Y-96250000D03*
%TD*%
%TO.P,S4,1*%
%TO.N,D20*%
X114725000Y-77050000D03*
%TO.P,S4,2*%
%TO.N,pinky_ltop*%
X126275000Y-79250000D03*
%TD*%
%TO.P,S5,1*%
%TO.N,D22*%
X132725000Y-94050000D03*
%TO.P,S5,2*%
%TO.N,ring_lbottom*%
X144275000Y-96250000D03*
%TD*%
%TO.P,S6,1*%
%TO.N,D22*%
X132725000Y-77050000D03*
%TO.P,S6,2*%
%TO.N,ring_ltop*%
X144275000Y-79250000D03*
%TD*%
%TO.P,S7,1*%
%TO.N,D26*%
X150725000Y-94050000D03*
%TO.P,S7,2*%
%TO.N,middle_lbottom*%
X162275000Y-96250000D03*
%TD*%
%TO.P,S8,1*%
%TO.N,D26*%
X150725000Y-77050000D03*
%TO.P,S8,2*%
%TO.N,middle_ltop*%
X162275000Y-79250000D03*
%TD*%
%TO.P,S9,1*%
%TO.N,D27*%
X168725000Y-94050000D03*
%TO.P,S9,2*%
%TO.N,index_lbottom*%
X180275000Y-96250000D03*
%TD*%
%TO.P,S10,1*%
%TO.N,D27*%
X168725000Y-77050000D03*
%TO.P,S10,2*%
%TO.N,index_ltop*%
X180275000Y-79250000D03*
%TD*%
%TO.P,S11,1*%
%TO.N,D28*%
X186725000Y-94050000D03*
%TO.P,S11,2*%
%TO.N,inner_lbottom*%
X198275000Y-96250000D03*
%TD*%
%TO.P,S12,1*%
%TO.N,D28*%
X186725000Y-77050000D03*
%TO.P,S12,2*%
%TO.N,inner_ltop*%
X198275000Y-79250000D03*
%TD*%
%TO.P,S13,1*%
%TO.N,D3*%
X237725000Y-94050000D03*
%TO.P,S13,2*%
%TO.N,inner_rbottom*%
X249275000Y-96250000D03*
%TD*%
%TO.P,S14,1*%
%TO.N,D3*%
X237725000Y-77050000D03*
%TO.P,S14,2*%
%TO.N,inner_rtop*%
X249275000Y-79250000D03*
%TD*%
%TO.P,S15,1*%
%TO.N,D4*%
X255725000Y-94050000D03*
%TO.P,S15,2*%
%TO.N,index_rbottom*%
X267275000Y-96250000D03*
%TD*%
%TO.P,S16,1*%
%TO.N,D4*%
X255725000Y-77050000D03*
%TO.P,S16,2*%
%TO.N,index_rtop*%
X267275000Y-79250000D03*
%TD*%
%TO.P,S17,1*%
%TO.N,D5*%
X273725000Y-94050000D03*
%TO.P,S17,2*%
%TO.N,middle_rbottom*%
X285275000Y-96250000D03*
%TD*%
%TO.P,S18,1*%
%TO.N,D5*%
X273725000Y-77050000D03*
%TO.P,S18,2*%
%TO.N,middle_rtop*%
X285275000Y-79250000D03*
%TD*%
%TO.P,S19,1*%
%TO.N,D6*%
X291725000Y-94050000D03*
%TO.P,S19,2*%
%TO.N,ring_rbottom*%
X303275000Y-96250000D03*
%TD*%
%TO.P,S20,1*%
%TO.N,D6*%
X291725000Y-77050000D03*
%TO.P,S20,2*%
%TO.N,ring_rtop*%
X303275000Y-79250000D03*
%TD*%
%TO.P,S21,1*%
%TO.N,D7*%
X309725000Y-94050000D03*
%TO.P,S21,2*%
%TO.N,pinky_rbottom*%
X321275000Y-96250000D03*
%TD*%
%TO.P,S22,1*%
%TO.N,D7*%
X309725000Y-77050000D03*
%TO.P,S22,2*%
%TO.N,pinky_rtop*%
X321275000Y-79250000D03*
%TD*%
%TO.P,S23,1*%
%TO.N,D8*%
X327725000Y-94050000D03*
%TO.P,S23,2*%
%TO.N,outer_rbottom*%
X339275000Y-96250000D03*
%TD*%
%TO.P,S24,1*%
%TO.N,D8*%
X327725000Y-77050000D03*
%TO.P,S24,2*%
%TO.N,outer_rtop*%
X339275000Y-79250000D03*
%TD*%
%TO.P,S25,1*%
%TO.N,D27*%
X168725000Y-128050000D03*
%TO.P,S25,2*%
%TO.N,outer_lttop*%
X180275000Y-130250000D03*
%TD*%
%TO.P,S26,1*%
%TO.N,D28*%
X186725000Y-128050000D03*
%TO.P,S26,2*%
%TO.N,inner_lttop*%
X198275000Y-130250000D03*
%TD*%
%TO.P,S27,1*%
%TO.N,D3*%
X237725000Y-128050000D03*
%TO.P,S27,2*%
%TO.N,inner_rttop*%
X249275000Y-130250000D03*
%TD*%
%TO.P,S28,1*%
%TO.N,D4*%
X255725000Y-128050000D03*
%TO.P,S28,2*%
%TO.N,outer_rttop*%
X267275000Y-130250000D03*
%TD*%
D11*
%TO.P,D1,2*%
%TO.N,outer_lbottom*%
X101650000Y-105000000D03*
%TO.P,D1,1*%
%TO.N,D21*%
X98350000Y-105000000D03*
D12*
X96190000Y-105000000D03*
D13*
%TO.P,D1,2*%
%TO.N,outer_lbottom*%
X103810000Y-105000000D03*
%TD*%
D11*
%TO.P,D2,2*%
%TO.N,outer_ltop*%
X101650000Y-88000000D03*
%TO.P,D2,1*%
%TO.N,D29*%
X98350000Y-88000000D03*
D12*
X96190000Y-88000000D03*
D13*
%TO.P,D2,2*%
%TO.N,outer_ltop*%
X103810000Y-88000000D03*
%TD*%
D11*
%TO.P,D3,2*%
%TO.N,pinky_lbottom*%
X119650000Y-105000000D03*
%TO.P,D3,1*%
%TO.N,D21*%
X116350000Y-105000000D03*
D12*
X114190000Y-105000000D03*
D13*
%TO.P,D3,2*%
%TO.N,pinky_lbottom*%
X121810000Y-105000000D03*
%TD*%
D11*
%TO.P,D4,2*%
%TO.N,pinky_ltop*%
X119650000Y-88000000D03*
%TO.P,D4,1*%
%TO.N,D29*%
X116350000Y-88000000D03*
D12*
X114190000Y-88000000D03*
D13*
%TO.P,D4,2*%
%TO.N,pinky_ltop*%
X121810000Y-88000000D03*
%TD*%
D11*
%TO.P,D5,2*%
%TO.N,ring_lbottom*%
X137650000Y-105000000D03*
%TO.P,D5,1*%
%TO.N,D21*%
X134350000Y-105000000D03*
D12*
X132190000Y-105000000D03*
D13*
%TO.P,D5,2*%
%TO.N,ring_lbottom*%
X139810000Y-105000000D03*
%TD*%
D11*
%TO.P,D6,2*%
%TO.N,ring_ltop*%
X137650000Y-88000000D03*
%TO.P,D6,1*%
%TO.N,D29*%
X134350000Y-88000000D03*
D12*
X132190000Y-88000000D03*
D13*
%TO.P,D6,2*%
%TO.N,ring_ltop*%
X139810000Y-88000000D03*
%TD*%
D11*
%TO.P,D7,2*%
%TO.N,middle_lbottom*%
X155650000Y-105000000D03*
%TO.P,D7,1*%
%TO.N,D21*%
X152350000Y-105000000D03*
D12*
X150190000Y-105000000D03*
D13*
%TO.P,D7,2*%
%TO.N,middle_lbottom*%
X157810000Y-105000000D03*
%TD*%
D11*
%TO.P,D8,2*%
%TO.N,middle_ltop*%
X155650000Y-88000000D03*
%TO.P,D8,1*%
%TO.N,D29*%
X152350000Y-88000000D03*
D12*
X150190000Y-88000000D03*
D13*
%TO.P,D8,2*%
%TO.N,middle_ltop*%
X157810000Y-88000000D03*
%TD*%
D11*
%TO.P,D9,2*%
%TO.N,index_lbottom*%
X173650000Y-105000000D03*
%TO.P,D9,1*%
%TO.N,D21*%
X170350000Y-105000000D03*
D12*
X168190000Y-105000000D03*
D13*
%TO.P,D9,2*%
%TO.N,index_lbottom*%
X175810000Y-105000000D03*
%TD*%
D11*
%TO.P,D10,2*%
%TO.N,index_ltop*%
X173650000Y-88000000D03*
%TO.P,D10,1*%
%TO.N,D29*%
X170350000Y-88000000D03*
D12*
X168190000Y-88000000D03*
D13*
%TO.P,D10,2*%
%TO.N,index_ltop*%
X175810000Y-88000000D03*
%TD*%
D11*
%TO.P,D11,2*%
%TO.N,inner_lbottom*%
X191650000Y-105000000D03*
%TO.P,D11,1*%
%TO.N,D21*%
X188350000Y-105000000D03*
D12*
X186190000Y-105000000D03*
D13*
%TO.P,D11,2*%
%TO.N,inner_lbottom*%
X193810000Y-105000000D03*
%TD*%
D11*
%TO.P,D12,2*%
%TO.N,inner_ltop*%
X191650000Y-88000000D03*
%TO.P,D12,1*%
%TO.N,D29*%
X188350000Y-88000000D03*
D12*
X186190000Y-88000000D03*
D13*
%TO.P,D12,2*%
%TO.N,inner_ltop*%
X193810000Y-88000000D03*
%TD*%
D11*
%TO.P,D13,2*%
%TO.N,inner_rbottom*%
X242650000Y-105000000D03*
%TO.P,D13,1*%
%TO.N,D9*%
X239350000Y-105000000D03*
D12*
X237190000Y-105000000D03*
D13*
%TO.P,D13,2*%
%TO.N,inner_rbottom*%
X244810000Y-105000000D03*
%TD*%
D11*
%TO.P,D14,2*%
%TO.N,inner_rtop*%
X242650000Y-88000000D03*
%TO.P,D14,1*%
%TO.N,D2*%
X239350000Y-88000000D03*
D12*
X237190000Y-88000000D03*
D13*
%TO.P,D14,2*%
%TO.N,inner_rtop*%
X244810000Y-88000000D03*
%TD*%
D11*
%TO.P,D15,2*%
%TO.N,index_rbottom*%
X260650000Y-105000000D03*
%TO.P,D15,1*%
%TO.N,D9*%
X257350000Y-105000000D03*
D12*
X255190000Y-105000000D03*
D13*
%TO.P,D15,2*%
%TO.N,index_rbottom*%
X262810000Y-105000000D03*
%TD*%
D11*
%TO.P,D16,2*%
%TO.N,index_rtop*%
X260650000Y-88000000D03*
%TO.P,D16,1*%
%TO.N,D2*%
X257350000Y-88000000D03*
D12*
X255190000Y-88000000D03*
D13*
%TO.P,D16,2*%
%TO.N,index_rtop*%
X262810000Y-88000000D03*
%TD*%
D11*
%TO.P,D17,2*%
%TO.N,middle_rbottom*%
X278650000Y-105000000D03*
%TO.P,D17,1*%
%TO.N,D9*%
X275350000Y-105000000D03*
D12*
X273190000Y-105000000D03*
D13*
%TO.P,D17,2*%
%TO.N,middle_rbottom*%
X280810000Y-105000000D03*
%TD*%
D11*
%TO.P,D18,2*%
%TO.N,middle_rtop*%
X278650000Y-88000000D03*
%TO.P,D18,1*%
%TO.N,D2*%
X275350000Y-88000000D03*
D12*
X273190000Y-88000000D03*
D13*
%TO.P,D18,2*%
%TO.N,middle_rtop*%
X280810000Y-88000000D03*
%TD*%
D11*
%TO.P,D19,2*%
%TO.N,ring_rbottom*%
X296650000Y-105000000D03*
%TO.P,D19,1*%
%TO.N,D9*%
X293350000Y-105000000D03*
D12*
X291190000Y-105000000D03*
D13*
%TO.P,D19,2*%
%TO.N,ring_rbottom*%
X298810000Y-105000000D03*
%TD*%
D11*
%TO.P,D20,2*%
%TO.N,ring_rtop*%
X296650000Y-88000000D03*
%TO.P,D20,1*%
%TO.N,D2*%
X293350000Y-88000000D03*
D12*
X291190000Y-88000000D03*
D13*
%TO.P,D20,2*%
%TO.N,ring_rtop*%
X298810000Y-88000000D03*
%TD*%
D11*
%TO.P,D21,2*%
%TO.N,pinky_rbottom*%
X314650000Y-105000000D03*
%TO.P,D21,1*%
%TO.N,D9*%
X311350000Y-105000000D03*
D12*
X309190000Y-105000000D03*
D13*
%TO.P,D21,2*%
%TO.N,pinky_rbottom*%
X316810000Y-105000000D03*
%TD*%
D11*
%TO.P,D22,2*%
%TO.N,pinky_rtop*%
X314650000Y-88000000D03*
%TO.P,D22,1*%
%TO.N,D2*%
X311350000Y-88000000D03*
D12*
X309190000Y-88000000D03*
D13*
%TO.P,D22,2*%
%TO.N,pinky_rtop*%
X316810000Y-88000000D03*
%TD*%
D11*
%TO.P,D23,2*%
%TO.N,outer_rbottom*%
X332650000Y-105000000D03*
%TO.P,D23,1*%
%TO.N,D9*%
X329350000Y-105000000D03*
D12*
X327190000Y-105000000D03*
D13*
%TO.P,D23,2*%
%TO.N,outer_rbottom*%
X334810000Y-105000000D03*
%TD*%
D11*
%TO.P,D24,2*%
%TO.N,outer_rtop*%
X332650000Y-88000000D03*
%TO.P,D24,1*%
%TO.N,D2*%
X329350000Y-88000000D03*
D12*
X327190000Y-88000000D03*
D13*
%TO.P,D24,2*%
%TO.N,outer_rtop*%
X334810000Y-88000000D03*
%TD*%
D11*
%TO.P,D25,2*%
%TO.N,outer_lttop*%
X173650000Y-139000000D03*
%TO.P,D25,1*%
%TO.N,D1*%
X170350000Y-139000000D03*
D12*
X168190000Y-139000000D03*
D13*
%TO.P,D25,2*%
%TO.N,outer_lttop*%
X175810000Y-139000000D03*
%TD*%
D11*
%TO.P,D26,2*%
%TO.N,inner_lttop*%
X191650000Y-139000000D03*
%TO.P,D26,1*%
%TO.N,D1*%
X188350000Y-139000000D03*
D12*
X186190000Y-139000000D03*
D13*
%TO.P,D26,2*%
%TO.N,inner_lttop*%
X193810000Y-139000000D03*
%TD*%
D11*
%TO.P,D27,2*%
%TO.N,inner_rttop*%
X242650000Y-139000000D03*
%TO.P,D27,1*%
%TO.N,D1*%
X239350000Y-139000000D03*
D12*
X237190000Y-139000000D03*
D13*
%TO.P,D27,2*%
%TO.N,inner_rttop*%
X244810000Y-139000000D03*
%TD*%
D11*
%TO.P,D28,2*%
%TO.N,outer_rttop*%
X260650000Y-139000000D03*
%TO.P,D28,1*%
%TO.N,D1*%
X257350000Y-139000000D03*
D12*
X255190000Y-139000000D03*
D13*
%TO.P,D28,2*%
%TO.N,outer_rttop*%
X262810000Y-139000000D03*
%TD*%
D14*
%TO.P,MCU1,2*%
%TO.N,Dm*%
X207880000Y-73990000D03*
D15*
%TO.P,MCU1,1*%
%TO.N,RAW*%
X207880000Y-76530000D03*
D14*
%TO.P,MCU1,2*%
%TO.N,GND*%
X207880000Y-79070000D03*
%TO.P,MCU1,3*%
%TO.N,RST*%
X207880000Y-81610000D03*
%TO.P,MCU1,4*%
%TO.N,VCC*%
X207880000Y-84150000D03*
%TO.P,MCU1,5*%
%TO.N,D29*%
X207880000Y-86690000D03*
%TO.P,MCU1,6*%
%TO.N,D28*%
X207880000Y-89230000D03*
%TO.P,MCU1,7*%
%TO.N,D27*%
X207880000Y-91770000D03*
%TO.P,MCU1,8*%
%TO.N,D26*%
X207880000Y-94310000D03*
%TO.P,MCU1,9*%
%TO.N,D22*%
X207880000Y-96850000D03*
%TO.P,MCU1,10*%
%TO.N,D20*%
X207880000Y-99390000D03*
%TO.P,MCU1,11*%
%TO.N,D23*%
X207880000Y-101930000D03*
%TO.P,MCU1,12*%
%TO.N,D21*%
X207880000Y-104470000D03*
%TO.P,MCU1,13*%
%TO.N,D12*%
X220580000Y-104470000D03*
%TO.P,MCU1,14*%
%TO.N,D13*%
X218040000Y-104470000D03*
%TO.P,MCU1,15*%
%TO.N,D14*%
X215500000Y-104470000D03*
%TO.P,MCU1,16*%
%TO.N,D15*%
X212960000Y-104470000D03*
%TO.P,MCU1,17*%
%TO.N,D16*%
X210420000Y-104470000D03*
%TO.P,MCU1,18*%
%TO.N,Dp*%
X223120000Y-73990000D03*
%TO.P,MCU1,19*%
%TO.N,D0*%
X223120000Y-76530000D03*
%TO.P,MCU1,20*%
%TO.N,D1*%
X223120000Y-79070000D03*
%TO.P,MCU1,21*%
%TO.N,GND*%
X223120000Y-81610000D03*
%TO.P,MCU1,22*%
X223120000Y-84150000D03*
%TO.P,MCU1,23*%
%TO.N,D2*%
X223120000Y-86690000D03*
%TO.P,MCU1,24*%
%TO.N,D3*%
X223120000Y-89230000D03*
%TO.P,MCU1,25*%
%TO.N,D4*%
X223120000Y-91770000D03*
%TO.P,MCU1,26*%
%TO.N,D5*%
X223120000Y-94310000D03*
%TO.P,MCU1,27*%
%TO.N,D6*%
X223120000Y-96850000D03*
%TO.P,MCU1,28*%
%TO.N,D7*%
X223120000Y-99390000D03*
%TO.P,MCU1,29*%
%TO.N,D8*%
X223120000Y-101930000D03*
%TO.P,MCU1,30*%
%TO.N,D9*%
X223120000Y-104470000D03*
%TD*%
D16*
%TO.P,B1,1*%
%TO.N,GND*%
X212400000Y-89650000D03*
X218600000Y-89650000D03*
%TO.P,B1,2*%
%TO.N,RST*%
X212400000Y-93350000D03*
X218600000Y-93350000D03*
%TD*%
D17*
%TO.P,_1,1*%
%TO.N,N/C*%
X109000000Y-92000000D03*
D18*
X110629630Y-92000000D03*
X110152322Y-93152322D03*
X109000000Y-93629630D03*
X107847678Y-93152322D03*
X107370370Y-92000000D03*
X107847678Y-90847678D03*
X109000000Y-90370370D03*
X110152322Y-90847678D03*
%TD*%
D17*
%TO.P,_2,1*%
%TO.N,N/C*%
X181000000Y-92000000D03*
D18*
X182629630Y-92000000D03*
X182152322Y-93152322D03*
X181000000Y-93629630D03*
X179847678Y-93152322D03*
X179370370Y-92000000D03*
X179847678Y-90847678D03*
X181000000Y-90370370D03*
X182152322Y-90847678D03*
%TD*%
D17*
%TO.P,_3,1*%
%TO.N,N/C*%
X250000000Y-92000000D03*
D18*
X251629630Y-92000000D03*
X251152322Y-93152322D03*
X250000000Y-93629630D03*
X248847678Y-93152322D03*
X248370370Y-92000000D03*
X248847678Y-90847678D03*
X250000000Y-90370370D03*
X251152322Y-90847678D03*
%TD*%
D17*
%TO.P,_4,1*%
%TO.N,N/C*%
X322000000Y-92000000D03*
D18*
X323629630Y-92000000D03*
X323152322Y-93152322D03*
X322000000Y-93629630D03*
X320847678Y-93152322D03*
X320370370Y-92000000D03*
X320847678Y-90847678D03*
X322000000Y-90370370D03*
X323152322Y-90847678D03*
%TD*%
D17*
%TO.P,_5,1*%
%TO.N,N/C*%
X172000000Y-117000000D03*
D18*
X173629630Y-117000000D03*
X173152322Y-118152322D03*
X172000000Y-118629630D03*
X170847678Y-118152322D03*
X170370370Y-117000000D03*
X170847678Y-115847678D03*
X172000000Y-115370370D03*
X173152322Y-115847678D03*
%TD*%
D17*
%TO.P,_6,1*%
%TO.N,N/C*%
X259000000Y-117000000D03*
D18*
X260629630Y-117000000D03*
X260152322Y-118152322D03*
X259000000Y-118629630D03*
X257847678Y-118152322D03*
X257370370Y-117000000D03*
X257847678Y-115847678D03*
X259000000Y-115370370D03*
X260152322Y-115847678D03*
%TD*%
D17*
%TO.P,_7,1*%
%TO.N,N/C*%
X205500000Y-134000000D03*
D18*
X207129630Y-134000000D03*
X206652322Y-135152322D03*
X205500000Y-135629630D03*
X204347678Y-135152322D03*
X203870370Y-134000000D03*
X204347678Y-132847678D03*
X205500000Y-132370370D03*
X206652322Y-132847678D03*
%TD*%
D17*
%TO.P,_8,1*%
%TO.N,N/C*%
X225500000Y-134000000D03*
D18*
X227129630Y-134000000D03*
X226652322Y-135152322D03*
X225500000Y-135629630D03*
X224347678Y-135152322D03*
X223870370Y-134000000D03*
X224347678Y-132847678D03*
X225500000Y-132370370D03*
X226652322Y-132847678D03*
%TD*%
D19*
%TO.N,D3*%
X237725000Y-128050000D02*
X234000000Y-131775000D01*
X234000000Y-131775000D02*
X234000000Y-140500000D01*
X231500000Y-141000000D02*
X231000000Y-140500000D01*
X234000000Y-140500000D02*
X233500000Y-141000000D01*
X231000000Y-140500000D02*
X231000000Y-90000000D01*
X233500000Y-141000000D02*
X231500000Y-141000000D01*
X231000000Y-90000000D02*
X230230000Y-89230000D01*
X230230000Y-89230000D02*
X223120000Y-89230000D01*
%TO.N,D4*%
X255725000Y-128050000D02*
X252000000Y-131775000D01*
X252000000Y-140500000D02*
X251049000Y-141451000D01*
X251049000Y-141451000D02*
X231313190Y-141451000D01*
X231313190Y-141451000D02*
X230500000Y-140637810D01*
X252000000Y-131775000D02*
X252000000Y-140500000D01*
X230500000Y-92500000D02*
X229770000Y-91770000D01*
X230500000Y-140637810D02*
X230500000Y-92500000D01*
X229770000Y-91770000D02*
X223120000Y-91770000D01*
%TO.N,D5*%
X273725000Y-94275000D02*
X270273100Y-97726900D01*
X270273100Y-106813470D02*
X268000000Y-109086570D01*
X261500000Y-127000000D02*
X261500000Y-136000000D01*
X261500000Y-136000000D02*
X261000000Y-136500000D01*
X268000000Y-109086570D02*
X268000000Y-126000000D01*
X256052000Y-142000000D02*
X231224380Y-142000000D01*
X268000000Y-126000000D02*
X267500000Y-126500000D01*
X273725000Y-94050000D02*
X273725000Y-94275000D01*
X259000000Y-136500000D02*
X258500000Y-137000000D01*
X267500000Y-126500000D02*
X262000000Y-126500000D01*
X270273100Y-97726900D02*
X270273100Y-106813470D01*
X229310000Y-94310000D02*
X223120000Y-94310000D01*
X262000000Y-126500000D02*
X261500000Y-127000000D01*
X261000000Y-136500000D02*
X259000000Y-136500000D01*
X258500000Y-137000000D02*
X258500000Y-139552000D01*
X258500000Y-139552000D02*
X256052000Y-142000000D01*
X231224380Y-142000000D02*
X230000000Y-140775620D01*
X230000000Y-140775620D02*
X230000000Y-95000000D01*
X230000000Y-95000000D02*
X229310000Y-94310000D01*
%TO.N,D6*%
X268500000Y-126137810D02*
X267637810Y-127000000D01*
X288273100Y-106226900D02*
X287000000Y-107500000D01*
X267637810Y-127000000D02*
X262500000Y-127000000D01*
X259000000Y-137500000D02*
X259000000Y-139689810D01*
X262000000Y-136137810D02*
X261137810Y-137000000D01*
X291725000Y-94050000D02*
X288273100Y-97501900D01*
X287000000Y-107500000D02*
X270224380Y-107500000D01*
X262000000Y-127500000D02*
X262000000Y-136137810D01*
X270224380Y-107500000D02*
X268500000Y-109224380D01*
X288273100Y-97501900D02*
X288273100Y-106226900D01*
X259000000Y-139689810D02*
X256189810Y-142500000D01*
X262500000Y-127000000D02*
X262000000Y-127500000D01*
X268500000Y-109224380D02*
X268500000Y-126137810D01*
X229500000Y-140913430D02*
X229500000Y-97500000D01*
X261137810Y-137000000D02*
X259500000Y-137000000D01*
X259500000Y-137000000D02*
X259000000Y-137500000D01*
X256189810Y-142500000D02*
X231086570Y-142500000D01*
X231086570Y-142500000D02*
X229500000Y-140913430D01*
X229500000Y-97500000D02*
X228850000Y-96850000D01*
X228850000Y-96850000D02*
X223120000Y-96850000D01*
%TO.N,D7*%
X309725000Y-94050000D02*
X306000000Y-97775000D01*
X306000000Y-107500000D02*
X305500000Y-108000000D01*
X268000000Y-143000000D02*
X230948760Y-143000000D01*
X306000000Y-97775000D02*
X306000000Y-107500000D01*
X305500000Y-108000000D02*
X270362190Y-108000000D01*
X227890000Y-99390000D02*
X223120000Y-99390000D01*
X269000000Y-142000000D02*
X268000000Y-143000000D01*
X270362190Y-108000000D02*
X269000000Y-109362190D01*
X229000000Y-141051240D02*
X229000000Y-100500000D01*
X229000000Y-100500000D02*
X227890000Y-99390000D01*
X269000000Y-109362190D02*
X269000000Y-142000000D01*
X230948760Y-143000000D02*
X229000000Y-141051240D01*
%TO.N,D8*%
X304000000Y-108500000D02*
X270500000Y-108500000D01*
X324000000Y-108000000D02*
X323000000Y-109000000D01*
X324000000Y-97775000D02*
X324000000Y-108000000D01*
X304500000Y-109000000D02*
X304000000Y-108500000D01*
X228500000Y-103000000D02*
X227430000Y-101930000D01*
X269500000Y-109500000D02*
X269500000Y-142137810D01*
X323000000Y-109000000D02*
X304500000Y-109000000D01*
X270500000Y-108500000D02*
X269500000Y-109500000D01*
X269500000Y-142137810D02*
X268137810Y-143500000D01*
X268137810Y-143500000D02*
X230810950Y-143500000D01*
X327725000Y-94050000D02*
X324000000Y-97775000D01*
X230810950Y-143500000D02*
X228500000Y-141189050D01*
X228500000Y-141189050D02*
X228500000Y-103000000D01*
X227430000Y-101930000D02*
X223120000Y-101930000D01*
%TO.N,D28*%
X186725000Y-128050000D02*
X183273100Y-131501900D01*
X183273100Y-131501900D02*
X183273100Y-139773100D01*
X183273100Y-139773100D02*
X184500000Y-141000000D01*
X184500000Y-141000000D02*
X199000000Y-141000000D01*
X199000000Y-141000000D02*
X200000000Y-140000000D01*
X200000000Y-140000000D02*
X200000000Y-90000000D01*
X200000000Y-90000000D02*
X200770000Y-89230000D01*
X200770000Y-89230000D02*
X207880000Y-89230000D01*
%TO.N,D27*%
X168725000Y-128050000D02*
X165000000Y-131775000D01*
X165000000Y-131775000D02*
X165000000Y-140500000D01*
X166000000Y-141500000D02*
X199137810Y-141500000D01*
X165000000Y-140500000D02*
X166000000Y-141500000D01*
X200500000Y-92500000D02*
X201230000Y-91770000D01*
X199137810Y-141500000D02*
X200500000Y-140137810D01*
X201230000Y-91770000D02*
X207880000Y-91770000D01*
X200500000Y-140137810D02*
X200500000Y-92500000D01*
%TO.N,D26*%
X147000000Y-97775000D02*
X147000000Y-106500000D01*
X147500000Y-107000000D02*
X163137810Y-107000000D01*
X201000000Y-95000000D02*
X201690000Y-94310000D01*
X163137810Y-107000000D02*
X164549000Y-108411190D01*
X147000000Y-106500000D02*
X147500000Y-107000000D01*
X201000000Y-140275620D02*
X201000000Y-95000000D01*
X164549000Y-108411190D02*
X164549000Y-140686810D01*
X164549000Y-140686810D02*
X165862190Y-142000000D01*
X199275620Y-142000000D02*
X201000000Y-140275620D01*
X165862190Y-142000000D02*
X199275620Y-142000000D01*
X150725000Y-94050000D02*
X147000000Y-97775000D01*
X201690000Y-94310000D02*
X207880000Y-94310000D01*
%TO.N,D22*%
X132725000Y-94050000D02*
X129273100Y-97501900D01*
X202150000Y-96850000D02*
X207880000Y-96850000D01*
X129273100Y-97501900D02*
X129273100Y-106773100D01*
X129273100Y-106773100D02*
X130000000Y-107500000D01*
X130000000Y-107500000D02*
X163000000Y-107500000D01*
X199413430Y-142500000D02*
X201500000Y-140413430D01*
X163000000Y-107500000D02*
X164098000Y-108598000D01*
X164098000Y-140873620D02*
X165724380Y-142500000D01*
X164098000Y-108598000D02*
X164098000Y-140873620D01*
X165724380Y-142500000D02*
X199413430Y-142500000D01*
X201500000Y-97500000D02*
X202150000Y-96850000D01*
X201500000Y-140413430D02*
X201500000Y-97500000D01*
%TO.N,D20*%
X114725000Y-94050000D02*
X111273100Y-97501900D01*
X111273100Y-97501900D02*
X111273100Y-107273100D01*
X163647000Y-141060430D02*
X165586570Y-143000000D01*
X162862190Y-108000000D02*
X163647000Y-108784810D01*
X111273100Y-107273100D02*
X112000000Y-108000000D01*
X163647000Y-108784810D02*
X163647000Y-141060430D01*
X202000000Y-140551240D02*
X202000000Y-100000000D01*
X165586570Y-143000000D02*
X199551240Y-143000000D01*
X202610000Y-99390000D02*
X207880000Y-99390000D01*
X202000000Y-100000000D02*
X202610000Y-99390000D01*
X199551240Y-143000000D02*
X202000000Y-140551240D01*
X112000000Y-108000000D02*
X162862190Y-108000000D01*
%TO.N,D23*%
X93000000Y-108000000D02*
X93500000Y-108500000D01*
X96725000Y-94050000D02*
X93000000Y-97775000D01*
X162724380Y-108500000D02*
X163196000Y-108971620D01*
X163196000Y-108971620D02*
X163196000Y-141247240D01*
X163196000Y-141247240D02*
X165448760Y-143500000D01*
X165448760Y-143500000D02*
X199689050Y-143500000D01*
X202500000Y-102500000D02*
X203070000Y-101930000D01*
X93500000Y-108500000D02*
X162724380Y-108500000D01*
X93000000Y-97775000D02*
X93000000Y-108000000D01*
X199689050Y-143500000D02*
X202500000Y-140689050D01*
X202500000Y-140689050D02*
X202500000Y-102500000D01*
X203070000Y-101930000D02*
X207880000Y-101930000D01*
%TO.N,D3*%
X234273100Y-90598100D02*
X234273100Y-89500000D01*
%TO.N,D8*%
X327725000Y-94050000D02*
X324273100Y-90598100D01*
X324273100Y-90598100D02*
X324273100Y-80501900D01*
X324273100Y-80501900D02*
X327725000Y-77050000D01*
%TO.N,D7*%
X309725000Y-94050000D02*
X306273100Y-90598100D01*
X306273100Y-90598100D02*
X306273100Y-80501900D01*
X306273100Y-80501900D02*
X309725000Y-77050000D01*
%TO.N,D6*%
X291725000Y-94050000D02*
X288273100Y-90598100D01*
X288273100Y-90598100D02*
X288273100Y-80501900D01*
X288273100Y-80501900D02*
X291725000Y-77050000D01*
%TO.N,D5*%
X273725000Y-94050000D02*
X270273100Y-90598100D01*
X270273100Y-80501900D02*
X273725000Y-77050000D01*
X270273100Y-90598100D02*
X270273100Y-80501900D01*
%TO.N,D4*%
X255725000Y-94050000D02*
X252273100Y-90598100D01*
X252273100Y-80501900D02*
X255725000Y-77050000D01*
X252273100Y-90598100D02*
X252273100Y-80501900D01*
%TO.N,D3*%
X237725000Y-94050000D02*
X234273100Y-90598100D01*
X234273100Y-89500000D02*
X234273100Y-80501900D01*
X234273100Y-80501900D02*
X237725000Y-77050000D01*
%TO.N,D4*%
X255725000Y-128050000D02*
X252273100Y-124598100D01*
X252273100Y-97501900D02*
X255725000Y-94050000D01*
X252273100Y-124598100D02*
X252273100Y-97501900D01*
%TO.N,D3*%
X237725000Y-128050000D02*
X234273100Y-124598100D01*
X234273100Y-124598100D02*
X234273100Y-97501900D01*
X234273100Y-97501900D02*
X237725000Y-94050000D01*
%TO.N,D23*%
X96725000Y-94050000D02*
X93273100Y-90598100D01*
X93273100Y-80501900D02*
X96725000Y-77050000D01*
X93273100Y-90598100D02*
X93273100Y-80501900D01*
%TO.N,D20*%
X114725000Y-94050000D02*
X111273100Y-90598100D01*
X111273100Y-80501900D02*
X114725000Y-77050000D01*
X111273100Y-90598100D02*
X111273100Y-80501900D01*
%TO.N,D22*%
X132725000Y-94050000D02*
X129273100Y-90598100D01*
X129273100Y-90598100D02*
X129273100Y-80501900D01*
X129273100Y-80501900D02*
X132725000Y-77050000D01*
%TO.N,D26*%
X150725000Y-94050000D02*
X147273100Y-90598100D01*
X147273100Y-90598100D02*
X147273100Y-80501900D01*
X147273100Y-80501900D02*
X150725000Y-77050000D01*
%TO.N,D27*%
X168725000Y-94050000D02*
X165273100Y-90598100D01*
X165273100Y-80501900D02*
X168725000Y-77050000D01*
X165273100Y-90598100D02*
X165273100Y-80501900D01*
X168725000Y-128050000D02*
X165273100Y-124598100D01*
X165273100Y-124598100D02*
X165273100Y-97501900D01*
X165273100Y-97501900D02*
X168725000Y-94050000D01*
%TO.N,D28*%
X186725000Y-94050000D02*
X183273100Y-90598100D01*
X183273100Y-90598100D02*
X183273100Y-80501900D01*
X183273100Y-80501900D02*
X186725000Y-77050000D01*
X186725000Y-128050000D02*
X183273100Y-124598100D01*
X183273100Y-124598100D02*
X183273100Y-97501900D01*
X183273100Y-97501900D02*
X186725000Y-94050000D01*
%TO.N,RST*%
X212400000Y-93350000D02*
X209082300Y-90032300D01*
X209082300Y-90032300D02*
X209082300Y-82812300D01*
X209082300Y-82812300D02*
X207880000Y-81610000D01*
%TO.N,GND*%
X207880000Y-79070000D02*
X220580000Y-79070000D01*
X220580000Y-79070000D02*
X223120000Y-81610000D01*
X223120000Y-84150000D02*
X223120000Y-81610000D01*
X218600000Y-89650000D02*
X218600000Y-88670000D01*
X218600000Y-88670000D02*
X223120000Y-84150000D01*
%TO.N,RST*%
X212400000Y-93350000D02*
X218600000Y-93350000D01*
%TO.N,GND*%
X212400000Y-89650000D02*
X218600000Y-89650000D01*
%TO.N,inner_rbottom*%
X244810000Y-105000000D02*
X249275000Y-100535000D01*
X249275000Y-100535000D02*
X249275000Y-96250000D01*
%TO.N,index_rbottom*%
X262810000Y-105000000D02*
X267275000Y-100535000D01*
X267275000Y-100535000D02*
X267275000Y-96250000D01*
%TO.N,middle_rbottom*%
X280810000Y-105000000D02*
X285275000Y-100535000D01*
X285275000Y-100535000D02*
X285275000Y-96250000D01*
%TO.N,ring_rbottom*%
X298810000Y-105000000D02*
X303275000Y-100535000D01*
X303275000Y-100535000D02*
X303275000Y-96250000D01*
%TO.N,pinky_rbottom*%
X316810000Y-105000000D02*
X321275000Y-100535000D01*
X321275000Y-100535000D02*
X321275000Y-96250000D01*
%TO.N,outer_rbottom*%
X334810000Y-105000000D02*
X339275000Y-100535000D01*
X339275000Y-100535000D02*
X339275000Y-96250000D01*
%TO.N,outer_rtop*%
X334810000Y-88000000D02*
X339275000Y-83535000D01*
X339275000Y-83535000D02*
X339275000Y-79250000D01*
%TO.N,pinky_rtop*%
X316810000Y-88000000D02*
X321275000Y-83535000D01*
X321275000Y-83535000D02*
X321275000Y-79250000D01*
%TO.N,ring_rtop*%
X298810000Y-88000000D02*
X303275000Y-83535000D01*
X303275000Y-83535000D02*
X303275000Y-79250000D01*
%TO.N,middle_rtop*%
X280810000Y-88000000D02*
X285275000Y-83535000D01*
X285275000Y-83535000D02*
X285275000Y-79250000D01*
%TO.N,index_rtop*%
X262810000Y-88000000D02*
X267275000Y-83535000D01*
X267275000Y-83535000D02*
X267275000Y-79250000D01*
%TO.N,inner_rtop*%
X244810000Y-88000000D02*
X249275000Y-83535000D01*
X249275000Y-83535000D02*
X249275000Y-79250000D01*
%TO.N,D9*%
X239350000Y-105000000D02*
X237190000Y-105000000D01*
%TO.N,inner_rbottom*%
X244810000Y-105000000D02*
X242650000Y-105000000D01*
%TO.N,D9*%
X257350000Y-105000000D02*
X255190000Y-105000000D01*
%TO.N,index_rbottom*%
X262810000Y-105000000D02*
X260650000Y-105000000D01*
%TO.N,D9*%
X275350000Y-105000000D02*
X273190000Y-105000000D01*
%TO.N,middle_rbottom*%
X280810000Y-105000000D02*
X278650000Y-105000000D01*
%TO.N,D9*%
X293350000Y-105000000D02*
X291190000Y-105000000D01*
%TO.N,ring_rbottom*%
X298810000Y-105000000D02*
X296650000Y-105000000D01*
%TO.N,D9*%
X311350000Y-105000000D02*
X309190000Y-105000000D01*
%TO.N,pinky_rbottom*%
X316810000Y-105000000D02*
X314650000Y-105000000D01*
%TO.N,D9*%
X329350000Y-105000000D02*
X327190000Y-105000000D01*
%TO.N,outer_rbottom*%
X334810000Y-105000000D02*
X332650000Y-105000000D01*
%TO.N,outer_rtop*%
X332650000Y-88000000D02*
X334810000Y-88000000D01*
%TO.N,D2*%
X327190000Y-88000000D02*
X329350000Y-88000000D01*
%TO.N,pinky_rtop*%
X314650000Y-88000000D02*
X316810000Y-88000000D01*
%TO.N,D2*%
X309190000Y-88000000D02*
X311350000Y-88000000D01*
%TO.N,ring_rtop*%
X296650000Y-88000000D02*
X298810000Y-88000000D01*
%TO.N,D2*%
X291190000Y-88000000D02*
X293350000Y-88000000D01*
%TO.N,middle_rtop*%
X278650000Y-88000000D02*
X280810000Y-88000000D01*
%TO.N,D2*%
X273190000Y-88000000D02*
X275350000Y-88000000D01*
%TO.N,index_rtop*%
X260650000Y-88000000D02*
X262810000Y-88000000D01*
%TO.N,D2*%
X255190000Y-88000000D02*
X257350000Y-88000000D01*
%TO.N,inner_rtop*%
X242650000Y-88000000D02*
X244810000Y-88000000D01*
%TO.N,D2*%
X237190000Y-88000000D02*
X239350000Y-88000000D01*
%TO.N,outer_rttop*%
X262810000Y-139000000D02*
X267275000Y-134535000D01*
X267275000Y-134535000D02*
X267275000Y-130250000D01*
%TO.N,inner_rttop*%
X244810000Y-139000000D02*
X249275000Y-134535000D01*
X249275000Y-134535000D02*
X249275000Y-130250000D01*
%TO.N,outer_rttop*%
X260650000Y-139000000D02*
X262810000Y-139000000D01*
%TO.N,D1*%
X255190000Y-139000000D02*
X257350000Y-139000000D01*
%TO.N,inner_rttop*%
X242650000Y-139000000D02*
X244810000Y-139000000D01*
%TO.N,D1*%
X237190000Y-139000000D02*
X239350000Y-139000000D01*
%TO.N,inner_lttop*%
X193810000Y-139000000D02*
X198275000Y-134535000D01*
X198275000Y-134535000D02*
X198275000Y-130250000D01*
%TO.N,outer_lttop*%
X175810000Y-139000000D02*
X180275000Y-134535000D01*
X180275000Y-134535000D02*
X180275000Y-130250000D01*
%TO.N,inner_lttop*%
X191650000Y-139000000D02*
X193810000Y-139000000D01*
%TO.N,D1*%
X186190000Y-139000000D02*
X188350000Y-139000000D01*
%TO.N,outer_lttop*%
X173650000Y-139000000D02*
X175810000Y-139000000D01*
%TO.N,D1*%
X168190000Y-139000000D02*
X170350000Y-139000000D01*
%TO.N,outer_lbottom*%
X103810000Y-105000000D02*
X108275000Y-100535000D01*
X108275000Y-100535000D02*
X108275000Y-96250000D01*
%TO.N,pinky_lbottom*%
X121810000Y-105000000D02*
X126275000Y-100535000D01*
X126275000Y-100535000D02*
X126275000Y-96250000D01*
%TO.N,ring_lbottom*%
X139810000Y-105000000D02*
X144275000Y-100535000D01*
X144275000Y-100535000D02*
X144275000Y-96250000D01*
%TO.N,middle_lbottom*%
X157810000Y-105000000D02*
X162275000Y-100535000D01*
X162275000Y-100535000D02*
X162275000Y-96250000D01*
%TO.N,index_lbottom*%
X175810000Y-105000000D02*
X180275000Y-100535000D01*
X180275000Y-100535000D02*
X180275000Y-96250000D01*
%TO.N,inner_lbottom*%
X193810000Y-105000000D02*
X198275000Y-100535000D01*
X198275000Y-100535000D02*
X198275000Y-96250000D01*
%TO.N,inner_ltop*%
X193810000Y-88000000D02*
X198275000Y-83535000D01*
X198275000Y-83535000D02*
X198275000Y-79250000D01*
%TO.N,index_ltop*%
X175810000Y-88000000D02*
X180275000Y-83535000D01*
X180275000Y-83535000D02*
X180275000Y-79250000D01*
%TO.N,middle_ltop*%
X157810000Y-88000000D02*
X162275000Y-83535000D01*
X162275000Y-83535000D02*
X162275000Y-79250000D01*
%TO.N,ring_ltop*%
X139810000Y-88000000D02*
X144275000Y-83535000D01*
X144275000Y-83535000D02*
X144275000Y-79250000D01*
%TO.N,pinky_ltop*%
X121810000Y-88000000D02*
X126275000Y-83535000D01*
X126275000Y-83535000D02*
X126275000Y-79250000D01*
%TO.N,outer_ltop*%
X103810000Y-88000000D02*
X108275000Y-83535000D01*
X108275000Y-83535000D02*
X108275000Y-79250000D01*
%TO.N,D29*%
X98350000Y-88000000D02*
X96190000Y-88000000D01*
%TO.N,outer_ltop*%
X103810000Y-88000000D02*
X101650000Y-88000000D01*
%TO.N,D29*%
X116350000Y-88000000D02*
X114190000Y-88000000D01*
%TO.N,pinky_ltop*%
X121810000Y-88000000D02*
X119650000Y-88000000D01*
%TO.N,D29*%
X134350000Y-88000000D02*
X132190000Y-88000000D01*
%TO.N,ring_ltop*%
X139810000Y-88000000D02*
X137650000Y-88000000D01*
%TO.N,D29*%
X152350000Y-88000000D02*
X150190000Y-88000000D01*
%TO.N,middle_ltop*%
X157810000Y-88000000D02*
X155650000Y-88000000D01*
%TO.N,D29*%
X170350000Y-88000000D02*
X168190000Y-88000000D01*
%TO.N,index_ltop*%
X175810000Y-88000000D02*
X173650000Y-88000000D01*
%TO.N,D29*%
X188350000Y-88000000D02*
X186190000Y-88000000D01*
%TO.N,inner_ltop*%
X193810000Y-88000000D02*
X191650000Y-88000000D01*
%TO.N,inner_lbottom*%
X191650000Y-105000000D02*
X193810000Y-105000000D01*
%TO.N,D21*%
X186190000Y-105000000D02*
X188350000Y-105000000D01*
%TO.N,index_lbottom*%
X173650000Y-105000000D02*
X175810000Y-105000000D01*
%TO.N,D21*%
X168190000Y-105000000D02*
X170350000Y-105000000D01*
%TO.N,middle_lbottom*%
X155650000Y-105000000D02*
X157810000Y-105000000D01*
%TO.N,D21*%
X150190000Y-105000000D02*
X152350000Y-105000000D01*
%TO.N,ring_lbottom*%
X137650000Y-105000000D02*
X139810000Y-105000000D01*
%TO.N,D21*%
X132190000Y-105000000D02*
X134350000Y-105000000D01*
%TO.N,pinky_lbottom*%
X119650000Y-105000000D02*
X121810000Y-105000000D01*
%TO.N,D21*%
X114190000Y-105000000D02*
X116350000Y-105000000D01*
%TO.N,outer_lbottom*%
X101650000Y-105000000D02*
X103810000Y-105000000D01*
%TO.N,D21*%
X96190000Y-105000000D02*
X98350000Y-105000000D01*
%TD*%
M02*
