M48
; DRILL file {KiCad 9.0.0} date 2025-03-17T14:32:28+0100
; FORMAT={-:-/ absolute / metric / decimal}
; #@! TF.CreationDate,2025-03-17T14:32:28+01:00
; #@! TF.GenerationSoftware,Kicad,Pcbnew,9.0.0
; #@! TF.FileFunction,Plated,1,2,PTH
FMAT,2
METRIC
; #@! TA.AperFunction,Plated,PTH,ComponentDrill
T1C0.400
; #@! TA.AperFunction,Plated,PTH,ComponentDrill
T2C0.991
; #@! TA.AperFunction,Plated,PTH,ComponentDrill
T3C1.092
; #@! TA.AperFunction,Plated,PTH,ComponentDrill
T4C2.200
%
G90
G05
T1
X107.37Y-92.0
X107.848Y-90.848
X107.848Y-93.152
X109.0Y-90.37
X109.0Y-93.63
X110.152Y-90.848
X110.152Y-93.152
X110.63Y-92.0
X170.37Y-117.0
X170.848Y-115.848
X170.848Y-118.152
X172.0Y-115.37
X172.0Y-118.63
X173.152Y-115.848
X173.152Y-118.152
X173.63Y-117.0
X179.37Y-92.0
X179.848Y-90.848
X179.848Y-93.152
X181.0Y-90.37
X181.0Y-93.63
X182.152Y-90.848
X182.152Y-93.152
X182.63Y-92.0
X203.87Y-134.0
X204.348Y-132.848
X204.348Y-135.152
X205.5Y-132.37
X205.5Y-135.63
X206.652Y-132.848
X206.652Y-135.152
X207.13Y-134.0
X223.87Y-134.0
X224.348Y-132.848
X224.348Y-135.152
X225.5Y-132.37
X225.5Y-135.63
X226.652Y-132.848
X226.652Y-135.152
X227.13Y-134.0
X248.37Y-92.0
X248.848Y-90.848
X248.848Y-93.152
X250.0Y-90.37
X250.0Y-93.63
X251.152Y-90.848
X251.152Y-93.152
X251.63Y-92.0
X257.37Y-117.0
X257.848Y-115.848
X257.848Y-118.152
X259.0Y-115.37
X259.0Y-118.63
X260.152Y-115.848
X260.152Y-118.152
X260.63Y-117.0
X320.37Y-92.0
X320.848Y-90.848
X320.848Y-93.152
X322.0Y-90.37
X322.0Y-93.63
X323.152Y-90.848
X323.152Y-93.152
X323.63Y-92.0
T2
X96.19Y-88.0
X96.19Y-105.0
X103.81Y-88.0
X103.81Y-105.0
X114.19Y-88.0
X114.19Y-105.0
X121.81Y-88.0
X121.81Y-105.0
X132.19Y-88.0
X132.19Y-105.0
X139.81Y-88.0
X139.81Y-105.0
X150.19Y-88.0
X150.19Y-105.0
X157.81Y-88.0
X157.81Y-105.0
X168.19Y-88.0
X168.19Y-105.0
X168.19Y-139.0
X175.81Y-88.0
X175.81Y-105.0
X175.81Y-139.0
X186.19Y-88.0
X186.19Y-105.0
X186.19Y-139.0
X193.81Y-88.0
X193.81Y-105.0
X193.81Y-139.0
X237.19Y-88.0
X237.19Y-105.0
X237.19Y-139.0
X244.81Y-88.0
X244.81Y-105.0
X244.81Y-139.0
X255.19Y-88.0
X255.19Y-105.0
X255.19Y-139.0
X262.81Y-88.0
X262.81Y-105.0
X262.81Y-139.0
X273.19Y-88.0
X273.19Y-105.0
X280.81Y-88.0
X280.81Y-105.0
X291.19Y-88.0
X291.19Y-105.0
X298.81Y-88.0
X298.81Y-105.0
X309.19Y-88.0
X309.19Y-105.0
X316.81Y-88.0
X316.81Y-105.0
X327.19Y-88.0
X327.19Y-105.0
X334.81Y-88.0
X334.81Y-105.0
T3
X207.88Y-73.99
X207.88Y-76.53
X207.88Y-79.07
X207.88Y-81.61
X207.88Y-84.15
X207.88Y-86.69
X207.88Y-89.23
X207.88Y-91.77
X207.88Y-94.31
X207.88Y-96.85
X207.88Y-99.39
X207.88Y-101.93
X207.88Y-104.47
X210.42Y-104.47
X212.96Y-104.47
X215.5Y-104.47
X218.04Y-104.47
X220.58Y-104.47
X223.12Y-73.99
X223.12Y-76.53
X223.12Y-79.07
X223.12Y-81.61
X223.12Y-84.15
X223.12Y-86.69
X223.12Y-89.23
X223.12Y-91.77
X223.12Y-94.31
X223.12Y-96.85
X223.12Y-99.39
X223.12Y-101.93
X223.12Y-104.47
T4
X109.0Y-92.0
X172.0Y-117.0
X181.0Y-92.0
X205.5Y-134.0
X225.5Y-134.0
X250.0Y-92.0
X259.0Y-117.0
X322.0Y-92.0
M30
