%TF.GenerationSoftware,KiCad,Pcbnew,9.0.0*%
%TF.CreationDate,2025-03-14T12:58:10+01:00*%
%TF.ProjectId,pcb,7063622e-6b69-4636-9164-5f7063625858,v1.0.0*%
%TF.SameCoordinates,Original*%
%TF.FileFunction,Copper,L1,Top*%
%TF.FilePolarity,Positive*%
%FSLAX46Y46*%
G04 Gerber Fmt 4.6, Leading zero omitted, Abs format (unit mm)*
G04 Created by KiCad (PCBNEW 9.0.0) date 2025-03-14 12:58:10*
%MOMM*%
%LPD*%
G01*
G04 APERTURE LIST*
%TA.AperFunction,SMDPad,CuDef*%
%ADD10R,0.900000X1.200000*%
%TD*%
%TA.AperFunction,ComponentPad*%
%ADD11R,1.778000X1.778000*%
%TD*%
%TA.AperFunction,ComponentPad*%
%ADD12C,1.905000*%
%TD*%
%TA.AperFunction,ComponentPad*%
%ADD13C,1.752600*%
%TD*%
%TA.AperFunction,ComponentPad*%
%ADD14R,1.752600X1.752600*%
%TD*%
%TA.AperFunction,ComponentPad*%
%ADD15C,4.400000*%
%TD*%
%TA.AperFunction,ComponentPad*%
%ADD16C,0.700000*%
%TD*%
%TA.AperFunction,Conductor*%
%ADD17C,0.250000*%
%TD*%
G04 APERTURE END LIST*
D10*
%TO.P,D1,1*%
%TO.N,D23*%
X98350000Y-105000000D03*
%TO.P,D1,2*%
%TO.N,pinky_lbottom*%
X101650000Y-105000000D03*
D11*
%TO.P,D1,1*%
%TO.N,D23*%
X96190000Y-105000000D03*
D12*
%TO.P,D1,2*%
%TO.N,pinky_lbottom*%
X103810000Y-105000000D03*
%TD*%
D10*
%TO.P,D2,1*%
%TO.N,D29*%
X98350000Y-88000000D03*
%TO.P,D2,2*%
%TO.N,pinky_ltop*%
X101650000Y-88000000D03*
D11*
%TO.P,D2,1*%
%TO.N,D29*%
X96190000Y-88000000D03*
D12*
%TO.P,D2,2*%
%TO.N,pinky_ltop*%
X103810000Y-88000000D03*
%TD*%
D10*
%TO.P,D3,1*%
%TO.N,D23*%
X116350000Y-105000000D03*
%TO.P,D3,2*%
%TO.N,ring_lbottom*%
X119650000Y-105000000D03*
D11*
%TO.P,D3,1*%
%TO.N,D23*%
X114190000Y-105000000D03*
D12*
%TO.P,D3,2*%
%TO.N,ring_lbottom*%
X121810000Y-105000000D03*
%TD*%
D10*
%TO.P,D4,1*%
%TO.N,D29*%
X116350000Y-88000000D03*
%TO.P,D4,2*%
%TO.N,ring_ltop*%
X119650000Y-88000000D03*
D11*
%TO.P,D4,1*%
%TO.N,D29*%
X114190000Y-88000000D03*
D12*
%TO.P,D4,2*%
%TO.N,ring_ltop*%
X121810000Y-88000000D03*
%TD*%
D10*
%TO.P,D5,1*%
%TO.N,D23*%
X134350000Y-105000000D03*
%TO.P,D5,2*%
%TO.N,middle_lbottom*%
X137650000Y-105000000D03*
D11*
%TO.P,D5,1*%
%TO.N,D23*%
X132190000Y-105000000D03*
D12*
%TO.P,D5,2*%
%TO.N,middle_lbottom*%
X139810000Y-105000000D03*
%TD*%
D10*
%TO.P,D6,1*%
%TO.N,D29*%
X134350000Y-88000000D03*
%TO.P,D6,2*%
%TO.N,middle_ltop*%
X137650000Y-88000000D03*
D11*
%TO.P,D6,1*%
%TO.N,D29*%
X132190000Y-88000000D03*
D12*
%TO.P,D6,2*%
%TO.N,middle_ltop*%
X139810000Y-88000000D03*
%TD*%
D10*
%TO.P,D7,1*%
%TO.N,D23*%
X152350000Y-105000000D03*
%TO.P,D7,2*%
%TO.N,index_lbottom*%
X155650000Y-105000000D03*
D11*
%TO.P,D7,1*%
%TO.N,D23*%
X150190000Y-105000000D03*
D12*
%TO.P,D7,2*%
%TO.N,index_lbottom*%
X157810000Y-105000000D03*
%TD*%
D10*
%TO.P,D8,1*%
%TO.N,D29*%
X152350000Y-88000000D03*
%TO.P,D8,2*%
%TO.N,index_ltop*%
X155650000Y-88000000D03*
D11*
%TO.P,D8,1*%
%TO.N,D29*%
X150190000Y-88000000D03*
D12*
%TO.P,D8,2*%
%TO.N,index_ltop*%
X157810000Y-88000000D03*
%TD*%
D10*
%TO.P,D9,1*%
%TO.N,D23*%
X170350000Y-105000000D03*
%TO.P,D9,2*%
%TO.N,inner_lbottom*%
X173650000Y-105000000D03*
D11*
%TO.P,D9,1*%
%TO.N,D23*%
X168190000Y-105000000D03*
D12*
%TO.P,D9,2*%
%TO.N,inner_lbottom*%
X175810000Y-105000000D03*
%TD*%
D10*
%TO.P,D10,1*%
%TO.N,D29*%
X170350000Y-88000000D03*
%TO.P,D10,2*%
%TO.N,inner_ltop*%
X173650000Y-88000000D03*
D11*
%TO.P,D10,1*%
%TO.N,D29*%
X168190000Y-88000000D03*
D12*
%TO.P,D10,2*%
%TO.N,inner_ltop*%
X175810000Y-88000000D03*
%TD*%
D10*
%TO.P,D11,1*%
%TO.N,D9*%
X221350000Y-105000000D03*
%TO.P,D11,2*%
%TO.N,inner_rbottom*%
X224650000Y-105000000D03*
D11*
%TO.P,D11,1*%
%TO.N,D9*%
X219190000Y-105000000D03*
D12*
%TO.P,D11,2*%
%TO.N,inner_rbottom*%
X226810000Y-105000000D03*
%TD*%
D10*
%TO.P,D12,1*%
%TO.N,D2*%
X221350000Y-88000000D03*
%TO.P,D12,2*%
%TO.N,inner_rtop*%
X224650000Y-88000000D03*
D11*
%TO.P,D12,1*%
%TO.N,D2*%
X219190000Y-88000000D03*
D12*
%TO.P,D12,2*%
%TO.N,inner_rtop*%
X226810000Y-88000000D03*
%TD*%
D10*
%TO.P,D13,1*%
%TO.N,D9*%
X239350000Y-105000000D03*
%TO.P,D13,2*%
%TO.N,index_rbottom*%
X242650000Y-105000000D03*
D11*
%TO.P,D13,1*%
%TO.N,D9*%
X237190000Y-105000000D03*
D12*
%TO.P,D13,2*%
%TO.N,index_rbottom*%
X244810000Y-105000000D03*
%TD*%
D10*
%TO.P,D14,1*%
%TO.N,D2*%
X239350000Y-88000000D03*
%TO.P,D14,2*%
%TO.N,index_rtop*%
X242650000Y-88000000D03*
D11*
%TO.P,D14,1*%
%TO.N,D2*%
X237190000Y-88000000D03*
D12*
%TO.P,D14,2*%
%TO.N,index_rtop*%
X244810000Y-88000000D03*
%TD*%
D10*
%TO.P,D15,1*%
%TO.N,D9*%
X257350000Y-105000000D03*
%TO.P,D15,2*%
%TO.N,middle_rbottom*%
X260650000Y-105000000D03*
D11*
%TO.P,D15,1*%
%TO.N,D9*%
X255190000Y-105000000D03*
D12*
%TO.P,D15,2*%
%TO.N,middle_rbottom*%
X262810000Y-105000000D03*
%TD*%
D10*
%TO.P,D16,1*%
%TO.N,D2*%
X257350000Y-88000000D03*
%TO.P,D16,2*%
%TO.N,middle_rtop*%
X260650000Y-88000000D03*
D11*
%TO.P,D16,1*%
%TO.N,D2*%
X255190000Y-88000000D03*
D12*
%TO.P,D16,2*%
%TO.N,middle_rtop*%
X262810000Y-88000000D03*
%TD*%
D10*
%TO.P,D17,1*%
%TO.N,D9*%
X275350000Y-105000000D03*
%TO.P,D17,2*%
%TO.N,ring_rbottom*%
X278650000Y-105000000D03*
D11*
%TO.P,D17,1*%
%TO.N,D9*%
X273190000Y-105000000D03*
D12*
%TO.P,D17,2*%
%TO.N,ring_rbottom*%
X280810000Y-105000000D03*
%TD*%
D10*
%TO.P,D18,1*%
%TO.N,D2*%
X275350000Y-88000000D03*
%TO.P,D18,2*%
%TO.N,ring_rtop*%
X278650000Y-88000000D03*
D11*
%TO.P,D18,1*%
%TO.N,D2*%
X273190000Y-88000000D03*
D12*
%TO.P,D18,2*%
%TO.N,ring_rtop*%
X280810000Y-88000000D03*
%TD*%
D10*
%TO.P,D19,1*%
%TO.N,D9*%
X293350000Y-105000000D03*
%TO.P,D19,2*%
%TO.N,pinky_rbottom*%
X296650000Y-105000000D03*
D11*
%TO.P,D19,1*%
%TO.N,D9*%
X291190000Y-105000000D03*
D12*
%TO.P,D19,2*%
%TO.N,pinky_rbottom*%
X298810000Y-105000000D03*
%TD*%
D10*
%TO.P,D20,1*%
%TO.N,D2*%
X293350000Y-88000000D03*
%TO.P,D20,2*%
%TO.N,pinky_rtop*%
X296650000Y-88000000D03*
D11*
%TO.P,D20,1*%
%TO.N,D2*%
X291190000Y-88000000D03*
D12*
%TO.P,D20,2*%
%TO.N,pinky_rtop*%
X298810000Y-88000000D03*
%TD*%
D10*
%TO.P,D21,1*%
%TO.N,D9*%
X311350000Y-105000000D03*
%TO.P,D21,2*%
%TO.N,outer_rbottom*%
X314650000Y-105000000D03*
D11*
%TO.P,D21,1*%
%TO.N,D9*%
X309190000Y-105000000D03*
D12*
%TO.P,D21,2*%
%TO.N,outer_rbottom*%
X316810000Y-105000000D03*
%TD*%
D10*
%TO.P,D22,1*%
%TO.N,D2*%
X311350000Y-88000000D03*
%TO.P,D22,2*%
%TO.N,outer_rtop*%
X314650000Y-88000000D03*
D11*
%TO.P,D22,1*%
%TO.N,D2*%
X309190000Y-88000000D03*
D12*
%TO.P,D22,2*%
%TO.N,outer_rtop*%
X316810000Y-88000000D03*
%TD*%
D10*
%TO.P,D23,1*%
%TO.N,D21*%
X152350000Y-139000000D03*
%TO.P,D23,2*%
%TO.N,outer_lttop*%
X155650000Y-139000000D03*
D11*
%TO.P,D23,1*%
%TO.N,D21*%
X150190000Y-139000000D03*
D12*
%TO.P,D23,2*%
%TO.N,outer_lttop*%
X157810000Y-139000000D03*
%TD*%
D10*
%TO.P,D24,1*%
%TO.N,D21*%
X170350000Y-139000000D03*
%TO.P,D24,2*%
%TO.N,inner_lttop*%
X173650000Y-139000000D03*
D11*
%TO.P,D24,1*%
%TO.N,D21*%
X168190000Y-139000000D03*
D12*
%TO.P,D24,2*%
%TO.N,inner_lttop*%
X175810000Y-139000000D03*
%TD*%
D10*
%TO.P,D25,1*%
%TO.N,D21*%
X221350000Y-139000000D03*
%TO.P,D25,2*%
%TO.N,inner_rttop*%
X224650000Y-139000000D03*
D11*
%TO.P,D25,1*%
%TO.N,D21*%
X219190000Y-139000000D03*
D12*
%TO.P,D25,2*%
%TO.N,inner_rttop*%
X226810000Y-139000000D03*
%TD*%
D10*
%TO.P,D26,1*%
%TO.N,D21*%
X239350000Y-139000000D03*
%TO.P,D26,2*%
%TO.N,outer_rttop*%
X242650000Y-139000000D03*
D11*
%TO.P,D26,1*%
%TO.N,D21*%
X237190000Y-139000000D03*
D12*
%TO.P,D26,2*%
%TO.N,outer_rttop*%
X244810000Y-139000000D03*
%TD*%
D13*
%TO.P,MCU1,2*%
%TO.N,Dm*%
X189880000Y-73990000D03*
D14*
%TO.P,MCU1,1*%
%TO.N,RAW*%
X189880000Y-76530000D03*
D13*
%TO.P,MCU1,2*%
%TO.N,GND*%
X189880000Y-79070000D03*
%TO.P,MCU1,3*%
%TO.N,RST*%
X189880000Y-81610000D03*
%TO.P,MCU1,4*%
%TO.N,VCC*%
X189880000Y-84150000D03*
%TO.P,MCU1,5*%
%TO.N,D29*%
X189880000Y-86690000D03*
%TO.P,MCU1,6*%
%TO.N,D28*%
X189880000Y-89230000D03*
%TO.P,MCU1,7*%
%TO.N,D27*%
X189880000Y-91770000D03*
%TO.P,MCU1,8*%
%TO.N,D26*%
X189880000Y-94310000D03*
%TO.P,MCU1,9*%
%TO.N,D22*%
X189880000Y-96850000D03*
%TO.P,MCU1,10*%
%TO.N,D20*%
X189880000Y-99390000D03*
%TO.P,MCU1,11*%
%TO.N,D23*%
X189880000Y-101930000D03*
%TO.P,MCU1,12*%
%TO.N,D21*%
X189880000Y-104470000D03*
%TO.P,MCU1,13*%
%TO.N,D12*%
X202580000Y-104470000D03*
%TO.P,MCU1,14*%
%TO.N,D13*%
X200040000Y-104470000D03*
%TO.P,MCU1,15*%
%TO.N,D14*%
X197500000Y-104470000D03*
%TO.P,MCU1,16*%
%TO.N,D15*%
X194960000Y-104470000D03*
%TO.P,MCU1,17*%
%TO.N,D16*%
X192420000Y-104470000D03*
%TO.P,MCU1,18*%
%TO.N,Dp*%
X205120000Y-73990000D03*
%TO.P,MCU1,19*%
%TO.N,D0*%
X205120000Y-76530000D03*
%TO.P,MCU1,20*%
%TO.N,D1*%
X205120000Y-79070000D03*
%TO.P,MCU1,21*%
%TO.N,GND*%
X205120000Y-81610000D03*
%TO.P,MCU1,22*%
X205120000Y-84150000D03*
%TO.P,MCU1,23*%
%TO.N,D2*%
X205120000Y-86690000D03*
%TO.P,MCU1,24*%
%TO.N,D3*%
X205120000Y-89230000D03*
%TO.P,MCU1,25*%
%TO.N,D4*%
X205120000Y-91770000D03*
%TO.P,MCU1,26*%
%TO.N,D5*%
X205120000Y-94310000D03*
%TO.P,MCU1,27*%
%TO.N,D6*%
X205120000Y-96850000D03*
%TO.P,MCU1,28*%
%TO.N,D7*%
X205120000Y-99390000D03*
%TO.P,MCU1,29*%
%TO.N,D8*%
X205120000Y-101930000D03*
%TO.P,MCU1,30*%
%TO.N,D9*%
X205120000Y-104470000D03*
%TD*%
D15*
%TO.P,_1,1*%
%TO.N,N/C*%
X109000000Y-92000000D03*
D16*
X110629630Y-92000000D03*
X110152322Y-93152322D03*
X109000000Y-93629630D03*
X107847678Y-93152322D03*
X107370370Y-92000000D03*
X107847678Y-90847678D03*
X109000000Y-90370370D03*
X110152322Y-90847678D03*
%TD*%
D15*
%TO.P,_2,1*%
%TO.N,N/C*%
X163000000Y-92000000D03*
D16*
X164629630Y-92000000D03*
X164152322Y-93152322D03*
X163000000Y-93629630D03*
X161847678Y-93152322D03*
X161370370Y-92000000D03*
X161847678Y-90847678D03*
X163000000Y-90370370D03*
X164152322Y-90847678D03*
%TD*%
D15*
%TO.P,_3,1*%
%TO.N,N/C*%
X232000000Y-92000000D03*
D16*
X233629630Y-92000000D03*
X233152322Y-93152322D03*
X232000000Y-93629630D03*
X230847678Y-93152322D03*
X230370370Y-92000000D03*
X230847678Y-90847678D03*
X232000000Y-90370370D03*
X233152322Y-90847678D03*
%TD*%
D15*
%TO.P,_4,1*%
%TO.N,N/C*%
X304000000Y-92000000D03*
D16*
X305629630Y-92000000D03*
X305152322Y-93152322D03*
X304000000Y-93629630D03*
X302847678Y-93152322D03*
X302370370Y-92000000D03*
X302847678Y-90847678D03*
X304000000Y-90370370D03*
X305152322Y-90847678D03*
%TD*%
D15*
%TO.P,_5,1*%
%TO.N,N/C*%
X154000000Y-117000000D03*
D16*
X155629630Y-117000000D03*
X155152322Y-118152322D03*
X154000000Y-118629630D03*
X152847678Y-118152322D03*
X152370370Y-117000000D03*
X152847678Y-115847678D03*
X154000000Y-115370370D03*
X155152322Y-115847678D03*
%TD*%
D15*
%TO.P,_6,1*%
%TO.N,N/C*%
X241000000Y-117000000D03*
D16*
X242629630Y-117000000D03*
X242152322Y-118152322D03*
X241000000Y-118629630D03*
X239847678Y-118152322D03*
X239370370Y-117000000D03*
X239847678Y-115847678D03*
X241000000Y-115370370D03*
X242152322Y-115847678D03*
%TD*%
D15*
%TO.P,_7,1*%
%TO.N,N/C*%
X187500000Y-134000000D03*
D16*
X189129630Y-134000000D03*
X188652322Y-135152322D03*
X187500000Y-135629630D03*
X186347678Y-135152322D03*
X185870370Y-134000000D03*
X186347678Y-132847678D03*
X187500000Y-132370370D03*
X188652322Y-132847678D03*
%TD*%
D15*
%TO.P,_8,1*%
%TO.N,N/C*%
X207500000Y-134000000D03*
D16*
X209129630Y-134000000D03*
X208652322Y-135152322D03*
X207500000Y-135629630D03*
X206347678Y-135152322D03*
X205870370Y-134000000D03*
X206347678Y-132847678D03*
X207500000Y-132370370D03*
X208652322Y-132847678D03*
%TD*%
D17*
%TO.N,D21*%
X169468500Y-140278500D02*
X183000000Y-140278500D01*
X189880000Y-104470000D02*
X183000000Y-111350000D01*
X183000000Y-111350000D02*
X183000000Y-140278500D01*
%TO.N,D9*%
X219190000Y-105000000D02*
X219000000Y-105000000D01*
X218470000Y-104470000D02*
X205120000Y-104470000D01*
X219000000Y-105000000D02*
X218470000Y-104470000D01*
%TO.N,D2*%
X219190000Y-88000000D02*
X206430000Y-88000000D01*
X206430000Y-88000000D02*
X205120000Y-86690000D01*
%TO.N,D29*%
X168190000Y-88000000D02*
X169468500Y-89278500D01*
X169468500Y-89278500D02*
X187291500Y-89278500D01*
X187291500Y-89278500D02*
X189880000Y-86690000D01*
%TO.N,D23*%
X168190000Y-105000000D02*
X169468500Y-106278500D01*
X169468500Y-106278500D02*
X185531500Y-106278500D01*
X185531500Y-106278500D02*
X189880000Y-101930000D01*
%TO.N,D2*%
X291190000Y-88000000D02*
X292468500Y-89278500D01*
X292468500Y-89278500D02*
X307911500Y-89278500D01*
X307911500Y-89278500D02*
X309190000Y-88000000D01*
X273190000Y-88000000D02*
X274468500Y-89278500D01*
X274468500Y-89278500D02*
X289911500Y-89278500D01*
X289911500Y-89278500D02*
X291190000Y-88000000D01*
X255190000Y-88000000D02*
X256468500Y-89278500D01*
X256468500Y-89278500D02*
X271911500Y-89278500D01*
X271911500Y-89278500D02*
X273190000Y-88000000D01*
X237190000Y-88000000D02*
X238468500Y-89278500D01*
X238468500Y-89278500D02*
X253911500Y-89278500D01*
X253911500Y-89278500D02*
X255190000Y-88000000D01*
X219190000Y-88000000D02*
X220664000Y-89474000D01*
X235716000Y-89474000D02*
X237190000Y-88000000D01*
X220664000Y-89474000D02*
X235716000Y-89474000D01*
%TO.N,D9*%
X291190000Y-105000000D02*
X292468500Y-106278500D01*
X292468500Y-106278500D02*
X307911500Y-106278500D01*
X307911500Y-106278500D02*
X309190000Y-105000000D01*
X273190000Y-105000000D02*
X274690000Y-106500000D01*
X274690000Y-106500000D02*
X289690000Y-106500000D01*
X289690000Y-106500000D02*
X291190000Y-105000000D01*
X255190000Y-105000000D02*
X256468500Y-106278500D01*
X256468500Y-106278500D02*
X271911500Y-106278500D01*
X271911500Y-106278500D02*
X273190000Y-105000000D01*
X237190000Y-105000000D02*
X238468500Y-106278500D01*
X253911500Y-106278500D02*
X255190000Y-105000000D01*
X238468500Y-106278500D02*
X253911500Y-106278500D01*
X219190000Y-105000000D02*
X220468500Y-106278500D01*
X220468500Y-106278500D02*
X235911500Y-106278500D01*
X235911500Y-106278500D02*
X237190000Y-105000000D01*
%TO.N,D21*%
X219190000Y-139000000D02*
X220468500Y-140278500D01*
X220468500Y-140278500D02*
X235911500Y-140278500D01*
X235911500Y-140278500D02*
X237190000Y-139000000D01*
X168190000Y-139000000D02*
X169468500Y-140278500D01*
X183000000Y-140278500D02*
X217911500Y-140278500D01*
X217911500Y-140278500D02*
X219190000Y-139000000D01*
X150190000Y-139000000D02*
X151690000Y-140500000D01*
X166690000Y-140500000D02*
X168190000Y-139000000D01*
X151690000Y-140500000D02*
X166690000Y-140500000D01*
%TO.N,D23*%
X150190000Y-105000000D02*
X151468500Y-106278500D01*
X151468500Y-106278500D02*
X166911500Y-106278500D01*
X166911500Y-106278500D02*
X168190000Y-105000000D01*
X132190000Y-105000000D02*
X133468500Y-106278500D01*
X133468500Y-106278500D02*
X148911500Y-106278500D01*
X148911500Y-106278500D02*
X150190000Y-105000000D01*
X114190000Y-105000000D02*
X115468500Y-106278500D01*
X115468500Y-106278500D02*
X130911500Y-106278500D01*
X130911500Y-106278500D02*
X132190000Y-105000000D01*
X96190000Y-105000000D02*
X97468500Y-106278500D01*
X97468500Y-106278500D02*
X112911500Y-106278500D01*
X112911500Y-106278500D02*
X114190000Y-105000000D01*
%TO.N,D29*%
X150190000Y-88000000D02*
X151468500Y-89278500D01*
X151468500Y-89278500D02*
X166911500Y-89278500D01*
X166911500Y-89278500D02*
X168190000Y-88000000D01*
X132190000Y-88000000D02*
X133468500Y-89278500D01*
X133468500Y-89278500D02*
X148911500Y-89278500D01*
X148911500Y-89278500D02*
X150190000Y-88000000D01*
X114190000Y-88000000D02*
X115468500Y-89278500D01*
X115468500Y-89278500D02*
X130911500Y-89278500D01*
X130911500Y-89278500D02*
X132190000Y-88000000D01*
X96190000Y-88000000D02*
X97664000Y-89474000D01*
X112716000Y-89474000D02*
X114190000Y-88000000D01*
X97664000Y-89474000D02*
X112716000Y-89474000D01*
%TO.N,D9*%
X221350000Y-105000000D02*
X219190000Y-105000000D01*
%TO.N,inner_rbottom*%
X226810000Y-105000000D02*
X224650000Y-105000000D01*
%TO.N,D9*%
X239350000Y-105000000D02*
X237190000Y-105000000D01*
%TO.N,index_rbottom*%
X244810000Y-105000000D02*
X242650000Y-105000000D01*
%TO.N,D9*%
X257350000Y-105000000D02*
X255190000Y-105000000D01*
%TO.N,middle_rbottom*%
X262810000Y-105000000D02*
X260650000Y-105000000D01*
%TO.N,D9*%
X275350000Y-105000000D02*
X273190000Y-105000000D01*
%TO.N,ring_rbottom*%
X280810000Y-105000000D02*
X278650000Y-105000000D01*
%TO.N,D9*%
X293350000Y-105000000D02*
X291190000Y-105000000D01*
%TO.N,pinky_rbottom*%
X298810000Y-105000000D02*
X296650000Y-105000000D01*
%TO.N,D9*%
X311350000Y-105000000D02*
X309190000Y-105000000D01*
%TO.N,outer_rbottom*%
X316810000Y-105000000D02*
X314650000Y-105000000D01*
%TO.N,outer_rtop*%
X314650000Y-88000000D02*
X316810000Y-88000000D01*
%TO.N,D2*%
X309190000Y-88000000D02*
X311350000Y-88000000D01*
%TO.N,pinky_rtop*%
X296650000Y-88000000D02*
X298810000Y-88000000D01*
%TO.N,D2*%
X291190000Y-88000000D02*
X293350000Y-88000000D01*
%TO.N,ring_rtop*%
X278650000Y-88000000D02*
X280810000Y-88000000D01*
%TO.N,D2*%
X273190000Y-88000000D02*
X275350000Y-88000000D01*
%TO.N,middle_rtop*%
X260650000Y-88000000D02*
X262810000Y-88000000D01*
%TO.N,D2*%
X255190000Y-88000000D02*
X257350000Y-88000000D01*
%TO.N,index_rtop*%
X242650000Y-88000000D02*
X244810000Y-88000000D01*
%TO.N,D2*%
X237190000Y-88000000D02*
X239350000Y-88000000D01*
%TO.N,inner_rtop*%
X224650000Y-88000000D02*
X226810000Y-88000000D01*
%TO.N,D2*%
X219190000Y-88000000D02*
X221350000Y-88000000D01*
%TO.N,outer_rttop*%
X242650000Y-139000000D02*
X244810000Y-139000000D01*
%TO.N,D21*%
X237190000Y-139000000D02*
X239350000Y-139000000D01*
%TO.N,inner_rttop*%
X224650000Y-139000000D02*
X226810000Y-139000000D01*
%TO.N,D21*%
X219190000Y-139000000D02*
X221350000Y-139000000D01*
%TO.N,inner_lttop*%
X173650000Y-139000000D02*
X175810000Y-139000000D01*
%TO.N,D21*%
X168190000Y-139000000D02*
X170350000Y-139000000D01*
%TO.N,outer_lttop*%
X155650000Y-139000000D02*
X157810000Y-139000000D01*
%TO.N,D21*%
X150190000Y-139000000D02*
X152350000Y-139000000D01*
%TO.N,D23*%
X98350000Y-105000000D02*
X96190000Y-105000000D01*
%TO.N,pinky_lbottom*%
X103810000Y-105000000D02*
X101650000Y-105000000D01*
%TO.N,D23*%
X116350000Y-105000000D02*
X114190000Y-105000000D01*
%TO.N,ring_lbottom*%
X121810000Y-105000000D02*
X119650000Y-105000000D01*
%TO.N,D23*%
X134350000Y-105000000D02*
X132190000Y-105000000D01*
%TO.N,middle_lbottom*%
X139810000Y-105000000D02*
X137650000Y-105000000D01*
%TO.N,D23*%
X152350000Y-105000000D02*
X150190000Y-105000000D01*
%TO.N,index_lbottom*%
X157810000Y-105000000D02*
X155650000Y-105000000D01*
%TO.N,D23*%
X170350000Y-105000000D02*
X168190000Y-105000000D01*
%TO.N,inner_lbottom*%
X175810000Y-105000000D02*
X173650000Y-105000000D01*
%TO.N,inner_ltop*%
X173650000Y-88000000D02*
X175810000Y-88000000D01*
%TO.N,D29*%
X168190000Y-88000000D02*
X170350000Y-88000000D01*
%TO.N,index_ltop*%
X155650000Y-88000000D02*
X157810000Y-88000000D01*
%TO.N,D29*%
X150190000Y-88000000D02*
X152350000Y-88000000D01*
%TO.N,middle_ltop*%
X137650000Y-88000000D02*
X139810000Y-88000000D01*
%TO.N,D29*%
X132190000Y-88000000D02*
X134350000Y-88000000D01*
%TO.N,ring_ltop*%
X119650000Y-88000000D02*
X121810000Y-88000000D01*
%TO.N,D29*%
X114190000Y-88000000D02*
X116350000Y-88000000D01*
%TO.N,pinky_ltop*%
X101650000Y-88000000D02*
X103810000Y-88000000D01*
%TO.N,D29*%
X96190000Y-88000000D02*
X98350000Y-88000000D01*
%TD*%
M02*
