M48
; DRILL file {KiCad 9.0.0} date 2025-03-14T12:58:13+0100
; FORMAT={-:-/ absolute / metric / decimal}
; #@! TF.CreationDate,2025-03-14T12:58:13+01:00
; #@! TF.GenerationSoftware,Kicad,Pcbnew,9.0.0
; #@! TF.FileFunction,Plated,1,2,PTH
FMAT,2
METRIC
; #@! TA.AperFunction,Plated,PTH,ComponentDrill
T1C0.400
; #@! TA.AperFunction,Plated,PTH,ComponentDrill
T2C0.991
; #@! TA.AperFunction,Plated,PTH,ComponentDrill
T3C1.092
; #@! TA.AperFunction,Plated,PTH,ComponentDrill
T4C2.200
%
G90
G05
T1
X107.37Y-92.0
X107.848Y-90.848
X107.848Y-93.152
X109.0Y-90.37
X109.0Y-93.63
X110.152Y-90.848
X110.152Y-93.152
X110.63Y-92.0
X152.37Y-117.0
X152.848Y-115.848
X152.848Y-118.152
X154.0Y-115.37
X154.0Y-118.63
X155.152Y-115.848
X155.152Y-118.152
X155.63Y-117.0
X161.37Y-92.0
X161.848Y-90.848
X161.848Y-93.152
X163.0Y-90.37
X163.0Y-93.63
X164.152Y-90.848
X164.152Y-93.152
X164.63Y-92.0
X185.87Y-134.0
X186.348Y-132.848
X186.348Y-135.152
X187.5Y-132.37
X187.5Y-135.63
X188.652Y-132.848
X188.652Y-135.152
X189.13Y-134.0
X205.87Y-134.0
X206.348Y-132.848
X206.348Y-135.152
X207.5Y-132.37
X207.5Y-135.63
X208.652Y-132.848
X208.652Y-135.152
X209.13Y-134.0
X230.37Y-92.0
X230.848Y-90.848
X230.848Y-93.152
X232.0Y-90.37
X232.0Y-93.63
X233.152Y-90.848
X233.152Y-93.152
X233.63Y-92.0
X239.37Y-117.0
X239.848Y-115.848
X239.848Y-118.152
X241.0Y-115.37
X241.0Y-118.63
X242.152Y-115.848
X242.152Y-118.152
X242.63Y-117.0
X302.37Y-92.0
X302.848Y-90.848
X302.848Y-93.152
X304.0Y-90.37
X304.0Y-93.63
X305.152Y-90.848
X305.152Y-93.152
X305.63Y-92.0
T2
X96.19Y-88.0
X96.19Y-105.0
X103.81Y-88.0
X103.81Y-105.0
X114.19Y-88.0
X114.19Y-105.0
X121.81Y-88.0
X121.81Y-105.0
X132.19Y-88.0
X132.19Y-105.0
X139.81Y-88.0
X139.81Y-105.0
X150.19Y-88.0
X150.19Y-105.0
X150.19Y-139.0
X157.81Y-88.0
X157.81Y-105.0
X157.81Y-139.0
X168.19Y-88.0
X168.19Y-105.0
X168.19Y-139.0
X175.81Y-88.0
X175.81Y-105.0
X175.81Y-139.0
X219.19Y-88.0
X219.19Y-105.0
X219.19Y-139.0
X226.81Y-88.0
X226.81Y-105.0
X226.81Y-139.0
X237.19Y-88.0
X237.19Y-105.0
X237.19Y-139.0
X244.81Y-88.0
X244.81Y-105.0
X244.81Y-139.0
X255.19Y-88.0
X255.19Y-105.0
X262.81Y-88.0
X262.81Y-105.0
X273.19Y-88.0
X273.19Y-105.0
X280.81Y-88.0
X280.81Y-105.0
X291.19Y-88.0
X291.19Y-105.0
X298.81Y-88.0
X298.81Y-105.0
X309.19Y-88.0
X309.19Y-105.0
X316.81Y-88.0
X316.81Y-105.0
T3
X189.88Y-73.99
X189.88Y-76.53
X189.88Y-79.07
X189.88Y-81.61
X189.88Y-84.15
X189.88Y-86.69
X189.88Y-89.23
X189.88Y-91.77
X189.88Y-94.31
X189.88Y-96.85
X189.88Y-99.39
X189.88Y-101.93
X189.88Y-104.47
X192.42Y-104.47
X194.96Y-104.47
X197.5Y-104.47
X200.04Y-104.47
X202.58Y-104.47
X205.12Y-73.99
X205.12Y-76.53
X205.12Y-79.07
X205.12Y-81.61
X205.12Y-84.15
X205.12Y-86.69
X205.12Y-89.23
X205.12Y-91.77
X205.12Y-94.31
X205.12Y-96.85
X205.12Y-99.39
X205.12Y-101.93
X205.12Y-104.47
T4
X109.0Y-92.0
X154.0Y-117.0
X163.0Y-92.0
X187.5Y-134.0
X207.5Y-134.0
X232.0Y-92.0
X241.0Y-117.0
X304.0Y-92.0
M30
