%TF.GenerationSoftware,KiCad,Pcbnew,9.0.0*%
%TF.CreationDate,2025-03-17T14:32:25+01:00*%
%TF.ProjectId,pcb,7063622e-6b69-4636-9164-5f7063625858,v1.0.0*%
%TF.SameCoordinates,Original*%
%TF.FileFunction,Legend,Bot*%
%TF.FilePolarity,Positive*%
%FSLAX46Y46*%
G04 Gerber Fmt 4.6, Leading zero omitted, Abs format (unit mm)*
G04 Created by KiCad (PCBNEW 9.0.0) date 2025-03-17 14:32:25*
%MOMM*%
%LPD*%
G01*
G04 APERTURE LIST*
%ADD10C,0.100000*%
%ADD11C,0.150000*%
%ADD12C,1.752600*%
%ADD13R,1.752600X1.752600*%
G04 APERTURE END LIST*
D10*
%TO.C,D1*%
X100250000Y-105000000D02*
X100750000Y-105000000D01*
X100250000Y-105400000D02*
X99650000Y-105000000D01*
X100250000Y-104600000D02*
X100250000Y-105400000D01*
X99650000Y-105000000D02*
X100250000Y-104600000D01*
X99650000Y-105000000D02*
X99650000Y-105550000D01*
X99650000Y-105000000D02*
X99650000Y-104450000D01*
X99250000Y-105000000D02*
X99650000Y-105000000D01*
%TO.C,D2*%
X100250000Y-88000000D02*
X100750000Y-88000000D01*
X100250000Y-88400000D02*
X99650000Y-88000000D01*
X100250000Y-87600000D02*
X100250000Y-88400000D01*
X99650000Y-88000000D02*
X100250000Y-87600000D01*
X99650000Y-88000000D02*
X99650000Y-88550000D01*
X99650000Y-88000000D02*
X99650000Y-87450000D01*
X99250000Y-88000000D02*
X99650000Y-88000000D01*
%TO.C,D3*%
X118250000Y-105000000D02*
X118750000Y-105000000D01*
X118250000Y-105400000D02*
X117650000Y-105000000D01*
X118250000Y-104600000D02*
X118250000Y-105400000D01*
X117650000Y-105000000D02*
X118250000Y-104600000D01*
X117650000Y-105000000D02*
X117650000Y-105550000D01*
X117650000Y-105000000D02*
X117650000Y-104450000D01*
X117250000Y-105000000D02*
X117650000Y-105000000D01*
%TO.C,D4*%
X118250000Y-88000000D02*
X118750000Y-88000000D01*
X118250000Y-88400000D02*
X117650000Y-88000000D01*
X118250000Y-87600000D02*
X118250000Y-88400000D01*
X117650000Y-88000000D02*
X118250000Y-87600000D01*
X117650000Y-88000000D02*
X117650000Y-88550000D01*
X117650000Y-88000000D02*
X117650000Y-87450000D01*
X117250000Y-88000000D02*
X117650000Y-88000000D01*
%TO.C,D5*%
X136250000Y-105000000D02*
X136750000Y-105000000D01*
X136250000Y-105400000D02*
X135650000Y-105000000D01*
X136250000Y-104600000D02*
X136250000Y-105400000D01*
X135650000Y-105000000D02*
X136250000Y-104600000D01*
X135650000Y-105000000D02*
X135650000Y-105550000D01*
X135650000Y-105000000D02*
X135650000Y-104450000D01*
X135250000Y-105000000D02*
X135650000Y-105000000D01*
%TO.C,D6*%
X136250000Y-88000000D02*
X136750000Y-88000000D01*
X136250000Y-88400000D02*
X135650000Y-88000000D01*
X136250000Y-87600000D02*
X136250000Y-88400000D01*
X135650000Y-88000000D02*
X136250000Y-87600000D01*
X135650000Y-88000000D02*
X135650000Y-88550000D01*
X135650000Y-88000000D02*
X135650000Y-87450000D01*
X135250000Y-88000000D02*
X135650000Y-88000000D01*
%TO.C,D7*%
X154250000Y-105000000D02*
X154750000Y-105000000D01*
X154250000Y-105400000D02*
X153650000Y-105000000D01*
X154250000Y-104600000D02*
X154250000Y-105400000D01*
X153650000Y-105000000D02*
X154250000Y-104600000D01*
X153650000Y-105000000D02*
X153650000Y-105550000D01*
X153650000Y-105000000D02*
X153650000Y-104450000D01*
X153250000Y-105000000D02*
X153650000Y-105000000D01*
%TO.C,D8*%
X154250000Y-88000000D02*
X154750000Y-88000000D01*
X154250000Y-88400000D02*
X153650000Y-88000000D01*
X154250000Y-87600000D02*
X154250000Y-88400000D01*
X153650000Y-88000000D02*
X154250000Y-87600000D01*
X153650000Y-88000000D02*
X153650000Y-88550000D01*
X153650000Y-88000000D02*
X153650000Y-87450000D01*
X153250000Y-88000000D02*
X153650000Y-88000000D01*
%TO.C,D9*%
X172250000Y-105000000D02*
X172750000Y-105000000D01*
X172250000Y-105400000D02*
X171650000Y-105000000D01*
X172250000Y-104600000D02*
X172250000Y-105400000D01*
X171650000Y-105000000D02*
X172250000Y-104600000D01*
X171650000Y-105000000D02*
X171650000Y-105550000D01*
X171650000Y-105000000D02*
X171650000Y-104450000D01*
X171250000Y-105000000D02*
X171650000Y-105000000D01*
%TO.C,D10*%
X172250000Y-88000000D02*
X172750000Y-88000000D01*
X172250000Y-88400000D02*
X171650000Y-88000000D01*
X172250000Y-87600000D02*
X172250000Y-88400000D01*
X171650000Y-88000000D02*
X172250000Y-87600000D01*
X171650000Y-88000000D02*
X171650000Y-88550000D01*
X171650000Y-88000000D02*
X171650000Y-87450000D01*
X171250000Y-88000000D02*
X171650000Y-88000000D01*
%TO.C,D11*%
X190250000Y-105000000D02*
X190750000Y-105000000D01*
X190250000Y-105400000D02*
X189650000Y-105000000D01*
X190250000Y-104600000D02*
X190250000Y-105400000D01*
X189650000Y-105000000D02*
X190250000Y-104600000D01*
X189650000Y-105000000D02*
X189650000Y-105550000D01*
X189650000Y-105000000D02*
X189650000Y-104450000D01*
X189250000Y-105000000D02*
X189650000Y-105000000D01*
%TO.C,D12*%
X190250000Y-88000000D02*
X190750000Y-88000000D01*
X190250000Y-88400000D02*
X189650000Y-88000000D01*
X190250000Y-87600000D02*
X190250000Y-88400000D01*
X189650000Y-88000000D02*
X190250000Y-87600000D01*
X189650000Y-88000000D02*
X189650000Y-88550000D01*
X189650000Y-88000000D02*
X189650000Y-87450000D01*
X189250000Y-88000000D02*
X189650000Y-88000000D01*
%TO.C,D13*%
X241250000Y-105000000D02*
X241750000Y-105000000D01*
X241250000Y-105400000D02*
X240650000Y-105000000D01*
X241250000Y-104600000D02*
X241250000Y-105400000D01*
X240650000Y-105000000D02*
X241250000Y-104600000D01*
X240650000Y-105000000D02*
X240650000Y-105550000D01*
X240650000Y-105000000D02*
X240650000Y-104450000D01*
X240250000Y-105000000D02*
X240650000Y-105000000D01*
%TO.C,D14*%
X241250000Y-88000000D02*
X241750000Y-88000000D01*
X241250000Y-88400000D02*
X240650000Y-88000000D01*
X241250000Y-87600000D02*
X241250000Y-88400000D01*
X240650000Y-88000000D02*
X241250000Y-87600000D01*
X240650000Y-88000000D02*
X240650000Y-88550000D01*
X240650000Y-88000000D02*
X240650000Y-87450000D01*
X240250000Y-88000000D02*
X240650000Y-88000000D01*
%TO.C,D15*%
X259250000Y-105000000D02*
X259750000Y-105000000D01*
X259250000Y-105400000D02*
X258650000Y-105000000D01*
X259250000Y-104600000D02*
X259250000Y-105400000D01*
X258650000Y-105000000D02*
X259250000Y-104600000D01*
X258650000Y-105000000D02*
X258650000Y-105550000D01*
X258650000Y-105000000D02*
X258650000Y-104450000D01*
X258250000Y-105000000D02*
X258650000Y-105000000D01*
%TO.C,D16*%
X259250000Y-88000000D02*
X259750000Y-88000000D01*
X259250000Y-88400000D02*
X258650000Y-88000000D01*
X259250000Y-87600000D02*
X259250000Y-88400000D01*
X258650000Y-88000000D02*
X259250000Y-87600000D01*
X258650000Y-88000000D02*
X258650000Y-88550000D01*
X258650000Y-88000000D02*
X258650000Y-87450000D01*
X258250000Y-88000000D02*
X258650000Y-88000000D01*
%TO.C,D17*%
X277250000Y-105000000D02*
X277750000Y-105000000D01*
X277250000Y-105400000D02*
X276650000Y-105000000D01*
X277250000Y-104600000D02*
X277250000Y-105400000D01*
X276650000Y-105000000D02*
X277250000Y-104600000D01*
X276650000Y-105000000D02*
X276650000Y-105550000D01*
X276650000Y-105000000D02*
X276650000Y-104450000D01*
X276250000Y-105000000D02*
X276650000Y-105000000D01*
%TO.C,D18*%
X277250000Y-88000000D02*
X277750000Y-88000000D01*
X277250000Y-88400000D02*
X276650000Y-88000000D01*
X277250000Y-87600000D02*
X277250000Y-88400000D01*
X276650000Y-88000000D02*
X277250000Y-87600000D01*
X276650000Y-88000000D02*
X276650000Y-88550000D01*
X276650000Y-88000000D02*
X276650000Y-87450000D01*
X276250000Y-88000000D02*
X276650000Y-88000000D01*
%TO.C,D19*%
X295250000Y-105000000D02*
X295750000Y-105000000D01*
X295250000Y-105400000D02*
X294650000Y-105000000D01*
X295250000Y-104600000D02*
X295250000Y-105400000D01*
X294650000Y-105000000D02*
X295250000Y-104600000D01*
X294650000Y-105000000D02*
X294650000Y-105550000D01*
X294650000Y-105000000D02*
X294650000Y-104450000D01*
X294250000Y-105000000D02*
X294650000Y-105000000D01*
%TO.C,D20*%
X295250000Y-88000000D02*
X295750000Y-88000000D01*
X295250000Y-88400000D02*
X294650000Y-88000000D01*
X295250000Y-87600000D02*
X295250000Y-88400000D01*
X294650000Y-88000000D02*
X295250000Y-87600000D01*
X294650000Y-88000000D02*
X294650000Y-88550000D01*
X294650000Y-88000000D02*
X294650000Y-87450000D01*
X294250000Y-88000000D02*
X294650000Y-88000000D01*
%TO.C,D21*%
X313250000Y-105000000D02*
X313750000Y-105000000D01*
X313250000Y-105400000D02*
X312650000Y-105000000D01*
X313250000Y-104600000D02*
X313250000Y-105400000D01*
X312650000Y-105000000D02*
X313250000Y-104600000D01*
X312650000Y-105000000D02*
X312650000Y-105550000D01*
X312650000Y-105000000D02*
X312650000Y-104450000D01*
X312250000Y-105000000D02*
X312650000Y-105000000D01*
%TO.C,D22*%
X313250000Y-88000000D02*
X313750000Y-88000000D01*
X313250000Y-88400000D02*
X312650000Y-88000000D01*
X313250000Y-87600000D02*
X313250000Y-88400000D01*
X312650000Y-88000000D02*
X313250000Y-87600000D01*
X312650000Y-88000000D02*
X312650000Y-88550000D01*
X312650000Y-88000000D02*
X312650000Y-87450000D01*
X312250000Y-88000000D02*
X312650000Y-88000000D01*
%TO.C,D23*%
X331250000Y-105000000D02*
X331750000Y-105000000D01*
X331250000Y-105400000D02*
X330650000Y-105000000D01*
X331250000Y-104600000D02*
X331250000Y-105400000D01*
X330650000Y-105000000D02*
X331250000Y-104600000D01*
X330650000Y-105000000D02*
X330650000Y-105550000D01*
X330650000Y-105000000D02*
X330650000Y-104450000D01*
X330250000Y-105000000D02*
X330650000Y-105000000D01*
%TO.C,D24*%
X331250000Y-88000000D02*
X331750000Y-88000000D01*
X331250000Y-88400000D02*
X330650000Y-88000000D01*
X331250000Y-87600000D02*
X331250000Y-88400000D01*
X330650000Y-88000000D02*
X331250000Y-87600000D01*
X330650000Y-88000000D02*
X330650000Y-88550000D01*
X330650000Y-88000000D02*
X330650000Y-87450000D01*
X330250000Y-88000000D02*
X330650000Y-88000000D01*
%TO.C,D25*%
X172250000Y-139000000D02*
X172750000Y-139000000D01*
X172250000Y-139400000D02*
X171650000Y-139000000D01*
X172250000Y-138600000D02*
X172250000Y-139400000D01*
X171650000Y-139000000D02*
X172250000Y-138600000D01*
X171650000Y-139000000D02*
X171650000Y-139550000D01*
X171650000Y-139000000D02*
X171650000Y-138450000D01*
X171250000Y-139000000D02*
X171650000Y-139000000D01*
%TO.C,D26*%
X190250000Y-139000000D02*
X190750000Y-139000000D01*
X190250000Y-139400000D02*
X189650000Y-139000000D01*
X190250000Y-138600000D02*
X190250000Y-139400000D01*
X189650000Y-139000000D02*
X190250000Y-138600000D01*
X189650000Y-139000000D02*
X189650000Y-139550000D01*
X189650000Y-139000000D02*
X189650000Y-138450000D01*
X189250000Y-139000000D02*
X189650000Y-139000000D01*
%TO.C,D27*%
X241250000Y-139000000D02*
X241750000Y-139000000D01*
X241250000Y-139400000D02*
X240650000Y-139000000D01*
X241250000Y-138600000D02*
X241250000Y-139400000D01*
X240650000Y-139000000D02*
X241250000Y-138600000D01*
X240650000Y-139000000D02*
X240650000Y-139550000D01*
X240650000Y-139000000D02*
X240650000Y-138450000D01*
X240250000Y-139000000D02*
X240650000Y-139000000D01*
%TO.C,D28*%
X259250000Y-139000000D02*
X259750000Y-139000000D01*
X259250000Y-139400000D02*
X258650000Y-139000000D01*
X259250000Y-138600000D02*
X259250000Y-139400000D01*
X258650000Y-139000000D02*
X259250000Y-138600000D01*
X258650000Y-139000000D02*
X258650000Y-139550000D01*
X258650000Y-139000000D02*
X258650000Y-138450000D01*
X258250000Y-139000000D02*
X258650000Y-139000000D01*
D11*
%TO.C,B1*%
X218250000Y-92750000D02*
X216750000Y-94250000D01*
X218250000Y-90250000D02*
X216750000Y-88750000D01*
X218250000Y-90250000D02*
X218250000Y-92750000D01*
X214250000Y-94250000D02*
X216750000Y-94250000D01*
X214250000Y-88750000D02*
X216750000Y-88750000D01*
X212750000Y-92750000D02*
X214250000Y-94250000D01*
X212750000Y-90250000D02*
X214250000Y-88750000D01*
X212750000Y-90250000D02*
X212750000Y-92750000D01*
%TD*%
D12*
%TO.C,MCU1*%
X207880000Y-73990000D03*
D13*
X207880000Y-76530000D03*
D12*
X207880000Y-79070000D03*
X207880000Y-81610000D03*
X207880000Y-84150000D03*
X207880000Y-86690000D03*
X207880000Y-89230000D03*
X207880000Y-91770000D03*
X207880000Y-94310000D03*
X207880000Y-96850000D03*
X207880000Y-99390000D03*
X207880000Y-101930000D03*
X207880000Y-104470000D03*
X220580000Y-104470000D03*
X218040000Y-104470000D03*
X215500000Y-104470000D03*
X212960000Y-104470000D03*
X210420000Y-104470000D03*
X223120000Y-73990000D03*
X223120000Y-76530000D03*
X223120000Y-79070000D03*
X223120000Y-81610000D03*
X223120000Y-84150000D03*
X223120000Y-86690000D03*
X223120000Y-89230000D03*
X223120000Y-91770000D03*
X223120000Y-94310000D03*
X223120000Y-96850000D03*
X223120000Y-99390000D03*
X223120000Y-101930000D03*
X223120000Y-104470000D03*
%TD*%
M02*
