0
SECTION
2
HEADER
9
$INSUNITS
70
4
0
ENDSEC
0
SECTION
2
TABLES
0
TABLE
2
LTYPE
0
LTYPE
72
65
70
64
2
CONTINUOUS
3
______
73
0
40
0
0
ENDTAB
0
TABLE
2
LAYER
0
ENDTAB
0
ENDSEC
0
SECTION
2
ENTITIES
0
LINE
8
0
10
92.85
20
-107.15
11
107.15
21
-107.15
0
LINE
8
0
10
107.15
20
-107.15
11
107.15
21
-92.85
0
LINE
8
0
10
107.15
20
-92.85
11
92.85
21
-92.85
0
LINE
8
0
10
92.85
20
-92.85
11
92.85
21
-107.15
0
LINE
8
0
10
92.85
20
-90.15
11
107.15
21
-90.15
0
LINE
8
0
10
107.15
20
-90.15
11
107.15
21
-75.85
0
LINE
8
0
10
107.15
20
-75.85
11
92.85
21
-75.85
0
LINE
8
0
10
92.85
20
-75.85
11
92.85
21
-90.15
0
LINE
8
0
10
110.85
20
-107.15
11
125.15
21
-107.15
0
LINE
8
0
10
125.15
20
-107.15
11
125.15
21
-92.85
0
LINE
8
0
10
125.15
20
-92.85
11
110.85
21
-92.85
0
LINE
8
0
10
110.85
20
-92.85
11
110.85
21
-107.15
0
LINE
8
0
10
110.85
20
-90.15
11
125.15
21
-90.15
0
LINE
8
0
10
125.15
20
-90.15
11
125.15
21
-75.85
0
LINE
8
0
10
125.15
20
-75.85
11
110.85
21
-75.85
0
LINE
8
0
10
110.85
20
-75.85
11
110.85
21
-90.15
0
LINE
8
0
10
128.85
20
-107.15
11
143.15
21
-107.15
0
LINE
8
0
10
143.15
20
-107.15
11
143.15
21
-92.85
0
LINE
8
0
10
143.15
20
-92.85
11
128.85
21
-92.85
0
LINE
8
0
10
128.85
20
-92.85
11
128.85
21
-107.15
0
LINE
8
0
10
128.85
20
-90.15
11
143.15
21
-90.15
0
LINE
8
0
10
143.15
20
-90.15
11
143.15
21
-75.85
0
LINE
8
0
10
143.15
20
-75.85
11
128.85
21
-75.85
0
LINE
8
0
10
128.85
20
-75.85
11
128.85
21
-90.15
0
LINE
8
0
10
146.85
20
-107.15
11
161.15
21
-107.15
0
LINE
8
0
10
161.15
20
-107.15
11
161.15
21
-92.85
0
LINE
8
0
10
161.15
20
-92.85
11
146.85
21
-92.85
0
LINE
8
0
10
146.85
20
-92.85
11
146.85
21
-107.15
0
LINE
8
0
10
146.85
20
-90.15
11
161.15
21
-90.15
0
LINE
8
0
10
161.15
20
-90.15
11
161.15
21
-75.85
0
LINE
8
0
10
161.15
20
-75.85
11
146.85
21
-75.85
0
LINE
8
0
10
146.85
20
-75.85
11
146.85
21
-90.15
0
LINE
8
0
10
164.85
20
-107.15
11
179.15
21
-107.15
0
LINE
8
0
10
179.15
20
-107.15
11
179.15
21
-92.85
0
LINE
8
0
10
179.15
20
-92.85
11
164.85
21
-92.85
0
LINE
8
0
10
164.85
20
-92.85
11
164.85
21
-107.15
0
LINE
8
0
10
164.85
20
-90.15
11
179.15
21
-90.15
0
LINE
8
0
10
179.15
20
-90.15
11
179.15
21
-75.85
0
LINE
8
0
10
179.15
20
-75.85
11
164.85
21
-75.85
0
LINE
8
0
10
164.85
20
-75.85
11
164.85
21
-90.15
0
LINE
8
0
10
215.85
20
-107.15
11
230.15
21
-107.15
0
LINE
8
0
10
230.15
20
-107.15
11
230.15
21
-92.85
0
LINE
8
0
10
230.15
20
-92.85
11
215.85
21
-92.85
0
LINE
8
0
10
215.85
20
-92.85
11
215.85
21
-107.15
0
LINE
8
0
10
215.85
20
-90.15
11
230.15
21
-90.15
0
LINE
8
0
10
230.15
20
-90.15
11
230.15
21
-75.85
0
LINE
8
0
10
230.15
20
-75.85
11
215.85
21
-75.85
0
LINE
8
0
10
215.85
20
-75.85
11
215.85
21
-90.15
0
LINE
8
0
10
233.85
20
-107.15
11
248.15
21
-107.15
0
LINE
8
0
10
248.15
20
-107.15
11
248.15
21
-92.85
0
LINE
8
0
10
248.15
20
-92.85
11
233.85
21
-92.85
0
LINE
8
0
10
233.85
20
-92.85
11
233.85
21
-107.15
0
LINE
8
0
10
233.85
20
-90.15
11
248.15
21
-90.15
0
LINE
8
0
10
248.15
20
-90.15
11
248.15
21
-75.85
0
LINE
8
0
10
248.15
20
-75.85
11
233.85
21
-75.85
0
LINE
8
0
10
233.85
20
-75.85
11
233.85
21
-90.15
0
LINE
8
0
10
251.85
20
-107.15
11
266.15
21
-107.15
0
LINE
8
0
10
266.15
20
-107.15
11
266.15
21
-92.85
0
LINE
8
0
10
266.15
20
-92.85
11
251.85
21
-92.85
0
LINE
8
0
10
251.85
20
-92.85
11
251.85
21
-107.15
0
LINE
8
0
10
251.85
20
-90.15
11
266.15
21
-90.15
0
LINE
8
0
10
266.15
20
-90.15
11
266.15
21
-75.85
0
LINE
8
0
10
266.15
20
-75.85
11
251.85
21
-75.85
0
LINE
8
0
10
251.85
20
-75.85
11
251.85
21
-90.15
0
LINE
8
0
10
269.85
20
-107.15
11
284.15
21
-107.15
0
LINE
8
0
10
284.15
20
-107.15
11
284.15
21
-92.85
0
LINE
8
0
10
284.15
20
-92.85
11
269.85
21
-92.85
0
LINE
8
0
10
269.85
20
-92.85
11
269.85
21
-107.15
0
LINE
8
0
10
269.85
20
-90.15
11
284.15
21
-90.15
0
LINE
8
0
10
284.15
20
-90.15
11
284.15
21
-75.85
0
LINE
8
0
10
284.15
20
-75.85
11
269.85
21
-75.85
0
LINE
8
0
10
269.85
20
-75.85
11
269.85
21
-90.15
0
LINE
8
0
10
287.85
20
-107.15
11
302.15
21
-107.15
0
LINE
8
0
10
302.15
20
-107.15
11
302.15
21
-92.85
0
LINE
8
0
10
302.15
20
-92.85
11
287.85
21
-92.85
0
LINE
8
0
10
287.85
20
-92.85
11
287.85
21
-107.15
0
LINE
8
0
10
287.85
20
-90.15
11
302.15
21
-90.15
0
LINE
8
0
10
302.15
20
-90.15
11
302.15
21
-75.85
0
LINE
8
0
10
302.15
20
-75.85
11
287.85
21
-75.85
0
LINE
8
0
10
287.85
20
-75.85
11
287.85
21
-90.15
0
LINE
8
0
10
305.85
20
-107.15
11
320.15
21
-107.15
0
LINE
8
0
10
320.15
20
-107.15
11
320.15
21
-92.85
0
LINE
8
0
10
320.15
20
-92.85
11
305.85
21
-92.85
0
LINE
8
0
10
305.85
20
-92.85
11
305.85
21
-107.15
0
LINE
8
0
10
305.85
20
-90.15
11
320.15
21
-90.15
0
LINE
8
0
10
320.15
20
-90.15
11
320.15
21
-75.85
0
LINE
8
0
10
320.15
20
-75.85
11
305.85
21
-75.85
0
LINE
8
0
10
305.85
20
-75.85
11
305.85
21
-90.15
0
LINE
8
0
10
146.85
20
-141.15
11
161.15
21
-141.15
0
LINE
8
0
10
161.15
20
-141.15
11
161.15
21
-126.85
0
LINE
8
0
10
161.15
20
-126.85
11
146.85
21
-126.85
0
LINE
8
0
10
146.85
20
-126.85
11
146.85
21
-141.15
0
LINE
8
0
10
164.85
20
-141.15
11
179.15
21
-141.15
0
LINE
8
0
10
179.15
20
-141.15
11
179.15
21
-126.85
0
LINE
8
0
10
179.15
20
-126.85
11
164.85
21
-126.85
0
LINE
8
0
10
164.85
20
-126.85
11
164.85
21
-141.15
0
LINE
8
0
10
215.85
20
-141.15
11
230.15
21
-141.15
0
LINE
8
0
10
230.15
20
-141.15
11
230.15
21
-126.85
0
LINE
8
0
10
230.15
20
-126.85
11
215.85
21
-126.85
0
LINE
8
0
10
215.85
20
-126.85
11
215.85
21
-141.15
0
LINE
8
0
10
233.85
20
-141.15
11
248.15
21
-141.15
0
LINE
8
0
10
248.15
20
-141.15
11
248.15
21
-126.85
0
LINE
8
0
10
248.15
20
-126.85
11
233.85
21
-126.85
0
LINE
8
0
10
233.85
20
-126.85
11
233.85
21
-141.15
0
ENDSEC
0
EOF