0
SECTION
2
HEADER
9
$INSUNITS
70
4
0
ENDSEC
0
SECTION
2
TABLES
0
TABLE
2
LTYPE
0
LTYPE
72
65
70
64
2
CONTINUOUS
3
______
73
0
40
0
0
ENDTAB
0
TABLE
2
LAYER
0
ENDTAB
0
ENDSEC
0
SECTION
2
ENTITIES
0
LINE
8
0
10
89
20
-110.5
11
89
21
-72.5
0
LINE
8
0
10
89
20
-72.5
11
342
21
-72.5
0
LINE
8
0
10
342
20
-72.5
11
342
21
-110.5
0
LINE
8
0
10
342
20
-110.5
11
270
21
-110.5
0
LINE
8
0
10
270
20
-110.5
11
270
21
-144.5
0
LINE
8
0
10
270
20
-144.5
11
161
21
-144.5
0
LINE
8
0
10
161
20
-144.5
11
161
21
-110.5
0
LINE
8
0
10
161
20
-110.5
11
89
21
-110.5
0
LINE
8
0
10
91.25
20
-108.25
11
108.75
21
-108.25
0
LINE
8
0
10
108.75
20
-108.25
11
108.75
21
-91.75
0
LINE
8
0
10
108.75
20
-91.75
11
91.25
21
-91.75
0
LINE
8
0
10
91.25
20
-91.75
11
91.25
21
-108.25
0
LINE
8
0
10
91.25
20
-91.25
11
108.75
21
-91.25
0
LINE
8
0
10
108.75
20
-91.25
11
108.75
21
-74.75
0
LINE
8
0
10
108.75
20
-74.75
11
91.25
21
-74.75
0
LINE
8
0
10
91.25
20
-74.75
11
91.25
21
-91.25
0
LINE
8
0
10
109.25
20
-108.25
11
126.75
21
-108.25
0
LINE
8
0
10
126.75
20
-108.25
11
126.75
21
-91.75
0
LINE
8
0
10
126.75
20
-91.75
11
109.25
21
-91.75
0
LINE
8
0
10
109.25
20
-91.75
11
109.25
21
-108.25
0
LINE
8
0
10
109.25
20
-91.25
11
126.75
21
-91.25
0
LINE
8
0
10
126.75
20
-91.25
11
126.75
21
-74.75
0
LINE
8
0
10
126.75
20
-74.75
11
109.25
21
-74.75
0
LINE
8
0
10
109.25
20
-74.75
11
109.25
21
-91.25
0
LINE
8
0
10
127.25
20
-108.25
11
144.75
21
-108.25
0
LINE
8
0
10
144.75
20
-108.25
11
144.75
21
-91.75
0
LINE
8
0
10
144.75
20
-91.75
11
127.25
21
-91.75
0
LINE
8
0
10
127.25
20
-91.75
11
127.25
21
-108.25
0
LINE
8
0
10
127.25
20
-91.25
11
144.75
21
-91.25
0
LINE
8
0
10
144.75
20
-91.25
11
144.75
21
-74.75
0
LINE
8
0
10
144.75
20
-74.75
11
127.25
21
-74.75
0
LINE
8
0
10
127.25
20
-74.75
11
127.25
21
-91.25
0
LINE
8
0
10
145.25
20
-108.25
11
162.75
21
-108.25
0
LINE
8
0
10
162.75
20
-108.25
11
162.75
21
-91.75
0
LINE
8
0
10
162.75
20
-91.75
11
145.25
21
-91.75
0
LINE
8
0
10
145.25
20
-91.75
11
145.25
21
-108.25
0
LINE
8
0
10
145.25
20
-91.25
11
162.75
21
-91.25
0
LINE
8
0
10
162.75
20
-91.25
11
162.75
21
-74.75
0
LINE
8
0
10
162.75
20
-74.75
11
145.25
21
-74.75
0
LINE
8
0
10
145.25
20
-74.75
11
145.25
21
-91.25
0
LINE
8
0
10
163.25
20
-108.25
11
180.75
21
-108.25
0
LINE
8
0
10
180.75
20
-108.25
11
180.75
21
-91.75
0
LINE
8
0
10
180.75
20
-91.75
11
163.25
21
-91.75
0
LINE
8
0
10
163.25
20
-91.75
11
163.25
21
-108.25
0
LINE
8
0
10
163.25
20
-91.25
11
180.75
21
-91.25
0
LINE
8
0
10
180.75
20
-91.25
11
180.75
21
-74.75
0
LINE
8
0
10
180.75
20
-74.75
11
163.25
21
-74.75
0
LINE
8
0
10
163.25
20
-74.75
11
163.25
21
-91.25
0
LINE
8
0
10
181.25
20
-108.25
11
198.75
21
-108.25
0
LINE
8
0
10
198.75
20
-108.25
11
198.75
21
-91.75
0
LINE
8
0
10
198.75
20
-91.75
11
181.25
21
-91.75
0
LINE
8
0
10
181.25
20
-91.75
11
181.25
21
-108.25
0
LINE
8
0
10
181.25
20
-91.25
11
198.75
21
-91.25
0
LINE
8
0
10
198.75
20
-91.25
11
198.75
21
-74.75
0
LINE
8
0
10
198.75
20
-74.75
11
181.25
21
-74.75
0
LINE
8
0
10
181.25
20
-74.75
11
181.25
21
-91.25
0
LINE
8
0
10
232.25
20
-108.25
11
249.75
21
-108.25
0
LINE
8
0
10
249.75
20
-108.25
11
249.75
21
-91.75
0
LINE
8
0
10
249.75
20
-91.75
11
232.25
21
-91.75
0
LINE
8
0
10
232.25
20
-91.75
11
232.25
21
-108.25
0
LINE
8
0
10
232.25
20
-91.25
11
249.75
21
-91.25
0
LINE
8
0
10
249.75
20
-91.25
11
249.75
21
-74.75
0
LINE
8
0
10
249.75
20
-74.75
11
232.25
21
-74.75
0
LINE
8
0
10
232.25
20
-74.75
11
232.25
21
-91.25
0
LINE
8
0
10
250.25
20
-108.25
11
267.75
21
-108.25
0
LINE
8
0
10
267.75
20
-108.25
11
267.75
21
-91.75
0
LINE
8
0
10
267.75
20
-91.75
11
250.25
21
-91.75
0
LINE
8
0
10
250.25
20
-91.75
11
250.25
21
-108.25
0
LINE
8
0
10
250.25
20
-91.25
11
267.75
21
-91.25
0
LINE
8
0
10
267.75
20
-91.25
11
267.75
21
-74.75
0
LINE
8
0
10
267.75
20
-74.75
11
250.25
21
-74.75
0
LINE
8
0
10
250.25
20
-74.75
11
250.25
21
-91.25
0
LINE
8
0
10
268.25
20
-108.25
11
285.75
21
-108.25
0
LINE
8
0
10
285.75
20
-108.25
11
285.75
21
-91.75
0
LINE
8
0
10
285.75
20
-91.75
11
268.25
21
-91.75
0
LINE
8
0
10
268.25
20
-91.75
11
268.25
21
-108.25
0
LINE
8
0
10
268.25
20
-91.25
11
285.75
21
-91.25
0
LINE
8
0
10
285.75
20
-91.25
11
285.75
21
-74.75
0
LINE
8
0
10
285.75
20
-74.75
11
268.25
21
-74.75
0
LINE
8
0
10
268.25
20
-74.75
11
268.25
21
-91.25
0
LINE
8
0
10
286.25
20
-108.25
11
303.75
21
-108.25
0
LINE
8
0
10
303.75
20
-108.25
11
303.75
21
-91.75
0
LINE
8
0
10
303.75
20
-91.75
11
286.25
21
-91.75
0
LINE
8
0
10
286.25
20
-91.75
11
286.25
21
-108.25
0
LINE
8
0
10
286.25
20
-91.25
11
303.75
21
-91.25
0
LINE
8
0
10
303.75
20
-91.25
11
303.75
21
-74.75
0
LINE
8
0
10
303.75
20
-74.75
11
286.25
21
-74.75
0
LINE
8
0
10
286.25
20
-74.75
11
286.25
21
-91.25
0
LINE
8
0
10
304.25
20
-108.25
11
321.75
21
-108.25
0
LINE
8
0
10
321.75
20
-108.25
11
321.75
21
-91.75
0
LINE
8
0
10
321.75
20
-91.75
11
304.25
21
-91.75
0
LINE
8
0
10
304.25
20
-91.75
11
304.25
21
-108.25
0
LINE
8
0
10
304.25
20
-91.25
11
321.75
21
-91.25
0
LINE
8
0
10
321.75
20
-91.25
11
321.75
21
-74.75
0
LINE
8
0
10
321.75
20
-74.75
11
304.25
21
-74.75
0
LINE
8
0
10
304.25
20
-74.75
11
304.25
21
-91.25
0
LINE
8
0
10
322.25
20
-108.25
11
339.75
21
-108.25
0
LINE
8
0
10
339.75
20
-108.25
11
339.75
21
-91.75
0
LINE
8
0
10
339.75
20
-91.75
11
322.25
21
-91.75
0
LINE
8
0
10
322.25
20
-91.75
11
322.25
21
-108.25
0
LINE
8
0
10
322.25
20
-91.25
11
339.75
21
-91.25
0
LINE
8
0
10
339.75
20
-91.25
11
339.75
21
-74.75
0
LINE
8
0
10
339.75
20
-74.75
11
322.25
21
-74.75
0
LINE
8
0
10
322.25
20
-74.75
11
322.25
21
-91.25
0
LINE
8
0
10
163.25
20
-142.25
11
180.75
21
-142.25
0
LINE
8
0
10
180.75
20
-142.25
11
180.75
21
-125.75
0
LINE
8
0
10
180.75
20
-125.75
11
163.25
21
-125.75
0
LINE
8
0
10
163.25
20
-125.75
11
163.25
21
-142.25
0
LINE
8
0
10
181.25
20
-142.25
11
198.75
21
-142.25
0
LINE
8
0
10
198.75
20
-142.25
11
198.75
21
-125.75
0
LINE
8
0
10
198.75
20
-125.75
11
181.25
21
-125.75
0
LINE
8
0
10
181.25
20
-125.75
11
181.25
21
-142.25
0
LINE
8
0
10
232.25
20
-142.25
11
249.75
21
-142.25
0
LINE
8
0
10
249.75
20
-142.25
11
249.75
21
-125.75
0
LINE
8
0
10
249.75
20
-125.75
11
232.25
21
-125.75
0
LINE
8
0
10
232.25
20
-125.75
11
232.25
21
-142.25
0
LINE
8
0
10
250.25
20
-142.25
11
267.75
21
-142.25
0
LINE
8
0
10
267.75
20
-142.25
11
267.75
21
-125.75
0
LINE
8
0
10
267.75
20
-125.75
11
250.25
21
-125.75
0
LINE
8
0
10
250.25
20
-125.75
11
250.25
21
-142.25
0
ENDSEC
0
EOF