solid csg.js
facet normal 0 -1 0
outer loop
vertex 141 -112.5 0
vertex 141 -112.5 5.6
vertex 87.5 -112.5 5.6
endloop
endfacet
facet normal 0 -1 0
outer loop
vertex 141 -112.5 0
vertex 87.5 -112.5 5.6
vertex 87.5 -112.5 0
endloop
endfacet
facet normal 0 -1 0
outer loop
vertex 325.5 -112.5 0
vertex 325.5 -112.5 5.6
vertex 254 -112.5 5.6
endloop
endfacet
facet normal 0 -1 0
outer loop
vertex 325.5 -112.5 0
vertex 254 -112.5 5.6
vertex 254 -112.5 0
endloop
endfacet
facet normal -1 0 0
outer loop
vertex 141 -144.5 5.6
vertex 141 -112.5 5.6
vertex 141 -112.5 0
endloop
endfacet
facet normal -1 0 0
outer loop
vertex 141 -144.5 5.6
vertex 141 -112.5 0
vertex 141 -144.5 0
endloop
endfacet
facet normal -1 0 0
outer loop
vertex 141 -144.5 5.6
vertex 141 -144.5 0
vertex 141 -146.5 0
endloop
endfacet
facet normal -1 0 0
outer loop
vertex 141 -144.5 5.6
vertex 141 -146.5 0
vertex 141 -146.5 5.6
endloop
endfacet
facet normal 0 -1 0
outer loop
vertex 254 -146.5 0
vertex 254 -146.5 5.6
vertex 141 -146.5 5.6
endloop
endfacet
facet normal 0 -1 0
outer loop
vertex 254 -146.5 0
vertex 141 -146.5 5.6
vertex 141 -146.5 0
endloop
endfacet
facet normal 1 0 0
outer loop
vertex 254 -144.5 0
vertex 254 -112.5 0
vertex 254 -112.5 5.6
endloop
endfacet
facet normal 1 0 0
outer loop
vertex 254 -144.5 0
vertex 254 -112.5 5.6
vertex 254 -144.5 5.6
endloop
endfacet
facet normal 1 0 0
outer loop
vertex 254 -144.5 0
vertex 254 -144.5 5.6
vertex 254 -146.5 5.6
endloop
endfacet
facet normal 1 0 0
outer loop
vertex 254 -144.5 0
vertex 254 -146.5 5.6
vertex 254 -146.5 0
endloop
endfacet
facet normal 1 0 0
outer loop
vertex 325.5 -110.5 0
vertex 325.5 -72.5 0
vertex 325.5 -70.5 0
endloop
endfacet
facet normal 1 0 0
outer loop
vertex 325.5 -110.5 0
vertex 325.5 -70.5 0
vertex 325.5 -70.5 5.6
endloop
endfacet
facet normal 1 0 0
outer loop
vertex 325.5 -110.5 0
vertex 325.5 -70.5 5.6
vertex 325.5 -72.5 5.6
endloop
endfacet
facet normal 1 0 0
outer loop
vertex 325.5 -110.5 0
vertex 325.5 -72.5 5.6
vertex 325.5 -110.5 5.6
endloop
endfacet
facet normal 1 0 0
outer loop
vertex 325.5 -110.5 0
vertex 325.5 -110.5 5.6
vertex 325.5 -112.5 5.6
endloop
endfacet
facet normal 1 0 0
outer loop
vertex 325.5 -110.5 0
vertex 325.5 -112.5 5.6
vertex 325.5 -112.5 0
endloop
endfacet
facet normal 0 1 0
outer loop
vertex 325.5 -70.5 5.6
vertex 325.5 -70.5 0
vertex 87.5 -70.5 0
endloop
endfacet
facet normal 0 1 0
outer loop
vertex 325.5 -70.5 5.6
vertex 87.5 -70.5 0
vertex 87.5 -70.5 5.6
endloop
endfacet
facet normal -1 0 0
outer loop
vertex 87.5 -110.5 5.6
vertex 87.5 -72.5 5.6
vertex 87.5 -70.5 5.6
endloop
endfacet
facet normal -1 0 0
outer loop
vertex 87.5 -110.5 5.6
vertex 87.5 -70.5 5.6
vertex 87.5 -70.5 0
endloop
endfacet
facet normal -1 0 0
outer loop
vertex 87.5 -110.5 5.6
vertex 87.5 -70.5 0
vertex 87.5 -72.5 0
endloop
endfacet
facet normal -1 0 0
outer loop
vertex 87.5 -110.5 5.6
vertex 87.5 -72.5 0
vertex 87.5 -110.5 0
endloop
endfacet
facet normal -1 0 0
outer loop
vertex 87.5 -110.5 5.6
vertex 87.5 -110.5 0
vertex 87.5 -112.5 0
endloop
endfacet
facet normal -1 0 0
outer loop
vertex 87.5 -110.5 5.6
vertex 87.5 -112.5 0
vertex 87.5 -112.5 5.6
endloop
endfacet
facet normal 0 1 0
outer loop
vertex 143 -110.5 5.6
vertex 143 -110.5 0
vertex 89 -110.5 0
endloop
endfacet
facet normal 0 1 0
outer loop
vertex 143 -110.5 5.6
vertex 89 -110.5 0
vertex 89 -110.5 5.6
endloop
endfacet
facet normal 0 1 0
outer loop
vertex 324 -110.5 5.6
vertex 324 -110.5 0
vertex 252 -110.5 0
endloop
endfacet
facet normal 0 1 0
outer loop
vertex 324 -110.5 5.6
vertex 252 -110.5 0
vertex 252 -110.5 5.6
endloop
endfacet
facet normal 1 0 0
outer loop
vertex 143 -112.5 0
vertex 143 -110.5 0
vertex 143 -110.5 5.6
endloop
endfacet
facet normal 1 0 0
outer loop
vertex 143 -112.5 0
vertex 143 -110.5 5.6
vertex 143 -112.5 5.6
endloop
endfacet
facet normal 1 0 0
outer loop
vertex 143 -112.5 0
vertex 143 -112.5 5.6
vertex 143 -144.5 5.6
endloop
endfacet
facet normal 1 0 0
outer loop
vertex 143 -112.5 0
vertex 143 -144.5 5.6
vertex 143 -144.5 0
endloop
endfacet
facet normal 0 1 0
outer loop
vertex 252 -144.5 5.6
vertex 252 -144.5 0
vertex 143 -144.5 0
endloop
endfacet
facet normal 0 1 0
outer loop
vertex 252 -144.5 5.6
vertex 143 -144.5 0
vertex 143 -144.5 5.6
endloop
endfacet
facet normal -1 0 0
outer loop
vertex 252 -112.5 5.6
vertex 252 -110.5 5.6
vertex 252 -110.5 0
endloop
endfacet
facet normal -1 0 0
outer loop
vertex 252 -112.5 5.6
vertex 252 -110.5 0
vertex 252 -112.5 0
endloop
endfacet
facet normal -1 0 0
outer loop
vertex 252 -112.5 5.6
vertex 252 -112.5 0
vertex 252 -144.5 0
endloop
endfacet
facet normal -1 0 0
outer loop
vertex 252 -112.5 5.6
vertex 252 -144.5 0
vertex 252 -144.5 5.6
endloop
endfacet
facet normal -1 0 0
outer loop
vertex 324 -72.5 5.6
vertex 324 -72.5 0
vertex 324 -110.5 0
endloop
endfacet
facet normal -1 0 0
outer loop
vertex 324 -72.5 5.6
vertex 324 -110.5 0
vertex 324 -110.5 5.6
endloop
endfacet
facet normal 0 -1 0
outer loop
vertex 324 -72.5 0
vertex 324 -72.5 5.6
vertex 89 -72.5 5.6
endloop
endfacet
facet normal 0 -1 0
outer loop
vertex 324 -72.5 0
vertex 89 -72.5 5.6
vertex 89 -72.5 0
endloop
endfacet
facet normal 1 0 0
outer loop
vertex 89 -72.5 0
vertex 89 -72.5 5.6
vertex 89 -110.5 5.6
endloop
endfacet
facet normal 1 0 0
outer loop
vertex 89 -72.5 0
vertex 89 -110.5 5.6
vertex 89 -110.5 0
endloop
endfacet
facet normal 0 0 -1
outer loop
vertex 325.5 -70.5 0
vertex 325.5 -72.5 0
vertex 324 -72.5 0
endloop
endfacet
facet normal 0 0 -1
outer loop
vertex 325.5 -70.5 0
vertex 324 -72.5 0
vertex 89 -72.5 0
endloop
endfacet
facet normal 0 0 -1
outer loop
vertex 325.5 -70.5 0
vertex 89 -72.5 0
vertex 87.5 -72.5 0
endloop
endfacet
facet normal 0 0 -1
outer loop
vertex 325.5 -70.5 0
vertex 87.5 -72.5 0
vertex 87.5 -70.5 0
endloop
endfacet
facet normal 0 0 -1
outer loop
vertex 89 -72.5 0
vertex 89 -110.5 0
vertex 87.5 -110.5 0
endloop
endfacet
facet normal 0 0 -1
outer loop
vertex 89 -72.5 0
vertex 87.5 -110.5 0
vertex 87.5 -72.5 0
endloop
endfacet
facet normal 0 0 -1
outer loop
vertex 325.5 -72.5 0
vertex 325.5 -110.5 0
vertex 324 -110.5 0
endloop
endfacet
facet normal 0 0 -1
outer loop
vertex 325.5 -72.5 0
vertex 324 -110.5 0
vertex 324 -72.5 0
endloop
endfacet
facet normal 0 0 -1
outer loop
vertex 89 -110.5 0
vertex 143 -110.5 0
vertex 143 -112.5 0
endloop
endfacet
facet normal 0 0 -1
outer loop
vertex 89 -110.5 0
vertex 143 -112.5 0
vertex 141 -112.5 0
endloop
endfacet
facet normal 0 0 -1
outer loop
vertex 89 -110.5 0
vertex 141 -112.5 0
vertex 87.5 -112.5 0
endloop
endfacet
facet normal 0 0 -1
outer loop
vertex 89 -110.5 0
vertex 87.5 -112.5 0
vertex 87.5 -110.5 0
endloop
endfacet
facet normal 0 0 -1
outer loop
vertex 324 -110.5 0
vertex 325.5 -110.5 0
vertex 325.5 -112.5 0
endloop
endfacet
facet normal 0 0 -1
outer loop
vertex 324 -110.5 0
vertex 325.5 -112.5 0
vertex 254 -112.5 0
endloop
endfacet
facet normal 0 0 -1
outer loop
vertex 324 -110.5 0
vertex 254 -112.5 0
vertex 252 -112.5 0
endloop
endfacet
facet normal 0 0 -1
outer loop
vertex 324 -110.5 0
vertex 252 -112.5 0
vertex 252 -110.5 0
endloop
endfacet
facet normal 0 0 -1
outer loop
vertex 143 -112.5 0
vertex 143 -144.5 0
vertex 141 -144.5 0
endloop
endfacet
facet normal 0 0 -1
outer loop
vertex 143 -112.5 0
vertex 141 -144.5 0
vertex 141 -112.5 0
endloop
endfacet
facet normal 0 0 -1
outer loop
vertex 254 -112.5 0
vertex 254 -144.5 0
vertex 252 -144.5 0
endloop
endfacet
facet normal 0 0 -1
outer loop
vertex 254 -112.5 0
vertex 252 -144.5 0
vertex 252 -112.5 0
endloop
endfacet
facet normal 0 0 -1
outer loop
vertex 143 -144.5 0
vertex 252 -144.5 0
vertex 254 -144.5 0
endloop
endfacet
facet normal 0 0 -1
outer loop
vertex 143 -144.5 0
vertex 254 -144.5 0
vertex 254 -146.5 0
endloop
endfacet
facet normal 0 0 -1
outer loop
vertex 143 -144.5 0
vertex 254 -146.5 0
vertex 141 -146.5 0
endloop
endfacet
facet normal 0 0 -1
outer loop
vertex 143 -144.5 0
vertex 141 -146.5 0
vertex 141 -144.5 0
endloop
endfacet
facet normal 0 0 1
outer loop
vertex 254 -146.5 5.6
vertex 254 -144.5 5.6
vertex 252 -144.5 5.6
endloop
endfacet
facet normal 0 0 1
outer loop
vertex 254 -146.5 5.6
vertex 252 -144.5 5.6
vertex 143 -144.5 5.6
endloop
endfacet
facet normal 0 0 1
outer loop
vertex 254 -146.5 5.6
vertex 143 -144.5 5.6
vertex 141 -144.5 5.6
endloop
endfacet
facet normal 0 0 1
outer loop
vertex 254 -146.5 5.6
vertex 141 -144.5 5.6
vertex 141 -146.5 5.6
endloop
endfacet
facet normal 0 0 1
outer loop
vertex 143 -144.5 5.6
vertex 143 -112.5 5.6
vertex 141 -112.5 5.6
endloop
endfacet
facet normal 0 0 1
outer loop
vertex 143 -144.5 5.6
vertex 141 -112.5 5.6
vertex 141 -144.5 5.6
endloop
endfacet
facet normal 0 0 1
outer loop
vertex 254 -144.5 5.6
vertex 254 -112.5 5.6
vertex 252 -112.5 5.6
endloop
endfacet
facet normal 0 0 1
outer loop
vertex 254 -144.5 5.6
vertex 252 -112.5 5.6
vertex 252 -144.5 5.6
endloop
endfacet
facet normal 0 0 1
outer loop
vertex 141 -112.5 5.6
vertex 143 -112.5 5.6
vertex 143 -110.5 5.6
endloop
endfacet
facet normal 0 0 1
outer loop
vertex 141 -112.5 5.6
vertex 143 -110.5 5.6
vertex 89 -110.5 5.6
endloop
endfacet
facet normal 0 0 1
outer loop
vertex 141 -112.5 5.6
vertex 89 -110.5 5.6
vertex 87.5 -110.5 5.6
endloop
endfacet
facet normal 0 0 1
outer loop
vertex 141 -112.5 5.6
vertex 87.5 -110.5 5.6
vertex 87.5 -112.5 5.6
endloop
endfacet
facet normal 0 0 1
outer loop
vertex 254 -112.5 5.6
vertex 325.5 -112.5 5.6
vertex 325.5 -110.5 5.6
endloop
endfacet
facet normal 0 0 1
outer loop
vertex 254 -112.5 5.6
vertex 325.5 -110.5 5.6
vertex 324 -110.5 5.6
endloop
endfacet
facet normal 0 0 1
outer loop
vertex 254 -112.5 5.6
vertex 324 -110.5 5.6
vertex 252 -110.5 5.6
endloop
endfacet
facet normal 0 0 1
outer loop
vertex 254 -112.5 5.6
vertex 252 -110.5 5.6
vertex 252 -112.5 5.6
endloop
endfacet
facet normal 0 0 1
outer loop
vertex 89 -110.5 5.6
vertex 89 -72.5 5.6
vertex 87.5 -72.5 5.6
endloop
endfacet
facet normal 0 0 1
outer loop
vertex 89 -110.5 5.6
vertex 87.5 -72.5 5.6
vertex 87.5 -110.5 5.6
endloop
endfacet
facet normal 0 0 1
outer loop
vertex 325.5 -110.5 5.6
vertex 325.5 -72.5 5.6
vertex 324 -72.5 5.6
endloop
endfacet
facet normal 0 0 1
outer loop
vertex 325.5 -110.5 5.6
vertex 324 -72.5 5.6
vertex 324 -110.5 5.6
endloop
endfacet
facet normal 0 0 1
outer loop
vertex 89 -72.5 5.6
vertex 324 -72.5 5.6
vertex 325.5 -72.5 5.6
endloop
endfacet
facet normal 0 0 1
outer loop
vertex 89 -72.5 5.6
vertex 325.5 -72.5 5.6
vertex 325.5 -70.5 5.6
endloop
endfacet
facet normal 0 0 1
outer loop
vertex 89 -72.5 5.6
vertex 325.5 -70.5 5.6
vertex 87.5 -70.5 5.6
endloop
endfacet
facet normal 0 0 1
outer loop
vertex 89 -72.5 5.6
vertex 87.5 -70.5 5.6
vertex 87.5 -72.5 5.6
endloop
endfacet
endsolid csg.js
