0
SECTION
2
HEADER
9
$INSUNITS
70
4
0
ENDSEC
0
SECTION
2
TABLES
0
TABLE
2
LTYPE
0
LTYPE
72
65
70
64
2
CONTINUOUS
3
______
73
0
40
0
0
ENDTAB
0
TABLE
2
LAYER
0
ENDTAB
0
ENDSEC
0
SECTION
2
ENTITIES
0
LINE
8
0
10
139.5
20
-114.5
11
139.5
21
-107.15
0
LINE
8
0
10
139.5
20
-92.85
11
139.5
21
-90.15
0
LINE
8
0
10
139.5
20
-75.85
11
139.5
21
-68.5
0
LINE
8
0
10
139.5
20
-68.5
11
237.5
21
-68.5
0
LINE
8
0
10
237.5
20
-68.5
11
237.5
21
-75.85
0
LINE
8
0
10
237.5
20
-107.15
11
237.5
21
-114.5
0
LINE
8
0
10
237.5
20
-90.15
11
237.5
21
-92.85
0
LINE
8
0
10
237.5
20
-114.5
11
202
21
-114.5
0
LINE
8
0
10
202
20
-114.5
11
202
21
-148.5
0
LINE
8
0
10
202
20
-148.5
11
157
21
-148.5
0
LINE
8
0
10
157
20
-148.5
11
153.1088235
21
-141.15
0
LINE
8
0
10
146.85
20
-129.3277778
11
139
21
-114.5
0
LINE
8
0
10
139
20
-114.5
11
139.5
21
-114.5
0
LINE
8
0
10
139.5
20
-107.15
11
143.15
21
-107.15
0
LINE
8
0
10
143.15
20
-107.15
11
143.15
21
-92.85
0
LINE
8
0
10
143.15
20
-92.85
11
139.5
21
-92.85
0
LINE
8
0
10
139.5
20
-90.15
11
143.15
21
-90.15
0
LINE
8
0
10
143.15
20
-90.15
11
143.15
21
-75.85
0
LINE
8
0
10
143.15
20
-75.85
11
139.5
21
-75.85
0
LINE
8
0
10
146.85
20
-107.15
11
161.15
21
-107.15
0
LINE
8
0
10
161.15
20
-107.15
11
161.15
21
-92.85
0
LINE
8
0
10
161.15
20
-92.85
11
146.85
21
-92.85
0
LINE
8
0
10
146.85
20
-92.85
11
146.85
21
-107.15
0
LINE
8
0
10
146.85
20
-90.15
11
161.15
21
-90.15
0
LINE
8
0
10
161.15
20
-90.15
11
161.15
21
-75.85
0
LINE
8
0
10
161.15
20
-75.85
11
146.85
21
-75.85
0
LINE
8
0
10
146.85
20
-75.85
11
146.85
21
-90.15
0
LINE
8
0
10
161.85
20
-107.15
11
179.15
21
-107.15
0
LINE
8
0
10
179.15
20
-107.15
11
179.15
21
-92.85
0
LINE
8
0
10
161.85
20
-92.85
11
179.15
21
-92.85
0
LINE
8
0
10
161.85
20
-90.15
11
179.15
21
-90.15
0
LINE
8
0
10
179.15
20
-90.15
11
179.15
21
-75.85
0
LINE
8
0
10
161.85
20
-75.85
11
179.15
21
-75.85
0
LINE
8
0
10
179.85
20
-107.15
11
197.15
21
-107.15
0
LINE
8
0
10
197.15
20
-107.15
11
197.15
21
-92.85
0
LINE
8
0
10
179.85
20
-92.85
11
197.15
21
-92.85
0
LINE
8
0
10
179.85
20
-90.15
11
197.15
21
-90.15
0
LINE
8
0
10
197.15
20
-90.15
11
197.15
21
-75.85
0
LINE
8
0
10
179.85
20
-75.85
11
197.15
21
-75.85
0
LINE
8
0
10
153.1088235
20
-141.15
11
161.15
21
-141.15
0
LINE
8
0
10
161.15
20
-141.15
11
161.15
21
-126.85
0
LINE
8
0
10
161.15
20
-126.85
11
146.85
21
-126.85
0
LINE
8
0
10
146.85
20
-126.85
11
146.85
21
-129.3277778
0
LINE
8
0
10
161.85
20
-141.15
11
179.15
21
-141.15
0
LINE
8
0
10
179.15
20
-141.15
11
179.15
21
-126.85
0
LINE
8
0
10
161.85
20
-126.85
11
179.15
21
-126.85
0
LINE
8
0
10
161.85
20
-92.85
11
161.85
21
-107.15
0
LINE
8
0
10
161.85
20
-75.85
11
161.85
21
-90.15
0
LINE
8
0
10
179.85
20
-92.85
11
179.85
21
-107.15
0
LINE
8
0
10
179.85
20
-75.85
11
179.85
21
-90.15
0
LINE
8
0
10
197.85
20
-107.15
11
212.15
21
-107.15
0
LINE
8
0
10
212.15
20
-107.15
11
212.15
21
-92.85
0
LINE
8
0
10
212.15
20
-92.85
11
197.85
21
-92.85
0
LINE
8
0
10
197.85
20
-92.85
11
197.85
21
-107.15
0
LINE
8
0
10
197.85
20
-90.15
11
212.15
21
-90.15
0
LINE
8
0
10
212.15
20
-90.15
11
212.15
21
-75.85
0
LINE
8
0
10
212.15
20
-75.85
11
197.85
21
-75.85
0
LINE
8
0
10
197.85
20
-75.85
11
197.85
21
-90.15
0
LINE
8
0
10
215.85
20
-107.15
11
230.15
21
-107.15
0
LINE
8
0
10
230.15
20
-107.15
11
230.15
21
-92.85
0
LINE
8
0
10
230.15
20
-92.85
11
215.85
21
-92.85
0
LINE
8
0
10
215.85
20
-92.85
11
215.85
21
-107.15
0
LINE
8
0
10
215.85
20
-90.15
11
230.15
21
-90.15
0
LINE
8
0
10
230.15
20
-90.15
11
230.15
21
-75.85
0
LINE
8
0
10
230.15
20
-75.85
11
215.85
21
-75.85
0
LINE
8
0
10
215.85
20
-75.85
11
215.85
21
-90.15
0
LINE
8
0
10
233.85
20
-107.15
11
237.5
21
-107.15
0
LINE
8
0
10
237.5
20
-92.85
11
233.85
21
-92.85
0
LINE
8
0
10
233.85
20
-92.85
11
233.85
21
-107.15
0
LINE
8
0
10
233.85
20
-90.15
11
237.5
21
-90.15
0
LINE
8
0
10
237.5
20
-75.85
11
233.85
21
-75.85
0
LINE
8
0
10
233.85
20
-75.85
11
233.85
21
-90.15
0
LINE
8
0
10
161.85
20
-126.85
11
161.85
21
-141.15
0
LINE
8
0
10
179.85
20
-141.15
11
194.15
21
-141.15
0
LINE
8
0
10
194.15
20
-141.15
11
194.15
21
-126.85
0
LINE
8
0
10
194.15
20
-126.85
11
179.85
21
-126.85
0
LINE
8
0
10
179.85
20
-126.85
11
179.85
21
-141.15
0
ENDSEC
0
EOF