0
SECTION
2
HEADER
9
$INSUNITS
70
4
0
ENDSEC
0
SECTION
2
TABLES
0
TABLE
2
LTYPE
0
LTYPE
72
65
70
64
2
CONTINUOUS
3
______
73
0
40
0
0
ENDTAB
0
TABLE
2
LAYER
0
ENDTAB
0
ENDSEC
0
SECTION
2
ENTITIES
0
LINE
8
0
10
85.5
20
-116.5
11
85.5
21
-66.5
0
LINE
8
0
10
85.5
20
-66.5
11
348.5
21
-66.5
0
LINE
8
0
10
348.5
20
-66.5
11
348.5
21
-116.5
0
LINE
8
0
10
348.5
20
-116.5
11
277
21
-116.5
0
LINE
8
0
10
277
20
-116.5
11
277
21
-150.5
0
LINE
8
0
10
277
20
-150.5
11
157
21
-150.5
0
LINE
8
0
10
157
20
-150.5
11
157
21
-116.5
0
LINE
8
0
10
157
20
-116.5
11
85.5
21
-116.5
0
LINE
8
0
10
92.85
20
-107.15
11
107.15
21
-107.15
0
LINE
8
0
10
107.15
20
-107.15
11
107.15
21
-92.85
0
LINE
8
0
10
107.15
20
-92.85
11
92.85
21
-92.85
0
LINE
8
0
10
92.85
20
-92.85
11
92.85
21
-107.15
0
LINE
8
0
10
92.85
20
-90.15
11
107.15
21
-90.15
0
LINE
8
0
10
107.15
20
-90.15
11
107.15
21
-75.85
0
LINE
8
0
10
107.15
20
-75.85
11
92.85
21
-75.85
0
LINE
8
0
10
92.85
20
-75.85
11
92.85
21
-90.15
0
LINE
8
0
10
110.85
20
-107.15
11
125.15
21
-107.15
0
LINE
8
0
10
125.15
20
-107.15
11
125.15
21
-92.85
0
LINE
8
0
10
125.15
20
-92.85
11
110.85
21
-92.85
0
LINE
8
0
10
110.85
20
-92.85
11
110.85
21
-107.15
0
LINE
8
0
10
110.85
20
-90.15
11
125.15
21
-90.15
0
LINE
8
0
10
125.15
20
-90.15
11
125.15
21
-75.85
0
LINE
8
0
10
125.15
20
-75.85
11
110.85
21
-75.85
0
LINE
8
0
10
110.85
20
-75.85
11
110.85
21
-90.15
0
LINE
8
0
10
128.85
20
-107.15
11
143.15
21
-107.15
0
LINE
8
0
10
143.15
20
-107.15
11
143.15
21
-92.85
0
LINE
8
0
10
143.15
20
-92.85
11
128.85
21
-92.85
0
LINE
8
0
10
128.85
20
-92.85
11
128.85
21
-107.15
0
LINE
8
0
10
128.85
20
-90.15
11
143.15
21
-90.15
0
LINE
8
0
10
143.15
20
-90.15
11
143.15
21
-75.85
0
LINE
8
0
10
143.15
20
-75.85
11
128.85
21
-75.85
0
LINE
8
0
10
128.85
20
-75.85
11
128.85
21
-90.15
0
LINE
8
0
10
146.85
20
-107.15
11
161.15
21
-107.15
0
LINE
8
0
10
161.15
20
-107.15
11
161.15
21
-92.85
0
LINE
8
0
10
161.15
20
-92.85
11
146.85
21
-92.85
0
LINE
8
0
10
146.85
20
-92.85
11
146.85
21
-107.15
0
LINE
8
0
10
146.85
20
-90.15
11
161.15
21
-90.15
0
LINE
8
0
10
161.15
20
-90.15
11
161.15
21
-75.85
0
LINE
8
0
10
161.15
20
-75.85
11
146.85
21
-75.85
0
LINE
8
0
10
146.85
20
-75.85
11
146.85
21
-90.15
0
LINE
8
0
10
164.85
20
-107.15
11
179.15
21
-107.15
0
LINE
8
0
10
179.15
20
-107.15
11
179.15
21
-92.85
0
LINE
8
0
10
179.15
20
-92.85
11
164.85
21
-92.85
0
LINE
8
0
10
164.85
20
-92.85
11
164.85
21
-107.15
0
LINE
8
0
10
164.85
20
-90.15
11
179.15
21
-90.15
0
LINE
8
0
10
179.15
20
-90.15
11
179.15
21
-75.85
0
LINE
8
0
10
179.15
20
-75.85
11
164.85
21
-75.85
0
LINE
8
0
10
164.85
20
-75.85
11
164.85
21
-90.15
0
LINE
8
0
10
182.85
20
-107.15
11
197.15
21
-107.15
0
LINE
8
0
10
197.15
20
-107.15
11
197.15
21
-92.85
0
LINE
8
0
10
197.15
20
-92.85
11
182.85
21
-92.85
0
LINE
8
0
10
182.85
20
-92.85
11
182.85
21
-107.15
0
LINE
8
0
10
182.85
20
-90.15
11
197.15
21
-90.15
0
LINE
8
0
10
197.15
20
-90.15
11
197.15
21
-75.85
0
LINE
8
0
10
197.15
20
-75.85
11
182.85
21
-75.85
0
LINE
8
0
10
182.85
20
-75.85
11
182.85
21
-90.15
0
LINE
8
0
10
236.85
20
-107.15
11
251.15
21
-107.15
0
LINE
8
0
10
251.15
20
-107.15
11
251.15
21
-92.85
0
LINE
8
0
10
251.15
20
-92.85
11
236.85
21
-92.85
0
LINE
8
0
10
236.85
20
-92.85
11
236.85
21
-107.15
0
LINE
8
0
10
236.85
20
-90.15
11
251.15
21
-90.15
0
LINE
8
0
10
251.15
20
-90.15
11
251.15
21
-75.85
0
LINE
8
0
10
251.15
20
-75.85
11
236.85
21
-75.85
0
LINE
8
0
10
236.85
20
-75.85
11
236.85
21
-90.15
0
LINE
8
0
10
254.85
20
-107.15
11
269.15
21
-107.15
0
LINE
8
0
10
269.15
20
-107.15
11
269.15
21
-92.85
0
LINE
8
0
10
269.15
20
-92.85
11
254.85
21
-92.85
0
LINE
8
0
10
254.85
20
-92.85
11
254.85
21
-107.15
0
LINE
8
0
10
254.85
20
-90.15
11
269.15
21
-90.15
0
LINE
8
0
10
269.15
20
-90.15
11
269.15
21
-75.85
0
LINE
8
0
10
269.15
20
-75.85
11
254.85
21
-75.85
0
LINE
8
0
10
254.85
20
-75.85
11
254.85
21
-90.15
0
LINE
8
0
10
272.85
20
-107.15
11
287.15
21
-107.15
0
LINE
8
0
10
287.15
20
-107.15
11
287.15
21
-92.85
0
LINE
8
0
10
287.15
20
-92.85
11
272.85
21
-92.85
0
LINE
8
0
10
272.85
20
-92.85
11
272.85
21
-107.15
0
LINE
8
0
10
272.85
20
-90.15
11
287.15
21
-90.15
0
LINE
8
0
10
287.15
20
-90.15
11
287.15
21
-75.85
0
LINE
8
0
10
287.15
20
-75.85
11
272.85
21
-75.85
0
LINE
8
0
10
272.85
20
-75.85
11
272.85
21
-90.15
0
LINE
8
0
10
290.85
20
-107.15
11
305.15
21
-107.15
0
LINE
8
0
10
305.15
20
-107.15
11
305.15
21
-92.85
0
LINE
8
0
10
305.15
20
-92.85
11
290.85
21
-92.85
0
LINE
8
0
10
290.85
20
-92.85
11
290.85
21
-107.15
0
LINE
8
0
10
290.85
20
-90.15
11
305.15
21
-90.15
0
LINE
8
0
10
305.15
20
-90.15
11
305.15
21
-75.85
0
LINE
8
0
10
305.15
20
-75.85
11
290.85
21
-75.85
0
LINE
8
0
10
290.85
20
-75.85
11
290.85
21
-90.15
0
LINE
8
0
10
308.85
20
-107.15
11
323.15
21
-107.15
0
LINE
8
0
10
323.15
20
-107.15
11
323.15
21
-92.85
0
LINE
8
0
10
323.15
20
-92.85
11
308.85
21
-92.85
0
LINE
8
0
10
308.85
20
-92.85
11
308.85
21
-107.15
0
LINE
8
0
10
308.85
20
-90.15
11
323.15
21
-90.15
0
LINE
8
0
10
323.15
20
-90.15
11
323.15
21
-75.85
0
LINE
8
0
10
323.15
20
-75.85
11
308.85
21
-75.85
0
LINE
8
0
10
308.85
20
-75.85
11
308.85
21
-90.15
0
LINE
8
0
10
326.85
20
-107.15
11
341.15
21
-107.15
0
LINE
8
0
10
341.15
20
-107.15
11
341.15
21
-92.85
0
LINE
8
0
10
341.15
20
-92.85
11
326.85
21
-92.85
0
LINE
8
0
10
326.85
20
-92.85
11
326.85
21
-107.15
0
LINE
8
0
10
326.85
20
-90.15
11
341.15
21
-90.15
0
LINE
8
0
10
341.15
20
-90.15
11
341.15
21
-75.85
0
LINE
8
0
10
341.15
20
-75.85
11
326.85
21
-75.85
0
LINE
8
0
10
326.85
20
-75.85
11
326.85
21
-90.15
0
LINE
8
0
10
164.85
20
-141.15
11
179.15
21
-141.15
0
LINE
8
0
10
179.15
20
-141.15
11
179.15
21
-126.85
0
LINE
8
0
10
179.15
20
-126.85
11
164.85
21
-126.85
0
LINE
8
0
10
164.85
20
-126.85
11
164.85
21
-141.15
0
LINE
8
0
10
182.85
20
-141.15
11
197.15
21
-141.15
0
LINE
8
0
10
197.15
20
-141.15
11
197.15
21
-126.85
0
LINE
8
0
10
197.15
20
-126.85
11
182.85
21
-126.85
0
LINE
8
0
10
182.85
20
-126.85
11
182.85
21
-141.15
0
LINE
8
0
10
236.85
20
-141.15
11
251.15
21
-141.15
0
LINE
8
0
10
251.15
20
-141.15
11
251.15
21
-126.85
0
LINE
8
0
10
251.15
20
-126.85
11
236.85
21
-126.85
0
LINE
8
0
10
236.85
20
-126.85
11
236.85
21
-141.15
0
LINE
8
0
10
254.85
20
-141.15
11
269.15
21
-141.15
0
LINE
8
0
10
269.15
20
-141.15
11
269.15
21
-126.85
0
LINE
8
0
10
269.15
20
-126.85
11
254.85
21
-126.85
0
LINE
8
0
10
254.85
20
-126.85
11
254.85
21
-141.15
0
ENDSEC
0
EOF