%TF.GenerationSoftware,KiCad,Pcbnew,9.0.0*%
%TF.CreationDate,2025-03-14T12:58:10+01:00*%
%TF.ProjectId,pcb,7063622e-6b69-4636-9164-5f7063625858,v1.0.0*%
%TF.SameCoordinates,Original*%
%TF.FileFunction,Soldermask,Bot*%
%TF.FilePolarity,Negative*%
%FSLAX46Y46*%
G04 Gerber Fmt 4.6, Leading zero omitted, Abs format (unit mm)*
G04 Created by KiCad (PCBNEW 9.0.0) date 2025-03-14 12:58:10*
%MOMM*%
%LPD*%
G01*
G04 APERTURE LIST*
G04 Aperture macros list*
%AMRoundRect*
0 Rectangle with rounded corners*
0 $1 Rounding radius*
0 $2 $3 $4 $5 $6 $7 $8 $9 X,Y pos of 4 corners*
0 Add a 4 corners polygon primitive as box body*
4,1,4,$2,$3,$4,$5,$6,$7,$8,$9,$2,$3,0*
0 Add four circle primitives for the rounded corners*
1,1,$1+$1,$2,$3*
1,1,$1+$1,$4,$5*
1,1,$1+$1,$6,$7*
1,1,$1+$1,$8,$9*
0 Add four rect primitives between the rounded corners*
20,1,$1+$1,$2,$3,$4,$5,0*
20,1,$1+$1,$4,$5,$6,$7,0*
20,1,$1+$1,$6,$7,$8,$9,0*
20,1,$1+$1,$8,$9,$2,$3,0*%
G04 Aperture macros list end*
%ADD10C,3.529000*%
%ADD11C,1.801800*%
%ADD12C,3.100000*%
%ADD13RoundRect,0.050000X-1.300000X-1.300000X1.300000X-1.300000X1.300000X1.300000X-1.300000X1.300000X0*%
%ADD14RoundRect,0.050000X-0.450000X-0.600000X0.450000X-0.600000X0.450000X0.600000X-0.450000X0.600000X0*%
%ADD15RoundRect,0.050000X-0.889000X-0.889000X0.889000X-0.889000X0.889000X0.889000X-0.889000X0.889000X0*%
%ADD16C,2.005000*%
%ADD17C,1.852600*%
%ADD18RoundRect,0.050000X-0.876300X0.876300X-0.876300X-0.876300X0.876300X-0.876300X0.876300X0.876300X0*%
%ADD19RoundRect,0.050000X-0.900000X-0.550000X0.900000X-0.550000X0.900000X0.550000X-0.900000X0.550000X0*%
%ADD20C,4.500000*%
%ADD21C,0.800000*%
G04 APERTURE END LIST*
D10*
%TO.C,S1*%
X100000000Y-100000000D03*
D11*
X105500000Y-100000000D03*
X94500000Y-100000000D03*
D12*
X105000000Y-96250000D03*
X100000000Y-94050000D03*
D13*
X96725000Y-94050000D03*
X108275000Y-96250000D03*
%TD*%
D10*
%TO.C,S2*%
X100000000Y-83000000D03*
D11*
X105500000Y-83000000D03*
X94500000Y-83000000D03*
D12*
X105000000Y-79250000D03*
X100000000Y-77050000D03*
D13*
X96725000Y-77050000D03*
X108275000Y-79250000D03*
%TD*%
D10*
%TO.C,S3*%
X118000000Y-100000000D03*
D11*
X123500000Y-100000000D03*
X112500000Y-100000000D03*
D12*
X123000000Y-96250000D03*
X118000000Y-94050000D03*
D13*
X114725000Y-94050000D03*
X126275000Y-96250000D03*
%TD*%
D10*
%TO.C,S4*%
X118000000Y-83000000D03*
D11*
X123500000Y-83000000D03*
X112500000Y-83000000D03*
D12*
X123000000Y-79250000D03*
X118000000Y-77050000D03*
D13*
X114725000Y-77050000D03*
X126275000Y-79250000D03*
%TD*%
D10*
%TO.C,S5*%
X136000000Y-100000000D03*
D11*
X141500000Y-100000000D03*
X130500000Y-100000000D03*
D12*
X141000000Y-96250000D03*
X136000000Y-94050000D03*
D13*
X132725000Y-94050000D03*
X144275000Y-96250000D03*
%TD*%
D10*
%TO.C,S6*%
X136000000Y-83000000D03*
D11*
X141500000Y-83000000D03*
X130500000Y-83000000D03*
D12*
X141000000Y-79250000D03*
X136000000Y-77050000D03*
D13*
X132725000Y-77050000D03*
X144275000Y-79250000D03*
%TD*%
D10*
%TO.C,S7*%
X154000000Y-100000000D03*
D11*
X159500000Y-100000000D03*
X148500000Y-100000000D03*
D12*
X159000000Y-96250000D03*
X154000000Y-94050000D03*
D13*
X150725000Y-94050000D03*
X162275000Y-96250000D03*
%TD*%
D10*
%TO.C,S8*%
X154000000Y-83000000D03*
D11*
X159500000Y-83000000D03*
X148500000Y-83000000D03*
D12*
X159000000Y-79250000D03*
X154000000Y-77050000D03*
D13*
X150725000Y-77050000D03*
X162275000Y-79250000D03*
%TD*%
D10*
%TO.C,S9*%
X172000000Y-100000000D03*
D11*
X177500000Y-100000000D03*
X166500000Y-100000000D03*
D12*
X177000000Y-96250000D03*
X172000000Y-94050000D03*
D13*
X168725000Y-94050000D03*
X180275000Y-96250000D03*
%TD*%
D10*
%TO.C,S10*%
X172000000Y-83000000D03*
D11*
X177500000Y-83000000D03*
X166500000Y-83000000D03*
D12*
X177000000Y-79250000D03*
X172000000Y-77050000D03*
D13*
X168725000Y-77050000D03*
X180275000Y-79250000D03*
%TD*%
D10*
%TO.C,S11*%
X223000000Y-100000000D03*
D11*
X228500000Y-100000000D03*
X217500000Y-100000000D03*
D12*
X228000000Y-96250000D03*
X223000000Y-94050000D03*
D13*
X219725000Y-94050000D03*
X231275000Y-96250000D03*
%TD*%
D10*
%TO.C,S12*%
X223000000Y-83000000D03*
D11*
X228500000Y-83000000D03*
X217500000Y-83000000D03*
D12*
X228000000Y-79250000D03*
X223000000Y-77050000D03*
D13*
X219725000Y-77050000D03*
X231275000Y-79250000D03*
%TD*%
D10*
%TO.C,S13*%
X241000000Y-100000000D03*
D11*
X246500000Y-100000000D03*
X235500000Y-100000000D03*
D12*
X246000000Y-96250000D03*
X241000000Y-94050000D03*
D13*
X237725000Y-94050000D03*
X249275000Y-96250000D03*
%TD*%
D10*
%TO.C,S14*%
X241000000Y-83000000D03*
D11*
X246500000Y-83000000D03*
X235500000Y-83000000D03*
D12*
X246000000Y-79250000D03*
X241000000Y-77050000D03*
D13*
X237725000Y-77050000D03*
X249275000Y-79250000D03*
%TD*%
D10*
%TO.C,S15*%
X259000000Y-100000000D03*
D11*
X264500000Y-100000000D03*
X253500000Y-100000000D03*
D12*
X264000000Y-96250000D03*
X259000000Y-94050000D03*
D13*
X255725000Y-94050000D03*
X267275000Y-96250000D03*
%TD*%
D10*
%TO.C,S16*%
X259000000Y-83000000D03*
D11*
X264500000Y-83000000D03*
X253500000Y-83000000D03*
D12*
X264000000Y-79250000D03*
X259000000Y-77050000D03*
D13*
X255725000Y-77050000D03*
X267275000Y-79250000D03*
%TD*%
D10*
%TO.C,S17*%
X277000000Y-100000000D03*
D11*
X282500000Y-100000000D03*
X271500000Y-100000000D03*
D12*
X282000000Y-96250000D03*
X277000000Y-94050000D03*
D13*
X273725000Y-94050000D03*
X285275000Y-96250000D03*
%TD*%
D10*
%TO.C,S18*%
X277000000Y-83000000D03*
D11*
X282500000Y-83000000D03*
X271500000Y-83000000D03*
D12*
X282000000Y-79250000D03*
X277000000Y-77050000D03*
D13*
X273725000Y-77050000D03*
X285275000Y-79250000D03*
%TD*%
D10*
%TO.C,S19*%
X295000000Y-100000000D03*
D11*
X300500000Y-100000000D03*
X289500000Y-100000000D03*
D12*
X300000000Y-96250000D03*
X295000000Y-94050000D03*
D13*
X291725000Y-94050000D03*
X303275000Y-96250000D03*
%TD*%
D10*
%TO.C,S20*%
X295000000Y-83000000D03*
D11*
X300500000Y-83000000D03*
X289500000Y-83000000D03*
D12*
X300000000Y-79250000D03*
X295000000Y-77050000D03*
D13*
X291725000Y-77050000D03*
X303275000Y-79250000D03*
%TD*%
D10*
%TO.C,S21*%
X313000000Y-100000000D03*
D11*
X318500000Y-100000000D03*
X307500000Y-100000000D03*
D12*
X318000000Y-96250000D03*
X313000000Y-94050000D03*
D13*
X309725000Y-94050000D03*
X321275000Y-96250000D03*
%TD*%
D10*
%TO.C,S22*%
X313000000Y-83000000D03*
D11*
X318500000Y-83000000D03*
X307500000Y-83000000D03*
D12*
X318000000Y-79250000D03*
X313000000Y-77050000D03*
D13*
X309725000Y-77050000D03*
X321275000Y-79250000D03*
%TD*%
D10*
%TO.C,S23*%
X154000000Y-134000000D03*
D11*
X159500000Y-134000000D03*
X148500000Y-134000000D03*
D12*
X159000000Y-130250000D03*
X154000000Y-128050000D03*
D13*
X150725000Y-128050000D03*
X162275000Y-130250000D03*
%TD*%
D10*
%TO.C,S24*%
X172000000Y-134000000D03*
D11*
X177500000Y-134000000D03*
X166500000Y-134000000D03*
D12*
X177000000Y-130250000D03*
X172000000Y-128050000D03*
D13*
X168725000Y-128050000D03*
X180275000Y-130250000D03*
%TD*%
D10*
%TO.C,S25*%
X223000000Y-134000000D03*
D11*
X228500000Y-134000000D03*
X217500000Y-134000000D03*
D12*
X228000000Y-130250000D03*
X223000000Y-128050000D03*
D13*
X219725000Y-128050000D03*
X231275000Y-130250000D03*
%TD*%
D10*
%TO.C,S26*%
X241000000Y-134000000D03*
D11*
X246500000Y-134000000D03*
X235500000Y-134000000D03*
D12*
X246000000Y-130250000D03*
X241000000Y-128050000D03*
D13*
X237725000Y-128050000D03*
X249275000Y-130250000D03*
%TD*%
D14*
%TO.C,D1*%
X101650000Y-105000000D03*
X98350000Y-105000000D03*
D15*
X96190000Y-105000000D03*
D16*
X103810000Y-105000000D03*
%TD*%
D14*
%TO.C,D2*%
X101650000Y-88000000D03*
X98350000Y-88000000D03*
D15*
X96190000Y-88000000D03*
D16*
X103810000Y-88000000D03*
%TD*%
D14*
%TO.C,D3*%
X119650000Y-105000000D03*
X116350000Y-105000000D03*
D15*
X114190000Y-105000000D03*
D16*
X121810000Y-105000000D03*
%TD*%
D14*
%TO.C,D4*%
X119650000Y-88000000D03*
X116350000Y-88000000D03*
D15*
X114190000Y-88000000D03*
D16*
X121810000Y-88000000D03*
%TD*%
D14*
%TO.C,D5*%
X137650000Y-105000000D03*
X134350000Y-105000000D03*
D15*
X132190000Y-105000000D03*
D16*
X139810000Y-105000000D03*
%TD*%
D14*
%TO.C,D6*%
X137650000Y-88000000D03*
X134350000Y-88000000D03*
D15*
X132190000Y-88000000D03*
D16*
X139810000Y-88000000D03*
%TD*%
D14*
%TO.C,D7*%
X155650000Y-105000000D03*
X152350000Y-105000000D03*
D15*
X150190000Y-105000000D03*
D16*
X157810000Y-105000000D03*
%TD*%
D14*
%TO.C,D8*%
X155650000Y-88000000D03*
X152350000Y-88000000D03*
D15*
X150190000Y-88000000D03*
D16*
X157810000Y-88000000D03*
%TD*%
D14*
%TO.C,D9*%
X173650000Y-105000000D03*
X170350000Y-105000000D03*
D15*
X168190000Y-105000000D03*
D16*
X175810000Y-105000000D03*
%TD*%
D14*
%TO.C,D10*%
X173650000Y-88000000D03*
X170350000Y-88000000D03*
D15*
X168190000Y-88000000D03*
D16*
X175810000Y-88000000D03*
%TD*%
D14*
%TO.C,D11*%
X224650000Y-105000000D03*
X221350000Y-105000000D03*
D15*
X219190000Y-105000000D03*
D16*
X226810000Y-105000000D03*
%TD*%
D14*
%TO.C,D12*%
X224650000Y-88000000D03*
X221350000Y-88000000D03*
D15*
X219190000Y-88000000D03*
D16*
X226810000Y-88000000D03*
%TD*%
D14*
%TO.C,D13*%
X242650000Y-105000000D03*
X239350000Y-105000000D03*
D15*
X237190000Y-105000000D03*
D16*
X244810000Y-105000000D03*
%TD*%
D14*
%TO.C,D14*%
X242650000Y-88000000D03*
X239350000Y-88000000D03*
D15*
X237190000Y-88000000D03*
D16*
X244810000Y-88000000D03*
%TD*%
D14*
%TO.C,D15*%
X260650000Y-105000000D03*
X257350000Y-105000000D03*
D15*
X255190000Y-105000000D03*
D16*
X262810000Y-105000000D03*
%TD*%
D14*
%TO.C,D16*%
X260650000Y-88000000D03*
X257350000Y-88000000D03*
D15*
X255190000Y-88000000D03*
D16*
X262810000Y-88000000D03*
%TD*%
D14*
%TO.C,D17*%
X278650000Y-105000000D03*
X275350000Y-105000000D03*
D15*
X273190000Y-105000000D03*
D16*
X280810000Y-105000000D03*
%TD*%
D14*
%TO.C,D18*%
X278650000Y-88000000D03*
X275350000Y-88000000D03*
D15*
X273190000Y-88000000D03*
D16*
X280810000Y-88000000D03*
%TD*%
D14*
%TO.C,D19*%
X296650000Y-105000000D03*
X293350000Y-105000000D03*
D15*
X291190000Y-105000000D03*
D16*
X298810000Y-105000000D03*
%TD*%
D14*
%TO.C,D20*%
X296650000Y-88000000D03*
X293350000Y-88000000D03*
D15*
X291190000Y-88000000D03*
D16*
X298810000Y-88000000D03*
%TD*%
D14*
%TO.C,D21*%
X314650000Y-105000000D03*
X311350000Y-105000000D03*
D15*
X309190000Y-105000000D03*
D16*
X316810000Y-105000000D03*
%TD*%
D14*
%TO.C,D22*%
X314650000Y-88000000D03*
X311350000Y-88000000D03*
D15*
X309190000Y-88000000D03*
D16*
X316810000Y-88000000D03*
%TD*%
D14*
%TO.C,D23*%
X155650000Y-139000000D03*
X152350000Y-139000000D03*
D15*
X150190000Y-139000000D03*
D16*
X157810000Y-139000000D03*
%TD*%
D14*
%TO.C,D24*%
X173650000Y-139000000D03*
X170350000Y-139000000D03*
D15*
X168190000Y-139000000D03*
D16*
X175810000Y-139000000D03*
%TD*%
D14*
%TO.C,D25*%
X224650000Y-139000000D03*
X221350000Y-139000000D03*
D15*
X219190000Y-139000000D03*
D16*
X226810000Y-139000000D03*
%TD*%
D14*
%TO.C,D26*%
X242650000Y-139000000D03*
X239350000Y-139000000D03*
D15*
X237190000Y-139000000D03*
D16*
X244810000Y-139000000D03*
%TD*%
D17*
%TO.C,MCU1*%
X189880000Y-73990000D03*
D18*
X189880000Y-76530000D03*
D17*
X189880000Y-79070000D03*
X189880000Y-81610000D03*
X189880000Y-84150000D03*
X189880000Y-86690000D03*
X189880000Y-89230000D03*
X189880000Y-91770000D03*
X189880000Y-94310000D03*
X189880000Y-96850000D03*
X189880000Y-99390000D03*
X189880000Y-101930000D03*
X189880000Y-104470000D03*
X202580000Y-104470000D03*
X200040000Y-104470000D03*
X197500000Y-104470000D03*
X194960000Y-104470000D03*
X192420000Y-104470000D03*
X205120000Y-73990000D03*
X205120000Y-76530000D03*
X205120000Y-79070000D03*
X205120000Y-81610000D03*
X205120000Y-84150000D03*
X205120000Y-86690000D03*
X205120000Y-89230000D03*
X205120000Y-91770000D03*
X205120000Y-94310000D03*
X205120000Y-96850000D03*
X205120000Y-99390000D03*
X205120000Y-101930000D03*
X205120000Y-104470000D03*
%TD*%
D19*
%TO.C,B1*%
X194400000Y-89650000D03*
X200600000Y-89650000D03*
X194400000Y-93350000D03*
X200600000Y-93350000D03*
%TD*%
D20*
%TO.C,_1*%
X109000000Y-92000000D03*
D21*
X110629630Y-92000000D03*
X110152322Y-93152322D03*
X109000000Y-93629630D03*
X107847678Y-93152322D03*
X107370370Y-92000000D03*
X107847678Y-90847678D03*
X109000000Y-90370370D03*
X110152322Y-90847678D03*
%TD*%
D20*
%TO.C,_2*%
X163000000Y-92000000D03*
D21*
X164629630Y-92000000D03*
X164152322Y-93152322D03*
X163000000Y-93629630D03*
X161847678Y-93152322D03*
X161370370Y-92000000D03*
X161847678Y-90847678D03*
X163000000Y-90370370D03*
X164152322Y-90847678D03*
%TD*%
D20*
%TO.C,_3*%
X232000000Y-92000000D03*
D21*
X233629630Y-92000000D03*
X233152322Y-93152322D03*
X232000000Y-93629630D03*
X230847678Y-93152322D03*
X230370370Y-92000000D03*
X230847678Y-90847678D03*
X232000000Y-90370370D03*
X233152322Y-90847678D03*
%TD*%
D20*
%TO.C,_4*%
X304000000Y-92000000D03*
D21*
X305629630Y-92000000D03*
X305152322Y-93152322D03*
X304000000Y-93629630D03*
X302847678Y-93152322D03*
X302370370Y-92000000D03*
X302847678Y-90847678D03*
X304000000Y-90370370D03*
X305152322Y-90847678D03*
%TD*%
D20*
%TO.C,_5*%
X154000000Y-117000000D03*
D21*
X155629630Y-117000000D03*
X155152322Y-118152322D03*
X154000000Y-118629630D03*
X152847678Y-118152322D03*
X152370370Y-117000000D03*
X152847678Y-115847678D03*
X154000000Y-115370370D03*
X155152322Y-115847678D03*
%TD*%
D20*
%TO.C,_6*%
X241000000Y-117000000D03*
D21*
X242629630Y-117000000D03*
X242152322Y-118152322D03*
X241000000Y-118629630D03*
X239847678Y-118152322D03*
X239370370Y-117000000D03*
X239847678Y-115847678D03*
X241000000Y-115370370D03*
X242152322Y-115847678D03*
%TD*%
D20*
%TO.C,_7*%
X187500000Y-134000000D03*
D21*
X189129630Y-134000000D03*
X188652322Y-135152322D03*
X187500000Y-135629630D03*
X186347678Y-135152322D03*
X185870370Y-134000000D03*
X186347678Y-132847678D03*
X187500000Y-132370370D03*
X188652322Y-132847678D03*
%TD*%
D20*
%TO.C,_8*%
X207500000Y-134000000D03*
D21*
X209129630Y-134000000D03*
X208652322Y-135152322D03*
X207500000Y-135629630D03*
X206347678Y-135152322D03*
X205870370Y-134000000D03*
X206347678Y-132847678D03*
X207500000Y-132370370D03*
X208652322Y-132847678D03*
%TD*%
M02*
