%TF.GenerationSoftware,KiCad,Pcbnew,9.0.0*%
%TF.CreationDate,2025-03-14T12:58:10+01:00*%
%TF.ProjectId,pcb,7063622e-6b69-4636-9164-5f7063625858,v1.0.0*%
%TF.SameCoordinates,Original*%
%TF.FileFunction,Legend,Top*%
%TF.FilePolarity,Positive*%
%FSLAX46Y46*%
G04 Gerber Fmt 4.6, Leading zero omitted, Abs format (unit mm)*
G04 Created by KiCad (PCBNEW 9.0.0) date 2025-03-14 12:58:10*
%MOMM*%
%LPD*%
G01*
G04 APERTURE LIST*
%ADD10C,0.150000*%
%ADD11C,0.100000*%
%ADD12C,1.752600*%
%ADD13R,1.752600X1.752600*%
G04 APERTURE END LIST*
D10*
X186857839Y-74744523D02*
X186292154Y-74178837D01*
X186292154Y-74178837D02*
X186426841Y-74044150D01*
X186426841Y-74044150D02*
X186534590Y-73990276D01*
X186534590Y-73990276D02*
X186642340Y-73990276D01*
X186642340Y-73990276D02*
X186723152Y-74017213D01*
X186723152Y-74017213D02*
X186857839Y-74098025D01*
X186857839Y-74098025D02*
X186938651Y-74178837D01*
X186938651Y-74178837D02*
X187019463Y-74313524D01*
X187019463Y-74313524D02*
X187046401Y-74394337D01*
X187046401Y-74394337D02*
X187046401Y-74502086D01*
X187046401Y-74502086D02*
X186992526Y-74609836D01*
X186992526Y-74609836D02*
X186857839Y-74744523D01*
X187208025Y-73963338D02*
X187639024Y-73532340D01*
X186965589Y-77176773D02*
X186507653Y-77095961D01*
X186642340Y-77500022D02*
X186076654Y-76934337D01*
X186076654Y-76934337D02*
X186292154Y-76718837D01*
X186292154Y-76718837D02*
X186372966Y-76691900D01*
X186372966Y-76691900D02*
X186426841Y-76691900D01*
X186426841Y-76691900D02*
X186507653Y-76718837D01*
X186507653Y-76718837D02*
X186588465Y-76799650D01*
X186588465Y-76799650D02*
X186615402Y-76880462D01*
X186615402Y-76880462D02*
X186615402Y-76934337D01*
X186615402Y-76934337D02*
X186588465Y-77015149D01*
X186588465Y-77015149D02*
X186372966Y-77230648D01*
X187019463Y-76799650D02*
X187288837Y-76530276D01*
X187127213Y-77015149D02*
X186750089Y-76260902D01*
X186750089Y-76260902D02*
X187504337Y-76638025D01*
X187073338Y-75937653D02*
X187773710Y-76368651D01*
X187773710Y-76368651D02*
X187477399Y-75856841D01*
X187477399Y-75856841D02*
X187989210Y-76153152D01*
X187989210Y-76153152D02*
X187558211Y-75452780D01*
X186386435Y-79218431D02*
X186305623Y-79245368D01*
X186305623Y-79245368D02*
X186224811Y-79326180D01*
X186224811Y-79326180D02*
X186170936Y-79433930D01*
X186170936Y-79433930D02*
X186170936Y-79541680D01*
X186170936Y-79541680D02*
X186197873Y-79622492D01*
X186197873Y-79622492D02*
X186278685Y-79757179D01*
X186278685Y-79757179D02*
X186359498Y-79837991D01*
X186359498Y-79837991D02*
X186494185Y-79918803D01*
X186494185Y-79918803D02*
X186574997Y-79945741D01*
X186574997Y-79945741D02*
X186682746Y-79945741D01*
X186682746Y-79945741D02*
X186790496Y-79891866D01*
X186790496Y-79891866D02*
X186844371Y-79837991D01*
X186844371Y-79837991D02*
X186898246Y-79730241D01*
X186898246Y-79730241D02*
X186898246Y-79676367D01*
X186898246Y-79676367D02*
X186709684Y-79487805D01*
X186709684Y-79487805D02*
X186601934Y-79595554D01*
X187194557Y-79487805D02*
X186628872Y-78922119D01*
X186628872Y-78922119D02*
X187517806Y-79164556D01*
X187517806Y-79164556D02*
X186952120Y-78598871D01*
X187787180Y-78895182D02*
X187221494Y-78329497D01*
X187221494Y-78329497D02*
X187356181Y-78194810D01*
X187356181Y-78194810D02*
X187463931Y-78140935D01*
X187463931Y-78140935D02*
X187571680Y-78140935D01*
X187571680Y-78140935D02*
X187652493Y-78167872D01*
X187652493Y-78167872D02*
X187787180Y-78248685D01*
X187787180Y-78248685D02*
X187867992Y-78329497D01*
X187867992Y-78329497D02*
X187948804Y-78464184D01*
X187948804Y-78464184D02*
X187975741Y-78544996D01*
X187975741Y-78544996D02*
X187975741Y-78652746D01*
X187975741Y-78652746D02*
X187921867Y-78760495D01*
X187921867Y-78760495D02*
X187787180Y-78895182D01*
X187046401Y-82175961D02*
X186588465Y-82095149D01*
X186723152Y-82499210D02*
X186157467Y-81933524D01*
X186157467Y-81933524D02*
X186372966Y-81718025D01*
X186372966Y-81718025D02*
X186453778Y-81691088D01*
X186453778Y-81691088D02*
X186507653Y-81691088D01*
X186507653Y-81691088D02*
X186588465Y-81718025D01*
X186588465Y-81718025D02*
X186669277Y-81798837D01*
X186669277Y-81798837D02*
X186696215Y-81879649D01*
X186696215Y-81879649D02*
X186696215Y-81933524D01*
X186696215Y-81933524D02*
X186669277Y-82014336D01*
X186669277Y-82014336D02*
X186453778Y-82229836D01*
X187234963Y-81933524D02*
X187342712Y-81879649D01*
X187342712Y-81879649D02*
X187477399Y-81744962D01*
X187477399Y-81744962D02*
X187504337Y-81664150D01*
X187504337Y-81664150D02*
X187504337Y-81610275D01*
X187504337Y-81610275D02*
X187477399Y-81529463D01*
X187477399Y-81529463D02*
X187423525Y-81475588D01*
X187423525Y-81475588D02*
X187342712Y-81448651D01*
X187342712Y-81448651D02*
X187288838Y-81448651D01*
X187288838Y-81448651D02*
X187208025Y-81475588D01*
X187208025Y-81475588D02*
X187073338Y-81556401D01*
X187073338Y-81556401D02*
X186992526Y-81583338D01*
X186992526Y-81583338D02*
X186938651Y-81583338D01*
X186938651Y-81583338D02*
X186857839Y-81556401D01*
X186857839Y-81556401D02*
X186803964Y-81502526D01*
X186803964Y-81502526D02*
X186777027Y-81421714D01*
X186777027Y-81421714D02*
X186777027Y-81367839D01*
X186777027Y-81367839D02*
X186803964Y-81287027D01*
X186803964Y-81287027D02*
X186938651Y-81152340D01*
X186938651Y-81152340D02*
X187046401Y-81098465D01*
X187181088Y-80909903D02*
X187504337Y-80586654D01*
X187908398Y-81313964D02*
X187342713Y-80748278D01*
X186036248Y-84594743D02*
X186790496Y-84971866D01*
X186790496Y-84971866D02*
X186413372Y-84217619D01*
X187436993Y-84217619D02*
X187436993Y-84271494D01*
X187436993Y-84271494D02*
X187383118Y-84379244D01*
X187383118Y-84379244D02*
X187329243Y-84433118D01*
X187329243Y-84433118D02*
X187221494Y-84486993D01*
X187221494Y-84486993D02*
X187113744Y-84486993D01*
X187113744Y-84486993D02*
X187032932Y-84460056D01*
X187032932Y-84460056D02*
X186898245Y-84379244D01*
X186898245Y-84379244D02*
X186817433Y-84298431D01*
X186817433Y-84298431D02*
X186736621Y-84163744D01*
X186736621Y-84163744D02*
X186709683Y-84082932D01*
X186709683Y-84082932D02*
X186709683Y-83975183D01*
X186709683Y-83975183D02*
X186763558Y-83867433D01*
X186763558Y-83867433D02*
X186817433Y-83813558D01*
X186817433Y-83813558D02*
X186925182Y-83759683D01*
X186925182Y-83759683D02*
X186979057Y-83759683D01*
X188002678Y-83651934D02*
X188002678Y-83705809D01*
X188002678Y-83705809D02*
X187948804Y-83813558D01*
X187948804Y-83813558D02*
X187894929Y-83867433D01*
X187894929Y-83867433D02*
X187787179Y-83921308D01*
X187787179Y-83921308D02*
X187679430Y-83921308D01*
X187679430Y-83921308D02*
X187598617Y-83894370D01*
X187598617Y-83894370D02*
X187463930Y-83813558D01*
X187463930Y-83813558D02*
X187383118Y-83732746D01*
X187383118Y-83732746D02*
X187302306Y-83598059D01*
X187302306Y-83598059D02*
X187275369Y-83517247D01*
X187275369Y-83517247D02*
X187275369Y-83409497D01*
X187275369Y-83409497D02*
X187329243Y-83301748D01*
X187329243Y-83301748D02*
X187383118Y-83247873D01*
X187383118Y-83247873D02*
X187490868Y-83193998D01*
X187490868Y-83193998D02*
X187544743Y-83193998D01*
X186669277Y-87633085D02*
X186103592Y-87067399D01*
X186103592Y-87067399D02*
X186238279Y-86932712D01*
X186238279Y-86932712D02*
X186346028Y-86878838D01*
X186346028Y-86878838D02*
X186453778Y-86878838D01*
X186453778Y-86878838D02*
X186534590Y-86905775D01*
X186534590Y-86905775D02*
X186669277Y-86986587D01*
X186669277Y-86986587D02*
X186750089Y-87067399D01*
X186750089Y-87067399D02*
X186830901Y-87202086D01*
X186830901Y-87202086D02*
X186857839Y-87282899D01*
X186857839Y-87282899D02*
X186857839Y-87390648D01*
X186857839Y-87390648D02*
X186803964Y-87498398D01*
X186803964Y-87498398D02*
X186669277Y-87633085D01*
X186696214Y-86582526D02*
X186696214Y-86528651D01*
X186696214Y-86528651D02*
X186723152Y-86447839D01*
X186723152Y-86447839D02*
X186857839Y-86313152D01*
X186857839Y-86313152D02*
X186938651Y-86286215D01*
X186938651Y-86286215D02*
X186992526Y-86286215D01*
X186992526Y-86286215D02*
X187073338Y-86313152D01*
X187073338Y-86313152D02*
X187127213Y-86367027D01*
X187127213Y-86367027D02*
X187181088Y-86474777D01*
X187181088Y-86474777D02*
X187181088Y-87121274D01*
X187181088Y-87121274D02*
X187531274Y-86771088D01*
X187800648Y-86501714D02*
X187908398Y-86393964D01*
X187908398Y-86393964D02*
X187935335Y-86313152D01*
X187935335Y-86313152D02*
X187935335Y-86259277D01*
X187935335Y-86259277D02*
X187908398Y-86124590D01*
X187908398Y-86124590D02*
X187827585Y-85989903D01*
X187827585Y-85989903D02*
X187612086Y-85774404D01*
X187612086Y-85774404D02*
X187531274Y-85747467D01*
X187531274Y-85747467D02*
X187477399Y-85747467D01*
X187477399Y-85747467D02*
X187396587Y-85774404D01*
X187396587Y-85774404D02*
X187288837Y-85882154D01*
X187288837Y-85882154D02*
X187261900Y-85962966D01*
X187261900Y-85962966D02*
X187261900Y-86016841D01*
X187261900Y-86016841D02*
X187288837Y-86097653D01*
X187288837Y-86097653D02*
X187423524Y-86232340D01*
X187423524Y-86232340D02*
X187504337Y-86259277D01*
X187504337Y-86259277D02*
X187558211Y-86259277D01*
X187558211Y-86259277D02*
X187639024Y-86232340D01*
X187639024Y-86232340D02*
X187746773Y-86124590D01*
X187746773Y-86124590D02*
X187773711Y-86043778D01*
X187773711Y-86043778D02*
X187773711Y-85989903D01*
X187773711Y-85989903D02*
X187746773Y-85909091D01*
X186669277Y-90173085D02*
X186103592Y-89607399D01*
X186103592Y-89607399D02*
X186238279Y-89472712D01*
X186238279Y-89472712D02*
X186346028Y-89418838D01*
X186346028Y-89418838D02*
X186453778Y-89418838D01*
X186453778Y-89418838D02*
X186534590Y-89445775D01*
X186534590Y-89445775D02*
X186669277Y-89526587D01*
X186669277Y-89526587D02*
X186750089Y-89607399D01*
X186750089Y-89607399D02*
X186830901Y-89742086D01*
X186830901Y-89742086D02*
X186857839Y-89822899D01*
X186857839Y-89822899D02*
X186857839Y-89930648D01*
X186857839Y-89930648D02*
X186803964Y-90038398D01*
X186803964Y-90038398D02*
X186669277Y-90173085D01*
X186696214Y-89122526D02*
X186696214Y-89068651D01*
X186696214Y-89068651D02*
X186723152Y-88987839D01*
X186723152Y-88987839D02*
X186857839Y-88853152D01*
X186857839Y-88853152D02*
X186938651Y-88826215D01*
X186938651Y-88826215D02*
X186992526Y-88826215D01*
X186992526Y-88826215D02*
X187073338Y-88853152D01*
X187073338Y-88853152D02*
X187127213Y-88907027D01*
X187127213Y-88907027D02*
X187181088Y-89014777D01*
X187181088Y-89014777D02*
X187181088Y-89661274D01*
X187181088Y-89661274D02*
X187531274Y-89311088D01*
X187531274Y-88664590D02*
X187450462Y-88691528D01*
X187450462Y-88691528D02*
X187396587Y-88691528D01*
X187396587Y-88691528D02*
X187315775Y-88664590D01*
X187315775Y-88664590D02*
X187288837Y-88637653D01*
X187288837Y-88637653D02*
X187261900Y-88556841D01*
X187261900Y-88556841D02*
X187261900Y-88502966D01*
X187261900Y-88502966D02*
X187288837Y-88422154D01*
X187288837Y-88422154D02*
X187396587Y-88314404D01*
X187396587Y-88314404D02*
X187477399Y-88287467D01*
X187477399Y-88287467D02*
X187531274Y-88287467D01*
X187531274Y-88287467D02*
X187612086Y-88314404D01*
X187612086Y-88314404D02*
X187639024Y-88341341D01*
X187639024Y-88341341D02*
X187665961Y-88422154D01*
X187665961Y-88422154D02*
X187665961Y-88476028D01*
X187665961Y-88476028D02*
X187639024Y-88556841D01*
X187639024Y-88556841D02*
X187531274Y-88664590D01*
X187531274Y-88664590D02*
X187504337Y-88745402D01*
X187504337Y-88745402D02*
X187504337Y-88799277D01*
X187504337Y-88799277D02*
X187531274Y-88880089D01*
X187531274Y-88880089D02*
X187639024Y-88987839D01*
X187639024Y-88987839D02*
X187719836Y-89014776D01*
X187719836Y-89014776D02*
X187773711Y-89014776D01*
X187773711Y-89014776D02*
X187854523Y-88987839D01*
X187854523Y-88987839D02*
X187962272Y-88880089D01*
X187962272Y-88880089D02*
X187989210Y-88799277D01*
X187989210Y-88799277D02*
X187989210Y-88745402D01*
X187989210Y-88745402D02*
X187962272Y-88664590D01*
X187962272Y-88664590D02*
X187854523Y-88556841D01*
X187854523Y-88556841D02*
X187773711Y-88529903D01*
X187773711Y-88529903D02*
X187719836Y-88529903D01*
X187719836Y-88529903D02*
X187639024Y-88556841D01*
X186669277Y-92713085D02*
X186103592Y-92147399D01*
X186103592Y-92147399D02*
X186238279Y-92012712D01*
X186238279Y-92012712D02*
X186346028Y-91958838D01*
X186346028Y-91958838D02*
X186453778Y-91958838D01*
X186453778Y-91958838D02*
X186534590Y-91985775D01*
X186534590Y-91985775D02*
X186669277Y-92066587D01*
X186669277Y-92066587D02*
X186750089Y-92147399D01*
X186750089Y-92147399D02*
X186830901Y-92282086D01*
X186830901Y-92282086D02*
X186857839Y-92362899D01*
X186857839Y-92362899D02*
X186857839Y-92470648D01*
X186857839Y-92470648D02*
X186803964Y-92578398D01*
X186803964Y-92578398D02*
X186669277Y-92713085D01*
X186696214Y-91662526D02*
X186696214Y-91608651D01*
X186696214Y-91608651D02*
X186723152Y-91527839D01*
X186723152Y-91527839D02*
X186857839Y-91393152D01*
X186857839Y-91393152D02*
X186938651Y-91366215D01*
X186938651Y-91366215D02*
X186992526Y-91366215D01*
X186992526Y-91366215D02*
X187073338Y-91393152D01*
X187073338Y-91393152D02*
X187127213Y-91447027D01*
X187127213Y-91447027D02*
X187181088Y-91554777D01*
X187181088Y-91554777D02*
X187181088Y-92201274D01*
X187181088Y-92201274D02*
X187531274Y-91851088D01*
X187154150Y-91096841D02*
X187531274Y-90719717D01*
X187531274Y-90719717D02*
X187854523Y-91527839D01*
X186669277Y-95253085D02*
X186103592Y-94687399D01*
X186103592Y-94687399D02*
X186238279Y-94552712D01*
X186238279Y-94552712D02*
X186346028Y-94498838D01*
X186346028Y-94498838D02*
X186453778Y-94498838D01*
X186453778Y-94498838D02*
X186534590Y-94525775D01*
X186534590Y-94525775D02*
X186669277Y-94606587D01*
X186669277Y-94606587D02*
X186750089Y-94687399D01*
X186750089Y-94687399D02*
X186830901Y-94822086D01*
X186830901Y-94822086D02*
X186857839Y-94902899D01*
X186857839Y-94902899D02*
X186857839Y-95010648D01*
X186857839Y-95010648D02*
X186803964Y-95118398D01*
X186803964Y-95118398D02*
X186669277Y-95253085D01*
X186696214Y-94202526D02*
X186696214Y-94148651D01*
X186696214Y-94148651D02*
X186723152Y-94067839D01*
X186723152Y-94067839D02*
X186857839Y-93933152D01*
X186857839Y-93933152D02*
X186938651Y-93906215D01*
X186938651Y-93906215D02*
X186992526Y-93906215D01*
X186992526Y-93906215D02*
X187073338Y-93933152D01*
X187073338Y-93933152D02*
X187127213Y-93987027D01*
X187127213Y-93987027D02*
X187181088Y-94094777D01*
X187181088Y-94094777D02*
X187181088Y-94741274D01*
X187181088Y-94741274D02*
X187531274Y-94391088D01*
X187450462Y-93340529D02*
X187342712Y-93448279D01*
X187342712Y-93448279D02*
X187315775Y-93529091D01*
X187315775Y-93529091D02*
X187315775Y-93582966D01*
X187315775Y-93582966D02*
X187342712Y-93717653D01*
X187342712Y-93717653D02*
X187423524Y-93852340D01*
X187423524Y-93852340D02*
X187639024Y-94067839D01*
X187639024Y-94067839D02*
X187719836Y-94094776D01*
X187719836Y-94094776D02*
X187773711Y-94094776D01*
X187773711Y-94094776D02*
X187854523Y-94067839D01*
X187854523Y-94067839D02*
X187962272Y-93960089D01*
X187962272Y-93960089D02*
X187989210Y-93879277D01*
X187989210Y-93879277D02*
X187989210Y-93825402D01*
X187989210Y-93825402D02*
X187962272Y-93744590D01*
X187962272Y-93744590D02*
X187827585Y-93609903D01*
X187827585Y-93609903D02*
X187746773Y-93582966D01*
X187746773Y-93582966D02*
X187692898Y-93582966D01*
X187692898Y-93582966D02*
X187612086Y-93609903D01*
X187612086Y-93609903D02*
X187504337Y-93717653D01*
X187504337Y-93717653D02*
X187477399Y-93798465D01*
X187477399Y-93798465D02*
X187477399Y-93852340D01*
X187477399Y-93852340D02*
X187504337Y-93933152D01*
X186669277Y-97793085D02*
X186103592Y-97227399D01*
X186103592Y-97227399D02*
X186238279Y-97092712D01*
X186238279Y-97092712D02*
X186346028Y-97038838D01*
X186346028Y-97038838D02*
X186453778Y-97038838D01*
X186453778Y-97038838D02*
X186534590Y-97065775D01*
X186534590Y-97065775D02*
X186669277Y-97146587D01*
X186669277Y-97146587D02*
X186750089Y-97227399D01*
X186750089Y-97227399D02*
X186830901Y-97362086D01*
X186830901Y-97362086D02*
X186857839Y-97442899D01*
X186857839Y-97442899D02*
X186857839Y-97550648D01*
X186857839Y-97550648D02*
X186803964Y-97658398D01*
X186803964Y-97658398D02*
X186669277Y-97793085D01*
X186696214Y-96742526D02*
X186696214Y-96688651D01*
X186696214Y-96688651D02*
X186723152Y-96607839D01*
X186723152Y-96607839D02*
X186857839Y-96473152D01*
X186857839Y-96473152D02*
X186938651Y-96446215D01*
X186938651Y-96446215D02*
X186992526Y-96446215D01*
X186992526Y-96446215D02*
X187073338Y-96473152D01*
X187073338Y-96473152D02*
X187127213Y-96527027D01*
X187127213Y-96527027D02*
X187181088Y-96634777D01*
X187181088Y-96634777D02*
X187181088Y-97281274D01*
X187181088Y-97281274D02*
X187531274Y-96931088D01*
X187234963Y-96203778D02*
X187234963Y-96149903D01*
X187234963Y-96149903D02*
X187261900Y-96069091D01*
X187261900Y-96069091D02*
X187396587Y-95934404D01*
X187396587Y-95934404D02*
X187477399Y-95907467D01*
X187477399Y-95907467D02*
X187531274Y-95907467D01*
X187531274Y-95907467D02*
X187612086Y-95934404D01*
X187612086Y-95934404D02*
X187665961Y-95988279D01*
X187665961Y-95988279D02*
X187719836Y-96096028D01*
X187719836Y-96096028D02*
X187719836Y-96742526D01*
X187719836Y-96742526D02*
X188070022Y-96392340D01*
X186669277Y-100333085D02*
X186103592Y-99767399D01*
X186103592Y-99767399D02*
X186238279Y-99632712D01*
X186238279Y-99632712D02*
X186346028Y-99578838D01*
X186346028Y-99578838D02*
X186453778Y-99578838D01*
X186453778Y-99578838D02*
X186534590Y-99605775D01*
X186534590Y-99605775D02*
X186669277Y-99686587D01*
X186669277Y-99686587D02*
X186750089Y-99767399D01*
X186750089Y-99767399D02*
X186830901Y-99902086D01*
X186830901Y-99902086D02*
X186857839Y-99982899D01*
X186857839Y-99982899D02*
X186857839Y-100090648D01*
X186857839Y-100090648D02*
X186803964Y-100198398D01*
X186803964Y-100198398D02*
X186669277Y-100333085D01*
X186696214Y-99282526D02*
X186696214Y-99228651D01*
X186696214Y-99228651D02*
X186723152Y-99147839D01*
X186723152Y-99147839D02*
X186857839Y-99013152D01*
X186857839Y-99013152D02*
X186938651Y-98986215D01*
X186938651Y-98986215D02*
X186992526Y-98986215D01*
X186992526Y-98986215D02*
X187073338Y-99013152D01*
X187073338Y-99013152D02*
X187127213Y-99067027D01*
X187127213Y-99067027D02*
X187181088Y-99174777D01*
X187181088Y-99174777D02*
X187181088Y-99821274D01*
X187181088Y-99821274D02*
X187531274Y-99471088D01*
X187315775Y-98555216D02*
X187369650Y-98501341D01*
X187369650Y-98501341D02*
X187450462Y-98474404D01*
X187450462Y-98474404D02*
X187504337Y-98474404D01*
X187504337Y-98474404D02*
X187585149Y-98501341D01*
X187585149Y-98501341D02*
X187719836Y-98582154D01*
X187719836Y-98582154D02*
X187854523Y-98716841D01*
X187854523Y-98716841D02*
X187935335Y-98851528D01*
X187935335Y-98851528D02*
X187962272Y-98932340D01*
X187962272Y-98932340D02*
X187962272Y-98986215D01*
X187962272Y-98986215D02*
X187935335Y-99067027D01*
X187935335Y-99067027D02*
X187881460Y-99120902D01*
X187881460Y-99120902D02*
X187800648Y-99147839D01*
X187800648Y-99147839D02*
X187746773Y-99147839D01*
X187746773Y-99147839D02*
X187665961Y-99120902D01*
X187665961Y-99120902D02*
X187531274Y-99040089D01*
X187531274Y-99040089D02*
X187396587Y-98905402D01*
X187396587Y-98905402D02*
X187315775Y-98770715D01*
X187315775Y-98770715D02*
X187288837Y-98689903D01*
X187288837Y-98689903D02*
X187288837Y-98636028D01*
X187288837Y-98636028D02*
X187315775Y-98555216D01*
X186669277Y-102873085D02*
X186103592Y-102307399D01*
X186103592Y-102307399D02*
X186238279Y-102172712D01*
X186238279Y-102172712D02*
X186346028Y-102118838D01*
X186346028Y-102118838D02*
X186453778Y-102118838D01*
X186453778Y-102118838D02*
X186534590Y-102145775D01*
X186534590Y-102145775D02*
X186669277Y-102226587D01*
X186669277Y-102226587D02*
X186750089Y-102307399D01*
X186750089Y-102307399D02*
X186830901Y-102442086D01*
X186830901Y-102442086D02*
X186857839Y-102522899D01*
X186857839Y-102522899D02*
X186857839Y-102630648D01*
X186857839Y-102630648D02*
X186803964Y-102738398D01*
X186803964Y-102738398D02*
X186669277Y-102873085D01*
X186696214Y-101822526D02*
X186696214Y-101768651D01*
X186696214Y-101768651D02*
X186723152Y-101687839D01*
X186723152Y-101687839D02*
X186857839Y-101553152D01*
X186857839Y-101553152D02*
X186938651Y-101526215D01*
X186938651Y-101526215D02*
X186992526Y-101526215D01*
X186992526Y-101526215D02*
X187073338Y-101553152D01*
X187073338Y-101553152D02*
X187127213Y-101607027D01*
X187127213Y-101607027D02*
X187181088Y-101714777D01*
X187181088Y-101714777D02*
X187181088Y-102361274D01*
X187181088Y-102361274D02*
X187531274Y-102011088D01*
X187154150Y-101256841D02*
X187504337Y-100906654D01*
X187504337Y-100906654D02*
X187531274Y-101310715D01*
X187531274Y-101310715D02*
X187612086Y-101229903D01*
X187612086Y-101229903D02*
X187692898Y-101202966D01*
X187692898Y-101202966D02*
X187746773Y-101202966D01*
X187746773Y-101202966D02*
X187827585Y-101229903D01*
X187827585Y-101229903D02*
X187962272Y-101364590D01*
X187962272Y-101364590D02*
X187989210Y-101445402D01*
X187989210Y-101445402D02*
X187989210Y-101499277D01*
X187989210Y-101499277D02*
X187962272Y-101580089D01*
X187962272Y-101580089D02*
X187800648Y-101741714D01*
X187800648Y-101741714D02*
X187719836Y-101768651D01*
X187719836Y-101768651D02*
X187665961Y-101768651D01*
X186669277Y-105413085D02*
X186103592Y-104847399D01*
X186103592Y-104847399D02*
X186238279Y-104712712D01*
X186238279Y-104712712D02*
X186346028Y-104658838D01*
X186346028Y-104658838D02*
X186453778Y-104658838D01*
X186453778Y-104658838D02*
X186534590Y-104685775D01*
X186534590Y-104685775D02*
X186669277Y-104766587D01*
X186669277Y-104766587D02*
X186750089Y-104847399D01*
X186750089Y-104847399D02*
X186830901Y-104982086D01*
X186830901Y-104982086D02*
X186857839Y-105062899D01*
X186857839Y-105062899D02*
X186857839Y-105170648D01*
X186857839Y-105170648D02*
X186803964Y-105278398D01*
X186803964Y-105278398D02*
X186669277Y-105413085D01*
X186696214Y-104362526D02*
X186696214Y-104308651D01*
X186696214Y-104308651D02*
X186723152Y-104227839D01*
X186723152Y-104227839D02*
X186857839Y-104093152D01*
X186857839Y-104093152D02*
X186938651Y-104066215D01*
X186938651Y-104066215D02*
X186992526Y-104066215D01*
X186992526Y-104066215D02*
X187073338Y-104093152D01*
X187073338Y-104093152D02*
X187127213Y-104147027D01*
X187127213Y-104147027D02*
X187181088Y-104254777D01*
X187181088Y-104254777D02*
X187181088Y-104901274D01*
X187181088Y-104901274D02*
X187531274Y-104551088D01*
X188070022Y-104012340D02*
X187746773Y-104335589D01*
X187908398Y-104173964D02*
X187342712Y-103608279D01*
X187342712Y-103608279D02*
X187369650Y-103742966D01*
X187369650Y-103742966D02*
X187369650Y-103850715D01*
X187369650Y-103850715D02*
X187342712Y-103931528D01*
X202149277Y-108343085D02*
X201583592Y-107777399D01*
X201583592Y-107777399D02*
X201718279Y-107642712D01*
X201718279Y-107642712D02*
X201826028Y-107588838D01*
X201826028Y-107588838D02*
X201933778Y-107588838D01*
X201933778Y-107588838D02*
X202014590Y-107615775D01*
X202014590Y-107615775D02*
X202149277Y-107696587D01*
X202149277Y-107696587D02*
X202230089Y-107777399D01*
X202230089Y-107777399D02*
X202310901Y-107912086D01*
X202310901Y-107912086D02*
X202337839Y-107992899D01*
X202337839Y-107992899D02*
X202337839Y-108100648D01*
X202337839Y-108100648D02*
X202283964Y-108208398D01*
X202283964Y-108208398D02*
X202149277Y-108343085D01*
X203011274Y-107481088D02*
X202688025Y-107804337D01*
X202849649Y-107642712D02*
X202283964Y-107077027D01*
X202283964Y-107077027D02*
X202310901Y-107211714D01*
X202310901Y-107211714D02*
X202310901Y-107319464D01*
X202310901Y-107319464D02*
X202283964Y-107400276D01*
X202714963Y-106753778D02*
X202714963Y-106699903D01*
X202714963Y-106699903D02*
X202741900Y-106619091D01*
X202741900Y-106619091D02*
X202876587Y-106484404D01*
X202876587Y-106484404D02*
X202957399Y-106457467D01*
X202957399Y-106457467D02*
X203011274Y-106457467D01*
X203011274Y-106457467D02*
X203092086Y-106484404D01*
X203092086Y-106484404D02*
X203145961Y-106538279D01*
X203145961Y-106538279D02*
X203199836Y-106646028D01*
X203199836Y-106646028D02*
X203199836Y-107292526D01*
X203199836Y-107292526D02*
X203550022Y-106942340D01*
X199609277Y-108343085D02*
X199043592Y-107777399D01*
X199043592Y-107777399D02*
X199178279Y-107642712D01*
X199178279Y-107642712D02*
X199286028Y-107588838D01*
X199286028Y-107588838D02*
X199393778Y-107588838D01*
X199393778Y-107588838D02*
X199474590Y-107615775D01*
X199474590Y-107615775D02*
X199609277Y-107696587D01*
X199609277Y-107696587D02*
X199690089Y-107777399D01*
X199690089Y-107777399D02*
X199770901Y-107912086D01*
X199770901Y-107912086D02*
X199797839Y-107992899D01*
X199797839Y-107992899D02*
X199797839Y-108100648D01*
X199797839Y-108100648D02*
X199743964Y-108208398D01*
X199743964Y-108208398D02*
X199609277Y-108343085D01*
X200471274Y-107481088D02*
X200148025Y-107804337D01*
X200309649Y-107642712D02*
X199743964Y-107077027D01*
X199743964Y-107077027D02*
X199770901Y-107211714D01*
X199770901Y-107211714D02*
X199770901Y-107319464D01*
X199770901Y-107319464D02*
X199743964Y-107400276D01*
X200094150Y-106726841D02*
X200444337Y-106376654D01*
X200444337Y-106376654D02*
X200471274Y-106780715D01*
X200471274Y-106780715D02*
X200552086Y-106699903D01*
X200552086Y-106699903D02*
X200632898Y-106672966D01*
X200632898Y-106672966D02*
X200686773Y-106672966D01*
X200686773Y-106672966D02*
X200767585Y-106699903D01*
X200767585Y-106699903D02*
X200902272Y-106834590D01*
X200902272Y-106834590D02*
X200929210Y-106915402D01*
X200929210Y-106915402D02*
X200929210Y-106969277D01*
X200929210Y-106969277D02*
X200902272Y-107050089D01*
X200902272Y-107050089D02*
X200740648Y-107211714D01*
X200740648Y-107211714D02*
X200659836Y-107238651D01*
X200659836Y-107238651D02*
X200605961Y-107238651D01*
X197069277Y-108343085D02*
X196503592Y-107777399D01*
X196503592Y-107777399D02*
X196638279Y-107642712D01*
X196638279Y-107642712D02*
X196746028Y-107588838D01*
X196746028Y-107588838D02*
X196853778Y-107588838D01*
X196853778Y-107588838D02*
X196934590Y-107615775D01*
X196934590Y-107615775D02*
X197069277Y-107696587D01*
X197069277Y-107696587D02*
X197150089Y-107777399D01*
X197150089Y-107777399D02*
X197230901Y-107912086D01*
X197230901Y-107912086D02*
X197257839Y-107992899D01*
X197257839Y-107992899D02*
X197257839Y-108100648D01*
X197257839Y-108100648D02*
X197203964Y-108208398D01*
X197203964Y-108208398D02*
X197069277Y-108343085D01*
X197931274Y-107481088D02*
X197608025Y-107804337D01*
X197769649Y-107642712D02*
X197203964Y-107077027D01*
X197203964Y-107077027D02*
X197230901Y-107211714D01*
X197230901Y-107211714D02*
X197230901Y-107319464D01*
X197230901Y-107319464D02*
X197203964Y-107400276D01*
X198039024Y-106619091D02*
X198416147Y-106996215D01*
X197688837Y-106538279D02*
X197958211Y-107077027D01*
X197958211Y-107077027D02*
X198308398Y-106726841D01*
X194529277Y-108343085D02*
X193963592Y-107777399D01*
X193963592Y-107777399D02*
X194098279Y-107642712D01*
X194098279Y-107642712D02*
X194206028Y-107588838D01*
X194206028Y-107588838D02*
X194313778Y-107588838D01*
X194313778Y-107588838D02*
X194394590Y-107615775D01*
X194394590Y-107615775D02*
X194529277Y-107696587D01*
X194529277Y-107696587D02*
X194610089Y-107777399D01*
X194610089Y-107777399D02*
X194690901Y-107912086D01*
X194690901Y-107912086D02*
X194717839Y-107992899D01*
X194717839Y-107992899D02*
X194717839Y-108100648D01*
X194717839Y-108100648D02*
X194663964Y-108208398D01*
X194663964Y-108208398D02*
X194529277Y-108343085D01*
X195391274Y-107481088D02*
X195068025Y-107804337D01*
X195229649Y-107642712D02*
X194663964Y-107077027D01*
X194663964Y-107077027D02*
X194690901Y-107211714D01*
X194690901Y-107211714D02*
X194690901Y-107319464D01*
X194690901Y-107319464D02*
X194663964Y-107400276D01*
X195337399Y-106403592D02*
X195068025Y-106672966D01*
X195068025Y-106672966D02*
X195310462Y-106969277D01*
X195310462Y-106969277D02*
X195310462Y-106915402D01*
X195310462Y-106915402D02*
X195337399Y-106834590D01*
X195337399Y-106834590D02*
X195472086Y-106699903D01*
X195472086Y-106699903D02*
X195552898Y-106672966D01*
X195552898Y-106672966D02*
X195606773Y-106672966D01*
X195606773Y-106672966D02*
X195687585Y-106699903D01*
X195687585Y-106699903D02*
X195822272Y-106834590D01*
X195822272Y-106834590D02*
X195849210Y-106915402D01*
X195849210Y-106915402D02*
X195849210Y-106969277D01*
X195849210Y-106969277D02*
X195822272Y-107050089D01*
X195822272Y-107050089D02*
X195687585Y-107184776D01*
X195687585Y-107184776D02*
X195606773Y-107211714D01*
X195606773Y-107211714D02*
X195552898Y-107211714D01*
X191989277Y-108343085D02*
X191423592Y-107777399D01*
X191423592Y-107777399D02*
X191558279Y-107642712D01*
X191558279Y-107642712D02*
X191666028Y-107588838D01*
X191666028Y-107588838D02*
X191773778Y-107588838D01*
X191773778Y-107588838D02*
X191854590Y-107615775D01*
X191854590Y-107615775D02*
X191989277Y-107696587D01*
X191989277Y-107696587D02*
X192070089Y-107777399D01*
X192070089Y-107777399D02*
X192150901Y-107912086D01*
X192150901Y-107912086D02*
X192177839Y-107992899D01*
X192177839Y-107992899D02*
X192177839Y-108100648D01*
X192177839Y-108100648D02*
X192123964Y-108208398D01*
X192123964Y-108208398D02*
X191989277Y-108343085D01*
X192851274Y-107481088D02*
X192528025Y-107804337D01*
X192689649Y-107642712D02*
X192123964Y-107077027D01*
X192123964Y-107077027D02*
X192150901Y-107211714D01*
X192150901Y-107211714D02*
X192150901Y-107319464D01*
X192150901Y-107319464D02*
X192123964Y-107400276D01*
X192797399Y-106403592D02*
X192528025Y-106672966D01*
X192528025Y-106672966D02*
X192770462Y-106969277D01*
X192770462Y-106969277D02*
X192770462Y-106915402D01*
X192770462Y-106915402D02*
X192797399Y-106834590D01*
X192797399Y-106834590D02*
X192932086Y-106699903D01*
X192932086Y-106699903D02*
X193012898Y-106672966D01*
X193012898Y-106672966D02*
X193066773Y-106672966D01*
X193066773Y-106672966D02*
X193147585Y-106699903D01*
X193147585Y-106699903D02*
X193282272Y-106834590D01*
X193282272Y-106834590D02*
X193309210Y-106915402D01*
X193309210Y-106915402D02*
X193309210Y-106969277D01*
X193309210Y-106969277D02*
X193282272Y-107050089D01*
X193282272Y-107050089D02*
X193147585Y-107184776D01*
X193147585Y-107184776D02*
X193066773Y-107211714D01*
X193066773Y-107211714D02*
X193012898Y-107211714D01*
X207657839Y-74744523D02*
X207092154Y-74178837D01*
X207092154Y-74178837D02*
X207226841Y-74044150D01*
X207226841Y-74044150D02*
X207334590Y-73990276D01*
X207334590Y-73990276D02*
X207442340Y-73990276D01*
X207442340Y-73990276D02*
X207523152Y-74017213D01*
X207523152Y-74017213D02*
X207657839Y-74098025D01*
X207657839Y-74098025D02*
X207738651Y-74178837D01*
X207738651Y-74178837D02*
X207819463Y-74313524D01*
X207819463Y-74313524D02*
X207846401Y-74394337D01*
X207846401Y-74394337D02*
X207846401Y-74502086D01*
X207846401Y-74502086D02*
X207792526Y-74609836D01*
X207792526Y-74609836D02*
X207657839Y-74744523D01*
X208008025Y-73963338D02*
X208439024Y-73532340D01*
X208439024Y-73963338D02*
X208008025Y-73532340D01*
X207738651Y-77203710D02*
X207172966Y-76638025D01*
X207172966Y-76638025D02*
X207307653Y-76503338D01*
X207307653Y-76503338D02*
X207415403Y-76449463D01*
X207415403Y-76449463D02*
X207523152Y-76449463D01*
X207523152Y-76449463D02*
X207603964Y-76476401D01*
X207603964Y-76476401D02*
X207738651Y-76557213D01*
X207738651Y-76557213D02*
X207819464Y-76638025D01*
X207819464Y-76638025D02*
X207900276Y-76772712D01*
X207900276Y-76772712D02*
X207927213Y-76853524D01*
X207927213Y-76853524D02*
X207927213Y-76961274D01*
X207927213Y-76961274D02*
X207873338Y-77069023D01*
X207873338Y-77069023D02*
X207738651Y-77203710D01*
X207846401Y-75964590D02*
X207900276Y-75910715D01*
X207900276Y-75910715D02*
X207981088Y-75883778D01*
X207981088Y-75883778D02*
X208034963Y-75883778D01*
X208034963Y-75883778D02*
X208115775Y-75910715D01*
X208115775Y-75910715D02*
X208250462Y-75991527D01*
X208250462Y-75991527D02*
X208385149Y-76126214D01*
X208385149Y-76126214D02*
X208465961Y-76260901D01*
X208465961Y-76260901D02*
X208492899Y-76341714D01*
X208492899Y-76341714D02*
X208492899Y-76395588D01*
X208492899Y-76395588D02*
X208465961Y-76476401D01*
X208465961Y-76476401D02*
X208412087Y-76530275D01*
X208412087Y-76530275D02*
X208331274Y-76557213D01*
X208331274Y-76557213D02*
X208277399Y-76557213D01*
X208277399Y-76557213D02*
X208196587Y-76530275D01*
X208196587Y-76530275D02*
X208061900Y-76449463D01*
X208061900Y-76449463D02*
X207927213Y-76314776D01*
X207927213Y-76314776D02*
X207846401Y-76180089D01*
X207846401Y-76180089D02*
X207819464Y-76099277D01*
X207819464Y-76099277D02*
X207819464Y-76045402D01*
X207819464Y-76045402D02*
X207846401Y-75964590D01*
X207738651Y-79743710D02*
X207172966Y-79178025D01*
X207172966Y-79178025D02*
X207307653Y-79043338D01*
X207307653Y-79043338D02*
X207415403Y-78989463D01*
X207415403Y-78989463D02*
X207523152Y-78989463D01*
X207523152Y-78989463D02*
X207603964Y-79016401D01*
X207603964Y-79016401D02*
X207738651Y-79097213D01*
X207738651Y-79097213D02*
X207819464Y-79178025D01*
X207819464Y-79178025D02*
X207900276Y-79312712D01*
X207900276Y-79312712D02*
X207927213Y-79393524D01*
X207927213Y-79393524D02*
X207927213Y-79501274D01*
X207927213Y-79501274D02*
X207873338Y-79609023D01*
X207873338Y-79609023D02*
X207738651Y-79743710D01*
X208600648Y-78881714D02*
X208277399Y-79204962D01*
X208439024Y-79043338D02*
X207873338Y-78477653D01*
X207873338Y-78477653D02*
X207900276Y-78612340D01*
X207900276Y-78612340D02*
X207900276Y-78720089D01*
X207900276Y-78720089D02*
X207873338Y-78800901D01*
X207186435Y-81758431D02*
X207105623Y-81785368D01*
X207105623Y-81785368D02*
X207024811Y-81866180D01*
X207024811Y-81866180D02*
X206970936Y-81973930D01*
X206970936Y-81973930D02*
X206970936Y-82081680D01*
X206970936Y-82081680D02*
X206997873Y-82162492D01*
X206997873Y-82162492D02*
X207078685Y-82297179D01*
X207078685Y-82297179D02*
X207159498Y-82377991D01*
X207159498Y-82377991D02*
X207294185Y-82458803D01*
X207294185Y-82458803D02*
X207374997Y-82485741D01*
X207374997Y-82485741D02*
X207482746Y-82485741D01*
X207482746Y-82485741D02*
X207590496Y-82431866D01*
X207590496Y-82431866D02*
X207644371Y-82377991D01*
X207644371Y-82377991D02*
X207698246Y-82270241D01*
X207698246Y-82270241D02*
X207698246Y-82216367D01*
X207698246Y-82216367D02*
X207509684Y-82027805D01*
X207509684Y-82027805D02*
X207401934Y-82135554D01*
X207994557Y-82027805D02*
X207428872Y-81462119D01*
X207428872Y-81462119D02*
X208317806Y-81704556D01*
X208317806Y-81704556D02*
X207752120Y-81138871D01*
X208587180Y-81435182D02*
X208021494Y-80869497D01*
X208021494Y-80869497D02*
X208156181Y-80734810D01*
X208156181Y-80734810D02*
X208263931Y-80680935D01*
X208263931Y-80680935D02*
X208371680Y-80680935D01*
X208371680Y-80680935D02*
X208452493Y-80707872D01*
X208452493Y-80707872D02*
X208587180Y-80788685D01*
X208587180Y-80788685D02*
X208667992Y-80869497D01*
X208667992Y-80869497D02*
X208748804Y-81004184D01*
X208748804Y-81004184D02*
X208775741Y-81084996D01*
X208775741Y-81084996D02*
X208775741Y-81192746D01*
X208775741Y-81192746D02*
X208721867Y-81300495D01*
X208721867Y-81300495D02*
X208587180Y-81435182D01*
X207186435Y-84298431D02*
X207105623Y-84325368D01*
X207105623Y-84325368D02*
X207024811Y-84406180D01*
X207024811Y-84406180D02*
X206970936Y-84513930D01*
X206970936Y-84513930D02*
X206970936Y-84621680D01*
X206970936Y-84621680D02*
X206997873Y-84702492D01*
X206997873Y-84702492D02*
X207078685Y-84837179D01*
X207078685Y-84837179D02*
X207159498Y-84917991D01*
X207159498Y-84917991D02*
X207294185Y-84998803D01*
X207294185Y-84998803D02*
X207374997Y-85025741D01*
X207374997Y-85025741D02*
X207482746Y-85025741D01*
X207482746Y-85025741D02*
X207590496Y-84971866D01*
X207590496Y-84971866D02*
X207644371Y-84917991D01*
X207644371Y-84917991D02*
X207698246Y-84810241D01*
X207698246Y-84810241D02*
X207698246Y-84756367D01*
X207698246Y-84756367D02*
X207509684Y-84567805D01*
X207509684Y-84567805D02*
X207401934Y-84675554D01*
X207994557Y-84567805D02*
X207428872Y-84002119D01*
X207428872Y-84002119D02*
X208317806Y-84244556D01*
X208317806Y-84244556D02*
X207752120Y-83678871D01*
X208587180Y-83975182D02*
X208021494Y-83409497D01*
X208021494Y-83409497D02*
X208156181Y-83274810D01*
X208156181Y-83274810D02*
X208263931Y-83220935D01*
X208263931Y-83220935D02*
X208371680Y-83220935D01*
X208371680Y-83220935D02*
X208452493Y-83247872D01*
X208452493Y-83247872D02*
X208587180Y-83328685D01*
X208587180Y-83328685D02*
X208667992Y-83409497D01*
X208667992Y-83409497D02*
X208748804Y-83544184D01*
X208748804Y-83544184D02*
X208775741Y-83624996D01*
X208775741Y-83624996D02*
X208775741Y-83732746D01*
X208775741Y-83732746D02*
X208721867Y-83840495D01*
X208721867Y-83840495D02*
X208587180Y-83975182D01*
X207738651Y-87363710D02*
X207172966Y-86798025D01*
X207172966Y-86798025D02*
X207307653Y-86663338D01*
X207307653Y-86663338D02*
X207415403Y-86609463D01*
X207415403Y-86609463D02*
X207523152Y-86609463D01*
X207523152Y-86609463D02*
X207603964Y-86636401D01*
X207603964Y-86636401D02*
X207738651Y-86717213D01*
X207738651Y-86717213D02*
X207819464Y-86798025D01*
X207819464Y-86798025D02*
X207900276Y-86932712D01*
X207900276Y-86932712D02*
X207927213Y-87013524D01*
X207927213Y-87013524D02*
X207927213Y-87121274D01*
X207927213Y-87121274D02*
X207873338Y-87229023D01*
X207873338Y-87229023D02*
X207738651Y-87363710D01*
X207765589Y-86313152D02*
X207765589Y-86259277D01*
X207765589Y-86259277D02*
X207792526Y-86178465D01*
X207792526Y-86178465D02*
X207927213Y-86043778D01*
X207927213Y-86043778D02*
X208008025Y-86016840D01*
X208008025Y-86016840D02*
X208061900Y-86016840D01*
X208061900Y-86016840D02*
X208142712Y-86043778D01*
X208142712Y-86043778D02*
X208196587Y-86097653D01*
X208196587Y-86097653D02*
X208250462Y-86205402D01*
X208250462Y-86205402D02*
X208250462Y-86851900D01*
X208250462Y-86851900D02*
X208600648Y-86501714D01*
X207738651Y-89903710D02*
X207172966Y-89338025D01*
X207172966Y-89338025D02*
X207307653Y-89203338D01*
X207307653Y-89203338D02*
X207415403Y-89149463D01*
X207415403Y-89149463D02*
X207523152Y-89149463D01*
X207523152Y-89149463D02*
X207603964Y-89176401D01*
X207603964Y-89176401D02*
X207738651Y-89257213D01*
X207738651Y-89257213D02*
X207819464Y-89338025D01*
X207819464Y-89338025D02*
X207900276Y-89472712D01*
X207900276Y-89472712D02*
X207927213Y-89553524D01*
X207927213Y-89553524D02*
X207927213Y-89661274D01*
X207927213Y-89661274D02*
X207873338Y-89769023D01*
X207873338Y-89769023D02*
X207738651Y-89903710D01*
X207684777Y-88826214D02*
X208034963Y-88476028D01*
X208034963Y-88476028D02*
X208061900Y-88880089D01*
X208061900Y-88880089D02*
X208142712Y-88799277D01*
X208142712Y-88799277D02*
X208223525Y-88772340D01*
X208223525Y-88772340D02*
X208277399Y-88772340D01*
X208277399Y-88772340D02*
X208358212Y-88799277D01*
X208358212Y-88799277D02*
X208492899Y-88933964D01*
X208492899Y-88933964D02*
X208519836Y-89014776D01*
X208519836Y-89014776D02*
X208519836Y-89068651D01*
X208519836Y-89068651D02*
X208492899Y-89149463D01*
X208492899Y-89149463D02*
X208331274Y-89311088D01*
X208331274Y-89311088D02*
X208250462Y-89338025D01*
X208250462Y-89338025D02*
X208196587Y-89338025D01*
X207738651Y-92443710D02*
X207172966Y-91878025D01*
X207172966Y-91878025D02*
X207307653Y-91743338D01*
X207307653Y-91743338D02*
X207415403Y-91689463D01*
X207415403Y-91689463D02*
X207523152Y-91689463D01*
X207523152Y-91689463D02*
X207603964Y-91716401D01*
X207603964Y-91716401D02*
X207738651Y-91797213D01*
X207738651Y-91797213D02*
X207819464Y-91878025D01*
X207819464Y-91878025D02*
X207900276Y-92012712D01*
X207900276Y-92012712D02*
X207927213Y-92093524D01*
X207927213Y-92093524D02*
X207927213Y-92201274D01*
X207927213Y-92201274D02*
X207873338Y-92309023D01*
X207873338Y-92309023D02*
X207738651Y-92443710D01*
X208169650Y-91258465D02*
X208546774Y-91635588D01*
X207819464Y-91177653D02*
X208088838Y-91716401D01*
X208088838Y-91716401D02*
X208439024Y-91366214D01*
X207738651Y-94983710D02*
X207172966Y-94418025D01*
X207172966Y-94418025D02*
X207307653Y-94283338D01*
X207307653Y-94283338D02*
X207415403Y-94229463D01*
X207415403Y-94229463D02*
X207523152Y-94229463D01*
X207523152Y-94229463D02*
X207603964Y-94256401D01*
X207603964Y-94256401D02*
X207738651Y-94337213D01*
X207738651Y-94337213D02*
X207819464Y-94418025D01*
X207819464Y-94418025D02*
X207900276Y-94552712D01*
X207900276Y-94552712D02*
X207927213Y-94633524D01*
X207927213Y-94633524D02*
X207927213Y-94741274D01*
X207927213Y-94741274D02*
X207873338Y-94849023D01*
X207873338Y-94849023D02*
X207738651Y-94983710D01*
X208008025Y-93582966D02*
X207738651Y-93852340D01*
X207738651Y-93852340D02*
X207981088Y-94148651D01*
X207981088Y-94148651D02*
X207981088Y-94094776D01*
X207981088Y-94094776D02*
X208008025Y-94013964D01*
X208008025Y-94013964D02*
X208142712Y-93879277D01*
X208142712Y-93879277D02*
X208223525Y-93852340D01*
X208223525Y-93852340D02*
X208277399Y-93852340D01*
X208277399Y-93852340D02*
X208358212Y-93879277D01*
X208358212Y-93879277D02*
X208492899Y-94013964D01*
X208492899Y-94013964D02*
X208519836Y-94094776D01*
X208519836Y-94094776D02*
X208519836Y-94148651D01*
X208519836Y-94148651D02*
X208492899Y-94229463D01*
X208492899Y-94229463D02*
X208358212Y-94364150D01*
X208358212Y-94364150D02*
X208277399Y-94391088D01*
X208277399Y-94391088D02*
X208223525Y-94391088D01*
X207738651Y-97523710D02*
X207172966Y-96958025D01*
X207172966Y-96958025D02*
X207307653Y-96823338D01*
X207307653Y-96823338D02*
X207415403Y-96769463D01*
X207415403Y-96769463D02*
X207523152Y-96769463D01*
X207523152Y-96769463D02*
X207603964Y-96796401D01*
X207603964Y-96796401D02*
X207738651Y-96877213D01*
X207738651Y-96877213D02*
X207819464Y-96958025D01*
X207819464Y-96958025D02*
X207900276Y-97092712D01*
X207900276Y-97092712D02*
X207927213Y-97173524D01*
X207927213Y-97173524D02*
X207927213Y-97281274D01*
X207927213Y-97281274D02*
X207873338Y-97389023D01*
X207873338Y-97389023D02*
X207738651Y-97523710D01*
X207981088Y-96149903D02*
X207873338Y-96257653D01*
X207873338Y-96257653D02*
X207846401Y-96338465D01*
X207846401Y-96338465D02*
X207846401Y-96392340D01*
X207846401Y-96392340D02*
X207873338Y-96527027D01*
X207873338Y-96527027D02*
X207954151Y-96661714D01*
X207954151Y-96661714D02*
X208169650Y-96877213D01*
X208169650Y-96877213D02*
X208250462Y-96904150D01*
X208250462Y-96904150D02*
X208304337Y-96904150D01*
X208304337Y-96904150D02*
X208385149Y-96877213D01*
X208385149Y-96877213D02*
X208492899Y-96769463D01*
X208492899Y-96769463D02*
X208519836Y-96688651D01*
X208519836Y-96688651D02*
X208519836Y-96634776D01*
X208519836Y-96634776D02*
X208492899Y-96553964D01*
X208492899Y-96553964D02*
X208358212Y-96419277D01*
X208358212Y-96419277D02*
X208277399Y-96392340D01*
X208277399Y-96392340D02*
X208223525Y-96392340D01*
X208223525Y-96392340D02*
X208142712Y-96419277D01*
X208142712Y-96419277D02*
X208034963Y-96527027D01*
X208034963Y-96527027D02*
X208008025Y-96607839D01*
X208008025Y-96607839D02*
X208008025Y-96661714D01*
X208008025Y-96661714D02*
X208034963Y-96742526D01*
X207738651Y-100063710D02*
X207172966Y-99498025D01*
X207172966Y-99498025D02*
X207307653Y-99363338D01*
X207307653Y-99363338D02*
X207415403Y-99309463D01*
X207415403Y-99309463D02*
X207523152Y-99309463D01*
X207523152Y-99309463D02*
X207603964Y-99336401D01*
X207603964Y-99336401D02*
X207738651Y-99417213D01*
X207738651Y-99417213D02*
X207819464Y-99498025D01*
X207819464Y-99498025D02*
X207900276Y-99632712D01*
X207900276Y-99632712D02*
X207927213Y-99713524D01*
X207927213Y-99713524D02*
X207927213Y-99821274D01*
X207927213Y-99821274D02*
X207873338Y-99929023D01*
X207873338Y-99929023D02*
X207738651Y-100063710D01*
X207684777Y-98986214D02*
X208061900Y-98609091D01*
X208061900Y-98609091D02*
X208385149Y-99417213D01*
X207738651Y-102603710D02*
X207172966Y-102038025D01*
X207172966Y-102038025D02*
X207307653Y-101903338D01*
X207307653Y-101903338D02*
X207415403Y-101849463D01*
X207415403Y-101849463D02*
X207523152Y-101849463D01*
X207523152Y-101849463D02*
X207603964Y-101876401D01*
X207603964Y-101876401D02*
X207738651Y-101957213D01*
X207738651Y-101957213D02*
X207819464Y-102038025D01*
X207819464Y-102038025D02*
X207900276Y-102172712D01*
X207900276Y-102172712D02*
X207927213Y-102253524D01*
X207927213Y-102253524D02*
X207927213Y-102361274D01*
X207927213Y-102361274D02*
X207873338Y-102469023D01*
X207873338Y-102469023D02*
X207738651Y-102603710D01*
X208061900Y-101633964D02*
X207981088Y-101660901D01*
X207981088Y-101660901D02*
X207927213Y-101660901D01*
X207927213Y-101660901D02*
X207846401Y-101633964D01*
X207846401Y-101633964D02*
X207819464Y-101607027D01*
X207819464Y-101607027D02*
X207792526Y-101526214D01*
X207792526Y-101526214D02*
X207792526Y-101472340D01*
X207792526Y-101472340D02*
X207819464Y-101391527D01*
X207819464Y-101391527D02*
X207927213Y-101283778D01*
X207927213Y-101283778D02*
X208008025Y-101256840D01*
X208008025Y-101256840D02*
X208061900Y-101256840D01*
X208061900Y-101256840D02*
X208142712Y-101283778D01*
X208142712Y-101283778D02*
X208169650Y-101310715D01*
X208169650Y-101310715D02*
X208196587Y-101391527D01*
X208196587Y-101391527D02*
X208196587Y-101445402D01*
X208196587Y-101445402D02*
X208169650Y-101526214D01*
X208169650Y-101526214D02*
X208061900Y-101633964D01*
X208061900Y-101633964D02*
X208034963Y-101714776D01*
X208034963Y-101714776D02*
X208034963Y-101768651D01*
X208034963Y-101768651D02*
X208061900Y-101849463D01*
X208061900Y-101849463D02*
X208169650Y-101957213D01*
X208169650Y-101957213D02*
X208250462Y-101984150D01*
X208250462Y-101984150D02*
X208304337Y-101984150D01*
X208304337Y-101984150D02*
X208385149Y-101957213D01*
X208385149Y-101957213D02*
X208492899Y-101849463D01*
X208492899Y-101849463D02*
X208519836Y-101768651D01*
X208519836Y-101768651D02*
X208519836Y-101714776D01*
X208519836Y-101714776D02*
X208492899Y-101633964D01*
X208492899Y-101633964D02*
X208385149Y-101526214D01*
X208385149Y-101526214D02*
X208304337Y-101499277D01*
X208304337Y-101499277D02*
X208250462Y-101499277D01*
X208250462Y-101499277D02*
X208169650Y-101526214D01*
X207738651Y-105143710D02*
X207172966Y-104578025D01*
X207172966Y-104578025D02*
X207307653Y-104443338D01*
X207307653Y-104443338D02*
X207415403Y-104389463D01*
X207415403Y-104389463D02*
X207523152Y-104389463D01*
X207523152Y-104389463D02*
X207603964Y-104416401D01*
X207603964Y-104416401D02*
X207738651Y-104497213D01*
X207738651Y-104497213D02*
X207819464Y-104578025D01*
X207819464Y-104578025D02*
X207900276Y-104712712D01*
X207900276Y-104712712D02*
X207927213Y-104793524D01*
X207927213Y-104793524D02*
X207927213Y-104901274D01*
X207927213Y-104901274D02*
X207873338Y-105009023D01*
X207873338Y-105009023D02*
X207738651Y-105143710D01*
X208331274Y-104551088D02*
X208439024Y-104443338D01*
X208439024Y-104443338D02*
X208465961Y-104362526D01*
X208465961Y-104362526D02*
X208465961Y-104308651D01*
X208465961Y-104308651D02*
X208439024Y-104173964D01*
X208439024Y-104173964D02*
X208358212Y-104039277D01*
X208358212Y-104039277D02*
X208142712Y-103823778D01*
X208142712Y-103823778D02*
X208061900Y-103796840D01*
X208061900Y-103796840D02*
X208008025Y-103796840D01*
X208008025Y-103796840D02*
X207927213Y-103823778D01*
X207927213Y-103823778D02*
X207819464Y-103931527D01*
X207819464Y-103931527D02*
X207792526Y-104012340D01*
X207792526Y-104012340D02*
X207792526Y-104066214D01*
X207792526Y-104066214D02*
X207819464Y-104147027D01*
X207819464Y-104147027D02*
X207954151Y-104281714D01*
X207954151Y-104281714D02*
X208034963Y-104308651D01*
X208034963Y-104308651D02*
X208088838Y-104308651D01*
X208088838Y-104308651D02*
X208169650Y-104281714D01*
X208169650Y-104281714D02*
X208277399Y-104173964D01*
X208277399Y-104173964D02*
X208304337Y-104093152D01*
X208304337Y-104093152D02*
X208304337Y-104039277D01*
X208304337Y-104039277D02*
X208277399Y-103958465D01*
D11*
%TO.C,D1*%
X100250000Y-105000000D02*
X100750000Y-105000000D01*
X100250000Y-105400000D02*
X99650000Y-105000000D01*
X100250000Y-104600000D02*
X100250000Y-105400000D01*
X99650000Y-105000000D02*
X100250000Y-104600000D01*
X99650000Y-105000000D02*
X99650000Y-105550000D01*
X99650000Y-105000000D02*
X99650000Y-104450000D01*
X99250000Y-105000000D02*
X99650000Y-105000000D01*
%TO.C,D2*%
X100250000Y-88000000D02*
X100750000Y-88000000D01*
X100250000Y-88400000D02*
X99650000Y-88000000D01*
X100250000Y-87600000D02*
X100250000Y-88400000D01*
X99650000Y-88000000D02*
X100250000Y-87600000D01*
X99650000Y-88000000D02*
X99650000Y-88550000D01*
X99650000Y-88000000D02*
X99650000Y-87450000D01*
X99250000Y-88000000D02*
X99650000Y-88000000D01*
%TO.C,D3*%
X118250000Y-105000000D02*
X118750000Y-105000000D01*
X118250000Y-105400000D02*
X117650000Y-105000000D01*
X118250000Y-104600000D02*
X118250000Y-105400000D01*
X117650000Y-105000000D02*
X118250000Y-104600000D01*
X117650000Y-105000000D02*
X117650000Y-105550000D01*
X117650000Y-105000000D02*
X117650000Y-104450000D01*
X117250000Y-105000000D02*
X117650000Y-105000000D01*
%TO.C,D4*%
X118250000Y-88000000D02*
X118750000Y-88000000D01*
X118250000Y-88400000D02*
X117650000Y-88000000D01*
X118250000Y-87600000D02*
X118250000Y-88400000D01*
X117650000Y-88000000D02*
X118250000Y-87600000D01*
X117650000Y-88000000D02*
X117650000Y-88550000D01*
X117650000Y-88000000D02*
X117650000Y-87450000D01*
X117250000Y-88000000D02*
X117650000Y-88000000D01*
%TO.C,D5*%
X136250000Y-105000000D02*
X136750000Y-105000000D01*
X136250000Y-105400000D02*
X135650000Y-105000000D01*
X136250000Y-104600000D02*
X136250000Y-105400000D01*
X135650000Y-105000000D02*
X136250000Y-104600000D01*
X135650000Y-105000000D02*
X135650000Y-105550000D01*
X135650000Y-105000000D02*
X135650000Y-104450000D01*
X135250000Y-105000000D02*
X135650000Y-105000000D01*
%TO.C,D6*%
X136250000Y-88000000D02*
X136750000Y-88000000D01*
X136250000Y-88400000D02*
X135650000Y-88000000D01*
X136250000Y-87600000D02*
X136250000Y-88400000D01*
X135650000Y-88000000D02*
X136250000Y-87600000D01*
X135650000Y-88000000D02*
X135650000Y-88550000D01*
X135650000Y-88000000D02*
X135650000Y-87450000D01*
X135250000Y-88000000D02*
X135650000Y-88000000D01*
%TO.C,D7*%
X154250000Y-105000000D02*
X154750000Y-105000000D01*
X154250000Y-105400000D02*
X153650000Y-105000000D01*
X154250000Y-104600000D02*
X154250000Y-105400000D01*
X153650000Y-105000000D02*
X154250000Y-104600000D01*
X153650000Y-105000000D02*
X153650000Y-105550000D01*
X153650000Y-105000000D02*
X153650000Y-104450000D01*
X153250000Y-105000000D02*
X153650000Y-105000000D01*
%TO.C,D8*%
X154250000Y-88000000D02*
X154750000Y-88000000D01*
X154250000Y-88400000D02*
X153650000Y-88000000D01*
X154250000Y-87600000D02*
X154250000Y-88400000D01*
X153650000Y-88000000D02*
X154250000Y-87600000D01*
X153650000Y-88000000D02*
X153650000Y-88550000D01*
X153650000Y-88000000D02*
X153650000Y-87450000D01*
X153250000Y-88000000D02*
X153650000Y-88000000D01*
%TO.C,D9*%
X172250000Y-105000000D02*
X172750000Y-105000000D01*
X172250000Y-105400000D02*
X171650000Y-105000000D01*
X172250000Y-104600000D02*
X172250000Y-105400000D01*
X171650000Y-105000000D02*
X172250000Y-104600000D01*
X171650000Y-105000000D02*
X171650000Y-105550000D01*
X171650000Y-105000000D02*
X171650000Y-104450000D01*
X171250000Y-105000000D02*
X171650000Y-105000000D01*
%TO.C,D10*%
X172250000Y-88000000D02*
X172750000Y-88000000D01*
X172250000Y-88400000D02*
X171650000Y-88000000D01*
X172250000Y-87600000D02*
X172250000Y-88400000D01*
X171650000Y-88000000D02*
X172250000Y-87600000D01*
X171650000Y-88000000D02*
X171650000Y-88550000D01*
X171650000Y-88000000D02*
X171650000Y-87450000D01*
X171250000Y-88000000D02*
X171650000Y-88000000D01*
%TO.C,D11*%
X223250000Y-105000000D02*
X223750000Y-105000000D01*
X223250000Y-105400000D02*
X222650000Y-105000000D01*
X223250000Y-104600000D02*
X223250000Y-105400000D01*
X222650000Y-105000000D02*
X223250000Y-104600000D01*
X222650000Y-105000000D02*
X222650000Y-105550000D01*
X222650000Y-105000000D02*
X222650000Y-104450000D01*
X222250000Y-105000000D02*
X222650000Y-105000000D01*
%TO.C,D12*%
X223250000Y-88000000D02*
X223750000Y-88000000D01*
X223250000Y-88400000D02*
X222650000Y-88000000D01*
X223250000Y-87600000D02*
X223250000Y-88400000D01*
X222650000Y-88000000D02*
X223250000Y-87600000D01*
X222650000Y-88000000D02*
X222650000Y-88550000D01*
X222650000Y-88000000D02*
X222650000Y-87450000D01*
X222250000Y-88000000D02*
X222650000Y-88000000D01*
%TO.C,D13*%
X241250000Y-105000000D02*
X241750000Y-105000000D01*
X241250000Y-105400000D02*
X240650000Y-105000000D01*
X241250000Y-104600000D02*
X241250000Y-105400000D01*
X240650000Y-105000000D02*
X241250000Y-104600000D01*
X240650000Y-105000000D02*
X240650000Y-105550000D01*
X240650000Y-105000000D02*
X240650000Y-104450000D01*
X240250000Y-105000000D02*
X240650000Y-105000000D01*
%TO.C,D14*%
X241250000Y-88000000D02*
X241750000Y-88000000D01*
X241250000Y-88400000D02*
X240650000Y-88000000D01*
X241250000Y-87600000D02*
X241250000Y-88400000D01*
X240650000Y-88000000D02*
X241250000Y-87600000D01*
X240650000Y-88000000D02*
X240650000Y-88550000D01*
X240650000Y-88000000D02*
X240650000Y-87450000D01*
X240250000Y-88000000D02*
X240650000Y-88000000D01*
%TO.C,D15*%
X259250000Y-105000000D02*
X259750000Y-105000000D01*
X259250000Y-105400000D02*
X258650000Y-105000000D01*
X259250000Y-104600000D02*
X259250000Y-105400000D01*
X258650000Y-105000000D02*
X259250000Y-104600000D01*
X258650000Y-105000000D02*
X258650000Y-105550000D01*
X258650000Y-105000000D02*
X258650000Y-104450000D01*
X258250000Y-105000000D02*
X258650000Y-105000000D01*
%TO.C,D16*%
X259250000Y-88000000D02*
X259750000Y-88000000D01*
X259250000Y-88400000D02*
X258650000Y-88000000D01*
X259250000Y-87600000D02*
X259250000Y-88400000D01*
X258650000Y-88000000D02*
X259250000Y-87600000D01*
X258650000Y-88000000D02*
X258650000Y-88550000D01*
X258650000Y-88000000D02*
X258650000Y-87450000D01*
X258250000Y-88000000D02*
X258650000Y-88000000D01*
%TO.C,D17*%
X277250000Y-105000000D02*
X277750000Y-105000000D01*
X277250000Y-105400000D02*
X276650000Y-105000000D01*
X277250000Y-104600000D02*
X277250000Y-105400000D01*
X276650000Y-105000000D02*
X277250000Y-104600000D01*
X276650000Y-105000000D02*
X276650000Y-105550000D01*
X276650000Y-105000000D02*
X276650000Y-104450000D01*
X276250000Y-105000000D02*
X276650000Y-105000000D01*
%TO.C,D18*%
X277250000Y-88000000D02*
X277750000Y-88000000D01*
X277250000Y-88400000D02*
X276650000Y-88000000D01*
X277250000Y-87600000D02*
X277250000Y-88400000D01*
X276650000Y-88000000D02*
X277250000Y-87600000D01*
X276650000Y-88000000D02*
X276650000Y-88550000D01*
X276650000Y-88000000D02*
X276650000Y-87450000D01*
X276250000Y-88000000D02*
X276650000Y-88000000D01*
%TO.C,D19*%
X295250000Y-105000000D02*
X295750000Y-105000000D01*
X295250000Y-105400000D02*
X294650000Y-105000000D01*
X295250000Y-104600000D02*
X295250000Y-105400000D01*
X294650000Y-105000000D02*
X295250000Y-104600000D01*
X294650000Y-105000000D02*
X294650000Y-105550000D01*
X294650000Y-105000000D02*
X294650000Y-104450000D01*
X294250000Y-105000000D02*
X294650000Y-105000000D01*
%TO.C,D20*%
X295250000Y-88000000D02*
X295750000Y-88000000D01*
X295250000Y-88400000D02*
X294650000Y-88000000D01*
X295250000Y-87600000D02*
X295250000Y-88400000D01*
X294650000Y-88000000D02*
X295250000Y-87600000D01*
X294650000Y-88000000D02*
X294650000Y-88550000D01*
X294650000Y-88000000D02*
X294650000Y-87450000D01*
X294250000Y-88000000D02*
X294650000Y-88000000D01*
%TO.C,D21*%
X313250000Y-105000000D02*
X313750000Y-105000000D01*
X313250000Y-105400000D02*
X312650000Y-105000000D01*
X313250000Y-104600000D02*
X313250000Y-105400000D01*
X312650000Y-105000000D02*
X313250000Y-104600000D01*
X312650000Y-105000000D02*
X312650000Y-105550000D01*
X312650000Y-105000000D02*
X312650000Y-104450000D01*
X312250000Y-105000000D02*
X312650000Y-105000000D01*
%TO.C,D22*%
X313250000Y-88000000D02*
X313750000Y-88000000D01*
X313250000Y-88400000D02*
X312650000Y-88000000D01*
X313250000Y-87600000D02*
X313250000Y-88400000D01*
X312650000Y-88000000D02*
X313250000Y-87600000D01*
X312650000Y-88000000D02*
X312650000Y-88550000D01*
X312650000Y-88000000D02*
X312650000Y-87450000D01*
X312250000Y-88000000D02*
X312650000Y-88000000D01*
%TO.C,D23*%
X154250000Y-139000000D02*
X154750000Y-139000000D01*
X154250000Y-139400000D02*
X153650000Y-139000000D01*
X154250000Y-138600000D02*
X154250000Y-139400000D01*
X153650000Y-139000000D02*
X154250000Y-138600000D01*
X153650000Y-139000000D02*
X153650000Y-139550000D01*
X153650000Y-139000000D02*
X153650000Y-138450000D01*
X153250000Y-139000000D02*
X153650000Y-139000000D01*
%TO.C,D24*%
X172250000Y-139000000D02*
X172750000Y-139000000D01*
X172250000Y-139400000D02*
X171650000Y-139000000D01*
X172250000Y-138600000D02*
X172250000Y-139400000D01*
X171650000Y-139000000D02*
X172250000Y-138600000D01*
X171650000Y-139000000D02*
X171650000Y-139550000D01*
X171650000Y-139000000D02*
X171650000Y-138450000D01*
X171250000Y-139000000D02*
X171650000Y-139000000D01*
%TO.C,D25*%
X223250000Y-139000000D02*
X223750000Y-139000000D01*
X223250000Y-139400000D02*
X222650000Y-139000000D01*
X223250000Y-138600000D02*
X223250000Y-139400000D01*
X222650000Y-139000000D02*
X223250000Y-138600000D01*
X222650000Y-139000000D02*
X222650000Y-139550000D01*
X222650000Y-139000000D02*
X222650000Y-138450000D01*
X222250000Y-139000000D02*
X222650000Y-139000000D01*
%TO.C,D26*%
X241250000Y-139000000D02*
X241750000Y-139000000D01*
X241250000Y-139400000D02*
X240650000Y-139000000D01*
X241250000Y-138600000D02*
X241250000Y-139400000D01*
X240650000Y-139000000D02*
X241250000Y-138600000D01*
X240650000Y-139000000D02*
X240650000Y-139550000D01*
X240650000Y-139000000D02*
X240650000Y-138450000D01*
X240250000Y-139000000D02*
X240650000Y-139000000D01*
D10*
%TO.C,MCU1*%
X188610000Y-72720000D02*
X188610000Y-105740000D01*
X188610000Y-105740000D02*
X206390000Y-105740000D01*
X206390000Y-105740000D02*
X206390000Y-72720000D01*
X206390000Y-72720000D02*
X188610000Y-72720000D01*
X191150000Y-75260000D02*
X191150000Y-77800000D01*
X191150000Y-75260000D02*
X188610000Y-75260000D01*
X191150000Y-77800000D02*
X188610000Y-77800000D01*
%TD*%
D12*
%TO.C,MCU1*%
X189880000Y-73990000D03*
D13*
X189880000Y-76530000D03*
D12*
X189880000Y-79070000D03*
X189880000Y-81610000D03*
X189880000Y-84150000D03*
X189880000Y-86690000D03*
X189880000Y-89230000D03*
X189880000Y-91770000D03*
X189880000Y-94310000D03*
X189880000Y-96850000D03*
X189880000Y-99390000D03*
X189880000Y-101930000D03*
X189880000Y-104470000D03*
X202580000Y-104470000D03*
X200040000Y-104470000D03*
X197500000Y-104470000D03*
X194960000Y-104470000D03*
X192420000Y-104470000D03*
X205120000Y-73990000D03*
X205120000Y-76530000D03*
X205120000Y-79070000D03*
X205120000Y-81610000D03*
X205120000Y-84150000D03*
X205120000Y-86690000D03*
X205120000Y-89230000D03*
X205120000Y-91770000D03*
X205120000Y-94310000D03*
X205120000Y-96850000D03*
X205120000Y-99390000D03*
X205120000Y-101930000D03*
X205120000Y-104470000D03*
%TD*%
M02*
