solid csg.js
facet normal 0 0 -1
outer loop
vertex 324 -72.5 0
vertex 324 -110.5 0
vertex 252 -110.5 0
endloop
endfacet
facet normal 0 0 -1
outer loop
vertex 324 -72.5 0
vertex 252 -110.5 0
vertex 143 -110.5 0
endloop
endfacet
facet normal 0 0 -1
outer loop
vertex 324 -72.5 0
vertex 143 -110.5 0
vertex 89 -110.5 0
endloop
endfacet
facet normal 0 0 -1
outer loop
vertex 324 -72.5 0
vertex 89 -110.5 0
vertex 89 -72.5 0
endloop
endfacet
facet normal 0 0 -1
outer loop
vertex 252 -110.5 0
vertex 252 -144.5 0
vertex 143 -144.5 0
endloop
endfacet
facet normal 0 0 -1
outer loop
vertex 252 -110.5 0
vertex 143 -144.5 0
vertex 143 -110.5 0
endloop
endfacet
facet normal 0 0 1
outer loop
vertex 252 -144.5 1.6
vertex 252 -110.5 1.6
vertex 143 -110.5 1.6
endloop
endfacet
facet normal 0 0 1
outer loop
vertex 252 -144.5 1.6
vertex 143 -110.5 1.6
vertex 143 -144.5 1.6
endloop
endfacet
facet normal 0 0 1
outer loop
vertex 143 -110.5 1.6
vertex 252 -110.5 1.6
vertex 324 -110.5 1.6
endloop
endfacet
facet normal 0 0 1
outer loop
vertex 143 -110.5 1.6
vertex 324 -110.5 1.6
vertex 324 -72.5 1.6
endloop
endfacet
facet normal 0 0 1
outer loop
vertex 143 -110.5 1.6
vertex 324 -72.5 1.6
vertex 89 -72.5 1.6
endloop
endfacet
facet normal 0 0 1
outer loop
vertex 143 -110.5 1.6
vertex 89 -72.5 1.6
vertex 89 -110.5 1.6
endloop
endfacet
facet normal 0 -1 0
outer loop
vertex 143 -110.5 0
vertex 143 -110.5 1.6
vertex 89 -110.5 1.6
endloop
endfacet
facet normal 0 -1 0
outer loop
vertex 143 -110.5 0
vertex 89 -110.5 1.6
vertex 89 -110.5 0
endloop
endfacet
facet normal 0 -1 0
outer loop
vertex 324 -110.5 0
vertex 324 -110.5 1.6
vertex 252 -110.5 1.6
endloop
endfacet
facet normal 0 -1 0
outer loop
vertex 324 -110.5 0
vertex 252 -110.5 1.6
vertex 252 -110.5 0
endloop
endfacet
facet normal -1 0 0
outer loop
vertex 143 -110.5 1.6
vertex 143 -110.5 0
vertex 143 -144.5 0
endloop
endfacet
facet normal -1 0 0
outer loop
vertex 143 -110.5 1.6
vertex 143 -144.5 0
vertex 143 -144.5 1.6
endloop
endfacet
facet normal 0 -1 0
outer loop
vertex 252 -144.5 0
vertex 252 -144.5 1.6
vertex 143 -144.5 1.6
endloop
endfacet
facet normal 0 -1 0
outer loop
vertex 252 -144.5 0
vertex 143 -144.5 1.6
vertex 143 -144.5 0
endloop
endfacet
facet normal 1 0 0
outer loop
vertex 252 -110.5 0
vertex 252 -110.5 1.6
vertex 252 -144.5 1.6
endloop
endfacet
facet normal 1 0 0
outer loop
vertex 252 -110.5 0
vertex 252 -144.5 1.6
vertex 252 -144.5 0
endloop
endfacet
facet normal 1 0 0
outer loop
vertex 324 -72.5 0
vertex 324 -72.5 1.6
vertex 324 -110.5 1.6
endloop
endfacet
facet normal 1 0 0
outer loop
vertex 324 -72.5 0
vertex 324 -110.5 1.6
vertex 324 -110.5 0
endloop
endfacet
facet normal 0 1 0
outer loop
vertex 324 -72.5 1.6
vertex 324 -72.5 0
vertex 89 -72.5 0
endloop
endfacet
facet normal 0 1 0
outer loop
vertex 324 -72.5 1.6
vertex 89 -72.5 0
vertex 89 -72.5 1.6
endloop
endfacet
facet normal -1 0 0
outer loop
vertex 89 -72.5 1.6
vertex 89 -72.5 0
vertex 89 -110.5 0
endloop
endfacet
facet normal -1 0 0
outer loop
vertex 89 -72.5 1.6
vertex 89 -110.5 0
vertex 89 -110.5 1.6
endloop
endfacet
endsolid csg.js
