%TF.GenerationSoftware,KiCad,Pcbnew,9.0.0*%
%TF.CreationDate,2025-03-10T18:29:08+01:00*%
%TF.ProjectId,pcb,7063622e-6b69-4636-9164-5f7063625858,v1.0.0*%
%TF.SameCoordinates,Original*%
%TF.FileFunction,Legend,Bot*%
%TF.FilePolarity,Positive*%
%FSLAX46Y46*%
G04 Gerber Fmt 4.6, Leading zero omitted, Abs format (unit mm)*
G04 Created by KiCad (PCBNEW 9.0.0) date 2025-03-10 18:29:08*
%MOMM*%
%LPD*%
G01*
G04 APERTURE LIST*
%ADD10C,0.100000*%
%ADD11R,1.752600X1.752600*%
%ADD12C,1.752600*%
G04 APERTURE END LIST*
D10*
%TO.C,D13*%
X240250000Y-105000000D02*
X240650000Y-105000000D01*
X240650000Y-105000000D02*
X240650000Y-104450000D01*
X240650000Y-105000000D02*
X240650000Y-105550000D01*
X240650000Y-105000000D02*
X241250000Y-104600000D01*
X241250000Y-104600000D02*
X241250000Y-105400000D01*
X241250000Y-105000000D02*
X241750000Y-105000000D01*
X241250000Y-105400000D02*
X240650000Y-105000000D01*
%TO.C,D14*%
X240250000Y-88000000D02*
X240650000Y-88000000D01*
X240650000Y-88000000D02*
X240650000Y-87450000D01*
X240650000Y-88000000D02*
X240650000Y-88550000D01*
X240650000Y-88000000D02*
X241250000Y-87600000D01*
X241250000Y-87600000D02*
X241250000Y-88400000D01*
X241250000Y-88000000D02*
X241750000Y-88000000D01*
X241250000Y-88400000D02*
X240650000Y-88000000D01*
%TO.C,D5*%
X135250000Y-105000000D02*
X135650000Y-105000000D01*
X135650000Y-105000000D02*
X135650000Y-104450000D01*
X135650000Y-105000000D02*
X135650000Y-105550000D01*
X135650000Y-105000000D02*
X136250000Y-104600000D01*
X136250000Y-104600000D02*
X136250000Y-105400000D01*
X136250000Y-105000000D02*
X136750000Y-105000000D01*
X136250000Y-105400000D02*
X135650000Y-105000000D01*
%TO.C,D24*%
X171250000Y-139000000D02*
X171650000Y-139000000D01*
X171650000Y-139000000D02*
X171650000Y-138450000D01*
X171650000Y-139000000D02*
X171650000Y-139550000D01*
X171650000Y-139000000D02*
X172250000Y-138600000D01*
X172250000Y-138600000D02*
X172250000Y-139400000D01*
X172250000Y-139000000D02*
X172750000Y-139000000D01*
X172250000Y-139400000D02*
X171650000Y-139000000D01*
%TO.C,D17*%
X276250000Y-105000000D02*
X276650000Y-105000000D01*
X276650000Y-105000000D02*
X276650000Y-104450000D01*
X276650000Y-105000000D02*
X276650000Y-105550000D01*
X276650000Y-105000000D02*
X277250000Y-104600000D01*
X277250000Y-104600000D02*
X277250000Y-105400000D01*
X277250000Y-105000000D02*
X277750000Y-105000000D01*
X277250000Y-105400000D02*
X276650000Y-105000000D01*
%TO.C,D1*%
X99250000Y-105000000D02*
X99650000Y-105000000D01*
X99650000Y-105000000D02*
X99650000Y-104450000D01*
X99650000Y-105000000D02*
X99650000Y-105550000D01*
X99650000Y-105000000D02*
X100250000Y-104600000D01*
X100250000Y-104600000D02*
X100250000Y-105400000D01*
X100250000Y-105000000D02*
X100750000Y-105000000D01*
X100250000Y-105400000D02*
X99650000Y-105000000D01*
%TO.C,D16*%
X258250000Y-88000000D02*
X258650000Y-88000000D01*
X258650000Y-88000000D02*
X258650000Y-87450000D01*
X258650000Y-88000000D02*
X258650000Y-88550000D01*
X258650000Y-88000000D02*
X259250000Y-87600000D01*
X259250000Y-87600000D02*
X259250000Y-88400000D01*
X259250000Y-88000000D02*
X259750000Y-88000000D01*
X259250000Y-88400000D02*
X258650000Y-88000000D01*
%TO.C,D22*%
X312250000Y-88000000D02*
X312650000Y-88000000D01*
X312650000Y-88000000D02*
X312650000Y-87450000D01*
X312650000Y-88000000D02*
X312650000Y-88550000D01*
X312650000Y-88000000D02*
X313250000Y-87600000D01*
X313250000Y-87600000D02*
X313250000Y-88400000D01*
X313250000Y-88000000D02*
X313750000Y-88000000D01*
X313250000Y-88400000D02*
X312650000Y-88000000D01*
%TO.C,D19*%
X294250000Y-105000000D02*
X294650000Y-105000000D01*
X294650000Y-105000000D02*
X294650000Y-104450000D01*
X294650000Y-105000000D02*
X294650000Y-105550000D01*
X294650000Y-105000000D02*
X295250000Y-104600000D01*
X295250000Y-104600000D02*
X295250000Y-105400000D01*
X295250000Y-105000000D02*
X295750000Y-105000000D01*
X295250000Y-105400000D02*
X294650000Y-105000000D01*
%TO.C,D2*%
X99250000Y-88000000D02*
X99650000Y-88000000D01*
X99650000Y-88000000D02*
X99650000Y-87450000D01*
X99650000Y-88000000D02*
X99650000Y-88550000D01*
X99650000Y-88000000D02*
X100250000Y-87600000D01*
X100250000Y-87600000D02*
X100250000Y-88400000D01*
X100250000Y-88000000D02*
X100750000Y-88000000D01*
X100250000Y-88400000D02*
X99650000Y-88000000D01*
%TO.C,D9*%
X171250000Y-105000000D02*
X171650000Y-105000000D01*
X171650000Y-105000000D02*
X171650000Y-104450000D01*
X171650000Y-105000000D02*
X171650000Y-105550000D01*
X171650000Y-105000000D02*
X172250000Y-104600000D01*
X172250000Y-104600000D02*
X172250000Y-105400000D01*
X172250000Y-105000000D02*
X172750000Y-105000000D01*
X172250000Y-105400000D02*
X171650000Y-105000000D01*
%TO.C,D20*%
X294250000Y-88000000D02*
X294650000Y-88000000D01*
X294650000Y-88000000D02*
X294650000Y-87450000D01*
X294650000Y-88000000D02*
X294650000Y-88550000D01*
X294650000Y-88000000D02*
X295250000Y-87600000D01*
X295250000Y-87600000D02*
X295250000Y-88400000D01*
X295250000Y-88000000D02*
X295750000Y-88000000D01*
X295250000Y-88400000D02*
X294650000Y-88000000D01*
%TO.C,D3*%
X117250000Y-105000000D02*
X117650000Y-105000000D01*
X117650000Y-105000000D02*
X117650000Y-104450000D01*
X117650000Y-105000000D02*
X117650000Y-105550000D01*
X117650000Y-105000000D02*
X118250000Y-104600000D01*
X118250000Y-104600000D02*
X118250000Y-105400000D01*
X118250000Y-105000000D02*
X118750000Y-105000000D01*
X118250000Y-105400000D02*
X117650000Y-105000000D01*
%TO.C,D26*%
X240250000Y-139000000D02*
X240650000Y-139000000D01*
X240650000Y-139000000D02*
X240650000Y-138450000D01*
X240650000Y-139000000D02*
X240650000Y-139550000D01*
X240650000Y-139000000D02*
X241250000Y-138600000D01*
X241250000Y-138600000D02*
X241250000Y-139400000D01*
X241250000Y-139000000D02*
X241750000Y-139000000D01*
X241250000Y-139400000D02*
X240650000Y-139000000D01*
%TO.C,D21*%
X312250000Y-105000000D02*
X312650000Y-105000000D01*
X312650000Y-105000000D02*
X312650000Y-104450000D01*
X312650000Y-105000000D02*
X312650000Y-105550000D01*
X312650000Y-105000000D02*
X313250000Y-104600000D01*
X313250000Y-104600000D02*
X313250000Y-105400000D01*
X313250000Y-105000000D02*
X313750000Y-105000000D01*
X313250000Y-105400000D02*
X312650000Y-105000000D01*
%TO.C,D12*%
X222250000Y-88000000D02*
X222650000Y-88000000D01*
X222650000Y-88000000D02*
X222650000Y-87450000D01*
X222650000Y-88000000D02*
X222650000Y-88550000D01*
X222650000Y-88000000D02*
X223250000Y-87600000D01*
X223250000Y-87600000D02*
X223250000Y-88400000D01*
X223250000Y-88000000D02*
X223750000Y-88000000D01*
X223250000Y-88400000D02*
X222650000Y-88000000D01*
%TO.C,D11*%
X222250000Y-105000000D02*
X222650000Y-105000000D01*
X222650000Y-105000000D02*
X222650000Y-104450000D01*
X222650000Y-105000000D02*
X222650000Y-105550000D01*
X222650000Y-105000000D02*
X223250000Y-104600000D01*
X223250000Y-104600000D02*
X223250000Y-105400000D01*
X223250000Y-105000000D02*
X223750000Y-105000000D01*
X223250000Y-105400000D02*
X222650000Y-105000000D01*
%TO.C,D15*%
X258250000Y-105000000D02*
X258650000Y-105000000D01*
X258650000Y-105000000D02*
X258650000Y-104450000D01*
X258650000Y-105000000D02*
X258650000Y-105550000D01*
X258650000Y-105000000D02*
X259250000Y-104600000D01*
X259250000Y-104600000D02*
X259250000Y-105400000D01*
X259250000Y-105000000D02*
X259750000Y-105000000D01*
X259250000Y-105400000D02*
X258650000Y-105000000D01*
%TO.C,D7*%
X153250000Y-105000000D02*
X153650000Y-105000000D01*
X153650000Y-105000000D02*
X153650000Y-104450000D01*
X153650000Y-105000000D02*
X153650000Y-105550000D01*
X153650000Y-105000000D02*
X154250000Y-104600000D01*
X154250000Y-104600000D02*
X154250000Y-105400000D01*
X154250000Y-105000000D02*
X154750000Y-105000000D01*
X154250000Y-105400000D02*
X153650000Y-105000000D01*
%TO.C,D25*%
X222250000Y-139000000D02*
X222650000Y-139000000D01*
X222650000Y-139000000D02*
X222650000Y-138450000D01*
X222650000Y-139000000D02*
X222650000Y-139550000D01*
X222650000Y-139000000D02*
X223250000Y-138600000D01*
X223250000Y-138600000D02*
X223250000Y-139400000D01*
X223250000Y-139000000D02*
X223750000Y-139000000D01*
X223250000Y-139400000D02*
X222650000Y-139000000D01*
%TO.C,D6*%
X135250000Y-88000000D02*
X135650000Y-88000000D01*
X135650000Y-88000000D02*
X135650000Y-87450000D01*
X135650000Y-88000000D02*
X135650000Y-88550000D01*
X135650000Y-88000000D02*
X136250000Y-87600000D01*
X136250000Y-87600000D02*
X136250000Y-88400000D01*
X136250000Y-88000000D02*
X136750000Y-88000000D01*
X136250000Y-88400000D02*
X135650000Y-88000000D01*
%TO.C,D4*%
X117250000Y-88000000D02*
X117650000Y-88000000D01*
X117650000Y-88000000D02*
X117650000Y-87450000D01*
X117650000Y-88000000D02*
X117650000Y-88550000D01*
X117650000Y-88000000D02*
X118250000Y-87600000D01*
X118250000Y-87600000D02*
X118250000Y-88400000D01*
X118250000Y-88000000D02*
X118750000Y-88000000D01*
X118250000Y-88400000D02*
X117650000Y-88000000D01*
%TO.C,D18*%
X276250000Y-88000000D02*
X276650000Y-88000000D01*
X276650000Y-88000000D02*
X276650000Y-87450000D01*
X276650000Y-88000000D02*
X276650000Y-88550000D01*
X276650000Y-88000000D02*
X277250000Y-87600000D01*
X277250000Y-87600000D02*
X277250000Y-88400000D01*
X277250000Y-88000000D02*
X277750000Y-88000000D01*
X277250000Y-88400000D02*
X276650000Y-88000000D01*
%TO.C,D10*%
X171250000Y-88000000D02*
X171650000Y-88000000D01*
X171650000Y-88000000D02*
X171650000Y-87450000D01*
X171650000Y-88000000D02*
X171650000Y-88550000D01*
X171650000Y-88000000D02*
X172250000Y-87600000D01*
X172250000Y-87600000D02*
X172250000Y-88400000D01*
X172250000Y-88000000D02*
X172750000Y-88000000D01*
X172250000Y-88400000D02*
X171650000Y-88000000D01*
%TO.C,D23*%
X153250000Y-139000000D02*
X153650000Y-139000000D01*
X153650000Y-139000000D02*
X153650000Y-138450000D01*
X153650000Y-139000000D02*
X153650000Y-139550000D01*
X153650000Y-139000000D02*
X154250000Y-138600000D01*
X154250000Y-138600000D02*
X154250000Y-139400000D01*
X154250000Y-139000000D02*
X154750000Y-139000000D01*
X154250000Y-139400000D02*
X153650000Y-139000000D01*
%TO.C,D8*%
X153250000Y-88000000D02*
X153650000Y-88000000D01*
X153650000Y-88000000D02*
X153650000Y-87450000D01*
X153650000Y-88000000D02*
X153650000Y-88550000D01*
X153650000Y-88000000D02*
X154250000Y-87600000D01*
X154250000Y-87600000D02*
X154250000Y-88400000D01*
X154250000Y-88000000D02*
X154750000Y-88000000D01*
X154250000Y-88400000D02*
X153650000Y-88000000D01*
%TD*%
D11*
%TO.C,MCU1*%
X189880000Y-78030000D03*
D12*
X189880000Y-75490000D03*
X189880000Y-80570000D03*
X189880000Y-83110000D03*
X189880000Y-85650000D03*
X189880000Y-88190000D03*
X189880000Y-90730000D03*
X189880000Y-93270000D03*
X189880000Y-95810000D03*
X189880000Y-98350000D03*
X189880000Y-100890000D03*
X189880000Y-103430000D03*
X189880000Y-105970000D03*
X202580000Y-105970000D03*
X200040000Y-105970000D03*
X197500000Y-105970000D03*
X194960000Y-105970000D03*
X192420000Y-105970000D03*
X205120000Y-75490000D03*
X205120000Y-78030000D03*
X205120000Y-80570000D03*
X205120000Y-83110000D03*
X205120000Y-85650000D03*
X205120000Y-88190000D03*
X205120000Y-90730000D03*
X205120000Y-93270000D03*
X205120000Y-95810000D03*
X205120000Y-98350000D03*
X205120000Y-100890000D03*
X205120000Y-103430000D03*
X205120000Y-105970000D03*
%TD*%
M02*
