%TF.GenerationSoftware,KiCad,Pcbnew,9.0.0*%
%TF.CreationDate,2025-03-10T18:29:08+01:00*%
%TF.ProjectId,pcb,7063622e-6b69-4636-9164-5f7063625858,v1.0.0*%
%TF.SameCoordinates,Original*%
%TF.FileFunction,Copper,L1,Top*%
%TF.FilePolarity,Positive*%
%FSLAX46Y46*%
G04 Gerber Fmt 4.6, Leading zero omitted, Abs format (unit mm)*
G04 Created by KiCad (PCBNEW 9.0.0) date 2025-03-10 18:29:08*
%MOMM*%
%LPD*%
G01*
G04 APERTURE LIST*
%TA.AperFunction,SMDPad,CuDef*%
%ADD10R,1.800000X1.100000*%
%TD*%
%TA.AperFunction,ComponentPad*%
%ADD11R,1.778000X1.778000*%
%TD*%
%TA.AperFunction,SMDPad,CuDef*%
%ADD12R,0.900000X1.200000*%
%TD*%
%TA.AperFunction,ComponentPad*%
%ADD13C,1.905000*%
%TD*%
%TA.AperFunction,ComponentPad*%
%ADD14C,0.700000*%
%TD*%
%TA.AperFunction,ComponentPad*%
%ADD15C,4.400000*%
%TD*%
%TA.AperFunction,ComponentPad*%
%ADD16R,1.752600X1.752600*%
%TD*%
%TA.AperFunction,ComponentPad*%
%ADD17C,1.752600*%
%TD*%
%TA.AperFunction,Conductor*%
%ADD18C,0.250000*%
%TD*%
G04 APERTURE END LIST*
D10*
%TO.P,B1,1*%
%TO.N,GND*%
X194400000Y-115150000D03*
X200600000Y-115150000D03*
%TO.P,B1,2*%
%TO.N,RST*%
X194400000Y-118850000D03*
X200600000Y-118850000D03*
%TD*%
D11*
%TO.P,D13,1*%
%TO.N,D9*%
X237190000Y-105000000D03*
D12*
X239350000Y-105000000D03*
%TO.P,D13,2*%
%TO.N,index_rbottom*%
X242650000Y-105000000D03*
D13*
X244810000Y-105000000D03*
%TD*%
D11*
%TO.P,D14,1*%
%TO.N,D2*%
X237190000Y-88000000D03*
D12*
X239350000Y-88000000D03*
%TO.P,D14,2*%
%TO.N,index_rtop*%
X242650000Y-88000000D03*
D13*
X244810000Y-88000000D03*
%TD*%
D11*
%TO.P,D5,1*%
%TO.N,D23*%
X132190000Y-105000000D03*
D12*
X134350000Y-105000000D03*
%TO.P,D5,2*%
%TO.N,middle_lbottom*%
X137650000Y-105000000D03*
D13*
X139810000Y-105000000D03*
%TD*%
D11*
%TO.P,D24,1*%
%TO.N,D21*%
X168190000Y-139000000D03*
D12*
X170350000Y-139000000D03*
%TO.P,D24,2*%
%TO.N,inner_lttop*%
X173650000Y-139000000D03*
D13*
X175810000Y-139000000D03*
%TD*%
D14*
%TO.P,_5,1*%
%TO.N,N/C*%
X152350000Y-117000000D03*
X152833274Y-115833274D03*
X152833274Y-118166726D03*
X154000000Y-115350000D03*
D15*
X154000000Y-117000000D03*
D14*
X154000000Y-118650000D03*
X155166726Y-115833274D03*
X155166726Y-118166726D03*
X155650000Y-117000000D03*
%TD*%
D11*
%TO.P,D17,1*%
%TO.N,D9*%
X273190000Y-105000000D03*
D12*
X275350000Y-105000000D03*
%TO.P,D17,2*%
%TO.N,ring_rbottom*%
X278650000Y-105000000D03*
D13*
X280810000Y-105000000D03*
%TD*%
D11*
%TO.P,D1,1*%
%TO.N,D23*%
X96190000Y-105000000D03*
D12*
X98350000Y-105000000D03*
%TO.P,D1,2*%
%TO.N,pinky_lbottom*%
X101650000Y-105000000D03*
D13*
X103810000Y-105000000D03*
%TD*%
D11*
%TO.P,D16,1*%
%TO.N,D2*%
X255190000Y-88000000D03*
D12*
X257350000Y-88000000D03*
%TO.P,D16,2*%
%TO.N,middle_rtop*%
X260650000Y-88000000D03*
D13*
X262810000Y-88000000D03*
%TD*%
D11*
%TO.P,D22,1*%
%TO.N,D2*%
X309190000Y-88000000D03*
D12*
X311350000Y-88000000D03*
%TO.P,D22,2*%
%TO.N,outer_rtop*%
X314650000Y-88000000D03*
D13*
X316810000Y-88000000D03*
%TD*%
D11*
%TO.P,D19,1*%
%TO.N,D9*%
X291190000Y-105000000D03*
D12*
X293350000Y-105000000D03*
%TO.P,D19,2*%
%TO.N,pinky_rbottom*%
X296650000Y-105000000D03*
D13*
X298810000Y-105000000D03*
%TD*%
D11*
%TO.P,D2,1*%
%TO.N,D29*%
X96190000Y-88000000D03*
D12*
X98350000Y-88000000D03*
%TO.P,D2,2*%
%TO.N,pinky_ltop*%
X101650000Y-88000000D03*
D13*
X103810000Y-88000000D03*
%TD*%
D11*
%TO.P,D9,1*%
%TO.N,D23*%
X168190000Y-105000000D03*
D12*
X170350000Y-105000000D03*
%TO.P,D9,2*%
%TO.N,inner_lbottom*%
X173650000Y-105000000D03*
D13*
X175810000Y-105000000D03*
%TD*%
D11*
%TO.P,D20,1*%
%TO.N,D2*%
X291190000Y-88000000D03*
D12*
X293350000Y-88000000D03*
%TO.P,D20,2*%
%TO.N,pinky_rtop*%
X296650000Y-88000000D03*
D13*
X298810000Y-88000000D03*
%TD*%
D11*
%TO.P,D3,1*%
%TO.N,D23*%
X114190000Y-105000000D03*
D12*
X116350000Y-105000000D03*
%TO.P,D3,2*%
%TO.N,ring_lbottom*%
X119650000Y-105000000D03*
D13*
X121810000Y-105000000D03*
%TD*%
D11*
%TO.P,D26,1*%
%TO.N,D21*%
X237190000Y-139000000D03*
D12*
X239350000Y-139000000D03*
%TO.P,D26,2*%
%TO.N,outer_rttop*%
X242650000Y-139000000D03*
D13*
X244810000Y-139000000D03*
%TD*%
D11*
%TO.P,D21,1*%
%TO.N,D9*%
X309190000Y-105000000D03*
D12*
X311350000Y-105000000D03*
%TO.P,D21,2*%
%TO.N,outer_rbottom*%
X314650000Y-105000000D03*
D13*
X316810000Y-105000000D03*
%TD*%
D16*
%TO.P,MCU1,1*%
%TO.N,RAW*%
X189880000Y-78030000D03*
D17*
%TO.P,MCU1,2*%
%TO.N,Dm*%
X189880000Y-75490000D03*
%TO.N,GND*%
X189880000Y-80570000D03*
%TO.P,MCU1,3*%
%TO.N,RST*%
X189880000Y-83110000D03*
%TO.P,MCU1,4*%
%TO.N,VCC*%
X189880000Y-85650000D03*
%TO.P,MCU1,5*%
%TO.N,D29*%
X189880000Y-88190000D03*
%TO.P,MCU1,6*%
%TO.N,D28*%
X189880000Y-90730000D03*
%TO.P,MCU1,7*%
%TO.N,D27*%
X189880000Y-93270000D03*
%TO.P,MCU1,8*%
%TO.N,D26*%
X189880000Y-95810000D03*
%TO.P,MCU1,9*%
%TO.N,D22*%
X189880000Y-98350000D03*
%TO.P,MCU1,10*%
%TO.N,D20*%
X189880000Y-100890000D03*
%TO.P,MCU1,11*%
%TO.N,D23*%
X189880000Y-103430000D03*
%TO.P,MCU1,12*%
%TO.N,D21*%
X189880000Y-105970000D03*
%TO.P,MCU1,13*%
%TO.N,D12*%
X202580000Y-105970000D03*
%TO.P,MCU1,14*%
%TO.N,D13*%
X200040000Y-105970000D03*
%TO.P,MCU1,15*%
%TO.N,D14*%
X197500000Y-105970000D03*
%TO.P,MCU1,16*%
%TO.N,D15*%
X194960000Y-105970000D03*
%TO.P,MCU1,17*%
%TO.N,D16*%
X192420000Y-105970000D03*
%TO.P,MCU1,18*%
%TO.N,Dp*%
X205120000Y-75490000D03*
%TO.P,MCU1,19*%
%TO.N,D0*%
X205120000Y-78030000D03*
%TO.P,MCU1,20*%
%TO.N,D1*%
X205120000Y-80570000D03*
%TO.P,MCU1,21*%
%TO.N,GND*%
X205120000Y-83110000D03*
%TO.P,MCU1,22*%
X205120000Y-85650000D03*
%TO.P,MCU1,23*%
%TO.N,D2*%
X205120000Y-88190000D03*
%TO.P,MCU1,24*%
%TO.N,D3*%
X205120000Y-90730000D03*
%TO.P,MCU1,25*%
%TO.N,D4*%
X205120000Y-93270000D03*
%TO.P,MCU1,26*%
%TO.N,D5*%
X205120000Y-95810000D03*
%TO.P,MCU1,27*%
%TO.N,D6*%
X205120000Y-98350000D03*
%TO.P,MCU1,28*%
%TO.N,D7*%
X205120000Y-100890000D03*
%TO.P,MCU1,29*%
%TO.N,D8*%
X205120000Y-103430000D03*
%TO.P,MCU1,30*%
%TO.N,D9*%
X205120000Y-105970000D03*
%TD*%
D11*
%TO.P,D12,1*%
%TO.N,D2*%
X219190000Y-88000000D03*
D12*
X221350000Y-88000000D03*
%TO.P,D12,2*%
%TO.N,inner_rtop*%
X224650000Y-88000000D03*
D13*
X226810000Y-88000000D03*
%TD*%
D11*
%TO.P,D11,1*%
%TO.N,D9*%
X219190000Y-105000000D03*
D12*
X221350000Y-105000000D03*
%TO.P,D11,2*%
%TO.N,inner_rbottom*%
X224650000Y-105000000D03*
D13*
X226810000Y-105000000D03*
%TD*%
D11*
%TO.P,D15,1*%
%TO.N,D9*%
X255190000Y-105000000D03*
D12*
X257350000Y-105000000D03*
%TO.P,D15,2*%
%TO.N,middle_rbottom*%
X260650000Y-105000000D03*
D13*
X262810000Y-105000000D03*
%TD*%
D11*
%TO.P,D7,1*%
%TO.N,D23*%
X150190000Y-105000000D03*
D12*
X152350000Y-105000000D03*
%TO.P,D7,2*%
%TO.N,index_lbottom*%
X155650000Y-105000000D03*
D13*
X157810000Y-105000000D03*
%TD*%
D11*
%TO.P,D25,1*%
%TO.N,D21*%
X219190000Y-139000000D03*
D12*
X221350000Y-139000000D03*
%TO.P,D25,2*%
%TO.N,inner_rttop*%
X224650000Y-139000000D03*
D13*
X226810000Y-139000000D03*
%TD*%
D14*
%TO.P,_1,1*%
%TO.N,N/C*%
X107350000Y-92000000D03*
X107833274Y-90833274D03*
X107833274Y-93166726D03*
X109000000Y-90350000D03*
D15*
X109000000Y-92000000D03*
D14*
X109000000Y-93650000D03*
X110166726Y-90833274D03*
X110166726Y-93166726D03*
X110650000Y-92000000D03*
%TD*%
%TO.P,_6,1*%
%TO.N,N/C*%
X239350000Y-117000000D03*
X239833274Y-115833274D03*
X239833274Y-118166726D03*
X241000000Y-115350000D03*
D15*
X241000000Y-117000000D03*
D14*
X241000000Y-118650000D03*
X242166726Y-115833274D03*
X242166726Y-118166726D03*
X242650000Y-117000000D03*
%TD*%
D11*
%TO.P,D6,1*%
%TO.N,D29*%
X132190000Y-88000000D03*
D12*
X134350000Y-88000000D03*
%TO.P,D6,2*%
%TO.N,middle_ltop*%
X137650000Y-88000000D03*
D13*
X139810000Y-88000000D03*
%TD*%
D11*
%TO.P,D4,1*%
%TO.N,D29*%
X114190000Y-88000000D03*
D12*
X116350000Y-88000000D03*
%TO.P,D4,2*%
%TO.N,ring_ltop*%
X119650000Y-88000000D03*
D13*
X121810000Y-88000000D03*
%TD*%
D11*
%TO.P,D18,1*%
%TO.N,D2*%
X273190000Y-88000000D03*
D12*
X275350000Y-88000000D03*
%TO.P,D18,2*%
%TO.N,ring_rtop*%
X278650000Y-88000000D03*
D13*
X280810000Y-88000000D03*
%TD*%
D11*
%TO.P,D10,1*%
%TO.N,D29*%
X168190000Y-88000000D03*
D12*
X170350000Y-88000000D03*
%TO.P,D10,2*%
%TO.N,inner_ltop*%
X173650000Y-88000000D03*
D13*
X175810000Y-88000000D03*
%TD*%
D11*
%TO.P,D23,1*%
%TO.N,D21*%
X150190000Y-139000000D03*
D12*
X152350000Y-139000000D03*
%TO.P,D23,2*%
%TO.N,outer_lttop*%
X155650000Y-139000000D03*
D13*
X157810000Y-139000000D03*
%TD*%
D14*
%TO.P,_4,1*%
%TO.N,N/C*%
X302350000Y-92000000D03*
X302833274Y-90833274D03*
X302833274Y-93166726D03*
X304000000Y-90350000D03*
D15*
X304000000Y-92000000D03*
D14*
X304000000Y-93650000D03*
X305166726Y-90833274D03*
X305166726Y-93166726D03*
X305650000Y-92000000D03*
%TD*%
%TO.P,_3,1*%
%TO.N,N/C*%
X230350000Y-92000000D03*
X230833274Y-90833274D03*
X230833274Y-93166726D03*
X232000000Y-90350000D03*
D15*
X232000000Y-92000000D03*
D14*
X232000000Y-93650000D03*
X233166726Y-90833274D03*
X233166726Y-93166726D03*
X233650000Y-92000000D03*
%TD*%
D11*
%TO.P,D8,1*%
%TO.N,D29*%
X150190000Y-88000000D03*
D12*
X152350000Y-88000000D03*
%TO.P,D8,2*%
%TO.N,index_ltop*%
X155650000Y-88000000D03*
D13*
X157810000Y-88000000D03*
%TD*%
D14*
%TO.P,_7,1*%
%TO.N,N/C*%
X195850000Y-134000000D03*
X196333274Y-132833274D03*
X196333274Y-135166726D03*
X197500000Y-132350000D03*
D15*
X197500000Y-134000000D03*
D14*
X197500000Y-135650000D03*
X198666726Y-132833274D03*
X198666726Y-135166726D03*
X199150000Y-134000000D03*
%TD*%
%TO.P,_2,1*%
%TO.N,N/C*%
X161350000Y-92000000D03*
X161833274Y-90833274D03*
X161833274Y-93166726D03*
X163000000Y-90350000D03*
D15*
X163000000Y-92000000D03*
D14*
X163000000Y-93650000D03*
X164166726Y-90833274D03*
X164166726Y-93166726D03*
X164650000Y-92000000D03*
%TD*%
D18*
%TO.N,pinky_lbottom*%
X101650000Y-105000000D02*
X103810000Y-105000000D01*
%TO.N,pinky_ltop*%
X101650000Y-88000000D02*
X103810000Y-88000000D01*
%TO.N,ring_lbottom*%
X119650000Y-105000000D02*
X121810000Y-105000000D01*
%TO.N,ring_ltop*%
X119650000Y-88000000D02*
X121810000Y-88000000D01*
%TO.N,middle_lbottom*%
X137650000Y-105000000D02*
X139810000Y-105000000D01*
%TO.N,middle_ltop*%
X137650000Y-88000000D02*
X139810000Y-88000000D01*
%TO.N,index_lbottom*%
X155650000Y-105000000D02*
X157810000Y-105000000D01*
%TO.N,index_ltop*%
X157810000Y-88000000D02*
X155650000Y-88000000D01*
%TO.N,inner_lbottom*%
X173650000Y-105000000D02*
X175810000Y-105000000D01*
%TO.N,inner_ltop*%
X173650000Y-88000000D02*
X175810000Y-88000000D01*
%TO.N,inner_rbottom*%
X224650000Y-105000000D02*
X226810000Y-105000000D01*
%TO.N,inner_rtop*%
X226810000Y-88000000D02*
X224650000Y-88000000D01*
%TO.N,index_rbottom*%
X242650000Y-105000000D02*
X244810000Y-105000000D01*
%TO.N,index_rtop*%
X244810000Y-88000000D02*
X242650000Y-88000000D01*
%TO.N,middle_rbottom*%
X260650000Y-105000000D02*
X262810000Y-105000000D01*
%TO.N,middle_rtop*%
X262810000Y-88000000D02*
X260650000Y-88000000D01*
%TO.N,ring_rbottom*%
X278650000Y-105000000D02*
X280810000Y-105000000D01*
%TO.N,ring_rtop*%
X280810000Y-88000000D02*
X278650000Y-88000000D01*
%TO.N,pinky_rbottom*%
X296650000Y-105000000D02*
X298810000Y-105000000D01*
%TO.N,pinky_rtop*%
X296650000Y-88000000D02*
X298810000Y-88000000D01*
%TO.N,outer_rbottom*%
X314650000Y-105000000D02*
X316810000Y-105000000D01*
%TO.N,outer_rtop*%
X316810000Y-88000000D02*
X314650000Y-88000000D01*
%TO.N,outer_lttop*%
X155650000Y-139000000D02*
X157810000Y-139000000D01*
%TO.N,inner_lttop*%
X173650000Y-139000000D02*
X175810000Y-139000000D01*
%TO.N,inner_rttop*%
X224650000Y-139000000D02*
X226810000Y-139000000D01*
%TO.N,outer_rttop*%
X242650000Y-139000000D02*
X244810000Y-139000000D01*
%TO.N,D23*%
X150190000Y-105000000D02*
X152350000Y-105000000D01*
X96190000Y-105000000D02*
X97468500Y-106278500D01*
X169468500Y-106278500D02*
X187031500Y-106278500D01*
X151690000Y-106500000D02*
X166690000Y-106500000D01*
X168190000Y-105000000D02*
X170350000Y-105000000D01*
X130911500Y-106278500D02*
X132190000Y-105000000D01*
X132190000Y-105000000D02*
X133468500Y-106278500D01*
X187031500Y-106278500D02*
X189880000Y-103430000D01*
X148911500Y-106278500D02*
X150190000Y-105000000D01*
X114190000Y-105000000D02*
X116350000Y-105000000D01*
X112911500Y-106278500D02*
X114190000Y-105000000D01*
X115468500Y-106278500D02*
X130911500Y-106278500D01*
X97468500Y-106278500D02*
X112911500Y-106278500D01*
X168190000Y-105000000D02*
X169468500Y-106278500D01*
X96190000Y-105000000D02*
X98350000Y-105000000D01*
X150190000Y-105000000D02*
X151690000Y-106500000D01*
X133468500Y-106278500D02*
X148911500Y-106278500D01*
X132190000Y-105000000D02*
X134350000Y-105000000D01*
X166690000Y-106500000D02*
X168190000Y-105000000D01*
X114190000Y-105000000D02*
X115468500Y-106278500D01*
%TO.N,D29*%
X132190000Y-88000000D02*
X133690000Y-89500000D01*
X168190000Y-88000000D02*
X170350000Y-88000000D01*
X114190000Y-88000000D02*
X116350000Y-88000000D01*
X152350000Y-88000000D02*
X150190000Y-88000000D01*
X133690000Y-89500000D02*
X148690000Y-89500000D01*
X130911500Y-89278500D02*
X132190000Y-88000000D01*
X96190000Y-88000000D02*
X98350000Y-88000000D01*
X150190000Y-88000000D02*
X151664000Y-89474000D01*
X169468500Y-89278500D02*
X188791500Y-89278500D01*
X114190000Y-88000000D02*
X115468500Y-89278500D01*
X168190000Y-88000000D02*
X169468500Y-89278500D01*
X188791500Y-89278500D02*
X189880000Y-88190000D01*
X96190000Y-88000000D02*
X97468500Y-89278500D01*
X97468500Y-89278500D02*
X112911500Y-89278500D01*
X115468500Y-89278500D02*
X130911500Y-89278500D01*
X148690000Y-89500000D02*
X150190000Y-88000000D01*
X151664000Y-89474000D02*
X166716000Y-89474000D01*
X112911500Y-89278500D02*
X114190000Y-88000000D01*
X132190000Y-88000000D02*
X134350000Y-88000000D01*
X166716000Y-89474000D02*
X168190000Y-88000000D01*
%TO.N,D9*%
X307690000Y-106500000D02*
X309190000Y-105000000D01*
X238468500Y-106278500D02*
X253911500Y-106278500D01*
X291190000Y-105000000D02*
X293350000Y-105000000D01*
X291190000Y-105000000D02*
X292690000Y-106500000D01*
X219190000Y-105000000D02*
X220468500Y-106278500D01*
X273190000Y-105000000D02*
X275350000Y-105000000D01*
X205120000Y-105970000D02*
X218220000Y-105970000D01*
X220468500Y-106278500D02*
X235911500Y-106278500D01*
X309190000Y-105000000D02*
X311350000Y-105000000D01*
X271911500Y-106278500D02*
X273190000Y-105000000D01*
X255190000Y-105000000D02*
X256468500Y-106278500D01*
X237190000Y-105000000D02*
X238468500Y-106278500D01*
X273190000Y-105000000D02*
X274468500Y-106278500D01*
X237190000Y-105000000D02*
X239350000Y-105000000D01*
X218220000Y-105970000D02*
X219190000Y-105000000D01*
X255190000Y-105000000D02*
X257350000Y-105000000D01*
X289911500Y-106278500D02*
X291190000Y-105000000D01*
X219190000Y-105000000D02*
X221350000Y-105000000D01*
X235911500Y-106278500D02*
X237190000Y-105000000D01*
X274468500Y-106278500D02*
X289911500Y-106278500D01*
X253911500Y-106278500D02*
X255190000Y-105000000D01*
X256468500Y-106278500D02*
X271911500Y-106278500D01*
X292690000Y-106500000D02*
X307690000Y-106500000D01*
%TO.N,D2*%
X293350000Y-88000000D02*
X291190000Y-88000000D01*
X235911500Y-89278500D02*
X237190000Y-88000000D01*
X219190000Y-88000000D02*
X220468500Y-89278500D01*
X238468500Y-89278500D02*
X253911500Y-89278500D01*
X275350000Y-88000000D02*
X273190000Y-88000000D01*
X220468500Y-89278500D02*
X235911500Y-89278500D01*
X237190000Y-88000000D02*
X238468500Y-89278500D01*
X256690000Y-89500000D02*
X271690000Y-89500000D01*
X292468500Y-89278500D02*
X307911500Y-89278500D01*
X253911500Y-89278500D02*
X255190000Y-88000000D01*
X257350000Y-88000000D02*
X255190000Y-88000000D01*
X274468500Y-89278500D02*
X289911500Y-89278500D01*
X273190000Y-88000000D02*
X274468500Y-89278500D01*
X205310000Y-88000000D02*
X205120000Y-88190000D01*
X289911500Y-89278500D02*
X291190000Y-88000000D01*
X255190000Y-88000000D02*
X256690000Y-89500000D01*
X271690000Y-89500000D02*
X273190000Y-88000000D01*
X311350000Y-88000000D02*
X309190000Y-88000000D01*
X221350000Y-88000000D02*
X219190000Y-88000000D01*
X307911500Y-89278500D02*
X309190000Y-88000000D01*
X291190000Y-88000000D02*
X292468500Y-89278500D01*
X219190000Y-88000000D02*
X205310000Y-88000000D01*
X239350000Y-88000000D02*
X237190000Y-88000000D01*
%TO.N,D21*%
X168190000Y-139000000D02*
X169468500Y-140278500D01*
X217911500Y-140278500D02*
X219190000Y-139000000D01*
X219190000Y-139000000D02*
X220468500Y-140278500D01*
X150190000Y-139000000D02*
X152350000Y-139000000D01*
X189880000Y-105970000D02*
X189880000Y-140158500D01*
X219190000Y-139000000D02*
X221350000Y-139000000D01*
X190000000Y-140278500D02*
X217911500Y-140278500D01*
X168190000Y-139000000D02*
X170350000Y-139000000D01*
X150190000Y-139000000D02*
X151468500Y-140278500D01*
X235911500Y-140278500D02*
X237190000Y-139000000D01*
X220468500Y-140278500D02*
X235911500Y-140278500D01*
X189880000Y-140158500D02*
X190000000Y-140278500D01*
X237190000Y-139000000D02*
X239350000Y-139000000D01*
X166911500Y-140278500D02*
X168190000Y-139000000D01*
X169468500Y-140278500D02*
X190000000Y-140278500D01*
X151468500Y-140278500D02*
X166911500Y-140278500D01*
%TO.N,GND*%
X202580000Y-80570000D02*
X205120000Y-83110000D01*
X205120000Y-85650000D02*
X205120000Y-83110000D01*
X189880000Y-80570000D02*
X202580000Y-80570000D01*
X194400000Y-115150000D02*
X200600000Y-115150000D01*
X203917700Y-111832300D02*
X203917700Y-86852300D01*
X203917700Y-86852300D02*
X205120000Y-85650000D01*
X200600000Y-115150000D02*
X203917700Y-111832300D01*
%TO.N,RST*%
X194400000Y-118850000D02*
X200600000Y-118850000D01*
X191082300Y-84312300D02*
X189880000Y-83110000D01*
X191082300Y-115532300D02*
X191082300Y-84312300D01*
X194400000Y-118850000D02*
X191082300Y-115532300D01*
%TD*%
M02*
