%TF.GenerationSoftware,KiCad,Pcbnew,9.0.0*%
%TF.CreationDate,2025-03-10T18:29:08+01:00*%
%TF.ProjectId,pcb,7063622e-6b69-4636-9164-5f7063625858,v1.0.0*%
%TF.SameCoordinates,Original*%
%TF.FileFunction,Soldermask,Bot*%
%TF.FilePolarity,Negative*%
%FSLAX46Y46*%
G04 Gerber Fmt 4.6, Leading zero omitted, Abs format (unit mm)*
G04 Created by KiCad (PCBNEW 9.0.0) date 2025-03-10 18:29:08*
%MOMM*%
%LPD*%
G01*
G04 APERTURE LIST*
G04 Aperture macros list*
%AMRoundRect*
0 Rectangle with rounded corners*
0 $1 Rounding radius*
0 $2 $3 $4 $5 $6 $7 $8 $9 X,Y pos of 4 corners*
0 Add a 4 corners polygon primitive as box body*
4,1,4,$2,$3,$4,$5,$6,$7,$8,$9,$2,$3,0*
0 Add four circle primitives for the rounded corners*
1,1,$1+$1,$2,$3*
1,1,$1+$1,$4,$5*
1,1,$1+$1,$6,$7*
1,1,$1+$1,$8,$9*
0 Add four rect primitives between the rounded corners*
20,1,$1+$1,$2,$3,$4,$5,0*
20,1,$1+$1,$4,$5,$6,$7,0*
20,1,$1+$1,$6,$7,$8,$9,0*
20,1,$1+$1,$8,$9,$2,$3,0*%
G04 Aperture macros list end*
%ADD10RoundRect,0.050000X-0.889000X-0.889000X0.889000X-0.889000X0.889000X0.889000X-0.889000X0.889000X0*%
%ADD11RoundRect,0.050000X-0.450000X-0.600000X0.450000X-0.600000X0.450000X0.600000X-0.450000X0.600000X0*%
%ADD12C,2.005000*%
%ADD13C,1.801800*%
%ADD14C,3.100000*%
%ADD15C,3.529000*%
%ADD16RoundRect,0.050000X-1.300000X-1.300000X1.300000X-1.300000X1.300000X1.300000X-1.300000X1.300000X0*%
%ADD17C,0.800000*%
%ADD18C,4.500000*%
%ADD19RoundRect,0.050000X-0.876300X0.876300X-0.876300X-0.876300X0.876300X-0.876300X0.876300X0.876300X0*%
%ADD20C,1.852600*%
G04 APERTURE END LIST*
D10*
%TO.C,D13*%
X237190000Y-105000000D03*
D11*
X239350000Y-105000000D03*
X242650000Y-105000000D03*
D12*
X244810000Y-105000000D03*
%TD*%
D10*
%TO.C,D14*%
X237190000Y-88000000D03*
D11*
X239350000Y-88000000D03*
X242650000Y-88000000D03*
D12*
X244810000Y-88000000D03*
%TD*%
D13*
%TO.C,S20*%
X289500000Y-83000000D03*
D14*
X295000000Y-77050000D03*
D15*
X295000000Y-83000000D03*
D14*
X300000000Y-79250000D03*
D13*
X300500000Y-83000000D03*
D16*
X291725000Y-77050000D03*
X303275000Y-79250000D03*
%TD*%
D13*
%TO.C,S14*%
X235500000Y-83000000D03*
D14*
X241000000Y-77050000D03*
D15*
X241000000Y-83000000D03*
D14*
X246000000Y-79250000D03*
D13*
X246500000Y-83000000D03*
D16*
X237725000Y-77050000D03*
X249275000Y-79250000D03*
%TD*%
D10*
%TO.C,D5*%
X132190000Y-105000000D03*
D11*
X134350000Y-105000000D03*
X137650000Y-105000000D03*
D12*
X139810000Y-105000000D03*
%TD*%
D10*
%TO.C,D24*%
X168190000Y-139000000D03*
D11*
X170350000Y-139000000D03*
X173650000Y-139000000D03*
D12*
X175810000Y-139000000D03*
%TD*%
D17*
%TO.C,_5*%
X152350000Y-117000000D03*
X152833274Y-115833274D03*
X152833274Y-118166726D03*
X154000000Y-115350000D03*
D18*
X154000000Y-117000000D03*
D17*
X154000000Y-118650000D03*
X155166726Y-115833274D03*
X155166726Y-118166726D03*
X155650000Y-117000000D03*
%TD*%
D10*
%TO.C,D17*%
X273190000Y-105000000D03*
D11*
X275350000Y-105000000D03*
X278650000Y-105000000D03*
D12*
X280810000Y-105000000D03*
%TD*%
D13*
%TO.C,S9*%
X166500000Y-100000000D03*
D14*
X172000000Y-94050000D03*
D15*
X172000000Y-100000000D03*
D14*
X177000000Y-96250000D03*
D13*
X177500000Y-100000000D03*
D16*
X168725000Y-94050000D03*
X180275000Y-96250000D03*
%TD*%
D10*
%TO.C,D1*%
X96190000Y-105000000D03*
D11*
X98350000Y-105000000D03*
X101650000Y-105000000D03*
D12*
X103810000Y-105000000D03*
%TD*%
D13*
%TO.C,S8*%
X148500000Y-83000000D03*
D14*
X154000000Y-77050000D03*
D15*
X154000000Y-83000000D03*
D14*
X159000000Y-79250000D03*
D13*
X159500000Y-83000000D03*
D16*
X150725000Y-77050000D03*
X162275000Y-79250000D03*
%TD*%
D10*
%TO.C,D16*%
X255190000Y-88000000D03*
D11*
X257350000Y-88000000D03*
X260650000Y-88000000D03*
D12*
X262810000Y-88000000D03*
%TD*%
D10*
%TO.C,D22*%
X309190000Y-88000000D03*
D11*
X311350000Y-88000000D03*
X314650000Y-88000000D03*
D12*
X316810000Y-88000000D03*
%TD*%
D10*
%TO.C,D19*%
X291190000Y-105000000D03*
D11*
X293350000Y-105000000D03*
X296650000Y-105000000D03*
D12*
X298810000Y-105000000D03*
%TD*%
D10*
%TO.C,D2*%
X96190000Y-88000000D03*
D11*
X98350000Y-88000000D03*
X101650000Y-88000000D03*
D12*
X103810000Y-88000000D03*
%TD*%
D10*
%TO.C,D9*%
X168190000Y-105000000D03*
D11*
X170350000Y-105000000D03*
X173650000Y-105000000D03*
D12*
X175810000Y-105000000D03*
%TD*%
D10*
%TO.C,D20*%
X291190000Y-88000000D03*
D11*
X293350000Y-88000000D03*
X296650000Y-88000000D03*
D12*
X298810000Y-88000000D03*
%TD*%
D13*
%TO.C,S10*%
X166500000Y-83000000D03*
D14*
X172000000Y-77050000D03*
D15*
X172000000Y-83000000D03*
D14*
X177000000Y-79250000D03*
D13*
X177500000Y-83000000D03*
D16*
X168725000Y-77050000D03*
X180275000Y-79250000D03*
%TD*%
D10*
%TO.C,D3*%
X114190000Y-105000000D03*
D11*
X116350000Y-105000000D03*
X119650000Y-105000000D03*
D12*
X121810000Y-105000000D03*
%TD*%
D10*
%TO.C,D26*%
X237190000Y-139000000D03*
D11*
X239350000Y-139000000D03*
X242650000Y-139000000D03*
D12*
X244810000Y-139000000D03*
%TD*%
D10*
%TO.C,D21*%
X309190000Y-105000000D03*
D11*
X311350000Y-105000000D03*
X314650000Y-105000000D03*
D12*
X316810000Y-105000000D03*
%TD*%
D13*
%TO.C,S6*%
X130500000Y-83000000D03*
D14*
X136000000Y-77050000D03*
D15*
X136000000Y-83000000D03*
D14*
X141000000Y-79250000D03*
D13*
X141500000Y-83000000D03*
D16*
X132725000Y-77050000D03*
X144275000Y-79250000D03*
%TD*%
D19*
%TO.C,MCU1*%
X189880000Y-78030000D03*
D20*
X189880000Y-75490000D03*
X189880000Y-80570000D03*
X189880000Y-83110000D03*
X189880000Y-85650000D03*
X189880000Y-88190000D03*
X189880000Y-90730000D03*
X189880000Y-93270000D03*
X189880000Y-95810000D03*
X189880000Y-98350000D03*
X189880000Y-100890000D03*
X189880000Y-103430000D03*
X189880000Y-105970000D03*
X202580000Y-105970000D03*
X200040000Y-105970000D03*
X197500000Y-105970000D03*
X194960000Y-105970000D03*
X192420000Y-105970000D03*
X205120000Y-75490000D03*
X205120000Y-78030000D03*
X205120000Y-80570000D03*
X205120000Y-83110000D03*
X205120000Y-85650000D03*
X205120000Y-88190000D03*
X205120000Y-90730000D03*
X205120000Y-93270000D03*
X205120000Y-95810000D03*
X205120000Y-98350000D03*
X205120000Y-100890000D03*
X205120000Y-103430000D03*
X205120000Y-105970000D03*
%TD*%
D10*
%TO.C,D12*%
X219190000Y-88000000D03*
D11*
X221350000Y-88000000D03*
X224650000Y-88000000D03*
D12*
X226810000Y-88000000D03*
%TD*%
D10*
%TO.C,D11*%
X219190000Y-105000000D03*
D11*
X221350000Y-105000000D03*
X224650000Y-105000000D03*
D12*
X226810000Y-105000000D03*
%TD*%
D13*
%TO.C,S22*%
X307500000Y-83000000D03*
D14*
X313000000Y-77050000D03*
D15*
X313000000Y-83000000D03*
D14*
X318000000Y-79250000D03*
D13*
X318500000Y-83000000D03*
D16*
X309725000Y-77050000D03*
X321275000Y-79250000D03*
%TD*%
D13*
%TO.C,S4*%
X112500000Y-83000000D03*
D14*
X118000000Y-77050000D03*
D15*
X118000000Y-83000000D03*
D14*
X123000000Y-79250000D03*
D13*
X123500000Y-83000000D03*
D16*
X114725000Y-77050000D03*
X126275000Y-79250000D03*
%TD*%
D13*
%TO.C,S3*%
X112500000Y-100000000D03*
D14*
X118000000Y-94050000D03*
D15*
X118000000Y-100000000D03*
D14*
X123000000Y-96250000D03*
D13*
X123500000Y-100000000D03*
D16*
X114725000Y-94050000D03*
X126275000Y-96250000D03*
%TD*%
D10*
%TO.C,D15*%
X255190000Y-105000000D03*
D11*
X257350000Y-105000000D03*
X260650000Y-105000000D03*
D12*
X262810000Y-105000000D03*
%TD*%
D10*
%TO.C,D7*%
X150190000Y-105000000D03*
D11*
X152350000Y-105000000D03*
X155650000Y-105000000D03*
D12*
X157810000Y-105000000D03*
%TD*%
D13*
%TO.C,S23*%
X148500000Y-134000000D03*
D14*
X154000000Y-128050000D03*
D15*
X154000000Y-134000000D03*
D14*
X159000000Y-130250000D03*
D13*
X159500000Y-134000000D03*
D16*
X150725000Y-128050000D03*
X162275000Y-130250000D03*
%TD*%
D13*
%TO.C,S5*%
X130500000Y-100000000D03*
D14*
X136000000Y-94050000D03*
D15*
X136000000Y-100000000D03*
D14*
X141000000Y-96250000D03*
D13*
X141500000Y-100000000D03*
D16*
X132725000Y-94050000D03*
X144275000Y-96250000D03*
%TD*%
D13*
%TO.C,S24*%
X166500000Y-134000000D03*
D14*
X172000000Y-128050000D03*
D15*
X172000000Y-134000000D03*
D14*
X177000000Y-130250000D03*
D13*
X177500000Y-134000000D03*
D16*
X168725000Y-128050000D03*
X180275000Y-130250000D03*
%TD*%
D13*
%TO.C,S21*%
X307500000Y-100000000D03*
D14*
X313000000Y-94050000D03*
D15*
X313000000Y-100000000D03*
D14*
X318000000Y-96250000D03*
D13*
X318500000Y-100000000D03*
D16*
X309725000Y-94050000D03*
X321275000Y-96250000D03*
%TD*%
D13*
%TO.C,S1*%
X94500000Y-100000000D03*
D14*
X100000000Y-94050000D03*
D15*
X100000000Y-100000000D03*
D14*
X105000000Y-96250000D03*
D13*
X105500000Y-100000000D03*
D16*
X96725000Y-94050000D03*
X108275000Y-96250000D03*
%TD*%
D13*
%TO.C,S17*%
X271500000Y-100000000D03*
D14*
X277000000Y-94050000D03*
D15*
X277000000Y-100000000D03*
D14*
X282000000Y-96250000D03*
D13*
X282500000Y-100000000D03*
D16*
X273725000Y-94050000D03*
X285275000Y-96250000D03*
%TD*%
D13*
%TO.C,S7*%
X148500000Y-100000000D03*
D14*
X154000000Y-94050000D03*
D15*
X154000000Y-100000000D03*
D14*
X159000000Y-96250000D03*
D13*
X159500000Y-100000000D03*
D16*
X150725000Y-94050000D03*
X162275000Y-96250000D03*
%TD*%
D10*
%TO.C,D25*%
X219190000Y-139000000D03*
D11*
X221350000Y-139000000D03*
X224650000Y-139000000D03*
D12*
X226810000Y-139000000D03*
%TD*%
D17*
%TO.C,_1*%
X107350000Y-92000000D03*
X107833274Y-90833274D03*
X107833274Y-93166726D03*
X109000000Y-90350000D03*
D18*
X109000000Y-92000000D03*
D17*
X109000000Y-93650000D03*
X110166726Y-90833274D03*
X110166726Y-93166726D03*
X110650000Y-92000000D03*
%TD*%
D13*
%TO.C,S12*%
X217500000Y-83000000D03*
D14*
X223000000Y-77050000D03*
D15*
X223000000Y-83000000D03*
D14*
X228000000Y-79250000D03*
D13*
X228500000Y-83000000D03*
D16*
X219725000Y-77050000D03*
X231275000Y-79250000D03*
%TD*%
D17*
%TO.C,_6*%
X239350000Y-117000000D03*
X239833274Y-115833274D03*
X239833274Y-118166726D03*
X241000000Y-115350000D03*
D18*
X241000000Y-117000000D03*
D17*
X241000000Y-118650000D03*
X242166726Y-115833274D03*
X242166726Y-118166726D03*
X242650000Y-117000000D03*
%TD*%
D13*
%TO.C,S26*%
X235500000Y-134000000D03*
D14*
X241000000Y-128050000D03*
D15*
X241000000Y-134000000D03*
D14*
X246000000Y-130250000D03*
D13*
X246500000Y-134000000D03*
D16*
X237725000Y-128050000D03*
X249275000Y-130250000D03*
%TD*%
D13*
%TO.C,S19*%
X289500000Y-100000000D03*
D14*
X295000000Y-94050000D03*
D15*
X295000000Y-100000000D03*
D14*
X300000000Y-96250000D03*
D13*
X300500000Y-100000000D03*
D16*
X291725000Y-94050000D03*
X303275000Y-96250000D03*
%TD*%
D10*
%TO.C,D6*%
X132190000Y-88000000D03*
D11*
X134350000Y-88000000D03*
X137650000Y-88000000D03*
D12*
X139810000Y-88000000D03*
%TD*%
D10*
%TO.C,D4*%
X114190000Y-88000000D03*
D11*
X116350000Y-88000000D03*
X119650000Y-88000000D03*
D12*
X121810000Y-88000000D03*
%TD*%
D10*
%TO.C,D18*%
X273190000Y-88000000D03*
D11*
X275350000Y-88000000D03*
X278650000Y-88000000D03*
D12*
X280810000Y-88000000D03*
%TD*%
D13*
%TO.C,S15*%
X253500000Y-100000000D03*
D14*
X259000000Y-94050000D03*
D15*
X259000000Y-100000000D03*
D14*
X264000000Y-96250000D03*
D13*
X264500000Y-100000000D03*
D16*
X255725000Y-94050000D03*
X267275000Y-96250000D03*
%TD*%
D13*
%TO.C,S13*%
X235500000Y-100000000D03*
D14*
X241000000Y-94050000D03*
D15*
X241000000Y-100000000D03*
D14*
X246000000Y-96250000D03*
D13*
X246500000Y-100000000D03*
D16*
X237725000Y-94050000D03*
X249275000Y-96250000D03*
%TD*%
D13*
%TO.C,S18*%
X271500000Y-83000000D03*
D14*
X277000000Y-77050000D03*
D15*
X277000000Y-83000000D03*
D14*
X282000000Y-79250000D03*
D13*
X282500000Y-83000000D03*
D16*
X273725000Y-77050000D03*
X285275000Y-79250000D03*
%TD*%
D10*
%TO.C,D10*%
X168190000Y-88000000D03*
D11*
X170350000Y-88000000D03*
X173650000Y-88000000D03*
D12*
X175810000Y-88000000D03*
%TD*%
D13*
%TO.C,S16*%
X253500000Y-83000000D03*
D14*
X259000000Y-77050000D03*
D15*
X259000000Y-83000000D03*
D14*
X264000000Y-79250000D03*
D13*
X264500000Y-83000000D03*
D16*
X255725000Y-77050000D03*
X267275000Y-79250000D03*
%TD*%
D10*
%TO.C,D23*%
X150190000Y-139000000D03*
D11*
X152350000Y-139000000D03*
X155650000Y-139000000D03*
D12*
X157810000Y-139000000D03*
%TD*%
D13*
%TO.C,S25*%
X217500000Y-134000000D03*
D14*
X223000000Y-128050000D03*
D15*
X223000000Y-134000000D03*
D14*
X228000000Y-130250000D03*
D13*
X228500000Y-134000000D03*
D16*
X219725000Y-128050000D03*
X231275000Y-130250000D03*
%TD*%
D17*
%TO.C,_4*%
X302350000Y-92000000D03*
X302833274Y-90833274D03*
X302833274Y-93166726D03*
X304000000Y-90350000D03*
D18*
X304000000Y-92000000D03*
D17*
X304000000Y-93650000D03*
X305166726Y-90833274D03*
X305166726Y-93166726D03*
X305650000Y-92000000D03*
%TD*%
D13*
%TO.C,S11*%
X217500000Y-100000000D03*
D14*
X223000000Y-94050000D03*
D15*
X223000000Y-100000000D03*
D14*
X228000000Y-96250000D03*
D13*
X228500000Y-100000000D03*
D16*
X219725000Y-94050000D03*
X231275000Y-96250000D03*
%TD*%
D17*
%TO.C,_3*%
X230350000Y-92000000D03*
X230833274Y-90833274D03*
X230833274Y-93166726D03*
X232000000Y-90350000D03*
D18*
X232000000Y-92000000D03*
D17*
X232000000Y-93650000D03*
X233166726Y-90833274D03*
X233166726Y-93166726D03*
X233650000Y-92000000D03*
%TD*%
D13*
%TO.C,S2*%
X94500000Y-83000000D03*
D14*
X100000000Y-77050000D03*
D15*
X100000000Y-83000000D03*
D14*
X105000000Y-79250000D03*
D13*
X105500000Y-83000000D03*
D16*
X96725000Y-77050000D03*
X108275000Y-79250000D03*
%TD*%
D10*
%TO.C,D8*%
X150190000Y-88000000D03*
D11*
X152350000Y-88000000D03*
X155650000Y-88000000D03*
D12*
X157810000Y-88000000D03*
%TD*%
D17*
%TO.C,_7*%
X195850000Y-134000000D03*
X196333274Y-132833274D03*
X196333274Y-135166726D03*
X197500000Y-132350000D03*
D18*
X197500000Y-134000000D03*
D17*
X197500000Y-135650000D03*
X198666726Y-132833274D03*
X198666726Y-135166726D03*
X199150000Y-134000000D03*
%TD*%
%TO.C,_2*%
X161350000Y-92000000D03*
X161833274Y-90833274D03*
X161833274Y-93166726D03*
X163000000Y-90350000D03*
D18*
X163000000Y-92000000D03*
D17*
X163000000Y-93650000D03*
X164166726Y-90833274D03*
X164166726Y-93166726D03*
X164650000Y-92000000D03*
%TD*%
M02*
