0
SECTION
2
HEADER
9
$INSUNITS
70
4
0
ENDSEC
0
SECTION
2
TABLES
0
TABLE
2
LTYPE
0
LTYPE
72
65
70
64
2
CONTINUOUS
3
______
73
0
40
0
0
ENDTAB
0
TABLE
2
LAYER
0
ENDTAB
0
ENDSEC
0
SECTION
2
ENTITIES
0
LINE
8
0
10
86.5
20
-110
11
86.5
21
-73
0
LINE
8
0
10
89.5
20
-70
11
344.5
21
-70
0
LINE
8
0
10
347.5
20
-73
11
347.5
21
-110
0
LINE
8
0
10
344.5
20
-113
11
278.5
21
-113
0
LINE
8
0
10
275.5
20
-116
11
275.5
21
-144
0
LINE
8
0
10
272.5
20
-147
11
161.5
21
-147
0
LINE
8
0
10
158.5
20
-144
11
158.5
21
-116
0
LINE
8
0
10
155.5
20
-113
11
89.5
21
-113
0
ARC
8
0
10
89.5
20
-73
40
3
50
90
51
180
0
ARC
8
0
10
344.5
20
-73
40
3
50
0
51
90
0
ARC
8
0
10
344.5
20
-110
40
3
50
270
51
0
0
ARC
8
0
10
278.5
20
-116
40
3
50
90
51
180
0
ARC
8
0
10
272.5
20
-144
40
3
50
270
51
0
0
ARC
8
0
10
161.5
20
-144
40
3
50
180
51
270
0
ARC
8
0
10
155.5
20
-116
40
3
50
0
51
90
0
ARC
8
0
10
89.5
20
-110
40
3
50
180
51
270
0
LINE
8
0
10
88.5
20
-108
11
88.5
21
-75
0
LINE
8
0
10
91.5
20
-72
11
342.5
21
-72
0
LINE
8
0
10
345.5
20
-75
11
345.5
21
-108
0
LINE
8
0
10
342.5
20
-111
11
276.5
21
-111
0
LINE
8
0
10
273.5
20
-114
11
273.5
21
-142
0
LINE
8
0
10
270.5
20
-145
11
163.5
21
-145
0
LINE
8
0
10
160.5
20
-142
11
160.5
21
-114
0
LINE
8
0
10
157.5
20
-111
11
91.5
21
-111
0
ARC
8
0
10
91.5
20
-75
40
3
50
90
51
180
0
ARC
8
0
10
342.5
20
-75
40
3
50
0
51
90
0
ARC
8
0
10
342.5
20
-108
40
3
50
270
51
0
0
ARC
8
0
10
276.5
20
-114
40
3
50
90
51
180
0
ARC
8
0
10
270.5
20
-142
40
3
50
270
51
0
0
ARC
8
0
10
163.5
20
-142
40
3
50
180
51
270
0
ARC
8
0
10
157.5
20
-114
40
3
50
0
51
90
0
ARC
8
0
10
91.5
20
-108
40
3
50
180
51
270
0
ENDSEC
0
EOF