0
SECTION
2
HEADER
9
$INSUNITS
70
4
0
ENDSEC
0
SECTION
2
TABLES
0
TABLE
2
LTYPE
0
LTYPE
72
65
70
64
2
CONTINUOUS
3
______
73
0
40
0
0
ENDTAB
0
TABLE
2
LAYER
0
ENDTAB
0
ENDSEC
0
SECTION
2
ENTITIES
0
LINE
8
0
10
92.75
20
-107.2
11
107.25
21
-107.2
0
LINE
8
0
10
107.25
20
-107.2
11
107.25
21
-92.8
0
LINE
8
0
10
107.25
20
-92.8
11
92.75
21
-92.8
0
LINE
8
0
10
92.75
20
-92.8
11
92.75
21
-107.2
0
LINE
8
0
10
92.75
20
-90.2
11
107.25
21
-90.2
0
LINE
8
0
10
107.25
20
-90.2
11
107.25
21
-75.8
0
LINE
8
0
10
107.25
20
-75.8
11
92.75
21
-75.8
0
LINE
8
0
10
92.75
20
-75.8
11
92.75
21
-90.2
0
LINE
8
0
10
110.75
20
-107.2
11
125.25
21
-107.2
0
LINE
8
0
10
125.25
20
-107.2
11
125.25
21
-92.8
0
LINE
8
0
10
125.25
20
-92.8
11
110.75
21
-92.8
0
LINE
8
0
10
110.75
20
-92.8
11
110.75
21
-107.2
0
LINE
8
0
10
110.75
20
-90.2
11
125.25
21
-90.2
0
LINE
8
0
10
125.25
20
-90.2
11
125.25
21
-75.8
0
LINE
8
0
10
125.25
20
-75.8
11
110.75
21
-75.8
0
LINE
8
0
10
110.75
20
-75.8
11
110.75
21
-90.2
0
LINE
8
0
10
128.75
20
-107.2
11
143.25
21
-107.2
0
LINE
8
0
10
143.25
20
-107.2
11
143.25
21
-92.8
0
LINE
8
0
10
143.25
20
-92.8
11
128.75
21
-92.8
0
LINE
8
0
10
128.75
20
-92.8
11
128.75
21
-107.2
0
LINE
8
0
10
128.75
20
-90.2
11
143.25
21
-90.2
0
LINE
8
0
10
143.25
20
-90.2
11
143.25
21
-75.8
0
LINE
8
0
10
143.25
20
-75.8
11
128.75
21
-75.8
0
LINE
8
0
10
128.75
20
-75.8
11
128.75
21
-90.2
0
LINE
8
0
10
146.75
20
-107.2
11
161.25
21
-107.2
0
LINE
8
0
10
161.25
20
-107.2
11
161.25
21
-92.8
0
LINE
8
0
10
161.25
20
-92.8
11
146.75
21
-92.8
0
LINE
8
0
10
146.75
20
-92.8
11
146.75
21
-107.2
0
LINE
8
0
10
146.75
20
-90.2
11
161.25
21
-90.2
0
LINE
8
0
10
161.25
20
-90.2
11
161.25
21
-75.8
0
LINE
8
0
10
161.25
20
-75.8
11
146.75
21
-75.8
0
LINE
8
0
10
146.75
20
-75.8
11
146.75
21
-90.2
0
LINE
8
0
10
164.75
20
-107.2
11
179.25
21
-107.2
0
LINE
8
0
10
179.25
20
-107.2
11
179.25
21
-92.8
0
LINE
8
0
10
179.25
20
-92.8
11
164.75
21
-92.8
0
LINE
8
0
10
164.75
20
-92.8
11
164.75
21
-107.2
0
LINE
8
0
10
164.75
20
-90.2
11
179.25
21
-90.2
0
LINE
8
0
10
179.25
20
-90.2
11
179.25
21
-75.8
0
LINE
8
0
10
179.25
20
-75.8
11
164.75
21
-75.8
0
LINE
8
0
10
164.75
20
-75.8
11
164.75
21
-90.2
0
LINE
8
0
10
182.75
20
-107.2
11
197.25
21
-107.2
0
LINE
8
0
10
197.25
20
-107.2
11
197.25
21
-92.8
0
LINE
8
0
10
197.25
20
-92.8
11
182.75
21
-92.8
0
LINE
8
0
10
182.75
20
-92.8
11
182.75
21
-107.2
0
LINE
8
0
10
182.75
20
-90.2
11
197.25
21
-90.2
0
LINE
8
0
10
197.25
20
-90.2
11
197.25
21
-75.8
0
LINE
8
0
10
197.25
20
-75.8
11
182.75
21
-75.8
0
LINE
8
0
10
182.75
20
-75.8
11
182.75
21
-90.2
0
LINE
8
0
10
236.75
20
-107.2
11
251.25
21
-107.2
0
LINE
8
0
10
251.25
20
-107.2
11
251.25
21
-92.8
0
LINE
8
0
10
251.25
20
-92.8
11
236.75
21
-92.8
0
LINE
8
0
10
236.75
20
-92.8
11
236.75
21
-107.2
0
LINE
8
0
10
236.75
20
-90.2
11
251.25
21
-90.2
0
LINE
8
0
10
251.25
20
-90.2
11
251.25
21
-75.8
0
LINE
8
0
10
251.25
20
-75.8
11
236.75
21
-75.8
0
LINE
8
0
10
236.75
20
-75.8
11
236.75
21
-90.2
0
LINE
8
0
10
254.75
20
-107.2
11
269.25
21
-107.2
0
LINE
8
0
10
269.25
20
-107.2
11
269.25
21
-92.8
0
LINE
8
0
10
269.25
20
-92.8
11
254.75
21
-92.8
0
LINE
8
0
10
254.75
20
-92.8
11
254.75
21
-107.2
0
LINE
8
0
10
254.75
20
-90.2
11
269.25
21
-90.2
0
LINE
8
0
10
269.25
20
-90.2
11
269.25
21
-75.8
0
LINE
8
0
10
269.25
20
-75.8
11
254.75
21
-75.8
0
LINE
8
0
10
254.75
20
-75.8
11
254.75
21
-90.2
0
LINE
8
0
10
272.75
20
-107.2
11
287.25
21
-107.2
0
LINE
8
0
10
287.25
20
-107.2
11
287.25
21
-92.8
0
LINE
8
0
10
287.25
20
-92.8
11
272.75
21
-92.8
0
LINE
8
0
10
272.75
20
-92.8
11
272.75
21
-107.2
0
LINE
8
0
10
272.75
20
-90.2
11
287.25
21
-90.2
0
LINE
8
0
10
287.25
20
-90.2
11
287.25
21
-75.8
0
LINE
8
0
10
287.25
20
-75.8
11
272.75
21
-75.8
0
LINE
8
0
10
272.75
20
-75.8
11
272.75
21
-90.2
0
LINE
8
0
10
290.75
20
-107.2
11
305.25
21
-107.2
0
LINE
8
0
10
305.25
20
-107.2
11
305.25
21
-92.8
0
LINE
8
0
10
305.25
20
-92.8
11
290.75
21
-92.8
0
LINE
8
0
10
290.75
20
-92.8
11
290.75
21
-107.2
0
LINE
8
0
10
290.75
20
-90.2
11
305.25
21
-90.2
0
LINE
8
0
10
305.25
20
-90.2
11
305.25
21
-75.8
0
LINE
8
0
10
305.25
20
-75.8
11
290.75
21
-75.8
0
LINE
8
0
10
290.75
20
-75.8
11
290.75
21
-90.2
0
LINE
8
0
10
308.75
20
-107.2
11
323.25
21
-107.2
0
LINE
8
0
10
323.25
20
-107.2
11
323.25
21
-92.8
0
LINE
8
0
10
323.25
20
-92.8
11
308.75
21
-92.8
0
LINE
8
0
10
308.75
20
-92.8
11
308.75
21
-107.2
0
LINE
8
0
10
308.75
20
-90.2
11
323.25
21
-90.2
0
LINE
8
0
10
323.25
20
-90.2
11
323.25
21
-75.8
0
LINE
8
0
10
323.25
20
-75.8
11
308.75
21
-75.8
0
LINE
8
0
10
308.75
20
-75.8
11
308.75
21
-90.2
0
LINE
8
0
10
326.75
20
-107.2
11
341.25
21
-107.2
0
LINE
8
0
10
341.25
20
-107.2
11
341.25
21
-92.8
0
LINE
8
0
10
341.25
20
-92.8
11
326.75
21
-92.8
0
LINE
8
0
10
326.75
20
-92.8
11
326.75
21
-107.2
0
LINE
8
0
10
326.75
20
-90.2
11
341.25
21
-90.2
0
LINE
8
0
10
341.25
20
-90.2
11
341.25
21
-75.8
0
LINE
8
0
10
341.25
20
-75.8
11
326.75
21
-75.8
0
LINE
8
0
10
326.75
20
-75.8
11
326.75
21
-90.2
0
LINE
8
0
10
164.75
20
-141.2
11
179.25
21
-141.2
0
LINE
8
0
10
179.25
20
-141.2
11
179.25
21
-126.8
0
LINE
8
0
10
179.25
20
-126.8
11
164.75
21
-126.8
0
LINE
8
0
10
164.75
20
-126.8
11
164.75
21
-141.2
0
LINE
8
0
10
182.75
20
-141.2
11
197.25
21
-141.2
0
LINE
8
0
10
197.25
20
-141.2
11
197.25
21
-126.8
0
LINE
8
0
10
197.25
20
-126.8
11
182.75
21
-126.8
0
LINE
8
0
10
182.75
20
-126.8
11
182.75
21
-141.2
0
LINE
8
0
10
236.75
20
-141.2
11
251.25
21
-141.2
0
LINE
8
0
10
251.25
20
-141.2
11
251.25
21
-126.8
0
LINE
8
0
10
251.25
20
-126.8
11
236.75
21
-126.8
0
LINE
8
0
10
236.75
20
-126.8
11
236.75
21
-141.2
0
LINE
8
0
10
254.75
20
-141.2
11
269.25
21
-141.2
0
LINE
8
0
10
269.25
20
-141.2
11
269.25
21
-126.8
0
LINE
8
0
10
269.25
20
-126.8
11
254.75
21
-126.8
0
LINE
8
0
10
254.75
20
-126.8
11
254.75
21
-141.2
0
ENDSEC
0
EOF