M48
; DRILL file {KiCad 9.0.0} date 2025-04-19T19:47:16+0200
; FORMAT={-:-/ absolute / metric / decimal}
; #@! TF.CreationDate,2025-04-19T19:47:16+02:00
; #@! TF.GenerationSoftware,Kicad,Pcbnew,9.0.0
; #@! TF.FileFunction,Plated,1,2,PTH
FMAT,2
METRIC
; #@! TA.AperFunction,Plated,PTH,ComponentDrill
T1C0.400
; #@! TA.AperFunction,Plated,PTH,ComponentDrill
T2C0.991
; #@! TA.AperFunction,Plated,PTH,ComponentDrill
T3C1.092
; #@! TA.AperFunction,Plated,PTH,ComponentDrill
T4C2.200
%
G90
G05
T1
X107.37Y-91.5
X107.848Y-90.348
X107.848Y-92.652
X109.0Y-89.87
X109.0Y-93.13
X110.152Y-90.348
X110.152Y-92.652
X110.63Y-91.5
X179.37Y-125.5
X179.848Y-124.348
X179.848Y-126.652
X181.0Y-123.87
X181.0Y-127.13
X182.152Y-124.348
X182.152Y-126.652
X182.63Y-125.5
X197.37Y-91.5
X197.37Y-117.0
X197.848Y-90.348
X197.848Y-92.652
X197.848Y-115.848
X197.848Y-118.152
X199.0Y-89.87
X199.0Y-93.13
X199.0Y-115.37
X199.0Y-118.63
X200.152Y-90.348
X200.152Y-92.652
X200.152Y-115.848
X200.152Y-118.152
X200.63Y-91.5
X200.63Y-117.0
X233.37Y-91.5
X233.37Y-117.0
X233.848Y-90.348
X233.848Y-92.652
X233.848Y-115.848
X233.848Y-118.152
X235.0Y-89.87
X235.0Y-93.13
X235.0Y-115.37
X235.0Y-118.63
X236.152Y-90.348
X236.152Y-92.652
X236.152Y-115.848
X236.152Y-118.152
X236.63Y-91.5
X236.63Y-117.0
X251.37Y-125.5
X251.848Y-124.348
X251.848Y-126.652
X253.0Y-123.87
X253.0Y-127.13
X254.152Y-124.348
X254.152Y-126.652
X254.63Y-125.5
X323.37Y-91.5
X323.848Y-90.348
X323.848Y-92.652
X325.0Y-89.87
X325.0Y-93.13
X326.152Y-90.348
X326.152Y-92.652
X326.63Y-91.5
T2
X96.19Y-88.0
X96.19Y-105.0
X103.81Y-88.0
X103.81Y-105.0
X114.19Y-88.0
X114.19Y-105.0
X121.81Y-88.0
X121.81Y-105.0
X132.19Y-88.0
X132.19Y-105.0
X139.81Y-88.0
X139.81Y-105.0
X150.19Y-88.0
X150.19Y-105.0
X157.81Y-88.0
X157.81Y-105.0
X168.19Y-88.0
X168.19Y-105.0
X168.19Y-139.0
X175.81Y-88.0
X175.81Y-105.0
X175.81Y-139.0
X186.19Y-88.0
X186.19Y-105.0
X186.19Y-139.0
X193.81Y-88.0
X193.81Y-105.0
X193.81Y-139.0
X240.19Y-88.0
X240.19Y-105.0
X240.19Y-139.0
X247.81Y-88.0
X247.81Y-105.0
X247.81Y-139.0
X258.19Y-88.0
X258.19Y-105.0
X258.19Y-139.0
X265.81Y-88.0
X265.81Y-105.0
X265.81Y-139.0
X276.19Y-88.0
X276.19Y-105.0
X283.81Y-88.0
X283.81Y-105.0
X294.19Y-88.0
X294.19Y-105.0
X301.81Y-88.0
X301.81Y-105.0
X312.19Y-88.0
X312.19Y-105.0
X319.81Y-88.0
X319.81Y-105.0
X330.19Y-88.0
X330.19Y-105.0
X337.81Y-88.0
X337.81Y-105.0
T3
X209.38Y-73.99
X209.38Y-76.53
X209.38Y-79.07
X209.38Y-81.61
X209.38Y-84.15
X209.38Y-86.69
X209.38Y-89.23
X209.38Y-91.77
X209.38Y-94.31
X209.38Y-96.85
X209.38Y-99.39
X209.38Y-101.93
X209.38Y-104.47
X211.92Y-104.47
X214.46Y-104.47
X217.0Y-104.47
X219.54Y-104.47
X222.08Y-104.47
X224.62Y-73.99
X224.62Y-76.53
X224.62Y-79.07
X224.62Y-81.61
X224.62Y-84.15
X224.62Y-86.69
X224.62Y-89.23
X224.62Y-91.77
X224.62Y-94.31
X224.62Y-96.85
X224.62Y-99.39
X224.62Y-101.93
X224.62Y-104.47
T4
X109.0Y-91.5
X181.0Y-125.5
X199.0Y-91.5
X199.0Y-117.0
X235.0Y-91.5
X235.0Y-117.0
X253.0Y-125.5
X325.0Y-91.5
M30
