M48
; DRILL file {KiCad 9.0.0} date 2025-03-10T18:29:14+0100
; FORMAT={-:-/ absolute / metric / decimal}
; #@! TF.CreationDate,2025-03-10T18:29:14+01:00
; #@! TF.GenerationSoftware,Kicad,Pcbnew,9.0.0
; #@! TF.FileFunction,NonPlated,1,2,NPTH
FMAT,2
METRIC
; #@! TA.AperFunction,NonPlated,NPTH,ComponentDrill
T1C1.702
; #@! TA.AperFunction,NonPlated,NPTH,ComponentDrill
T2C3.000
; #@! TA.AperFunction,NonPlated,NPTH,ComponentDrill
T3C3.429
%
G90
G05
T1
X94.5Y-83.0
X94.5Y-100.0
X105.5Y-83.0
X105.5Y-100.0
X112.5Y-83.0
X112.5Y-100.0
X123.5Y-83.0
X123.5Y-100.0
X130.5Y-83.0
X130.5Y-100.0
X141.5Y-83.0
X141.5Y-100.0
X148.5Y-83.0
X148.5Y-100.0
X148.5Y-134.0
X159.5Y-83.0
X159.5Y-100.0
X159.5Y-134.0
X166.5Y-83.0
X166.5Y-100.0
X166.5Y-134.0
X177.5Y-83.0
X177.5Y-100.0
X177.5Y-134.0
X217.5Y-83.0
X217.5Y-100.0
X217.5Y-134.0
X228.5Y-83.0
X228.5Y-100.0
X228.5Y-134.0
X235.5Y-83.0
X235.5Y-100.0
X235.5Y-134.0
X246.5Y-83.0
X246.5Y-100.0
X246.5Y-134.0
X253.5Y-83.0
X253.5Y-100.0
X264.5Y-83.0
X264.5Y-100.0
X271.5Y-83.0
X271.5Y-100.0
X282.5Y-83.0
X282.5Y-100.0
X289.5Y-83.0
X289.5Y-100.0
X300.5Y-83.0
X300.5Y-100.0
X307.5Y-83.0
X307.5Y-100.0
X318.5Y-83.0
X318.5Y-100.0
T2
X100.0Y-77.05
X100.0Y-94.05
X105.0Y-79.25
X105.0Y-96.25
X118.0Y-77.05
X118.0Y-94.05
X123.0Y-79.25
X123.0Y-96.25
X136.0Y-77.05
X136.0Y-94.05
X141.0Y-79.25
X141.0Y-96.25
X154.0Y-77.05
X154.0Y-94.05
X154.0Y-128.05
X159.0Y-79.25
X159.0Y-96.25
X159.0Y-130.25
X172.0Y-77.05
X172.0Y-94.05
X172.0Y-128.05
X177.0Y-79.25
X177.0Y-96.25
X177.0Y-130.25
X223.0Y-77.05
X223.0Y-94.05
X223.0Y-128.05
X228.0Y-79.25
X228.0Y-96.25
X228.0Y-130.25
X241.0Y-77.05
X241.0Y-94.05
X241.0Y-128.05
X246.0Y-79.25
X246.0Y-96.25
X246.0Y-130.25
X259.0Y-77.05
X259.0Y-94.05
X264.0Y-79.25
X264.0Y-96.25
X277.0Y-77.05
X277.0Y-94.05
X282.0Y-79.25
X282.0Y-96.25
X295.0Y-77.05
X295.0Y-94.05
X300.0Y-79.25
X300.0Y-96.25
X313.0Y-77.05
X313.0Y-94.05
X318.0Y-79.25
X318.0Y-96.25
T3
X100.0Y-83.0
X100.0Y-100.0
X118.0Y-83.0
X118.0Y-100.0
X136.0Y-83.0
X136.0Y-100.0
X154.0Y-83.0
X154.0Y-100.0
X154.0Y-134.0
X172.0Y-83.0
X172.0Y-100.0
X172.0Y-134.0
X223.0Y-83.0
X223.0Y-100.0
X223.0Y-134.0
X241.0Y-83.0
X241.0Y-100.0
X241.0Y-134.0
X259.0Y-83.0
X259.0Y-100.0
X277.0Y-83.0
X277.0Y-100.0
X295.0Y-83.0
X295.0Y-100.0
X313.0Y-83.0
X313.0Y-100.0
M30
