M48
; DRILL file {KiCad 9.0.0} date 2025-03-09T18:38:08+0100
; FORMAT={-:-/ absolute / metric / decimal}
; #@! TF.CreationDate,2025-03-09T18:38:08+01:00
; #@! TF.GenerationSoftware,Kicad,Pcbnew,9.0.0
; #@! TF.FileFunction,Plated,1,2,PTH
FMAT,2
METRIC
; #@! TA.AperFunction,Plated,PTH,ComponentDrill
T1C0.400
; #@! TA.AperFunction,Plated,PTH,ComponentDrill
T2C0.991
; #@! TA.AperFunction,Plated,PTH,ComponentDrill
T3C1.020
; #@! TA.AperFunction,Plated,PTH,ComponentDrill
T4C2.200
%
G90
G05
T1
X107.35Y-92.0
X107.833Y-90.833
X107.833Y-93.167
X109.0Y-90.35
X109.0Y-93.65
X110.167Y-90.833
X110.167Y-93.167
X110.65Y-92.0
X152.35Y-117.0
X152.833Y-115.833
X152.833Y-118.167
X154.0Y-115.35
X154.0Y-118.65
X155.167Y-115.833
X155.167Y-118.167
X155.65Y-117.0
X161.35Y-92.0
X161.833Y-90.833
X161.833Y-93.167
X163.0Y-90.35
X163.0Y-93.65
X164.167Y-90.833
X164.167Y-93.167
X164.65Y-92.0
X195.85Y-139.0
X196.333Y-137.833
X196.333Y-140.167
X197.5Y-137.35
X197.5Y-140.65
X198.667Y-137.833
X198.667Y-140.167
X199.15Y-139.0
X230.35Y-92.0
X230.833Y-90.833
X230.833Y-93.167
X232.0Y-90.35
X232.0Y-93.65
X233.167Y-90.833
X233.167Y-93.167
X233.65Y-92.0
X239.35Y-117.0
X239.833Y-115.833
X239.833Y-118.167
X241.0Y-115.35
X241.0Y-118.65
X242.167Y-115.833
X242.167Y-118.167
X242.65Y-117.0
X302.35Y-92.0
X302.833Y-90.833
X302.833Y-93.167
X304.0Y-90.35
X304.0Y-93.65
X305.167Y-90.833
X305.167Y-93.167
X305.65Y-92.0
T2
X96.19Y-88.0
X96.19Y-105.0
X103.81Y-88.0
X103.81Y-105.0
X114.19Y-88.0
X114.19Y-105.0
X121.81Y-88.0
X121.81Y-105.0
X132.19Y-88.0
X132.19Y-105.0
X139.81Y-88.0
X139.81Y-105.0
X150.19Y-88.0
X150.19Y-105.0
X150.19Y-139.0
X157.81Y-88.0
X157.81Y-105.0
X157.81Y-139.0
X168.19Y-88.0
X168.19Y-105.0
X168.19Y-139.0
X175.81Y-88.0
X175.81Y-105.0
X175.81Y-139.0
X219.19Y-88.0
X219.19Y-105.0
X219.19Y-139.0
X226.81Y-88.0
X226.81Y-105.0
X226.81Y-139.0
X237.19Y-88.0
X237.19Y-105.0
X237.19Y-139.0
X244.81Y-88.0
X244.81Y-105.0
X244.81Y-139.0
X255.19Y-88.0
X255.19Y-105.0
X262.81Y-88.0
X262.81Y-105.0
X273.19Y-88.0
X273.19Y-105.0
X280.81Y-88.0
X280.81Y-105.0
X291.19Y-88.0
X291.19Y-105.0
X298.81Y-88.0
X298.81Y-105.0
X309.19Y-88.0
X309.19Y-105.0
X316.81Y-88.0
X316.81Y-105.0
T3
X188.61Y-75.87
X188.61Y-78.41
X188.61Y-80.95
X188.61Y-83.49
X188.61Y-86.03
X188.61Y-88.57
X188.61Y-91.11
X188.61Y-93.65
X188.61Y-96.19
X188.61Y-98.73
X188.61Y-101.27
X188.61Y-103.81
X188.61Y-106.35
X188.61Y-108.89
X188.61Y-111.43
X188.61Y-113.97
X188.61Y-116.51
X188.61Y-119.05
X188.61Y-121.59
X188.61Y-124.13
X194.96Y-123.9
X197.5Y-123.9
X200.04Y-123.9
X206.39Y-75.87
X206.39Y-78.41
X206.39Y-80.95
X206.39Y-83.49
X206.39Y-86.03
X206.39Y-88.57
X206.39Y-91.11
X206.39Y-93.65
X206.39Y-96.19
X206.39Y-98.73
X206.39Y-101.27
X206.39Y-103.81
X206.39Y-106.35
X206.39Y-108.89
X206.39Y-111.43
X206.39Y-113.97
X206.39Y-116.51
X206.39Y-119.05
X206.39Y-121.59
X206.39Y-124.13
T4
X109.0Y-92.0
X154.0Y-117.0
X163.0Y-92.0
X197.5Y-139.0
X232.0Y-92.0
X241.0Y-117.0
X304.0Y-92.0
M30
