%TF.GenerationSoftware,KiCad,Pcbnew,9.0.0*%
%TF.CreationDate,2025-04-19T19:47:05+02:00*%
%TF.ProjectId,pcb,7063622e-6b69-4636-9164-5f7063625858,v1.0.0*%
%TF.SameCoordinates,Original*%
%TF.FileFunction,Soldermask,Top*%
%TF.FilePolarity,Negative*%
%FSLAX46Y46*%
G04 Gerber Fmt 4.6, Leading zero omitted, Abs format (unit mm)*
G04 Created by KiCad (PCBNEW 9.0.0) date 2025-04-19 19:47:05*
%MOMM*%
%LPD*%
G01*
G04 APERTURE LIST*
G04 Aperture macros list*
%AMRoundRect*
0 Rectangle with rounded corners*
0 $1 Rounding radius*
0 $2 $3 $4 $5 $6 $7 $8 $9 X,Y pos of 4 corners*
0 Add a 4 corners polygon primitive as box body*
4,1,4,$2,$3,$4,$5,$6,$7,$8,$9,$2,$3,0*
0 Add four circle primitives for the rounded corners*
1,1,$1+$1,$2,$3*
1,1,$1+$1,$4,$5*
1,1,$1+$1,$6,$7*
1,1,$1+$1,$8,$9*
0 Add four rect primitives between the rounded corners*
20,1,$1+$1,$2,$3,$4,$5,0*
20,1,$1+$1,$4,$5,$6,$7,0*
20,1,$1+$1,$6,$7,$8,$9,0*
20,1,$1+$1,$8,$9,$2,$3,0*%
G04 Aperture macros list end*
%ADD10C,1.852600*%
%ADD11RoundRect,0.050000X-0.876300X0.876300X-0.876300X-0.876300X0.876300X-0.876300X0.876300X0.876300X0*%
%ADD12C,3.529000*%
%ADD13C,1.801800*%
%ADD14C,3.100000*%
%ADD15RoundRect,0.050000X-0.450000X-0.600000X0.450000X-0.600000X0.450000X0.600000X-0.450000X0.600000X0*%
%ADD16RoundRect,0.050000X-0.889000X-0.889000X0.889000X-0.889000X0.889000X0.889000X-0.889000X0.889000X0*%
%ADD17C,2.005000*%
%ADD18C,4.500000*%
%ADD19C,0.800000*%
G04 APERTURE END LIST*
D10*
%TO.C,MCU1*%
X224620000Y-104470000D03*
X224620000Y-101930000D03*
X224620000Y-99390000D03*
X224620000Y-96850000D03*
X224620000Y-94310000D03*
X224620000Y-91770000D03*
X224620000Y-89230000D03*
X224620000Y-86690000D03*
X224620000Y-84150000D03*
X224620000Y-81610000D03*
X224620000Y-79070000D03*
X224620000Y-76530000D03*
X224620000Y-73990000D03*
X211920000Y-104470000D03*
X214460000Y-104470000D03*
X217000000Y-104470000D03*
X219540000Y-104470000D03*
X222080000Y-104470000D03*
X209380000Y-104470000D03*
X209380000Y-101930000D03*
X209380000Y-99390000D03*
X209380000Y-96850000D03*
X209380000Y-94310000D03*
X209380000Y-91770000D03*
X209380000Y-89230000D03*
X209380000Y-86690000D03*
X209380000Y-84150000D03*
X209380000Y-81610000D03*
X209380000Y-79070000D03*
D11*
X209380000Y-76530000D03*
D10*
X209380000Y-73990000D03*
%TD*%
D12*
%TO.C,S1*%
X100000000Y-100000000D03*
D13*
X105500000Y-100000000D03*
X94500000Y-100000000D03*
D14*
X105000000Y-96250000D03*
X100000000Y-94050000D03*
%TD*%
D12*
%TO.C,S2*%
X100000000Y-83000000D03*
D13*
X105500000Y-83000000D03*
X94500000Y-83000000D03*
D14*
X105000000Y-79250000D03*
X100000000Y-77050000D03*
%TD*%
D12*
%TO.C,S3*%
X118000000Y-100000000D03*
D13*
X123500000Y-100000000D03*
X112500000Y-100000000D03*
D14*
X123000000Y-96250000D03*
X118000000Y-94050000D03*
%TD*%
D12*
%TO.C,S4*%
X118000000Y-83000000D03*
D13*
X123500000Y-83000000D03*
X112500000Y-83000000D03*
D14*
X123000000Y-79250000D03*
X118000000Y-77050000D03*
%TD*%
D12*
%TO.C,S5*%
X136000000Y-100000000D03*
D13*
X141500000Y-100000000D03*
X130500000Y-100000000D03*
D14*
X141000000Y-96250000D03*
X136000000Y-94050000D03*
%TD*%
D12*
%TO.C,S6*%
X136000000Y-83000000D03*
D13*
X141500000Y-83000000D03*
X130500000Y-83000000D03*
D14*
X141000000Y-79250000D03*
X136000000Y-77050000D03*
%TD*%
D12*
%TO.C,S7*%
X154000000Y-100000000D03*
D13*
X159500000Y-100000000D03*
X148500000Y-100000000D03*
D14*
X159000000Y-96250000D03*
X154000000Y-94050000D03*
%TD*%
D12*
%TO.C,S8*%
X154000000Y-83000000D03*
D13*
X159500000Y-83000000D03*
X148500000Y-83000000D03*
D14*
X159000000Y-79250000D03*
X154000000Y-77050000D03*
%TD*%
D12*
%TO.C,S9*%
X172000000Y-100000000D03*
D13*
X177500000Y-100000000D03*
X166500000Y-100000000D03*
D14*
X177000000Y-96250000D03*
X172000000Y-94050000D03*
%TD*%
D12*
%TO.C,S10*%
X172000000Y-83000000D03*
D13*
X177500000Y-83000000D03*
X166500000Y-83000000D03*
D14*
X177000000Y-79250000D03*
X172000000Y-77050000D03*
%TD*%
D12*
%TO.C,S11*%
X190000000Y-100000000D03*
D13*
X195500000Y-100000000D03*
X184500000Y-100000000D03*
D14*
X195000000Y-96250000D03*
X190000000Y-94050000D03*
%TD*%
D12*
%TO.C,S12*%
X190000000Y-83000000D03*
D13*
X195500000Y-83000000D03*
X184500000Y-83000000D03*
D14*
X195000000Y-79250000D03*
X190000000Y-77050000D03*
%TD*%
D12*
%TO.C,S13*%
X244000000Y-100000000D03*
D13*
X249500000Y-100000000D03*
X238500000Y-100000000D03*
D14*
X249000000Y-96250000D03*
X244000000Y-94050000D03*
%TD*%
D12*
%TO.C,S14*%
X244000000Y-83000000D03*
D13*
X249500000Y-83000000D03*
X238500000Y-83000000D03*
D14*
X249000000Y-79250000D03*
X244000000Y-77050000D03*
%TD*%
D12*
%TO.C,S15*%
X262000000Y-100000000D03*
D13*
X267500000Y-100000000D03*
X256500000Y-100000000D03*
D14*
X267000000Y-96250000D03*
X262000000Y-94050000D03*
%TD*%
D12*
%TO.C,S16*%
X262000000Y-83000000D03*
D13*
X267500000Y-83000000D03*
X256500000Y-83000000D03*
D14*
X267000000Y-79250000D03*
X262000000Y-77050000D03*
%TD*%
D12*
%TO.C,S17*%
X280000000Y-100000000D03*
D13*
X285500000Y-100000000D03*
X274500000Y-100000000D03*
D14*
X285000000Y-96250000D03*
X280000000Y-94050000D03*
%TD*%
D12*
%TO.C,S18*%
X280000000Y-83000000D03*
D13*
X285500000Y-83000000D03*
X274500000Y-83000000D03*
D14*
X285000000Y-79250000D03*
X280000000Y-77050000D03*
%TD*%
D12*
%TO.C,S19*%
X298000000Y-100000000D03*
D13*
X303500000Y-100000000D03*
X292500000Y-100000000D03*
D14*
X303000000Y-96250000D03*
X298000000Y-94050000D03*
%TD*%
D12*
%TO.C,S20*%
X298000000Y-83000000D03*
D13*
X303500000Y-83000000D03*
X292500000Y-83000000D03*
D14*
X303000000Y-79250000D03*
X298000000Y-77050000D03*
%TD*%
D12*
%TO.C,S21*%
X316000000Y-100000000D03*
D13*
X321500000Y-100000000D03*
X310500000Y-100000000D03*
D14*
X321000000Y-96250000D03*
X316000000Y-94050000D03*
%TD*%
D12*
%TO.C,S22*%
X316000000Y-83000000D03*
D13*
X321500000Y-83000000D03*
X310500000Y-83000000D03*
D14*
X321000000Y-79250000D03*
X316000000Y-77050000D03*
%TD*%
D12*
%TO.C,S23*%
X334000000Y-100000000D03*
D13*
X339500000Y-100000000D03*
X328500000Y-100000000D03*
D14*
X339000000Y-96250000D03*
X334000000Y-94050000D03*
%TD*%
D12*
%TO.C,S24*%
X334000000Y-83000000D03*
D13*
X339500000Y-83000000D03*
X328500000Y-83000000D03*
D14*
X339000000Y-79250000D03*
X334000000Y-77050000D03*
%TD*%
D12*
%TO.C,S25*%
X172000000Y-134000000D03*
D13*
X177500000Y-134000000D03*
X166500000Y-134000000D03*
D14*
X177000000Y-130250000D03*
X172000000Y-128050000D03*
%TD*%
D12*
%TO.C,S26*%
X190000000Y-134000000D03*
D13*
X195500000Y-134000000D03*
X184500000Y-134000000D03*
D14*
X195000000Y-130250000D03*
X190000000Y-128050000D03*
%TD*%
D12*
%TO.C,S27*%
X244000000Y-134000000D03*
D13*
X249500000Y-134000000D03*
X238500000Y-134000000D03*
D14*
X249000000Y-130250000D03*
X244000000Y-128050000D03*
%TD*%
D12*
%TO.C,S28*%
X262000000Y-134000000D03*
D13*
X267500000Y-134000000D03*
X256500000Y-134000000D03*
D14*
X267000000Y-130250000D03*
X262000000Y-128050000D03*
%TD*%
D15*
%TO.C,D1*%
X98350000Y-105000000D03*
X101650000Y-105000000D03*
D16*
X96190000Y-105000000D03*
D17*
X103810000Y-105000000D03*
%TD*%
D15*
%TO.C,D2*%
X98350000Y-88000000D03*
X101650000Y-88000000D03*
D16*
X96190000Y-88000000D03*
D17*
X103810000Y-88000000D03*
%TD*%
D15*
%TO.C,D3*%
X116350000Y-105000000D03*
X119650000Y-105000000D03*
D16*
X114190000Y-105000000D03*
D17*
X121810000Y-105000000D03*
%TD*%
D15*
%TO.C,D4*%
X116350000Y-88000000D03*
X119650000Y-88000000D03*
D16*
X114190000Y-88000000D03*
D17*
X121810000Y-88000000D03*
%TD*%
D15*
%TO.C,D5*%
X134350000Y-105000000D03*
X137650000Y-105000000D03*
D16*
X132190000Y-105000000D03*
D17*
X139810000Y-105000000D03*
%TD*%
D15*
%TO.C,D6*%
X134350000Y-88000000D03*
X137650000Y-88000000D03*
D16*
X132190000Y-88000000D03*
D17*
X139810000Y-88000000D03*
%TD*%
D15*
%TO.C,D7*%
X152350000Y-105000000D03*
X155650000Y-105000000D03*
D16*
X150190000Y-105000000D03*
D17*
X157810000Y-105000000D03*
%TD*%
D15*
%TO.C,D8*%
X152350000Y-88000000D03*
X155650000Y-88000000D03*
D16*
X150190000Y-88000000D03*
D17*
X157810000Y-88000000D03*
%TD*%
D15*
%TO.C,D9*%
X170350000Y-105000000D03*
X173650000Y-105000000D03*
D16*
X168190000Y-105000000D03*
D17*
X175810000Y-105000000D03*
%TD*%
D15*
%TO.C,D10*%
X170350000Y-88000000D03*
X173650000Y-88000000D03*
D16*
X168190000Y-88000000D03*
D17*
X175810000Y-88000000D03*
%TD*%
D15*
%TO.C,D11*%
X188350000Y-105000000D03*
X191650000Y-105000000D03*
D16*
X186190000Y-105000000D03*
D17*
X193810000Y-105000000D03*
%TD*%
D15*
%TO.C,D12*%
X188350000Y-88000000D03*
X191650000Y-88000000D03*
D16*
X186190000Y-88000000D03*
D17*
X193810000Y-88000000D03*
%TD*%
D15*
%TO.C,D13*%
X242350000Y-105000000D03*
X245650000Y-105000000D03*
D16*
X240190000Y-105000000D03*
D17*
X247810000Y-105000000D03*
%TD*%
D15*
%TO.C,D14*%
X242350000Y-88000000D03*
X245650000Y-88000000D03*
D16*
X240190000Y-88000000D03*
D17*
X247810000Y-88000000D03*
%TD*%
D15*
%TO.C,D15*%
X260350000Y-105000000D03*
X263650000Y-105000000D03*
D16*
X258190000Y-105000000D03*
D17*
X265810000Y-105000000D03*
%TD*%
D15*
%TO.C,D16*%
X260350000Y-88000000D03*
X263650000Y-88000000D03*
D16*
X258190000Y-88000000D03*
D17*
X265810000Y-88000000D03*
%TD*%
D15*
%TO.C,D17*%
X278350000Y-105000000D03*
X281650000Y-105000000D03*
D16*
X276190000Y-105000000D03*
D17*
X283810000Y-105000000D03*
%TD*%
D15*
%TO.C,D18*%
X278350000Y-88000000D03*
X281650000Y-88000000D03*
D16*
X276190000Y-88000000D03*
D17*
X283810000Y-88000000D03*
%TD*%
D15*
%TO.C,D19*%
X296350000Y-105000000D03*
X299650000Y-105000000D03*
D16*
X294190000Y-105000000D03*
D17*
X301810000Y-105000000D03*
%TD*%
D15*
%TO.C,D20*%
X296350000Y-88000000D03*
X299650000Y-88000000D03*
D16*
X294190000Y-88000000D03*
D17*
X301810000Y-88000000D03*
%TD*%
D15*
%TO.C,D21*%
X314350000Y-105000000D03*
X317650000Y-105000000D03*
D16*
X312190000Y-105000000D03*
D17*
X319810000Y-105000000D03*
%TD*%
D15*
%TO.C,D22*%
X314350000Y-88000000D03*
X317650000Y-88000000D03*
D16*
X312190000Y-88000000D03*
D17*
X319810000Y-88000000D03*
%TD*%
D15*
%TO.C,D23*%
X332350000Y-105000000D03*
X335650000Y-105000000D03*
D16*
X330190000Y-105000000D03*
D17*
X337810000Y-105000000D03*
%TD*%
D15*
%TO.C,D24*%
X332350000Y-88000000D03*
X335650000Y-88000000D03*
D16*
X330190000Y-88000000D03*
D17*
X337810000Y-88000000D03*
%TD*%
D15*
%TO.C,D25*%
X170350000Y-139000000D03*
X173650000Y-139000000D03*
D16*
X168190000Y-139000000D03*
D17*
X175810000Y-139000000D03*
%TD*%
D15*
%TO.C,D26*%
X188350000Y-139000000D03*
X191650000Y-139000000D03*
D16*
X186190000Y-139000000D03*
D17*
X193810000Y-139000000D03*
%TD*%
D15*
%TO.C,D27*%
X242350000Y-139000000D03*
X245650000Y-139000000D03*
D16*
X240190000Y-139000000D03*
D17*
X247810000Y-139000000D03*
%TD*%
D15*
%TO.C,D28*%
X260350000Y-139000000D03*
X263650000Y-139000000D03*
D16*
X258190000Y-139000000D03*
D17*
X265810000Y-139000000D03*
%TD*%
D18*
%TO.C,_1*%
X109000000Y-91500000D03*
D19*
X110629630Y-91500000D03*
X110152322Y-92652322D03*
X109000000Y-93129630D03*
X107847678Y-92652322D03*
X107370370Y-91500000D03*
X107847678Y-90347678D03*
X109000000Y-89870370D03*
X110152322Y-90347678D03*
%TD*%
D18*
%TO.C,_2*%
X199000000Y-91500000D03*
D19*
X200629630Y-91500000D03*
X200152322Y-92652322D03*
X199000000Y-93129630D03*
X197847678Y-92652322D03*
X197370370Y-91500000D03*
X197847678Y-90347678D03*
X199000000Y-89870370D03*
X200152322Y-90347678D03*
%TD*%
D18*
%TO.C,_3*%
X199000000Y-117000000D03*
D19*
X200629630Y-117000000D03*
X200152322Y-118152322D03*
X199000000Y-118629630D03*
X197847678Y-118152322D03*
X197370370Y-117000000D03*
X197847678Y-115847678D03*
X199000000Y-115370370D03*
X200152322Y-115847678D03*
%TD*%
D18*
%TO.C,_4*%
X181000000Y-125500000D03*
D19*
X182629630Y-125500000D03*
X182152322Y-126652322D03*
X181000000Y-127129630D03*
X179847678Y-126652322D03*
X179370370Y-125500000D03*
X179847678Y-124347678D03*
X181000000Y-123870370D03*
X182152322Y-124347678D03*
%TD*%
D18*
%TO.C,_5*%
X253000000Y-125500000D03*
D19*
X254629630Y-125500000D03*
X254152322Y-126652322D03*
X253000000Y-127129630D03*
X251847678Y-126652322D03*
X251370370Y-125500000D03*
X251847678Y-124347678D03*
X253000000Y-123870370D03*
X254152322Y-124347678D03*
%TD*%
D18*
%TO.C,_6*%
X325000000Y-91500000D03*
D19*
X326629630Y-91500000D03*
X326152322Y-92652322D03*
X325000000Y-93129630D03*
X323847678Y-92652322D03*
X323370370Y-91500000D03*
X323847678Y-90347678D03*
X325000000Y-89870370D03*
X326152322Y-90347678D03*
%TD*%
D18*
%TO.C,_7*%
X235000000Y-91500000D03*
D19*
X236629630Y-91500000D03*
X236152322Y-92652322D03*
X235000000Y-93129630D03*
X233847678Y-92652322D03*
X233370370Y-91500000D03*
X233847678Y-90347678D03*
X235000000Y-89870370D03*
X236152322Y-90347678D03*
%TD*%
D18*
%TO.C,_8*%
X235000000Y-117000000D03*
D19*
X236629630Y-117000000D03*
X236152322Y-118152322D03*
X235000000Y-118629630D03*
X233847678Y-118152322D03*
X233370370Y-117000000D03*
X233847678Y-115847678D03*
X235000000Y-115370370D03*
X236152322Y-115847678D03*
%TD*%
M02*
