%TF.GenerationSoftware,KiCad,Pcbnew,9.0.0*%
%TF.CreationDate,2025-04-19T19:47:05+02:00*%
%TF.ProjectId,pcb,7063622e-6b69-4636-9164-5f7063625858,v1.0.0*%
%TF.SameCoordinates,Original*%
%TF.FileFunction,Copper,L2,Bot*%
%TF.FilePolarity,Positive*%
%FSLAX46Y46*%
G04 Gerber Fmt 4.6, Leading zero omitted, Abs format (unit mm)*
G04 Created by KiCad (PCBNEW 9.0.0) date 2025-04-19 19:47:05*
%MOMM*%
%LPD*%
G01*
G04 APERTURE LIST*
%TA.AperFunction,ComponentPad*%
%ADD10C,1.752600*%
%TD*%
%TA.AperFunction,ComponentPad*%
%ADD11R,1.752600X1.752600*%
%TD*%
%TA.AperFunction,SMDPad,CuDef*%
%ADD12R,2.600000X2.600000*%
%TD*%
%TA.AperFunction,SMDPad,CuDef*%
%ADD13R,0.900000X1.200000*%
%TD*%
%TA.AperFunction,ComponentPad*%
%ADD14R,1.778000X1.778000*%
%TD*%
%TA.AperFunction,ComponentPad*%
%ADD15C,1.905000*%
%TD*%
%TA.AperFunction,SMDPad,CuDef*%
%ADD16R,1.800000X1.100000*%
%TD*%
%TA.AperFunction,ComponentPad*%
%ADD17C,4.400000*%
%TD*%
%TA.AperFunction,ComponentPad*%
%ADD18C,0.700000*%
%TD*%
%TA.AperFunction,Conductor*%
%ADD19C,0.250000*%
%TD*%
G04 APERTURE END LIST*
D10*
%TO.P,MCU1,30*%
%TO.N,D9*%
X224620000Y-104470000D03*
%TO.P,MCU1,29*%
%TO.N,D8*%
X224620000Y-101930000D03*
%TO.P,MCU1,28*%
%TO.N,D7*%
X224620000Y-99390000D03*
%TO.P,MCU1,27*%
%TO.N,D6*%
X224620000Y-96850000D03*
%TO.P,MCU1,26*%
%TO.N,D5*%
X224620000Y-94310000D03*
%TO.P,MCU1,25*%
%TO.N,D4*%
X224620000Y-91770000D03*
%TO.P,MCU1,24*%
%TO.N,D3*%
X224620000Y-89230000D03*
%TO.P,MCU1,23*%
%TO.N,D2*%
X224620000Y-86690000D03*
%TO.P,MCU1,22*%
%TO.N,GND*%
X224620000Y-84150000D03*
%TO.P,MCU1,21*%
X224620000Y-81610000D03*
%TO.P,MCU1,20*%
%TO.N,D1*%
X224620000Y-79070000D03*
%TO.P,MCU1,19*%
%TO.N,D0*%
X224620000Y-76530000D03*
%TO.P,MCU1,18*%
%TO.N,Dp*%
X224620000Y-73990000D03*
%TO.P,MCU1,17*%
%TO.N,D16*%
X211920000Y-104470000D03*
%TO.P,MCU1,16*%
%TO.N,D15*%
X214460000Y-104470000D03*
%TO.P,MCU1,15*%
%TO.N,D14*%
X217000000Y-104470000D03*
%TO.P,MCU1,14*%
%TO.N,D13*%
X219540000Y-104470000D03*
%TO.P,MCU1,13*%
%TO.N,D12*%
X222080000Y-104470000D03*
%TO.P,MCU1,12*%
%TO.N,D21*%
X209380000Y-104470000D03*
%TO.P,MCU1,11*%
%TO.N,D23*%
X209380000Y-101930000D03*
%TO.P,MCU1,10*%
%TO.N,D20*%
X209380000Y-99390000D03*
%TO.P,MCU1,9*%
%TO.N,D22*%
X209380000Y-96850000D03*
%TO.P,MCU1,8*%
%TO.N,D26*%
X209380000Y-94310000D03*
%TO.P,MCU1,7*%
%TO.N,D27*%
X209380000Y-91770000D03*
%TO.P,MCU1,6*%
%TO.N,D28*%
X209380000Y-89230000D03*
%TO.P,MCU1,5*%
%TO.N,D29*%
X209380000Y-86690000D03*
%TO.P,MCU1,4*%
%TO.N,VCC*%
X209380000Y-84150000D03*
%TO.P,MCU1,3*%
%TO.N,RST*%
X209380000Y-81610000D03*
%TO.P,MCU1,2*%
%TO.N,GND*%
X209380000Y-79070000D03*
D11*
%TO.P,MCU1,1*%
%TO.N,RAW*%
X209380000Y-76530000D03*
D10*
%TO.P,MCU1,2*%
%TO.N,Dm*%
X209380000Y-73990000D03*
%TD*%
D12*
%TO.P,S1,1*%
%TO.N,D23*%
X96725000Y-94050000D03*
%TO.P,S1,2*%
%TO.N,outer_lbottom*%
X108275000Y-96250000D03*
%TD*%
%TO.P,S2,1*%
%TO.N,D23*%
X96725000Y-77050000D03*
%TO.P,S2,2*%
%TO.N,outer_ltop*%
X108275000Y-79250000D03*
%TD*%
%TO.P,S3,1*%
%TO.N,D20*%
X114725000Y-94050000D03*
%TO.P,S3,2*%
%TO.N,pinky_lbottom*%
X126275000Y-96250000D03*
%TD*%
%TO.P,S4,1*%
%TO.N,D20*%
X114725000Y-77050000D03*
%TO.P,S4,2*%
%TO.N,pinky_ltop*%
X126275000Y-79250000D03*
%TD*%
%TO.P,S5,1*%
%TO.N,D22*%
X132725000Y-94050000D03*
%TO.P,S5,2*%
%TO.N,ring_lbottom*%
X144275000Y-96250000D03*
%TD*%
%TO.P,S6,1*%
%TO.N,D22*%
X132725000Y-77050000D03*
%TO.P,S6,2*%
%TO.N,ring_ltop*%
X144275000Y-79250000D03*
%TD*%
%TO.P,S7,1*%
%TO.N,D26*%
X150725000Y-94050000D03*
%TO.P,S7,2*%
%TO.N,middle_lbottom*%
X162275000Y-96250000D03*
%TD*%
%TO.P,S8,1*%
%TO.N,D26*%
X150725000Y-77050000D03*
%TO.P,S8,2*%
%TO.N,middle_ltop*%
X162275000Y-79250000D03*
%TD*%
%TO.P,S9,1*%
%TO.N,D27*%
X168725000Y-94050000D03*
%TO.P,S9,2*%
%TO.N,index_lbottom*%
X180275000Y-96250000D03*
%TD*%
%TO.P,S10,1*%
%TO.N,D27*%
X168725000Y-77050000D03*
%TO.P,S10,2*%
%TO.N,index_ltop*%
X180275000Y-79250000D03*
%TD*%
%TO.P,S11,1*%
%TO.N,D28*%
X186725000Y-94050000D03*
%TO.P,S11,2*%
%TO.N,inner_lbottom*%
X198275000Y-96250000D03*
%TD*%
%TO.P,S12,1*%
%TO.N,D28*%
X186725000Y-77050000D03*
%TO.P,S12,2*%
%TO.N,inner_ltop*%
X198275000Y-79250000D03*
%TD*%
%TO.P,S13,1*%
%TO.N,D3*%
X240725000Y-94050000D03*
%TO.P,S13,2*%
%TO.N,inner_rbottom*%
X252275000Y-96250000D03*
%TD*%
%TO.P,S14,1*%
%TO.N,D3*%
X240725000Y-77050000D03*
%TO.P,S14,2*%
%TO.N,inner_rtop*%
X252275000Y-79250000D03*
%TD*%
%TO.P,S15,1*%
%TO.N,D4*%
X258725000Y-94050000D03*
%TO.P,S15,2*%
%TO.N,index_rbottom*%
X270275000Y-96250000D03*
%TD*%
%TO.P,S16,1*%
%TO.N,D4*%
X258725000Y-77050000D03*
%TO.P,S16,2*%
%TO.N,index_rtop*%
X270275000Y-79250000D03*
%TD*%
%TO.P,S17,1*%
%TO.N,D5*%
X276725000Y-94050000D03*
%TO.P,S17,2*%
%TO.N,middle_rbottom*%
X288275000Y-96250000D03*
%TD*%
%TO.P,S18,1*%
%TO.N,D5*%
X276725000Y-77050000D03*
%TO.P,S18,2*%
%TO.N,middle_rtop*%
X288275000Y-79250000D03*
%TD*%
%TO.P,S19,1*%
%TO.N,D6*%
X294725000Y-94050000D03*
%TO.P,S19,2*%
%TO.N,ring_rbottom*%
X306275000Y-96250000D03*
%TD*%
%TO.P,S20,1*%
%TO.N,D6*%
X294725000Y-77050000D03*
%TO.P,S20,2*%
%TO.N,ring_rtop*%
X306275000Y-79250000D03*
%TD*%
%TO.P,S21,1*%
%TO.N,D7*%
X312725000Y-94050000D03*
%TO.P,S21,2*%
%TO.N,pinky_rbottom*%
X324275000Y-96250000D03*
%TD*%
%TO.P,S22,1*%
%TO.N,D7*%
X312725000Y-77050000D03*
%TO.P,S22,2*%
%TO.N,pinky_rtop*%
X324275000Y-79250000D03*
%TD*%
%TO.P,S23,1*%
%TO.N,D8*%
X330725000Y-94050000D03*
%TO.P,S23,2*%
%TO.N,outer_rbottom*%
X342275000Y-96250000D03*
%TD*%
%TO.P,S24,1*%
%TO.N,D8*%
X330725000Y-77050000D03*
%TO.P,S24,2*%
%TO.N,outer_rtop*%
X342275000Y-79250000D03*
%TD*%
%TO.P,S25,1*%
%TO.N,D27*%
X168725000Y-128050000D03*
%TO.P,S25,2*%
%TO.N,outer_lttop*%
X180275000Y-130250000D03*
%TD*%
%TO.P,S26,1*%
%TO.N,D28*%
X186725000Y-128050000D03*
%TO.P,S26,2*%
%TO.N,inner_lttop*%
X198275000Y-130250000D03*
%TD*%
%TO.P,S27,1*%
%TO.N,D3*%
X240725000Y-128050000D03*
%TO.P,S27,2*%
%TO.N,inner_rttop*%
X252275000Y-130250000D03*
%TD*%
%TO.P,S28,1*%
%TO.N,D4*%
X258725000Y-128050000D03*
%TO.P,S28,2*%
%TO.N,outer_rttop*%
X270275000Y-130250000D03*
%TD*%
D13*
%TO.P,D1,2*%
%TO.N,outer_lbottom*%
X101650000Y-105000000D03*
%TO.P,D1,1*%
%TO.N,D21*%
X98350000Y-105000000D03*
D14*
X96190000Y-105000000D03*
D15*
%TO.P,D1,2*%
%TO.N,outer_lbottom*%
X103810000Y-105000000D03*
%TD*%
D13*
%TO.P,D2,2*%
%TO.N,outer_ltop*%
X101650000Y-88000000D03*
%TO.P,D2,1*%
%TO.N,D29*%
X98350000Y-88000000D03*
D14*
X96190000Y-88000000D03*
D15*
%TO.P,D2,2*%
%TO.N,outer_ltop*%
X103810000Y-88000000D03*
%TD*%
D13*
%TO.P,D3,2*%
%TO.N,pinky_lbottom*%
X119650000Y-105000000D03*
%TO.P,D3,1*%
%TO.N,D21*%
X116350000Y-105000000D03*
D14*
X114190000Y-105000000D03*
D15*
%TO.P,D3,2*%
%TO.N,pinky_lbottom*%
X121810000Y-105000000D03*
%TD*%
D13*
%TO.P,D4,2*%
%TO.N,pinky_ltop*%
X119650000Y-88000000D03*
%TO.P,D4,1*%
%TO.N,D29*%
X116350000Y-88000000D03*
D14*
X114190000Y-88000000D03*
D15*
%TO.P,D4,2*%
%TO.N,pinky_ltop*%
X121810000Y-88000000D03*
%TD*%
D13*
%TO.P,D5,2*%
%TO.N,ring_lbottom*%
X137650000Y-105000000D03*
%TO.P,D5,1*%
%TO.N,D21*%
X134350000Y-105000000D03*
D14*
X132190000Y-105000000D03*
D15*
%TO.P,D5,2*%
%TO.N,ring_lbottom*%
X139810000Y-105000000D03*
%TD*%
D13*
%TO.P,D6,2*%
%TO.N,ring_ltop*%
X137650000Y-88000000D03*
%TO.P,D6,1*%
%TO.N,D29*%
X134350000Y-88000000D03*
D14*
X132190000Y-88000000D03*
D15*
%TO.P,D6,2*%
%TO.N,ring_ltop*%
X139810000Y-88000000D03*
%TD*%
D13*
%TO.P,D7,2*%
%TO.N,middle_lbottom*%
X155650000Y-105000000D03*
%TO.P,D7,1*%
%TO.N,D21*%
X152350000Y-105000000D03*
D14*
X150190000Y-105000000D03*
D15*
%TO.P,D7,2*%
%TO.N,middle_lbottom*%
X157810000Y-105000000D03*
%TD*%
D13*
%TO.P,D8,2*%
%TO.N,middle_ltop*%
X155650000Y-88000000D03*
%TO.P,D8,1*%
%TO.N,D29*%
X152350000Y-88000000D03*
D14*
X150190000Y-88000000D03*
D15*
%TO.P,D8,2*%
%TO.N,middle_ltop*%
X157810000Y-88000000D03*
%TD*%
D13*
%TO.P,D9,2*%
%TO.N,index_lbottom*%
X173650000Y-105000000D03*
%TO.P,D9,1*%
%TO.N,D21*%
X170350000Y-105000000D03*
D14*
X168190000Y-105000000D03*
D15*
%TO.P,D9,2*%
%TO.N,index_lbottom*%
X175810000Y-105000000D03*
%TD*%
D13*
%TO.P,D10,2*%
%TO.N,index_ltop*%
X173650000Y-88000000D03*
%TO.P,D10,1*%
%TO.N,D29*%
X170350000Y-88000000D03*
D14*
X168190000Y-88000000D03*
D15*
%TO.P,D10,2*%
%TO.N,index_ltop*%
X175810000Y-88000000D03*
%TD*%
D13*
%TO.P,D11,2*%
%TO.N,inner_lbottom*%
X191650000Y-105000000D03*
%TO.P,D11,1*%
%TO.N,D21*%
X188350000Y-105000000D03*
D14*
X186190000Y-105000000D03*
D15*
%TO.P,D11,2*%
%TO.N,inner_lbottom*%
X193810000Y-105000000D03*
%TD*%
D13*
%TO.P,D12,2*%
%TO.N,inner_ltop*%
X191650000Y-88000000D03*
%TO.P,D12,1*%
%TO.N,D29*%
X188350000Y-88000000D03*
D14*
X186190000Y-88000000D03*
D15*
%TO.P,D12,2*%
%TO.N,inner_ltop*%
X193810000Y-88000000D03*
%TD*%
D13*
%TO.P,D13,2*%
%TO.N,inner_rbottom*%
X245650000Y-105000000D03*
%TO.P,D13,1*%
%TO.N,D9*%
X242350000Y-105000000D03*
D14*
X240190000Y-105000000D03*
D15*
%TO.P,D13,2*%
%TO.N,inner_rbottom*%
X247810000Y-105000000D03*
%TD*%
D13*
%TO.P,D14,2*%
%TO.N,inner_rtop*%
X245650000Y-88000000D03*
%TO.P,D14,1*%
%TO.N,D2*%
X242350000Y-88000000D03*
D14*
X240190000Y-88000000D03*
D15*
%TO.P,D14,2*%
%TO.N,inner_rtop*%
X247810000Y-88000000D03*
%TD*%
D13*
%TO.P,D15,2*%
%TO.N,index_rbottom*%
X263650000Y-105000000D03*
%TO.P,D15,1*%
%TO.N,D9*%
X260350000Y-105000000D03*
D14*
X258190000Y-105000000D03*
D15*
%TO.P,D15,2*%
%TO.N,index_rbottom*%
X265810000Y-105000000D03*
%TD*%
D13*
%TO.P,D16,2*%
%TO.N,index_rtop*%
X263650000Y-88000000D03*
%TO.P,D16,1*%
%TO.N,D2*%
X260350000Y-88000000D03*
D14*
X258190000Y-88000000D03*
D15*
%TO.P,D16,2*%
%TO.N,index_rtop*%
X265810000Y-88000000D03*
%TD*%
D13*
%TO.P,D17,2*%
%TO.N,middle_rbottom*%
X281650000Y-105000000D03*
%TO.P,D17,1*%
%TO.N,D9*%
X278350000Y-105000000D03*
D14*
X276190000Y-105000000D03*
D15*
%TO.P,D17,2*%
%TO.N,middle_rbottom*%
X283810000Y-105000000D03*
%TD*%
D13*
%TO.P,D18,2*%
%TO.N,middle_rtop*%
X281650000Y-88000000D03*
%TO.P,D18,1*%
%TO.N,D2*%
X278350000Y-88000000D03*
D14*
X276190000Y-88000000D03*
D15*
%TO.P,D18,2*%
%TO.N,middle_rtop*%
X283810000Y-88000000D03*
%TD*%
D13*
%TO.P,D19,2*%
%TO.N,ring_rbottom*%
X299650000Y-105000000D03*
%TO.P,D19,1*%
%TO.N,D9*%
X296350000Y-105000000D03*
D14*
X294190000Y-105000000D03*
D15*
%TO.P,D19,2*%
%TO.N,ring_rbottom*%
X301810000Y-105000000D03*
%TD*%
D13*
%TO.P,D20,2*%
%TO.N,ring_rtop*%
X299650000Y-88000000D03*
%TO.P,D20,1*%
%TO.N,D2*%
X296350000Y-88000000D03*
D14*
X294190000Y-88000000D03*
D15*
%TO.P,D20,2*%
%TO.N,ring_rtop*%
X301810000Y-88000000D03*
%TD*%
D13*
%TO.P,D21,2*%
%TO.N,pinky_rbottom*%
X317650000Y-105000000D03*
%TO.P,D21,1*%
%TO.N,D9*%
X314350000Y-105000000D03*
D14*
X312190000Y-105000000D03*
D15*
%TO.P,D21,2*%
%TO.N,pinky_rbottom*%
X319810000Y-105000000D03*
%TD*%
D13*
%TO.P,D22,2*%
%TO.N,pinky_rtop*%
X317650000Y-88000000D03*
%TO.P,D22,1*%
%TO.N,D2*%
X314350000Y-88000000D03*
D14*
X312190000Y-88000000D03*
D15*
%TO.P,D22,2*%
%TO.N,pinky_rtop*%
X319810000Y-88000000D03*
%TD*%
D13*
%TO.P,D23,2*%
%TO.N,outer_rbottom*%
X335650000Y-105000000D03*
%TO.P,D23,1*%
%TO.N,D9*%
X332350000Y-105000000D03*
D14*
X330190000Y-105000000D03*
D15*
%TO.P,D23,2*%
%TO.N,outer_rbottom*%
X337810000Y-105000000D03*
%TD*%
D13*
%TO.P,D24,2*%
%TO.N,outer_rtop*%
X335650000Y-88000000D03*
%TO.P,D24,1*%
%TO.N,D2*%
X332350000Y-88000000D03*
D14*
X330190000Y-88000000D03*
D15*
%TO.P,D24,2*%
%TO.N,outer_rtop*%
X337810000Y-88000000D03*
%TD*%
D13*
%TO.P,D25,2*%
%TO.N,outer_lttop*%
X173650000Y-139000000D03*
%TO.P,D25,1*%
%TO.N,D1*%
X170350000Y-139000000D03*
D14*
X168190000Y-139000000D03*
D15*
%TO.P,D25,2*%
%TO.N,outer_lttop*%
X175810000Y-139000000D03*
%TD*%
D13*
%TO.P,D26,2*%
%TO.N,inner_lttop*%
X191650000Y-139000000D03*
%TO.P,D26,1*%
%TO.N,D1*%
X188350000Y-139000000D03*
D14*
X186190000Y-139000000D03*
D15*
%TO.P,D26,2*%
%TO.N,inner_lttop*%
X193810000Y-139000000D03*
%TD*%
D13*
%TO.P,D27,2*%
%TO.N,inner_rttop*%
X245650000Y-139000000D03*
%TO.P,D27,1*%
%TO.N,D1*%
X242350000Y-139000000D03*
D14*
X240190000Y-139000000D03*
D15*
%TO.P,D27,2*%
%TO.N,inner_rttop*%
X247810000Y-139000000D03*
%TD*%
D13*
%TO.P,D28,2*%
%TO.N,outer_rttop*%
X263650000Y-139000000D03*
%TO.P,D28,1*%
%TO.N,D1*%
X260350000Y-139000000D03*
D14*
X258190000Y-139000000D03*
D15*
%TO.P,D28,2*%
%TO.N,outer_rttop*%
X265810000Y-139000000D03*
%TD*%
D16*
%TO.P,B1,1*%
%TO.N,GND*%
X213900000Y-89650000D03*
X220100000Y-89650000D03*
%TO.P,B1,2*%
%TO.N,RST*%
X213900000Y-93350000D03*
X220100000Y-93350000D03*
%TD*%
D17*
%TO.P,_1,1*%
%TO.N,N/C*%
X109000000Y-91500000D03*
D18*
X110629630Y-91500000D03*
X110152322Y-92652322D03*
X109000000Y-93129630D03*
X107847678Y-92652322D03*
X107370370Y-91500000D03*
X107847678Y-90347678D03*
X109000000Y-89870370D03*
X110152322Y-90347678D03*
%TD*%
D17*
%TO.P,_2,1*%
%TO.N,N/C*%
X199000000Y-91500000D03*
D18*
X200629630Y-91500000D03*
X200152322Y-92652322D03*
X199000000Y-93129630D03*
X197847678Y-92652322D03*
X197370370Y-91500000D03*
X197847678Y-90347678D03*
X199000000Y-89870370D03*
X200152322Y-90347678D03*
%TD*%
D17*
%TO.P,_3,1*%
%TO.N,N/C*%
X199000000Y-117000000D03*
D18*
X200629630Y-117000000D03*
X200152322Y-118152322D03*
X199000000Y-118629630D03*
X197847678Y-118152322D03*
X197370370Y-117000000D03*
X197847678Y-115847678D03*
X199000000Y-115370370D03*
X200152322Y-115847678D03*
%TD*%
D17*
%TO.P,_4,1*%
%TO.N,N/C*%
X181000000Y-125500000D03*
D18*
X182629630Y-125500000D03*
X182152322Y-126652322D03*
X181000000Y-127129630D03*
X179847678Y-126652322D03*
X179370370Y-125500000D03*
X179847678Y-124347678D03*
X181000000Y-123870370D03*
X182152322Y-124347678D03*
%TD*%
D17*
%TO.P,_5,1*%
%TO.N,N/C*%
X253000000Y-125500000D03*
D18*
X254629630Y-125500000D03*
X254152322Y-126652322D03*
X253000000Y-127129630D03*
X251847678Y-126652322D03*
X251370370Y-125500000D03*
X251847678Y-124347678D03*
X253000000Y-123870370D03*
X254152322Y-124347678D03*
%TD*%
D17*
%TO.P,_6,1*%
%TO.N,N/C*%
X325000000Y-91500000D03*
D18*
X326629630Y-91500000D03*
X326152322Y-92652322D03*
X325000000Y-93129630D03*
X323847678Y-92652322D03*
X323370370Y-91500000D03*
X323847678Y-90347678D03*
X325000000Y-89870370D03*
X326152322Y-90347678D03*
%TD*%
D17*
%TO.P,_7,1*%
%TO.N,N/C*%
X235000000Y-91500000D03*
D18*
X236629630Y-91500000D03*
X236152322Y-92652322D03*
X235000000Y-93129630D03*
X233847678Y-92652322D03*
X233370370Y-91500000D03*
X233847678Y-90347678D03*
X235000000Y-89870370D03*
X236152322Y-90347678D03*
%TD*%
D17*
%TO.P,_8,1*%
%TO.N,N/C*%
X235000000Y-117000000D03*
D18*
X236629630Y-117000000D03*
X236152322Y-118152322D03*
X235000000Y-118629630D03*
X233847678Y-118152322D03*
X233370370Y-117000000D03*
X233847678Y-115847678D03*
X235000000Y-115370370D03*
X236152322Y-115847678D03*
%TD*%
D19*
%TO.N,GND*%
X222500000Y-82250000D02*
X222500000Y-79650208D01*
X222500000Y-79650208D02*
G75*
G03*
X221919792Y-79070000I-580200J8D01*
G01*
X221919792Y-79070000D02*
X209380000Y-79070000D01*
X222500000Y-85000000D02*
X222500000Y-84750000D01*
X224620000Y-84150000D02*
X223100000Y-84150000D01*
X223100000Y-84150000D02*
G75*
G03*
X222500000Y-84750000I0J-600000D01*
G01*
X222500000Y-84750000D02*
X222500000Y-82250000D01*
X222500000Y-82250000D02*
G75*
G02*
X223140000Y-81610000I640000J0D01*
G01*
X223140000Y-81610000D02*
X224620000Y-81610000D01*
X221600000Y-89650000D02*
G75*
G03*
X222500000Y-88750000I0J900000D01*
G01*
X220100000Y-89650000D02*
X221600000Y-89650000D01*
X222500000Y-88750000D02*
X222500000Y-85000000D01*
%TO.N,RST*%
X213900000Y-93350000D02*
X212600000Y-93350000D01*
X212600000Y-93350000D02*
G75*
G02*
X211500000Y-92250000I0J1100000D01*
G01*
X210610000Y-81610000D02*
G75*
G02*
X211500000Y-82500000I0J-890000D01*
G01*
X213800000Y-93250000D02*
G75*
G03*
X213900000Y-93350000I100000J0D01*
G01*
X209380000Y-81610000D02*
X210610000Y-81610000D01*
X211500000Y-82500000D02*
X211500000Y-92250000D01*
X213900000Y-93350000D02*
X220100000Y-93350000D01*
%TO.N,GND*%
X213900000Y-89650000D02*
X220100000Y-89650000D01*
%TO.N,inner_rtop*%
X252275000Y-87022359D02*
X252275000Y-79250000D01*
X247810000Y-88000000D02*
X251297359Y-88000000D01*
X251297359Y-88000000D02*
G75*
G03*
X252275000Y-87022359I41J977600D01*
G01*
%TO.N,index_rtop*%
X270275000Y-87022359D02*
X270275000Y-79250000D01*
X265810000Y-88000000D02*
X269297359Y-88000000D01*
X269297359Y-88000000D02*
G75*
G03*
X270275000Y-87022359I41J977600D01*
G01*
%TO.N,middle_rtop*%
X288275000Y-87022359D02*
X288275000Y-79250000D01*
X283810000Y-88000000D02*
X287297359Y-88000000D01*
X287297359Y-88000000D02*
G75*
G03*
X288275000Y-87022359I41J977600D01*
G01*
%TO.N,ring_rtop*%
X306275000Y-87022359D02*
X306275000Y-79250000D01*
X301810000Y-88000000D02*
X305297359Y-88000000D01*
X305297359Y-88000000D02*
G75*
G03*
X306275000Y-87022359I41J977600D01*
G01*
%TO.N,pinky_rtop*%
X324275000Y-87022359D02*
X324275000Y-79250000D01*
X319810000Y-88000000D02*
X323297359Y-88000000D01*
X323297359Y-88000000D02*
G75*
G03*
X324275000Y-87022359I41J977600D01*
G01*
%TO.N,outer_rtop*%
X342275000Y-87022359D02*
X342275000Y-79250000D01*
X337810000Y-88000000D02*
X341297359Y-88000000D01*
X341297359Y-88000000D02*
G75*
G03*
X342275000Y-87022359I41J977600D01*
G01*
%TO.N,outer_rbottom*%
X342275000Y-104022359D02*
X342275000Y-96250000D01*
X337810000Y-105000000D02*
X341297359Y-105000000D01*
X341297359Y-105000000D02*
G75*
G03*
X342275000Y-104022359I41J977600D01*
G01*
%TO.N,pinky_rbottom*%
X324275000Y-104022359D02*
X324275000Y-96250000D01*
X319810000Y-105000000D02*
X323297359Y-105000000D01*
X323297359Y-105000000D02*
G75*
G03*
X324275000Y-104022359I41J977600D01*
G01*
%TO.N,ring_rbottom*%
X306275000Y-104022359D02*
X306275000Y-96250000D01*
X301810000Y-105000000D02*
X305297359Y-105000000D01*
X305297359Y-105000000D02*
G75*
G03*
X306275000Y-104022359I41J977600D01*
G01*
%TO.N,middle_rbottom*%
X288275000Y-104022359D02*
X288275000Y-96250000D01*
X283810000Y-105000000D02*
X287297359Y-105000000D01*
X287297359Y-105000000D02*
G75*
G03*
X288275000Y-104022359I41J977600D01*
G01*
%TO.N,index_rbottom*%
X270275000Y-104022359D02*
X270275000Y-96250000D01*
X265810000Y-105000000D02*
X269297359Y-105000000D01*
X269297359Y-105000000D02*
G75*
G03*
X270275000Y-104022359I41J977600D01*
G01*
%TO.N,inner_rbottom*%
X252275000Y-104022359D02*
X252275000Y-96250000D01*
X247810000Y-105000000D02*
X251297359Y-105000000D01*
X251297359Y-105000000D02*
G75*
G03*
X252275000Y-104022359I41J977600D01*
G01*
%TO.N,outer_rttop*%
X270275000Y-138022359D02*
X270275000Y-130250000D01*
X265810000Y-139000000D02*
X269297359Y-139000000D01*
X269297359Y-139000000D02*
G75*
G03*
X270275000Y-138022359I41J977600D01*
G01*
%TO.N,inner_rttop*%
X252275000Y-138022359D02*
X252275000Y-130250000D01*
X247810000Y-139000000D02*
X251297359Y-139000000D01*
X251297359Y-139000000D02*
G75*
G03*
X252275000Y-138022359I41J977600D01*
G01*
%TO.N,inner_lttop*%
X198275000Y-138022359D02*
X198275000Y-130250000D01*
X193810000Y-139000000D02*
X197297359Y-139000000D01*
X197297359Y-139000000D02*
G75*
G03*
X198275000Y-138022359I41J977600D01*
G01*
%TO.N,outer_lttop*%
X180275000Y-138022359D02*
X180275000Y-130250000D01*
X175810000Y-139000000D02*
X179297359Y-139000000D01*
X179297359Y-139000000D02*
G75*
G03*
X180275000Y-138022359I41J977600D01*
G01*
%TO.N,outer_lbottom*%
X108275000Y-104022359D02*
X108275000Y-96250000D01*
X103810000Y-105000000D02*
X107297359Y-105000000D01*
X107297359Y-105000000D02*
G75*
G03*
X108275000Y-104022359I41J977600D01*
G01*
%TO.N,pinky_lbottom*%
X126275000Y-104022359D02*
X126275000Y-96250000D01*
X121810000Y-105000000D02*
X125297359Y-105000000D01*
X125297359Y-105000000D02*
G75*
G03*
X126275000Y-104022359I41J977600D01*
G01*
%TO.N,ring_lbottom*%
X144275000Y-104022359D02*
X144275000Y-96250000D01*
X139810000Y-105000000D02*
X143297359Y-105000000D01*
X143297359Y-105000000D02*
G75*
G03*
X144275000Y-104022359I41J977600D01*
G01*
%TO.N,middle_lbottom*%
X162275000Y-104022359D02*
X162275000Y-96250000D01*
X157810000Y-105000000D02*
X161297359Y-105000000D01*
X161297359Y-105000000D02*
G75*
G03*
X162275000Y-104022359I41J977600D01*
G01*
%TO.N,index_lbottom*%
X180275000Y-104022359D02*
X180275000Y-96250000D01*
X175810000Y-105000000D02*
X179297359Y-105000000D01*
X179297359Y-105000000D02*
G75*
G03*
X180275000Y-104022359I41J977600D01*
G01*
%TO.N,inner_lbottom*%
X198275000Y-104022359D02*
X198275000Y-96250000D01*
X193810000Y-105000000D02*
X197297359Y-105000000D01*
X197297359Y-105000000D02*
G75*
G03*
X198275000Y-104022359I41J977600D01*
G01*
%TO.N,inner_ltop*%
X198275000Y-87022359D02*
X198275000Y-79250000D01*
X193810000Y-88000000D02*
X197297359Y-88000000D01*
X197297359Y-88000000D02*
G75*
G03*
X198275000Y-87022359I41J977600D01*
G01*
%TO.N,index_ltop*%
X180275000Y-87022359D02*
X180275000Y-79250000D01*
X175810000Y-88000000D02*
X179297359Y-88000000D01*
X179297359Y-88000000D02*
G75*
G03*
X180275000Y-87022359I41J977600D01*
G01*
%TO.N,middle_ltop*%
X162275000Y-87022359D02*
X162275000Y-79250000D01*
X157810000Y-88000000D02*
X161297359Y-88000000D01*
X161297359Y-88000000D02*
G75*
G03*
X162275000Y-87022359I41J977600D01*
G01*
%TO.N,ring_ltop*%
X144275000Y-87022359D02*
X144275000Y-79250000D01*
X139810000Y-88000000D02*
X143297359Y-88000000D01*
X143297359Y-88000000D02*
G75*
G03*
X144275000Y-87022359I41J977600D01*
G01*
%TO.N,pinky_ltop*%
X126275000Y-87022359D02*
X126275000Y-79250000D01*
X121810000Y-88000000D02*
X125297359Y-88000000D01*
X125297359Y-88000000D02*
G75*
G03*
X126275000Y-87022359I41J977600D01*
G01*
%TO.N,outer_ltop*%
X103810000Y-88000000D02*
X107297359Y-88000000D01*
X107297359Y-88000000D02*
G75*
G03*
X108275000Y-87022359I41J977600D01*
G01*
X108275000Y-87022359D02*
X108275000Y-79250000D01*
%TO.N,D2*%
X242350000Y-88000000D02*
X240190000Y-88000000D01*
%TO.N,inner_rtop*%
X247810000Y-88000000D02*
X245650000Y-88000000D01*
%TO.N,D2*%
X260350000Y-88000000D02*
X258190000Y-88000000D01*
%TO.N,index_rtop*%
X265810000Y-88000000D02*
X263650000Y-88000000D01*
%TO.N,D2*%
X278350000Y-88000000D02*
X276190000Y-88000000D01*
%TO.N,middle_rtop*%
X283810000Y-88000000D02*
X281650000Y-88000000D01*
%TO.N,D2*%
X296350000Y-88000000D02*
X294190000Y-88000000D01*
%TO.N,ring_rtop*%
X301810000Y-88000000D02*
X299650000Y-88000000D01*
%TO.N,D2*%
X314350000Y-88000000D02*
X312190000Y-88000000D01*
%TO.N,pinky_rtop*%
X319810000Y-88000000D02*
X317650000Y-88000000D01*
%TO.N,outer_rtop*%
X335650000Y-88000000D02*
X337810000Y-88000000D01*
%TO.N,D2*%
X330190000Y-88000000D02*
X332350000Y-88000000D01*
%TO.N,outer_rbottom*%
X335650000Y-105000000D02*
X337810000Y-105000000D01*
%TO.N,D9*%
X330190000Y-105000000D02*
X332350000Y-105000000D01*
%TO.N,pinky_rbottom*%
X317650000Y-105000000D02*
X319810000Y-105000000D01*
%TO.N,D9*%
X312190000Y-105000000D02*
X314350000Y-105000000D01*
%TO.N,ring_rbottom*%
X299650000Y-105000000D02*
X301810000Y-105000000D01*
%TO.N,D9*%
X294190000Y-105000000D02*
X296350000Y-105000000D01*
%TO.N,middle_rbottom*%
X281650000Y-105000000D02*
X283810000Y-105000000D01*
%TO.N,D9*%
X276190000Y-105000000D02*
X278350000Y-105000000D01*
%TO.N,index_rbottom*%
X263650000Y-105000000D02*
X265810000Y-105000000D01*
%TO.N,D9*%
X258190000Y-105000000D02*
X260350000Y-105000000D01*
%TO.N,inner_rbottom*%
X245650000Y-105000000D02*
X247810000Y-105000000D01*
%TO.N,D9*%
X240190000Y-105000000D02*
X242350000Y-105000000D01*
%TO.N,outer_rttop*%
X263650000Y-139000000D02*
X265810000Y-139000000D01*
%TO.N,D1*%
X258190000Y-139000000D02*
X260350000Y-139000000D01*
%TO.N,inner_rttop*%
X245650000Y-139000000D02*
X247810000Y-139000000D01*
%TO.N,D1*%
X240190000Y-139000000D02*
X242350000Y-139000000D01*
X170350000Y-139000000D02*
X168190000Y-139000000D01*
%TO.N,outer_lttop*%
X175810000Y-139000000D02*
X173650000Y-139000000D01*
%TO.N,D1*%
X188350000Y-139000000D02*
X186190000Y-139000000D01*
%TO.N,inner_lttop*%
X193810000Y-139000000D02*
X191650000Y-139000000D01*
%TO.N,inner_lbottom*%
X191650000Y-105000000D02*
X193810000Y-105000000D01*
%TO.N,D21*%
X186190000Y-105000000D02*
X188350000Y-105000000D01*
%TO.N,index_lbottom*%
X173650000Y-105000000D02*
X175810000Y-105000000D01*
%TO.N,D21*%
X168190000Y-105000000D02*
X170350000Y-105000000D01*
%TO.N,middle_lbottom*%
X155650000Y-105000000D02*
X157810000Y-105000000D01*
%TO.N,D21*%
X150190000Y-105000000D02*
X152350000Y-105000000D01*
%TO.N,ring_lbottom*%
X137650000Y-105000000D02*
X139810000Y-105000000D01*
%TO.N,D21*%
X132190000Y-105000000D02*
X134350000Y-105000000D01*
%TO.N,pinky_lbottom*%
X119650000Y-105000000D02*
X121810000Y-105000000D01*
%TO.N,D21*%
X114190000Y-105000000D02*
X116350000Y-105000000D01*
%TO.N,outer_lbottom*%
X101650000Y-105000000D02*
X103810000Y-105000000D01*
%TO.N,D21*%
X96190000Y-105000000D02*
X98350000Y-105000000D01*
%TO.N,D29*%
X98350000Y-88000000D02*
X96190000Y-88000000D01*
%TO.N,outer_ltop*%
X103810000Y-88000000D02*
X101650000Y-88000000D01*
%TO.N,D29*%
X116350000Y-88000000D02*
X114190000Y-88000000D01*
%TO.N,pinky_ltop*%
X121810000Y-88000000D02*
X119650000Y-88000000D01*
%TO.N,D29*%
X134350000Y-88000000D02*
X132190000Y-88000000D01*
%TO.N,ring_ltop*%
X139810000Y-88000000D02*
X137650000Y-88000000D01*
%TO.N,D29*%
X152350000Y-88000000D02*
X150190000Y-88000000D01*
%TO.N,middle_ltop*%
X157810000Y-88000000D02*
X155650000Y-88000000D01*
%TO.N,D29*%
X170350000Y-88000000D02*
X168190000Y-88000000D01*
%TO.N,index_ltop*%
X175810000Y-88000000D02*
X173650000Y-88000000D01*
%TO.N,D29*%
X188350000Y-88000000D02*
X186190000Y-88000000D01*
%TO.N,inner_ltop*%
X193810000Y-88000000D02*
X191650000Y-88000000D01*
%TO.N,D28*%
X202000000Y-90000000D02*
G75*
G02*
X202770000Y-89230000I770000J0D01*
G01*
X202770000Y-89230000D02*
X209380000Y-89230000D01*
%TO.N,D27*%
X202500000Y-92500000D02*
G75*
G02*
X203230000Y-91770000I730000J0D01*
G01*
X203230000Y-91770000D02*
X209380000Y-91770000D01*
%TO.N,D26*%
X203000000Y-95000000D02*
G75*
G02*
X203690000Y-94310000I690000J0D01*
G01*
X203690000Y-94310000D02*
X209380000Y-94310000D01*
%TO.N,D22*%
X129950000Y-94050000D02*
G75*
G03*
X129000000Y-95000000I0J-950000D01*
G01*
X129000000Y-106500000D02*
G75*
G03*
X130000000Y-107500000I1000000J0D01*
G01*
X164000000Y-140250004D02*
G75*
G03*
X165750000Y-142000000I1750000J4D01*
G01*
X162686504Y-107500000D02*
G75*
G02*
X164000000Y-108813496I-4J-1313500D01*
G01*
X203500000Y-97500000D02*
G75*
G02*
X204150000Y-96850000I650000J0D01*
G01*
X132725000Y-94050000D02*
X129950000Y-94050000D01*
X129000000Y-95000000D02*
X129000000Y-106500000D01*
X201250000Y-142000000D02*
G75*
G03*
X203500000Y-139750008I0J2250000D01*
G01*
X204150000Y-96850000D02*
X209380000Y-96850000D01*
X130000000Y-107500000D02*
X162686504Y-107500000D01*
X164000000Y-108813496D02*
X164000000Y-140250004D01*
X165750000Y-142000000D02*
X165752378Y-141997622D01*
X165752378Y-141997622D02*
X201247622Y-141997622D01*
X201247622Y-141997622D02*
X201250000Y-142000000D01*
X203500000Y-139750008D02*
X203500000Y-97500000D01*
%TO.N,D20*%
X111000000Y-107000000D02*
G75*
G03*
X112000000Y-108000000I1000000J0D01*
G01*
X204610000Y-99390000D02*
X209380000Y-99390000D01*
X201323051Y-142500000D02*
G75*
G03*
X204000000Y-139823051I49J2676900D01*
G01*
X162473913Y-108000000D02*
G75*
G02*
X163500000Y-109026087I-13J-1026100D01*
G01*
X165650790Y-142500000D02*
X201323051Y-142500000D01*
X204000000Y-100000000D02*
G75*
G02*
X204610000Y-99390000I610000J0D01*
G01*
X163500000Y-140349210D02*
G75*
G03*
X165650790Y-142500000I2150800J10D01*
G01*
X204000000Y-139823051D02*
X204000000Y-100000000D01*
X111950000Y-94050000D02*
G75*
G03*
X111000000Y-95000000I0J-950000D01*
G01*
X111000000Y-95000000D02*
X111000000Y-107000000D01*
X112000000Y-108000000D02*
X162473913Y-108000000D01*
X163500000Y-109026087D02*
X163500000Y-131700000D01*
X163500000Y-131700000D02*
X163500000Y-140349210D01*
X114725000Y-94050000D02*
X111950000Y-94050000D01*
%TO.N,D23*%
X204500000Y-102750000D02*
G75*
G02*
X205320000Y-101930000I820000J0D01*
G01*
X205320000Y-101930000D02*
X209380000Y-101930000D01*
X163040057Y-140540057D02*
G75*
G03*
X165500000Y-143000043I2459943J-43D01*
G01*
X163000000Y-109117353D02*
X163000000Y-140000000D01*
X162382647Y-108500000D02*
G75*
G02*
X163000000Y-109117353I-47J-617400D01*
G01*
X201381921Y-143000000D02*
G75*
G03*
X204500000Y-139881921I-21J3118100D01*
G01*
X204500000Y-139881921D02*
X204500000Y-102750000D01*
X93000000Y-107500000D02*
G75*
G03*
X94000000Y-108500000I1000000J0D01*
G01*
X93000000Y-95000000D02*
X93000000Y-107500000D01*
X93950000Y-94050000D02*
G75*
G03*
X93000000Y-95000000I0J-950000D01*
G01*
X96725000Y-94050000D02*
X93950000Y-94050000D01*
X163040057Y-140502915D02*
X163040057Y-140540057D01*
X94000000Y-108500000D02*
X162382647Y-108500000D01*
X163000000Y-140000000D02*
X163002360Y-140168344D01*
X163002360Y-140168344D02*
X163040057Y-140502915D01*
X165500000Y-143000000D02*
X201381921Y-143000000D01*
%TO.N,D8*%
X271000000Y-143000000D02*
X268500000Y-143000000D01*
X327000000Y-109000000D02*
G75*
G02*
X326000000Y-110000000I-1000000J0D01*
G01*
X275925964Y-110000000D02*
G75*
G03*
X272500000Y-113425964I36J-3426000D01*
G01*
X327950000Y-94050000D02*
G75*
G03*
X327000000Y-95000000I0J-950000D01*
G01*
X330725000Y-94050000D02*
X327950000Y-94050000D01*
X229500000Y-135750000D02*
X229500000Y-102750000D01*
X327000000Y-95000000D02*
X327000000Y-109000000D01*
X272500000Y-141500000D02*
G75*
G02*
X271000000Y-143000000I-1500000J0D01*
G01*
X232953155Y-143000000D02*
G75*
G02*
X229500000Y-139546845I45J3453200D01*
G01*
X229500000Y-102750000D02*
G75*
G03*
X228750000Y-102000000I-750000J0D01*
G01*
X326000000Y-110000000D02*
X275925964Y-110000000D01*
X272500000Y-113425964D02*
X272500000Y-141500000D01*
X268500000Y-143000000D02*
X232953155Y-143000000D01*
X229500000Y-139546845D02*
X229500000Y-135750000D01*
X228750000Y-102000000D02*
X224690000Y-102000000D01*
%TO.N,D7*%
X309950000Y-94050000D02*
G75*
G03*
X309000000Y-95000000I0J-950000D01*
G01*
X233000000Y-142500000D02*
G75*
G02*
X230000000Y-139500000I0J3000000D01*
G01*
X275649801Y-109500000D02*
G75*
G03*
X272000000Y-113149801I-1J-3649800D01*
G01*
X271000000Y-142500000D02*
X259750000Y-142500000D01*
X272000000Y-141250000D02*
X272000000Y-141500000D01*
X272000000Y-141500000D02*
G75*
G02*
X271000000Y-142500000I-1000000J0D01*
G01*
X230000000Y-139500000D02*
X230000000Y-100000000D01*
X229390000Y-99390000D02*
X224620000Y-99390000D01*
X230000000Y-100000000D02*
G75*
G03*
X229390000Y-99390000I-610000J0D01*
G01*
X312725000Y-94050000D02*
X309950000Y-94050000D01*
X309000000Y-108750000D02*
G75*
G02*
X308250000Y-109500000I-750000J0D01*
G01*
X309000000Y-95000000D02*
X309000000Y-108750000D01*
X272000000Y-113149801D02*
X272000000Y-141250000D01*
X259750000Y-142500000D02*
X233000000Y-142500000D01*
X308250000Y-109500000D02*
X275649801Y-109500000D01*
%TO.N,D6*%
X291950000Y-94050000D02*
G75*
G03*
X291000000Y-95000000I0J-950000D01*
G01*
X261500000Y-142000000D02*
X250250000Y-142000000D01*
X291000000Y-108000000D02*
G75*
G02*
X290000000Y-109000000I-1000000J0D01*
G01*
X265432440Y-109000000D02*
G75*
G03*
X264750000Y-109682440I-40J-682400D01*
G01*
X263250000Y-137500000D02*
G75*
G03*
X262500000Y-138250000I0J-750000D01*
G01*
X262500000Y-141000000D02*
G75*
G02*
X261500000Y-142000000I-1000000J0D01*
G01*
X264750000Y-136750000D02*
G75*
G02*
X264000000Y-137500000I-750000J0D01*
G01*
X262500000Y-138250000D02*
X262500000Y-141000000D01*
X233000000Y-142000000D02*
G75*
G02*
X230500000Y-139500000I0J2500000D01*
G01*
X294725000Y-94050000D02*
X291950000Y-94050000D01*
X230500000Y-97500000D02*
G75*
G03*
X229850000Y-96850000I-650000J0D01*
G01*
X229850000Y-96850000D02*
X224620000Y-96850000D01*
X290000000Y-109000000D02*
X265432440Y-109000000D01*
X291000000Y-95000000D02*
X291000000Y-108000000D01*
X264750000Y-109682440D02*
X264750000Y-136250000D01*
X264750000Y-136250000D02*
X264750000Y-136750000D01*
X264000000Y-137500000D02*
X263250000Y-137500000D01*
X250250000Y-142000000D02*
X233000000Y-142000000D01*
X230500000Y-139500000D02*
X230500000Y-97500000D01*
%TO.N,D5*%
X233000000Y-141500000D02*
G75*
G02*
X231000000Y-139500000I0J2000000D01*
G01*
X276725000Y-94050000D02*
X273950000Y-94050000D01*
X273000000Y-95000000D02*
X273000000Y-107500000D01*
X273000000Y-107500000D02*
G75*
G02*
X272000000Y-108500000I-1000000J0D01*
G01*
X264250000Y-136000000D02*
G75*
G02*
X263500000Y-136750000I-750000J0D01*
G01*
X263500000Y-136750000D02*
X262250000Y-136750000D01*
X265500000Y-108500000D02*
G75*
G03*
X264250000Y-109750000I0J-1250000D01*
G01*
X261500000Y-137500000D02*
X261500000Y-140500000D01*
X262250000Y-136750000D02*
G75*
G03*
X261500000Y-137500000I0J-750000D01*
G01*
X273950000Y-94050000D02*
G75*
G03*
X273000000Y-95000000I0J-950000D01*
G01*
X261500000Y-140500000D02*
G75*
G02*
X260500000Y-141500000I-1000000J0D01*
G01*
X231000000Y-95000000D02*
G75*
G03*
X230310000Y-94310000I-690000J0D01*
G01*
X272000000Y-108500000D02*
X265500000Y-108500000D01*
X264250000Y-109750000D02*
X264250000Y-136000000D01*
X260500000Y-141500000D02*
X249250000Y-141500000D01*
X249250000Y-141500000D02*
X233000000Y-141500000D01*
X231000000Y-139500000D02*
X231000000Y-95000000D01*
X230310000Y-94310000D02*
X224620000Y-94310000D01*
%TO.N,D4*%
X230750000Y-91750000D02*
G75*
G02*
X231500000Y-92500000I0J-750000D01*
G01*
X231500000Y-139500000D02*
G75*
G03*
X233000000Y-141000000I1500000J0D01*
G01*
X255000000Y-129000000D02*
G75*
G02*
X255950000Y-128050000I950000J0D01*
G01*
X255950000Y-128050000D02*
X258725000Y-128050000D01*
X254000000Y-141000000D02*
G75*
G03*
X255000000Y-140000000I0J1000000D01*
G01*
X231500000Y-92500000D02*
X231500000Y-139500000D01*
X224640000Y-91750000D02*
X230750000Y-91750000D01*
X255000000Y-140000000D02*
X255000000Y-129000000D01*
X233000000Y-141000000D02*
X254000000Y-141000000D01*
%TO.N,D3*%
X237950000Y-128050000D02*
G75*
G03*
X237000000Y-129000000I0J-950000D01*
G01*
X236000000Y-140500000D02*
X233000000Y-140500000D01*
X233000000Y-140500000D02*
G75*
G02*
X232000000Y-139500000I0J1000000D01*
G01*
X232000000Y-90000000D02*
G75*
G03*
X231250000Y-89250000I-750000J0D01*
G01*
X232000000Y-96019196D02*
X232000000Y-90000000D01*
X240725000Y-128050000D02*
X237950000Y-128050000D01*
X237000000Y-139500000D02*
G75*
G02*
X236000000Y-140500000I-1000000J0D01*
G01*
X237000000Y-129000000D02*
X237000000Y-139500000D01*
X231250000Y-89250000D02*
X224640000Y-89250000D01*
X232000000Y-139500000D02*
X232000000Y-96019196D01*
X225285485Y-89329245D02*
X225324311Y-89343507D01*
X225066937Y-89270235D02*
X225162383Y-89292086D01*
X225162383Y-89292086D02*
X225233099Y-89312055D01*
X224938273Y-89248783D02*
X225066937Y-89270235D01*
X225233099Y-89312055D02*
X225285485Y-89329245D01*
X224765341Y-89232470D02*
X224938273Y-89248783D01*
X224620000Y-89230000D02*
X224765341Y-89232470D01*
%TO.N,D26*%
X164500000Y-140202200D02*
X164500000Y-108674832D01*
X148000000Y-107000000D02*
G75*
G02*
X147000000Y-106000000I0J1000000D01*
G01*
X203000000Y-139672534D02*
G75*
G02*
X201172534Y-141500000I-1827500J34D01*
G01*
X165797800Y-141500000D02*
G75*
G02*
X164500000Y-140202200I0J1297800D01*
G01*
X164500000Y-108674832D02*
G75*
G03*
X162825168Y-107000000I-1674800J32D01*
G01*
X162825168Y-107000000D02*
X148000000Y-107000000D01*
X147000000Y-95000000D02*
G75*
G02*
X147950000Y-94050000I950000J0D01*
G01*
X201172534Y-141500000D02*
X165797800Y-141500000D01*
X203000000Y-95000000D02*
X203000000Y-139672534D01*
X147000000Y-106000000D02*
X147000000Y-95000000D01*
X147950000Y-94050000D02*
X150725000Y-94050000D01*
%TO.N,D27*%
X202500000Y-92500000D02*
X202500000Y-139750000D01*
X202500000Y-139750000D02*
G75*
G02*
X201250000Y-141000000I-1250000J0D01*
G01*
X165000000Y-140000000D02*
X165000000Y-129000000D01*
X166000000Y-141000000D02*
G75*
G02*
X165000000Y-140000000I0J1000000D01*
G01*
X165950000Y-128050000D02*
X168725000Y-128050000D01*
X165000000Y-129000000D02*
G75*
G02*
X165950000Y-128050000I950000J0D01*
G01*
X201250000Y-141000000D02*
X166000000Y-141000000D01*
%TO.N,D28*%
X183950000Y-128050000D02*
G75*
G03*
X183000000Y-129000000I0J-950000D01*
G01*
X183000000Y-139500000D02*
G75*
G03*
X184000000Y-140500000I1000000J0D01*
G01*
X201250000Y-140500000D02*
G75*
G03*
X202000000Y-139750000I0J750000D01*
G01*
X186725000Y-128050000D02*
X183950000Y-128050000D01*
X183000000Y-129000000D02*
X183000000Y-139500000D01*
X202000000Y-139750000D02*
X202000000Y-90000000D01*
X184000000Y-140500000D02*
X201250000Y-140500000D01*
%TO.N,D27*%
X165950000Y-94050000D02*
G75*
G03*
X165000000Y-95000000I0J-950000D01*
G01*
X168725000Y-94050000D02*
X165950000Y-94050000D01*
X165000000Y-95000000D02*
X165000000Y-105500000D01*
%TO.N,D28*%
X183950000Y-94050000D02*
G75*
G03*
X183000000Y-95000000I0J-950000D01*
G01*
X186725000Y-94050000D02*
X183950000Y-94050000D01*
X184000000Y-106500000D02*
X186000000Y-106500000D01*
X186000000Y-106500000D02*
G75*
G02*
X186725000Y-107225000I0J-725000D01*
G01*
X183000000Y-95000000D02*
X183000000Y-105500000D01*
X183000000Y-105500000D02*
G75*
G03*
X184000000Y-106500000I1000000J0D01*
G01*
X186725000Y-107225000D02*
X186725000Y-128050000D01*
%TO.N,D4*%
X255000000Y-105500000D02*
G75*
G03*
X256000000Y-106500000I1000000J0D01*
G01*
X258000000Y-106500000D02*
G75*
G02*
X258725000Y-107225000I0J-725000D01*
G01*
X255950000Y-94050000D02*
G75*
G03*
X255000000Y-95000000I0J-950000D01*
G01*
X258725000Y-94050000D02*
X255950000Y-94050000D01*
X255000000Y-95000000D02*
X255000000Y-105500000D01*
X258725000Y-107225000D02*
X258725000Y-128050000D01*
X256000000Y-106500000D02*
X258000000Y-106500000D01*
%TO.N,D3*%
X237950000Y-94050000D02*
G75*
G03*
X237000000Y-95000000I0J-950000D01*
G01*
X240725000Y-94050000D02*
X237950000Y-94050000D01*
X238000000Y-106500000D02*
X240000000Y-106500000D01*
X240000000Y-106500000D02*
G75*
G02*
X240725000Y-107225000I0J-725000D01*
G01*
X237000000Y-95000000D02*
X237000000Y-105500000D01*
X237000000Y-105500000D02*
G75*
G03*
X238000000Y-106500000I1000000J0D01*
G01*
X240725000Y-107225000D02*
X240725000Y-128050000D01*
%TO.N,D8*%
X328000000Y-89500000D02*
X330000000Y-89500000D01*
X330725000Y-77050000D02*
X327950000Y-77050000D01*
X327000000Y-78000000D02*
X327000000Y-88500000D01*
X330000000Y-89500000D02*
G75*
G02*
X330725000Y-90225000I0J-725000D01*
G01*
X327950000Y-77050000D02*
G75*
G03*
X327000000Y-78000000I0J-950000D01*
G01*
X330725000Y-90225000D02*
X330725000Y-94050000D01*
X327000000Y-88500000D02*
G75*
G03*
X328000000Y-89500000I1000000J0D01*
G01*
%TO.N,D7*%
X310000000Y-89500000D02*
X312000000Y-89500000D01*
X312725000Y-77050000D02*
X309950000Y-77050000D01*
X309000000Y-78000000D02*
X309000000Y-88500000D01*
X312000000Y-89500000D02*
G75*
G02*
X312725000Y-90225000I0J-725000D01*
G01*
X309950000Y-77050000D02*
G75*
G03*
X309000000Y-78000000I0J-950000D01*
G01*
X312725000Y-90225000D02*
X312725000Y-94050000D01*
X309000000Y-88500000D02*
G75*
G03*
X310000000Y-89500000I1000000J0D01*
G01*
%TO.N,D6*%
X292000000Y-89500000D02*
X294000000Y-89500000D01*
X294725000Y-77050000D02*
X291950000Y-77050000D01*
X291000000Y-78000000D02*
X291000000Y-88500000D01*
X294000000Y-89500000D02*
G75*
G02*
X294725000Y-90225000I0J-725000D01*
G01*
X291950000Y-77050000D02*
G75*
G03*
X291000000Y-78000000I0J-950000D01*
G01*
X294725000Y-90225000D02*
X294725000Y-94050000D01*
X291000000Y-88500000D02*
G75*
G03*
X292000000Y-89500000I1000000J0D01*
G01*
%TO.N,D5*%
X274000000Y-89500000D02*
X276000000Y-89500000D01*
X276725000Y-77050000D02*
X273950000Y-77050000D01*
X273000000Y-78000000D02*
X273000000Y-88500000D01*
X276000000Y-89500000D02*
G75*
G02*
X276725000Y-90225000I0J-725000D01*
G01*
X273950000Y-77050000D02*
G75*
G03*
X273000000Y-78000000I0J-950000D01*
G01*
X276725000Y-90225000D02*
X276725000Y-94050000D01*
X273000000Y-88500000D02*
G75*
G03*
X274000000Y-89500000I1000000J0D01*
G01*
%TO.N,D4*%
X256000000Y-89500000D02*
X258000000Y-89500000D01*
X258725000Y-77050000D02*
X255950000Y-77050000D01*
X255000000Y-78000000D02*
X255000000Y-88500000D01*
X258000000Y-89500000D02*
G75*
G02*
X258725000Y-90225000I0J-725000D01*
G01*
X255950000Y-77050000D02*
G75*
G03*
X255000000Y-78000000I0J-950000D01*
G01*
X258725000Y-90225000D02*
X258725000Y-94050000D01*
X255000000Y-88500000D02*
G75*
G03*
X256000000Y-89500000I1000000J0D01*
G01*
%TO.N,D3*%
X238000000Y-89500000D02*
X240000000Y-89500000D01*
X240725000Y-77050000D02*
X237950000Y-77050000D01*
X237000000Y-78000000D02*
X237000000Y-88500000D01*
X240000000Y-89500000D02*
G75*
G02*
X240725000Y-90225000I0J-725000D01*
G01*
X237950000Y-77050000D02*
G75*
G03*
X237000000Y-78000000I0J-950000D01*
G01*
X240725000Y-90225000D02*
X240725000Y-94050000D01*
X237000000Y-88500000D02*
G75*
G03*
X238000000Y-89500000I1000000J0D01*
G01*
%TO.N,D28*%
X184000000Y-89500000D02*
X186000000Y-89500000D01*
X186725000Y-77050000D02*
X183950000Y-77050000D01*
X183000000Y-78000000D02*
X183000000Y-88500000D01*
X186000000Y-89500000D02*
G75*
G02*
X186725000Y-90225000I0J-725000D01*
G01*
X183950000Y-77050000D02*
G75*
G03*
X183000000Y-78000000I0J-950000D01*
G01*
X186725000Y-90225000D02*
X186725000Y-94050000D01*
X183000000Y-88500000D02*
G75*
G03*
X184000000Y-89500000I1000000J0D01*
G01*
%TO.N,D27*%
X166000000Y-89500000D02*
X168000000Y-89500000D01*
X168725000Y-77050000D02*
X165950000Y-77050000D01*
X165000000Y-78000000D02*
X165000000Y-88500000D01*
X168000000Y-89500000D02*
G75*
G02*
X168725000Y-90225000I0J-725000D01*
G01*
X165950000Y-77050000D02*
G75*
G03*
X165000000Y-78000000I0J-950000D01*
G01*
X168725000Y-90225000D02*
X168725000Y-94050000D01*
X165000000Y-88500000D02*
G75*
G03*
X166000000Y-89500000I1000000J0D01*
G01*
%TO.N,D26*%
X148000000Y-89500000D02*
X150000000Y-89500000D01*
X150725000Y-77050000D02*
X147950000Y-77050000D01*
X147000000Y-78000000D02*
X147000000Y-88500000D01*
X150000000Y-89500000D02*
G75*
G02*
X150725000Y-90225000I0J-725000D01*
G01*
X147950000Y-77050000D02*
G75*
G03*
X147000000Y-78000000I0J-950000D01*
G01*
X150725000Y-90225000D02*
X150725000Y-94050000D01*
X147000000Y-88500000D02*
G75*
G03*
X148000000Y-89500000I1000000J0D01*
G01*
%TO.N,D22*%
X130000000Y-89500000D02*
X132000000Y-89500000D01*
X132725000Y-77050000D02*
X129950000Y-77050000D01*
X129000000Y-78000000D02*
X129000000Y-88500000D01*
X132000000Y-89500000D02*
G75*
G02*
X132725000Y-90225000I0J-725000D01*
G01*
X129950000Y-77050000D02*
G75*
G03*
X129000000Y-78000000I0J-950000D01*
G01*
X132725000Y-90225000D02*
X132725000Y-94050000D01*
X129000000Y-88500000D02*
G75*
G03*
X130000000Y-89500000I1000000J0D01*
G01*
%TO.N,D23*%
X94000000Y-89500000D02*
X96000000Y-89500000D01*
X96725000Y-77050000D02*
X93950000Y-77050000D01*
X93000000Y-78000000D02*
X93000000Y-88500000D01*
X96000000Y-89500000D02*
G75*
G02*
X96725000Y-90225000I0J-725000D01*
G01*
X93950000Y-77050000D02*
G75*
G03*
X93000000Y-78000000I0J-950000D01*
G01*
X96725000Y-90225000D02*
X96725000Y-94050000D01*
X93000000Y-88500000D02*
G75*
G03*
X94000000Y-89500000I1000000J0D01*
G01*
%TO.N,D20*%
X112000000Y-89500000D02*
X114000000Y-89500000D01*
X111950000Y-77050000D02*
G75*
G03*
X111000000Y-78000000I0J-950000D01*
G01*
X111000000Y-78000000D02*
X111000000Y-88500000D01*
X114725000Y-77050000D02*
X111950000Y-77050000D01*
X114725000Y-90225000D02*
X114725000Y-94050000D01*
X111000000Y-88500000D02*
G75*
G03*
X112000000Y-89500000I1000000J0D01*
G01*
X114000000Y-89500000D02*
G75*
G02*
X114725000Y-90225000I0J-725000D01*
G01*
%TO.N,D27*%
X168725000Y-107225000D02*
X168725000Y-128050000D01*
X168000000Y-106500000D02*
G75*
G02*
X168725000Y-107225000I0J-725000D01*
G01*
X166000000Y-106500000D02*
X168000000Y-106500000D01*
X165000000Y-105500000D02*
G75*
G03*
X166000000Y-106500000I1000000J0D01*
G01*
%TD*%
M02*
