M48
; DRILL file {KiCad 9.0.0} date 2025-04-19T19:47:16+0200
; FORMAT={-:-/ absolute / metric / decimal}
; #@! TF.CreationDate,2025-04-19T19:47:16+02:00
; #@! TF.GenerationSoftware,Kicad,Pcbnew,9.0.0
; #@! TF.FileFunction,NonPlated,1,2,NPTH
FMAT,2
METRIC
; #@! TA.AperFunction,NonPlated,NPTH,ComponentDrill
T1C1.702
; #@! TA.AperFunction,NonPlated,NPTH,ComponentDrill
T2C3.000
; #@! TA.AperFunction,NonPlated,NPTH,ComponentDrill
T3C3.429
%
G90
G05
T1
X94.5Y-83.0
X94.5Y-100.0
X105.5Y-83.0
X105.5Y-100.0
X112.5Y-83.0
X112.5Y-100.0
X123.5Y-83.0
X123.5Y-100.0
X130.5Y-83.0
X130.5Y-100.0
X141.5Y-83.0
X141.5Y-100.0
X148.5Y-83.0
X148.5Y-100.0
X159.5Y-83.0
X159.5Y-100.0
X166.5Y-83.0
X166.5Y-100.0
X166.5Y-134.0
X177.5Y-83.0
X177.5Y-100.0
X177.5Y-134.0
X184.5Y-83.0
X184.5Y-100.0
X184.5Y-134.0
X195.5Y-83.0
X195.5Y-100.0
X195.5Y-134.0
X238.5Y-83.0
X238.5Y-100.0
X238.5Y-134.0
X249.5Y-83.0
X249.5Y-100.0
X249.5Y-134.0
X256.5Y-83.0
X256.5Y-100.0
X256.5Y-134.0
X267.5Y-83.0
X267.5Y-100.0
X267.5Y-134.0
X274.5Y-83.0
X274.5Y-100.0
X285.5Y-83.0
X285.5Y-100.0
X292.5Y-83.0
X292.5Y-100.0
X303.5Y-83.0
X303.5Y-100.0
X310.5Y-83.0
X310.5Y-100.0
X321.5Y-83.0
X321.5Y-100.0
X328.5Y-83.0
X328.5Y-100.0
X339.5Y-83.0
X339.5Y-100.0
T2
X100.0Y-77.05
X100.0Y-94.05
X105.0Y-79.25
X105.0Y-96.25
X118.0Y-77.05
X118.0Y-94.05
X123.0Y-79.25
X123.0Y-96.25
X136.0Y-77.05
X136.0Y-94.05
X141.0Y-79.25
X141.0Y-96.25
X154.0Y-77.05
X154.0Y-94.05
X159.0Y-79.25
X159.0Y-96.25
X172.0Y-77.05
X172.0Y-94.05
X172.0Y-128.05
X177.0Y-79.25
X177.0Y-96.25
X177.0Y-130.25
X190.0Y-77.05
X190.0Y-94.05
X190.0Y-128.05
X195.0Y-79.25
X195.0Y-96.25
X195.0Y-130.25
X244.0Y-77.05
X244.0Y-94.05
X244.0Y-128.05
X249.0Y-79.25
X249.0Y-96.25
X249.0Y-130.25
X262.0Y-77.05
X262.0Y-94.05
X262.0Y-128.05
X267.0Y-79.25
X267.0Y-96.25
X267.0Y-130.25
X280.0Y-77.05
X280.0Y-94.05
X285.0Y-79.25
X285.0Y-96.25
X298.0Y-77.05
X298.0Y-94.05
X303.0Y-79.25
X303.0Y-96.25
X316.0Y-77.05
X316.0Y-94.05
X321.0Y-79.25
X321.0Y-96.25
X334.0Y-77.05
X334.0Y-94.05
X339.0Y-79.25
X339.0Y-96.25
T3
X100.0Y-83.0
X100.0Y-100.0
X118.0Y-83.0
X118.0Y-100.0
X136.0Y-83.0
X136.0Y-100.0
X154.0Y-83.0
X154.0Y-100.0
X172.0Y-83.0
X172.0Y-100.0
X172.0Y-134.0
X190.0Y-83.0
X190.0Y-100.0
X190.0Y-134.0
X244.0Y-83.0
X244.0Y-100.0
X244.0Y-134.0
X262.0Y-83.0
X262.0Y-100.0
X262.0Y-134.0
X280.0Y-83.0
X280.0Y-100.0
X298.0Y-83.0
X298.0Y-100.0
X316.0Y-83.0
X316.0Y-100.0
X334.0Y-83.0
X334.0Y-100.0
M30
