%TF.GenerationSoftware,KiCad,Pcbnew,9.0.0*%
%TF.CreationDate,2025-04-19T19:47:05+02:00*%
%TF.ProjectId,pcb,7063622e-6b69-4636-9164-5f7063625858,v1.0.0*%
%TF.SameCoordinates,Original*%
%TF.FileFunction,Legend,Top*%
%TF.FilePolarity,Positive*%
%FSLAX46Y46*%
G04 Gerber Fmt 4.6, Leading zero omitted, Abs format (unit mm)*
G04 Created by KiCad (PCBNEW 9.0.0) date 2025-04-19 19:47:05*
%MOMM*%
%LPD*%
G01*
G04 APERTURE LIST*
%ADD10C,0.150000*%
%ADD11C,0.100000*%
%ADD12C,1.752600*%
%ADD13R,1.752600X1.752600*%
G04 APERTURE END LIST*
D10*
X227238651Y-105143710D02*
X226672966Y-104578025D01*
X226672966Y-104578025D02*
X226807653Y-104443338D01*
X226807653Y-104443338D02*
X226915403Y-104389463D01*
X226915403Y-104389463D02*
X227023152Y-104389463D01*
X227023152Y-104389463D02*
X227103964Y-104416401D01*
X227103964Y-104416401D02*
X227238651Y-104497213D01*
X227238651Y-104497213D02*
X227319464Y-104578025D01*
X227319464Y-104578025D02*
X227400276Y-104712712D01*
X227400276Y-104712712D02*
X227427213Y-104793524D01*
X227427213Y-104793524D02*
X227427213Y-104901274D01*
X227427213Y-104901274D02*
X227373338Y-105009023D01*
X227373338Y-105009023D02*
X227238651Y-105143710D01*
X227831274Y-104551088D02*
X227939024Y-104443338D01*
X227939024Y-104443338D02*
X227965961Y-104362526D01*
X227965961Y-104362526D02*
X227965961Y-104308651D01*
X227965961Y-104308651D02*
X227939024Y-104173964D01*
X227939024Y-104173964D02*
X227858212Y-104039277D01*
X227858212Y-104039277D02*
X227642712Y-103823778D01*
X227642712Y-103823778D02*
X227561900Y-103796840D01*
X227561900Y-103796840D02*
X227508025Y-103796840D01*
X227508025Y-103796840D02*
X227427213Y-103823778D01*
X227427213Y-103823778D02*
X227319464Y-103931527D01*
X227319464Y-103931527D02*
X227292526Y-104012340D01*
X227292526Y-104012340D02*
X227292526Y-104066214D01*
X227292526Y-104066214D02*
X227319464Y-104147027D01*
X227319464Y-104147027D02*
X227454151Y-104281714D01*
X227454151Y-104281714D02*
X227534963Y-104308651D01*
X227534963Y-104308651D02*
X227588838Y-104308651D01*
X227588838Y-104308651D02*
X227669650Y-104281714D01*
X227669650Y-104281714D02*
X227777399Y-104173964D01*
X227777399Y-104173964D02*
X227804337Y-104093152D01*
X227804337Y-104093152D02*
X227804337Y-104039277D01*
X227804337Y-104039277D02*
X227777399Y-103958465D01*
X227238651Y-102603710D02*
X226672966Y-102038025D01*
X226672966Y-102038025D02*
X226807653Y-101903338D01*
X226807653Y-101903338D02*
X226915403Y-101849463D01*
X226915403Y-101849463D02*
X227023152Y-101849463D01*
X227023152Y-101849463D02*
X227103964Y-101876401D01*
X227103964Y-101876401D02*
X227238651Y-101957213D01*
X227238651Y-101957213D02*
X227319464Y-102038025D01*
X227319464Y-102038025D02*
X227400276Y-102172712D01*
X227400276Y-102172712D02*
X227427213Y-102253524D01*
X227427213Y-102253524D02*
X227427213Y-102361274D01*
X227427213Y-102361274D02*
X227373338Y-102469023D01*
X227373338Y-102469023D02*
X227238651Y-102603710D01*
X227561900Y-101633964D02*
X227481088Y-101660901D01*
X227481088Y-101660901D02*
X227427213Y-101660901D01*
X227427213Y-101660901D02*
X227346401Y-101633964D01*
X227346401Y-101633964D02*
X227319464Y-101607027D01*
X227319464Y-101607027D02*
X227292526Y-101526214D01*
X227292526Y-101526214D02*
X227292526Y-101472340D01*
X227292526Y-101472340D02*
X227319464Y-101391527D01*
X227319464Y-101391527D02*
X227427213Y-101283778D01*
X227427213Y-101283778D02*
X227508025Y-101256840D01*
X227508025Y-101256840D02*
X227561900Y-101256840D01*
X227561900Y-101256840D02*
X227642712Y-101283778D01*
X227642712Y-101283778D02*
X227669650Y-101310715D01*
X227669650Y-101310715D02*
X227696587Y-101391527D01*
X227696587Y-101391527D02*
X227696587Y-101445402D01*
X227696587Y-101445402D02*
X227669650Y-101526214D01*
X227669650Y-101526214D02*
X227561900Y-101633964D01*
X227561900Y-101633964D02*
X227534963Y-101714776D01*
X227534963Y-101714776D02*
X227534963Y-101768651D01*
X227534963Y-101768651D02*
X227561900Y-101849463D01*
X227561900Y-101849463D02*
X227669650Y-101957213D01*
X227669650Y-101957213D02*
X227750462Y-101984150D01*
X227750462Y-101984150D02*
X227804337Y-101984150D01*
X227804337Y-101984150D02*
X227885149Y-101957213D01*
X227885149Y-101957213D02*
X227992899Y-101849463D01*
X227992899Y-101849463D02*
X228019836Y-101768651D01*
X228019836Y-101768651D02*
X228019836Y-101714776D01*
X228019836Y-101714776D02*
X227992899Y-101633964D01*
X227992899Y-101633964D02*
X227885149Y-101526214D01*
X227885149Y-101526214D02*
X227804337Y-101499277D01*
X227804337Y-101499277D02*
X227750462Y-101499277D01*
X227750462Y-101499277D02*
X227669650Y-101526214D01*
X227238651Y-100063710D02*
X226672966Y-99498025D01*
X226672966Y-99498025D02*
X226807653Y-99363338D01*
X226807653Y-99363338D02*
X226915403Y-99309463D01*
X226915403Y-99309463D02*
X227023152Y-99309463D01*
X227023152Y-99309463D02*
X227103964Y-99336401D01*
X227103964Y-99336401D02*
X227238651Y-99417213D01*
X227238651Y-99417213D02*
X227319464Y-99498025D01*
X227319464Y-99498025D02*
X227400276Y-99632712D01*
X227400276Y-99632712D02*
X227427213Y-99713524D01*
X227427213Y-99713524D02*
X227427213Y-99821274D01*
X227427213Y-99821274D02*
X227373338Y-99929023D01*
X227373338Y-99929023D02*
X227238651Y-100063710D01*
X227184777Y-98986214D02*
X227561900Y-98609091D01*
X227561900Y-98609091D02*
X227885149Y-99417213D01*
X227238651Y-97523710D02*
X226672966Y-96958025D01*
X226672966Y-96958025D02*
X226807653Y-96823338D01*
X226807653Y-96823338D02*
X226915403Y-96769463D01*
X226915403Y-96769463D02*
X227023152Y-96769463D01*
X227023152Y-96769463D02*
X227103964Y-96796401D01*
X227103964Y-96796401D02*
X227238651Y-96877213D01*
X227238651Y-96877213D02*
X227319464Y-96958025D01*
X227319464Y-96958025D02*
X227400276Y-97092712D01*
X227400276Y-97092712D02*
X227427213Y-97173524D01*
X227427213Y-97173524D02*
X227427213Y-97281274D01*
X227427213Y-97281274D02*
X227373338Y-97389023D01*
X227373338Y-97389023D02*
X227238651Y-97523710D01*
X227481088Y-96149903D02*
X227373338Y-96257653D01*
X227373338Y-96257653D02*
X227346401Y-96338465D01*
X227346401Y-96338465D02*
X227346401Y-96392340D01*
X227346401Y-96392340D02*
X227373338Y-96527027D01*
X227373338Y-96527027D02*
X227454151Y-96661714D01*
X227454151Y-96661714D02*
X227669650Y-96877213D01*
X227669650Y-96877213D02*
X227750462Y-96904150D01*
X227750462Y-96904150D02*
X227804337Y-96904150D01*
X227804337Y-96904150D02*
X227885149Y-96877213D01*
X227885149Y-96877213D02*
X227992899Y-96769463D01*
X227992899Y-96769463D02*
X228019836Y-96688651D01*
X228019836Y-96688651D02*
X228019836Y-96634776D01*
X228019836Y-96634776D02*
X227992899Y-96553964D01*
X227992899Y-96553964D02*
X227858212Y-96419277D01*
X227858212Y-96419277D02*
X227777399Y-96392340D01*
X227777399Y-96392340D02*
X227723525Y-96392340D01*
X227723525Y-96392340D02*
X227642712Y-96419277D01*
X227642712Y-96419277D02*
X227534963Y-96527027D01*
X227534963Y-96527027D02*
X227508025Y-96607839D01*
X227508025Y-96607839D02*
X227508025Y-96661714D01*
X227508025Y-96661714D02*
X227534963Y-96742526D01*
X227238651Y-94983710D02*
X226672966Y-94418025D01*
X226672966Y-94418025D02*
X226807653Y-94283338D01*
X226807653Y-94283338D02*
X226915403Y-94229463D01*
X226915403Y-94229463D02*
X227023152Y-94229463D01*
X227023152Y-94229463D02*
X227103964Y-94256401D01*
X227103964Y-94256401D02*
X227238651Y-94337213D01*
X227238651Y-94337213D02*
X227319464Y-94418025D01*
X227319464Y-94418025D02*
X227400276Y-94552712D01*
X227400276Y-94552712D02*
X227427213Y-94633524D01*
X227427213Y-94633524D02*
X227427213Y-94741274D01*
X227427213Y-94741274D02*
X227373338Y-94849023D01*
X227373338Y-94849023D02*
X227238651Y-94983710D01*
X227508025Y-93582966D02*
X227238651Y-93852340D01*
X227238651Y-93852340D02*
X227481088Y-94148651D01*
X227481088Y-94148651D02*
X227481088Y-94094776D01*
X227481088Y-94094776D02*
X227508025Y-94013964D01*
X227508025Y-94013964D02*
X227642712Y-93879277D01*
X227642712Y-93879277D02*
X227723525Y-93852340D01*
X227723525Y-93852340D02*
X227777399Y-93852340D01*
X227777399Y-93852340D02*
X227858212Y-93879277D01*
X227858212Y-93879277D02*
X227992899Y-94013964D01*
X227992899Y-94013964D02*
X228019836Y-94094776D01*
X228019836Y-94094776D02*
X228019836Y-94148651D01*
X228019836Y-94148651D02*
X227992899Y-94229463D01*
X227992899Y-94229463D02*
X227858212Y-94364150D01*
X227858212Y-94364150D02*
X227777399Y-94391088D01*
X227777399Y-94391088D02*
X227723525Y-94391088D01*
X227238651Y-92443710D02*
X226672966Y-91878025D01*
X226672966Y-91878025D02*
X226807653Y-91743338D01*
X226807653Y-91743338D02*
X226915403Y-91689463D01*
X226915403Y-91689463D02*
X227023152Y-91689463D01*
X227023152Y-91689463D02*
X227103964Y-91716401D01*
X227103964Y-91716401D02*
X227238651Y-91797213D01*
X227238651Y-91797213D02*
X227319464Y-91878025D01*
X227319464Y-91878025D02*
X227400276Y-92012712D01*
X227400276Y-92012712D02*
X227427213Y-92093524D01*
X227427213Y-92093524D02*
X227427213Y-92201274D01*
X227427213Y-92201274D02*
X227373338Y-92309023D01*
X227373338Y-92309023D02*
X227238651Y-92443710D01*
X227669650Y-91258465D02*
X228046774Y-91635588D01*
X227319464Y-91177653D02*
X227588838Y-91716401D01*
X227588838Y-91716401D02*
X227939024Y-91366214D01*
X227238651Y-89903710D02*
X226672966Y-89338025D01*
X226672966Y-89338025D02*
X226807653Y-89203338D01*
X226807653Y-89203338D02*
X226915403Y-89149463D01*
X226915403Y-89149463D02*
X227023152Y-89149463D01*
X227023152Y-89149463D02*
X227103964Y-89176401D01*
X227103964Y-89176401D02*
X227238651Y-89257213D01*
X227238651Y-89257213D02*
X227319464Y-89338025D01*
X227319464Y-89338025D02*
X227400276Y-89472712D01*
X227400276Y-89472712D02*
X227427213Y-89553524D01*
X227427213Y-89553524D02*
X227427213Y-89661274D01*
X227427213Y-89661274D02*
X227373338Y-89769023D01*
X227373338Y-89769023D02*
X227238651Y-89903710D01*
X227184777Y-88826214D02*
X227534963Y-88476028D01*
X227534963Y-88476028D02*
X227561900Y-88880089D01*
X227561900Y-88880089D02*
X227642712Y-88799277D01*
X227642712Y-88799277D02*
X227723525Y-88772340D01*
X227723525Y-88772340D02*
X227777399Y-88772340D01*
X227777399Y-88772340D02*
X227858212Y-88799277D01*
X227858212Y-88799277D02*
X227992899Y-88933964D01*
X227992899Y-88933964D02*
X228019836Y-89014776D01*
X228019836Y-89014776D02*
X228019836Y-89068651D01*
X228019836Y-89068651D02*
X227992899Y-89149463D01*
X227992899Y-89149463D02*
X227831274Y-89311088D01*
X227831274Y-89311088D02*
X227750462Y-89338025D01*
X227750462Y-89338025D02*
X227696587Y-89338025D01*
X227238651Y-87363710D02*
X226672966Y-86798025D01*
X226672966Y-86798025D02*
X226807653Y-86663338D01*
X226807653Y-86663338D02*
X226915403Y-86609463D01*
X226915403Y-86609463D02*
X227023152Y-86609463D01*
X227023152Y-86609463D02*
X227103964Y-86636401D01*
X227103964Y-86636401D02*
X227238651Y-86717213D01*
X227238651Y-86717213D02*
X227319464Y-86798025D01*
X227319464Y-86798025D02*
X227400276Y-86932712D01*
X227400276Y-86932712D02*
X227427213Y-87013524D01*
X227427213Y-87013524D02*
X227427213Y-87121274D01*
X227427213Y-87121274D02*
X227373338Y-87229023D01*
X227373338Y-87229023D02*
X227238651Y-87363710D01*
X227265589Y-86313152D02*
X227265589Y-86259277D01*
X227265589Y-86259277D02*
X227292526Y-86178465D01*
X227292526Y-86178465D02*
X227427213Y-86043778D01*
X227427213Y-86043778D02*
X227508025Y-86016840D01*
X227508025Y-86016840D02*
X227561900Y-86016840D01*
X227561900Y-86016840D02*
X227642712Y-86043778D01*
X227642712Y-86043778D02*
X227696587Y-86097653D01*
X227696587Y-86097653D02*
X227750462Y-86205402D01*
X227750462Y-86205402D02*
X227750462Y-86851900D01*
X227750462Y-86851900D02*
X228100648Y-86501714D01*
X226686435Y-84298431D02*
X226605623Y-84325368D01*
X226605623Y-84325368D02*
X226524811Y-84406180D01*
X226524811Y-84406180D02*
X226470936Y-84513930D01*
X226470936Y-84513930D02*
X226470936Y-84621680D01*
X226470936Y-84621680D02*
X226497873Y-84702492D01*
X226497873Y-84702492D02*
X226578685Y-84837179D01*
X226578685Y-84837179D02*
X226659498Y-84917991D01*
X226659498Y-84917991D02*
X226794185Y-84998803D01*
X226794185Y-84998803D02*
X226874997Y-85025741D01*
X226874997Y-85025741D02*
X226982746Y-85025741D01*
X226982746Y-85025741D02*
X227090496Y-84971866D01*
X227090496Y-84971866D02*
X227144371Y-84917991D01*
X227144371Y-84917991D02*
X227198246Y-84810241D01*
X227198246Y-84810241D02*
X227198246Y-84756367D01*
X227198246Y-84756367D02*
X227009684Y-84567805D01*
X227009684Y-84567805D02*
X226901934Y-84675554D01*
X227494557Y-84567805D02*
X226928872Y-84002119D01*
X226928872Y-84002119D02*
X227817806Y-84244556D01*
X227817806Y-84244556D02*
X227252120Y-83678871D01*
X228087180Y-83975182D02*
X227521494Y-83409497D01*
X227521494Y-83409497D02*
X227656181Y-83274810D01*
X227656181Y-83274810D02*
X227763931Y-83220935D01*
X227763931Y-83220935D02*
X227871680Y-83220935D01*
X227871680Y-83220935D02*
X227952493Y-83247872D01*
X227952493Y-83247872D02*
X228087180Y-83328685D01*
X228087180Y-83328685D02*
X228167992Y-83409497D01*
X228167992Y-83409497D02*
X228248804Y-83544184D01*
X228248804Y-83544184D02*
X228275741Y-83624996D01*
X228275741Y-83624996D02*
X228275741Y-83732746D01*
X228275741Y-83732746D02*
X228221867Y-83840495D01*
X228221867Y-83840495D02*
X228087180Y-83975182D01*
X226686435Y-81758431D02*
X226605623Y-81785368D01*
X226605623Y-81785368D02*
X226524811Y-81866180D01*
X226524811Y-81866180D02*
X226470936Y-81973930D01*
X226470936Y-81973930D02*
X226470936Y-82081680D01*
X226470936Y-82081680D02*
X226497873Y-82162492D01*
X226497873Y-82162492D02*
X226578685Y-82297179D01*
X226578685Y-82297179D02*
X226659498Y-82377991D01*
X226659498Y-82377991D02*
X226794185Y-82458803D01*
X226794185Y-82458803D02*
X226874997Y-82485741D01*
X226874997Y-82485741D02*
X226982746Y-82485741D01*
X226982746Y-82485741D02*
X227090496Y-82431866D01*
X227090496Y-82431866D02*
X227144371Y-82377991D01*
X227144371Y-82377991D02*
X227198246Y-82270241D01*
X227198246Y-82270241D02*
X227198246Y-82216367D01*
X227198246Y-82216367D02*
X227009684Y-82027805D01*
X227009684Y-82027805D02*
X226901934Y-82135554D01*
X227494557Y-82027805D02*
X226928872Y-81462119D01*
X226928872Y-81462119D02*
X227817806Y-81704556D01*
X227817806Y-81704556D02*
X227252120Y-81138871D01*
X228087180Y-81435182D02*
X227521494Y-80869497D01*
X227521494Y-80869497D02*
X227656181Y-80734810D01*
X227656181Y-80734810D02*
X227763931Y-80680935D01*
X227763931Y-80680935D02*
X227871680Y-80680935D01*
X227871680Y-80680935D02*
X227952493Y-80707872D01*
X227952493Y-80707872D02*
X228087180Y-80788685D01*
X228087180Y-80788685D02*
X228167992Y-80869497D01*
X228167992Y-80869497D02*
X228248804Y-81004184D01*
X228248804Y-81004184D02*
X228275741Y-81084996D01*
X228275741Y-81084996D02*
X228275741Y-81192746D01*
X228275741Y-81192746D02*
X228221867Y-81300495D01*
X228221867Y-81300495D02*
X228087180Y-81435182D01*
X227238651Y-79743710D02*
X226672966Y-79178025D01*
X226672966Y-79178025D02*
X226807653Y-79043338D01*
X226807653Y-79043338D02*
X226915403Y-78989463D01*
X226915403Y-78989463D02*
X227023152Y-78989463D01*
X227023152Y-78989463D02*
X227103964Y-79016401D01*
X227103964Y-79016401D02*
X227238651Y-79097213D01*
X227238651Y-79097213D02*
X227319464Y-79178025D01*
X227319464Y-79178025D02*
X227400276Y-79312712D01*
X227400276Y-79312712D02*
X227427213Y-79393524D01*
X227427213Y-79393524D02*
X227427213Y-79501274D01*
X227427213Y-79501274D02*
X227373338Y-79609023D01*
X227373338Y-79609023D02*
X227238651Y-79743710D01*
X228100648Y-78881714D02*
X227777399Y-79204962D01*
X227939024Y-79043338D02*
X227373338Y-78477653D01*
X227373338Y-78477653D02*
X227400276Y-78612340D01*
X227400276Y-78612340D02*
X227400276Y-78720089D01*
X227400276Y-78720089D02*
X227373338Y-78800901D01*
X227238651Y-77203710D02*
X226672966Y-76638025D01*
X226672966Y-76638025D02*
X226807653Y-76503338D01*
X226807653Y-76503338D02*
X226915403Y-76449463D01*
X226915403Y-76449463D02*
X227023152Y-76449463D01*
X227023152Y-76449463D02*
X227103964Y-76476401D01*
X227103964Y-76476401D02*
X227238651Y-76557213D01*
X227238651Y-76557213D02*
X227319464Y-76638025D01*
X227319464Y-76638025D02*
X227400276Y-76772712D01*
X227400276Y-76772712D02*
X227427213Y-76853524D01*
X227427213Y-76853524D02*
X227427213Y-76961274D01*
X227427213Y-76961274D02*
X227373338Y-77069023D01*
X227373338Y-77069023D02*
X227238651Y-77203710D01*
X227346401Y-75964590D02*
X227400276Y-75910715D01*
X227400276Y-75910715D02*
X227481088Y-75883778D01*
X227481088Y-75883778D02*
X227534963Y-75883778D01*
X227534963Y-75883778D02*
X227615775Y-75910715D01*
X227615775Y-75910715D02*
X227750462Y-75991527D01*
X227750462Y-75991527D02*
X227885149Y-76126214D01*
X227885149Y-76126214D02*
X227965961Y-76260901D01*
X227965961Y-76260901D02*
X227992899Y-76341714D01*
X227992899Y-76341714D02*
X227992899Y-76395588D01*
X227992899Y-76395588D02*
X227965961Y-76476401D01*
X227965961Y-76476401D02*
X227912087Y-76530275D01*
X227912087Y-76530275D02*
X227831274Y-76557213D01*
X227831274Y-76557213D02*
X227777399Y-76557213D01*
X227777399Y-76557213D02*
X227696587Y-76530275D01*
X227696587Y-76530275D02*
X227561900Y-76449463D01*
X227561900Y-76449463D02*
X227427213Y-76314776D01*
X227427213Y-76314776D02*
X227346401Y-76180089D01*
X227346401Y-76180089D02*
X227319464Y-76099277D01*
X227319464Y-76099277D02*
X227319464Y-76045402D01*
X227319464Y-76045402D02*
X227346401Y-75964590D01*
X227157839Y-74744523D02*
X226592154Y-74178837D01*
X226592154Y-74178837D02*
X226726841Y-74044150D01*
X226726841Y-74044150D02*
X226834590Y-73990276D01*
X226834590Y-73990276D02*
X226942340Y-73990276D01*
X226942340Y-73990276D02*
X227023152Y-74017213D01*
X227023152Y-74017213D02*
X227157839Y-74098025D01*
X227157839Y-74098025D02*
X227238651Y-74178837D01*
X227238651Y-74178837D02*
X227319463Y-74313524D01*
X227319463Y-74313524D02*
X227346401Y-74394337D01*
X227346401Y-74394337D02*
X227346401Y-74502086D01*
X227346401Y-74502086D02*
X227292526Y-74609836D01*
X227292526Y-74609836D02*
X227157839Y-74744523D01*
X227508025Y-73963338D02*
X227939024Y-73532340D01*
X227939024Y-73963338D02*
X227508025Y-73532340D01*
X211489277Y-108343085D02*
X210923592Y-107777399D01*
X210923592Y-107777399D02*
X211058279Y-107642712D01*
X211058279Y-107642712D02*
X211166028Y-107588838D01*
X211166028Y-107588838D02*
X211273778Y-107588838D01*
X211273778Y-107588838D02*
X211354590Y-107615775D01*
X211354590Y-107615775D02*
X211489277Y-107696587D01*
X211489277Y-107696587D02*
X211570089Y-107777399D01*
X211570089Y-107777399D02*
X211650901Y-107912086D01*
X211650901Y-107912086D02*
X211677839Y-107992899D01*
X211677839Y-107992899D02*
X211677839Y-108100648D01*
X211677839Y-108100648D02*
X211623964Y-108208398D01*
X211623964Y-108208398D02*
X211489277Y-108343085D01*
X212351274Y-107481088D02*
X212028025Y-107804337D01*
X212189649Y-107642712D02*
X211623964Y-107077027D01*
X211623964Y-107077027D02*
X211650901Y-107211714D01*
X211650901Y-107211714D02*
X211650901Y-107319464D01*
X211650901Y-107319464D02*
X211623964Y-107400276D01*
X212297399Y-106403592D02*
X212028025Y-106672966D01*
X212028025Y-106672966D02*
X212270462Y-106969277D01*
X212270462Y-106969277D02*
X212270462Y-106915402D01*
X212270462Y-106915402D02*
X212297399Y-106834590D01*
X212297399Y-106834590D02*
X212432086Y-106699903D01*
X212432086Y-106699903D02*
X212512898Y-106672966D01*
X212512898Y-106672966D02*
X212566773Y-106672966D01*
X212566773Y-106672966D02*
X212647585Y-106699903D01*
X212647585Y-106699903D02*
X212782272Y-106834590D01*
X212782272Y-106834590D02*
X212809210Y-106915402D01*
X212809210Y-106915402D02*
X212809210Y-106969277D01*
X212809210Y-106969277D02*
X212782272Y-107050089D01*
X212782272Y-107050089D02*
X212647585Y-107184776D01*
X212647585Y-107184776D02*
X212566773Y-107211714D01*
X212566773Y-107211714D02*
X212512898Y-107211714D01*
X214029277Y-108343085D02*
X213463592Y-107777399D01*
X213463592Y-107777399D02*
X213598279Y-107642712D01*
X213598279Y-107642712D02*
X213706028Y-107588838D01*
X213706028Y-107588838D02*
X213813778Y-107588838D01*
X213813778Y-107588838D02*
X213894590Y-107615775D01*
X213894590Y-107615775D02*
X214029277Y-107696587D01*
X214029277Y-107696587D02*
X214110089Y-107777399D01*
X214110089Y-107777399D02*
X214190901Y-107912086D01*
X214190901Y-107912086D02*
X214217839Y-107992899D01*
X214217839Y-107992899D02*
X214217839Y-108100648D01*
X214217839Y-108100648D02*
X214163964Y-108208398D01*
X214163964Y-108208398D02*
X214029277Y-108343085D01*
X214891274Y-107481088D02*
X214568025Y-107804337D01*
X214729649Y-107642712D02*
X214163964Y-107077027D01*
X214163964Y-107077027D02*
X214190901Y-107211714D01*
X214190901Y-107211714D02*
X214190901Y-107319464D01*
X214190901Y-107319464D02*
X214163964Y-107400276D01*
X214837399Y-106403592D02*
X214568025Y-106672966D01*
X214568025Y-106672966D02*
X214810462Y-106969277D01*
X214810462Y-106969277D02*
X214810462Y-106915402D01*
X214810462Y-106915402D02*
X214837399Y-106834590D01*
X214837399Y-106834590D02*
X214972086Y-106699903D01*
X214972086Y-106699903D02*
X215052898Y-106672966D01*
X215052898Y-106672966D02*
X215106773Y-106672966D01*
X215106773Y-106672966D02*
X215187585Y-106699903D01*
X215187585Y-106699903D02*
X215322272Y-106834590D01*
X215322272Y-106834590D02*
X215349210Y-106915402D01*
X215349210Y-106915402D02*
X215349210Y-106969277D01*
X215349210Y-106969277D02*
X215322272Y-107050089D01*
X215322272Y-107050089D02*
X215187585Y-107184776D01*
X215187585Y-107184776D02*
X215106773Y-107211714D01*
X215106773Y-107211714D02*
X215052898Y-107211714D01*
X216569277Y-108343085D02*
X216003592Y-107777399D01*
X216003592Y-107777399D02*
X216138279Y-107642712D01*
X216138279Y-107642712D02*
X216246028Y-107588838D01*
X216246028Y-107588838D02*
X216353778Y-107588838D01*
X216353778Y-107588838D02*
X216434590Y-107615775D01*
X216434590Y-107615775D02*
X216569277Y-107696587D01*
X216569277Y-107696587D02*
X216650089Y-107777399D01*
X216650089Y-107777399D02*
X216730901Y-107912086D01*
X216730901Y-107912086D02*
X216757839Y-107992899D01*
X216757839Y-107992899D02*
X216757839Y-108100648D01*
X216757839Y-108100648D02*
X216703964Y-108208398D01*
X216703964Y-108208398D02*
X216569277Y-108343085D01*
X217431274Y-107481088D02*
X217108025Y-107804337D01*
X217269649Y-107642712D02*
X216703964Y-107077027D01*
X216703964Y-107077027D02*
X216730901Y-107211714D01*
X216730901Y-107211714D02*
X216730901Y-107319464D01*
X216730901Y-107319464D02*
X216703964Y-107400276D01*
X217539024Y-106619091D02*
X217916147Y-106996215D01*
X217188837Y-106538279D02*
X217458211Y-107077027D01*
X217458211Y-107077027D02*
X217808398Y-106726841D01*
X219109277Y-108343085D02*
X218543592Y-107777399D01*
X218543592Y-107777399D02*
X218678279Y-107642712D01*
X218678279Y-107642712D02*
X218786028Y-107588838D01*
X218786028Y-107588838D02*
X218893778Y-107588838D01*
X218893778Y-107588838D02*
X218974590Y-107615775D01*
X218974590Y-107615775D02*
X219109277Y-107696587D01*
X219109277Y-107696587D02*
X219190089Y-107777399D01*
X219190089Y-107777399D02*
X219270901Y-107912086D01*
X219270901Y-107912086D02*
X219297839Y-107992899D01*
X219297839Y-107992899D02*
X219297839Y-108100648D01*
X219297839Y-108100648D02*
X219243964Y-108208398D01*
X219243964Y-108208398D02*
X219109277Y-108343085D01*
X219971274Y-107481088D02*
X219648025Y-107804337D01*
X219809649Y-107642712D02*
X219243964Y-107077027D01*
X219243964Y-107077027D02*
X219270901Y-107211714D01*
X219270901Y-107211714D02*
X219270901Y-107319464D01*
X219270901Y-107319464D02*
X219243964Y-107400276D01*
X219594150Y-106726841D02*
X219944337Y-106376654D01*
X219944337Y-106376654D02*
X219971274Y-106780715D01*
X219971274Y-106780715D02*
X220052086Y-106699903D01*
X220052086Y-106699903D02*
X220132898Y-106672966D01*
X220132898Y-106672966D02*
X220186773Y-106672966D01*
X220186773Y-106672966D02*
X220267585Y-106699903D01*
X220267585Y-106699903D02*
X220402272Y-106834590D01*
X220402272Y-106834590D02*
X220429210Y-106915402D01*
X220429210Y-106915402D02*
X220429210Y-106969277D01*
X220429210Y-106969277D02*
X220402272Y-107050089D01*
X220402272Y-107050089D02*
X220240648Y-107211714D01*
X220240648Y-107211714D02*
X220159836Y-107238651D01*
X220159836Y-107238651D02*
X220105961Y-107238651D01*
X221649277Y-108343085D02*
X221083592Y-107777399D01*
X221083592Y-107777399D02*
X221218279Y-107642712D01*
X221218279Y-107642712D02*
X221326028Y-107588838D01*
X221326028Y-107588838D02*
X221433778Y-107588838D01*
X221433778Y-107588838D02*
X221514590Y-107615775D01*
X221514590Y-107615775D02*
X221649277Y-107696587D01*
X221649277Y-107696587D02*
X221730089Y-107777399D01*
X221730089Y-107777399D02*
X221810901Y-107912086D01*
X221810901Y-107912086D02*
X221837839Y-107992899D01*
X221837839Y-107992899D02*
X221837839Y-108100648D01*
X221837839Y-108100648D02*
X221783964Y-108208398D01*
X221783964Y-108208398D02*
X221649277Y-108343085D01*
X222511274Y-107481088D02*
X222188025Y-107804337D01*
X222349649Y-107642712D02*
X221783964Y-107077027D01*
X221783964Y-107077027D02*
X221810901Y-107211714D01*
X221810901Y-107211714D02*
X221810901Y-107319464D01*
X221810901Y-107319464D02*
X221783964Y-107400276D01*
X222214963Y-106753778D02*
X222214963Y-106699903D01*
X222214963Y-106699903D02*
X222241900Y-106619091D01*
X222241900Y-106619091D02*
X222376587Y-106484404D01*
X222376587Y-106484404D02*
X222457399Y-106457467D01*
X222457399Y-106457467D02*
X222511274Y-106457467D01*
X222511274Y-106457467D02*
X222592086Y-106484404D01*
X222592086Y-106484404D02*
X222645961Y-106538279D01*
X222645961Y-106538279D02*
X222699836Y-106646028D01*
X222699836Y-106646028D02*
X222699836Y-107292526D01*
X222699836Y-107292526D02*
X223050022Y-106942340D01*
X206169277Y-105413085D02*
X205603592Y-104847399D01*
X205603592Y-104847399D02*
X205738279Y-104712712D01*
X205738279Y-104712712D02*
X205846028Y-104658838D01*
X205846028Y-104658838D02*
X205953778Y-104658838D01*
X205953778Y-104658838D02*
X206034590Y-104685775D01*
X206034590Y-104685775D02*
X206169277Y-104766587D01*
X206169277Y-104766587D02*
X206250089Y-104847399D01*
X206250089Y-104847399D02*
X206330901Y-104982086D01*
X206330901Y-104982086D02*
X206357839Y-105062899D01*
X206357839Y-105062899D02*
X206357839Y-105170648D01*
X206357839Y-105170648D02*
X206303964Y-105278398D01*
X206303964Y-105278398D02*
X206169277Y-105413085D01*
X206196214Y-104362526D02*
X206196214Y-104308651D01*
X206196214Y-104308651D02*
X206223152Y-104227839D01*
X206223152Y-104227839D02*
X206357839Y-104093152D01*
X206357839Y-104093152D02*
X206438651Y-104066215D01*
X206438651Y-104066215D02*
X206492526Y-104066215D01*
X206492526Y-104066215D02*
X206573338Y-104093152D01*
X206573338Y-104093152D02*
X206627213Y-104147027D01*
X206627213Y-104147027D02*
X206681088Y-104254777D01*
X206681088Y-104254777D02*
X206681088Y-104901274D01*
X206681088Y-104901274D02*
X207031274Y-104551088D01*
X207570022Y-104012340D02*
X207246773Y-104335589D01*
X207408398Y-104173964D02*
X206842712Y-103608279D01*
X206842712Y-103608279D02*
X206869650Y-103742966D01*
X206869650Y-103742966D02*
X206869650Y-103850715D01*
X206869650Y-103850715D02*
X206842712Y-103931528D01*
X206169277Y-102873085D02*
X205603592Y-102307399D01*
X205603592Y-102307399D02*
X205738279Y-102172712D01*
X205738279Y-102172712D02*
X205846028Y-102118838D01*
X205846028Y-102118838D02*
X205953778Y-102118838D01*
X205953778Y-102118838D02*
X206034590Y-102145775D01*
X206034590Y-102145775D02*
X206169277Y-102226587D01*
X206169277Y-102226587D02*
X206250089Y-102307399D01*
X206250089Y-102307399D02*
X206330901Y-102442086D01*
X206330901Y-102442086D02*
X206357839Y-102522899D01*
X206357839Y-102522899D02*
X206357839Y-102630648D01*
X206357839Y-102630648D02*
X206303964Y-102738398D01*
X206303964Y-102738398D02*
X206169277Y-102873085D01*
X206196214Y-101822526D02*
X206196214Y-101768651D01*
X206196214Y-101768651D02*
X206223152Y-101687839D01*
X206223152Y-101687839D02*
X206357839Y-101553152D01*
X206357839Y-101553152D02*
X206438651Y-101526215D01*
X206438651Y-101526215D02*
X206492526Y-101526215D01*
X206492526Y-101526215D02*
X206573338Y-101553152D01*
X206573338Y-101553152D02*
X206627213Y-101607027D01*
X206627213Y-101607027D02*
X206681088Y-101714777D01*
X206681088Y-101714777D02*
X206681088Y-102361274D01*
X206681088Y-102361274D02*
X207031274Y-102011088D01*
X206654150Y-101256841D02*
X207004337Y-100906654D01*
X207004337Y-100906654D02*
X207031274Y-101310715D01*
X207031274Y-101310715D02*
X207112086Y-101229903D01*
X207112086Y-101229903D02*
X207192898Y-101202966D01*
X207192898Y-101202966D02*
X207246773Y-101202966D01*
X207246773Y-101202966D02*
X207327585Y-101229903D01*
X207327585Y-101229903D02*
X207462272Y-101364590D01*
X207462272Y-101364590D02*
X207489210Y-101445402D01*
X207489210Y-101445402D02*
X207489210Y-101499277D01*
X207489210Y-101499277D02*
X207462272Y-101580089D01*
X207462272Y-101580089D02*
X207300648Y-101741714D01*
X207300648Y-101741714D02*
X207219836Y-101768651D01*
X207219836Y-101768651D02*
X207165961Y-101768651D01*
X206169277Y-100333085D02*
X205603592Y-99767399D01*
X205603592Y-99767399D02*
X205738279Y-99632712D01*
X205738279Y-99632712D02*
X205846028Y-99578838D01*
X205846028Y-99578838D02*
X205953778Y-99578838D01*
X205953778Y-99578838D02*
X206034590Y-99605775D01*
X206034590Y-99605775D02*
X206169277Y-99686587D01*
X206169277Y-99686587D02*
X206250089Y-99767399D01*
X206250089Y-99767399D02*
X206330901Y-99902086D01*
X206330901Y-99902086D02*
X206357839Y-99982899D01*
X206357839Y-99982899D02*
X206357839Y-100090648D01*
X206357839Y-100090648D02*
X206303964Y-100198398D01*
X206303964Y-100198398D02*
X206169277Y-100333085D01*
X206196214Y-99282526D02*
X206196214Y-99228651D01*
X206196214Y-99228651D02*
X206223152Y-99147839D01*
X206223152Y-99147839D02*
X206357839Y-99013152D01*
X206357839Y-99013152D02*
X206438651Y-98986215D01*
X206438651Y-98986215D02*
X206492526Y-98986215D01*
X206492526Y-98986215D02*
X206573338Y-99013152D01*
X206573338Y-99013152D02*
X206627213Y-99067027D01*
X206627213Y-99067027D02*
X206681088Y-99174777D01*
X206681088Y-99174777D02*
X206681088Y-99821274D01*
X206681088Y-99821274D02*
X207031274Y-99471088D01*
X206815775Y-98555216D02*
X206869650Y-98501341D01*
X206869650Y-98501341D02*
X206950462Y-98474404D01*
X206950462Y-98474404D02*
X207004337Y-98474404D01*
X207004337Y-98474404D02*
X207085149Y-98501341D01*
X207085149Y-98501341D02*
X207219836Y-98582154D01*
X207219836Y-98582154D02*
X207354523Y-98716841D01*
X207354523Y-98716841D02*
X207435335Y-98851528D01*
X207435335Y-98851528D02*
X207462272Y-98932340D01*
X207462272Y-98932340D02*
X207462272Y-98986215D01*
X207462272Y-98986215D02*
X207435335Y-99067027D01*
X207435335Y-99067027D02*
X207381460Y-99120902D01*
X207381460Y-99120902D02*
X207300648Y-99147839D01*
X207300648Y-99147839D02*
X207246773Y-99147839D01*
X207246773Y-99147839D02*
X207165961Y-99120902D01*
X207165961Y-99120902D02*
X207031274Y-99040089D01*
X207031274Y-99040089D02*
X206896587Y-98905402D01*
X206896587Y-98905402D02*
X206815775Y-98770715D01*
X206815775Y-98770715D02*
X206788837Y-98689903D01*
X206788837Y-98689903D02*
X206788837Y-98636028D01*
X206788837Y-98636028D02*
X206815775Y-98555216D01*
X206169277Y-97793085D02*
X205603592Y-97227399D01*
X205603592Y-97227399D02*
X205738279Y-97092712D01*
X205738279Y-97092712D02*
X205846028Y-97038838D01*
X205846028Y-97038838D02*
X205953778Y-97038838D01*
X205953778Y-97038838D02*
X206034590Y-97065775D01*
X206034590Y-97065775D02*
X206169277Y-97146587D01*
X206169277Y-97146587D02*
X206250089Y-97227399D01*
X206250089Y-97227399D02*
X206330901Y-97362086D01*
X206330901Y-97362086D02*
X206357839Y-97442899D01*
X206357839Y-97442899D02*
X206357839Y-97550648D01*
X206357839Y-97550648D02*
X206303964Y-97658398D01*
X206303964Y-97658398D02*
X206169277Y-97793085D01*
X206196214Y-96742526D02*
X206196214Y-96688651D01*
X206196214Y-96688651D02*
X206223152Y-96607839D01*
X206223152Y-96607839D02*
X206357839Y-96473152D01*
X206357839Y-96473152D02*
X206438651Y-96446215D01*
X206438651Y-96446215D02*
X206492526Y-96446215D01*
X206492526Y-96446215D02*
X206573338Y-96473152D01*
X206573338Y-96473152D02*
X206627213Y-96527027D01*
X206627213Y-96527027D02*
X206681088Y-96634777D01*
X206681088Y-96634777D02*
X206681088Y-97281274D01*
X206681088Y-97281274D02*
X207031274Y-96931088D01*
X206734963Y-96203778D02*
X206734963Y-96149903D01*
X206734963Y-96149903D02*
X206761900Y-96069091D01*
X206761900Y-96069091D02*
X206896587Y-95934404D01*
X206896587Y-95934404D02*
X206977399Y-95907467D01*
X206977399Y-95907467D02*
X207031274Y-95907467D01*
X207031274Y-95907467D02*
X207112086Y-95934404D01*
X207112086Y-95934404D02*
X207165961Y-95988279D01*
X207165961Y-95988279D02*
X207219836Y-96096028D01*
X207219836Y-96096028D02*
X207219836Y-96742526D01*
X207219836Y-96742526D02*
X207570022Y-96392340D01*
X206169277Y-95253085D02*
X205603592Y-94687399D01*
X205603592Y-94687399D02*
X205738279Y-94552712D01*
X205738279Y-94552712D02*
X205846028Y-94498838D01*
X205846028Y-94498838D02*
X205953778Y-94498838D01*
X205953778Y-94498838D02*
X206034590Y-94525775D01*
X206034590Y-94525775D02*
X206169277Y-94606587D01*
X206169277Y-94606587D02*
X206250089Y-94687399D01*
X206250089Y-94687399D02*
X206330901Y-94822086D01*
X206330901Y-94822086D02*
X206357839Y-94902899D01*
X206357839Y-94902899D02*
X206357839Y-95010648D01*
X206357839Y-95010648D02*
X206303964Y-95118398D01*
X206303964Y-95118398D02*
X206169277Y-95253085D01*
X206196214Y-94202526D02*
X206196214Y-94148651D01*
X206196214Y-94148651D02*
X206223152Y-94067839D01*
X206223152Y-94067839D02*
X206357839Y-93933152D01*
X206357839Y-93933152D02*
X206438651Y-93906215D01*
X206438651Y-93906215D02*
X206492526Y-93906215D01*
X206492526Y-93906215D02*
X206573338Y-93933152D01*
X206573338Y-93933152D02*
X206627213Y-93987027D01*
X206627213Y-93987027D02*
X206681088Y-94094777D01*
X206681088Y-94094777D02*
X206681088Y-94741274D01*
X206681088Y-94741274D02*
X207031274Y-94391088D01*
X206950462Y-93340529D02*
X206842712Y-93448279D01*
X206842712Y-93448279D02*
X206815775Y-93529091D01*
X206815775Y-93529091D02*
X206815775Y-93582966D01*
X206815775Y-93582966D02*
X206842712Y-93717653D01*
X206842712Y-93717653D02*
X206923524Y-93852340D01*
X206923524Y-93852340D02*
X207139024Y-94067839D01*
X207139024Y-94067839D02*
X207219836Y-94094776D01*
X207219836Y-94094776D02*
X207273711Y-94094776D01*
X207273711Y-94094776D02*
X207354523Y-94067839D01*
X207354523Y-94067839D02*
X207462272Y-93960089D01*
X207462272Y-93960089D02*
X207489210Y-93879277D01*
X207489210Y-93879277D02*
X207489210Y-93825402D01*
X207489210Y-93825402D02*
X207462272Y-93744590D01*
X207462272Y-93744590D02*
X207327585Y-93609903D01*
X207327585Y-93609903D02*
X207246773Y-93582966D01*
X207246773Y-93582966D02*
X207192898Y-93582966D01*
X207192898Y-93582966D02*
X207112086Y-93609903D01*
X207112086Y-93609903D02*
X207004337Y-93717653D01*
X207004337Y-93717653D02*
X206977399Y-93798465D01*
X206977399Y-93798465D02*
X206977399Y-93852340D01*
X206977399Y-93852340D02*
X207004337Y-93933152D01*
X206169277Y-92713085D02*
X205603592Y-92147399D01*
X205603592Y-92147399D02*
X205738279Y-92012712D01*
X205738279Y-92012712D02*
X205846028Y-91958838D01*
X205846028Y-91958838D02*
X205953778Y-91958838D01*
X205953778Y-91958838D02*
X206034590Y-91985775D01*
X206034590Y-91985775D02*
X206169277Y-92066587D01*
X206169277Y-92066587D02*
X206250089Y-92147399D01*
X206250089Y-92147399D02*
X206330901Y-92282086D01*
X206330901Y-92282086D02*
X206357839Y-92362899D01*
X206357839Y-92362899D02*
X206357839Y-92470648D01*
X206357839Y-92470648D02*
X206303964Y-92578398D01*
X206303964Y-92578398D02*
X206169277Y-92713085D01*
X206196214Y-91662526D02*
X206196214Y-91608651D01*
X206196214Y-91608651D02*
X206223152Y-91527839D01*
X206223152Y-91527839D02*
X206357839Y-91393152D01*
X206357839Y-91393152D02*
X206438651Y-91366215D01*
X206438651Y-91366215D02*
X206492526Y-91366215D01*
X206492526Y-91366215D02*
X206573338Y-91393152D01*
X206573338Y-91393152D02*
X206627213Y-91447027D01*
X206627213Y-91447027D02*
X206681088Y-91554777D01*
X206681088Y-91554777D02*
X206681088Y-92201274D01*
X206681088Y-92201274D02*
X207031274Y-91851088D01*
X206654150Y-91096841D02*
X207031274Y-90719717D01*
X207031274Y-90719717D02*
X207354523Y-91527839D01*
X206169277Y-90173085D02*
X205603592Y-89607399D01*
X205603592Y-89607399D02*
X205738279Y-89472712D01*
X205738279Y-89472712D02*
X205846028Y-89418838D01*
X205846028Y-89418838D02*
X205953778Y-89418838D01*
X205953778Y-89418838D02*
X206034590Y-89445775D01*
X206034590Y-89445775D02*
X206169277Y-89526587D01*
X206169277Y-89526587D02*
X206250089Y-89607399D01*
X206250089Y-89607399D02*
X206330901Y-89742086D01*
X206330901Y-89742086D02*
X206357839Y-89822899D01*
X206357839Y-89822899D02*
X206357839Y-89930648D01*
X206357839Y-89930648D02*
X206303964Y-90038398D01*
X206303964Y-90038398D02*
X206169277Y-90173085D01*
X206196214Y-89122526D02*
X206196214Y-89068651D01*
X206196214Y-89068651D02*
X206223152Y-88987839D01*
X206223152Y-88987839D02*
X206357839Y-88853152D01*
X206357839Y-88853152D02*
X206438651Y-88826215D01*
X206438651Y-88826215D02*
X206492526Y-88826215D01*
X206492526Y-88826215D02*
X206573338Y-88853152D01*
X206573338Y-88853152D02*
X206627213Y-88907027D01*
X206627213Y-88907027D02*
X206681088Y-89014777D01*
X206681088Y-89014777D02*
X206681088Y-89661274D01*
X206681088Y-89661274D02*
X207031274Y-89311088D01*
X207031274Y-88664590D02*
X206950462Y-88691528D01*
X206950462Y-88691528D02*
X206896587Y-88691528D01*
X206896587Y-88691528D02*
X206815775Y-88664590D01*
X206815775Y-88664590D02*
X206788837Y-88637653D01*
X206788837Y-88637653D02*
X206761900Y-88556841D01*
X206761900Y-88556841D02*
X206761900Y-88502966D01*
X206761900Y-88502966D02*
X206788837Y-88422154D01*
X206788837Y-88422154D02*
X206896587Y-88314404D01*
X206896587Y-88314404D02*
X206977399Y-88287467D01*
X206977399Y-88287467D02*
X207031274Y-88287467D01*
X207031274Y-88287467D02*
X207112086Y-88314404D01*
X207112086Y-88314404D02*
X207139024Y-88341341D01*
X207139024Y-88341341D02*
X207165961Y-88422154D01*
X207165961Y-88422154D02*
X207165961Y-88476028D01*
X207165961Y-88476028D02*
X207139024Y-88556841D01*
X207139024Y-88556841D02*
X207031274Y-88664590D01*
X207031274Y-88664590D02*
X207004337Y-88745402D01*
X207004337Y-88745402D02*
X207004337Y-88799277D01*
X207004337Y-88799277D02*
X207031274Y-88880089D01*
X207031274Y-88880089D02*
X207139024Y-88987839D01*
X207139024Y-88987839D02*
X207219836Y-89014776D01*
X207219836Y-89014776D02*
X207273711Y-89014776D01*
X207273711Y-89014776D02*
X207354523Y-88987839D01*
X207354523Y-88987839D02*
X207462272Y-88880089D01*
X207462272Y-88880089D02*
X207489210Y-88799277D01*
X207489210Y-88799277D02*
X207489210Y-88745402D01*
X207489210Y-88745402D02*
X207462272Y-88664590D01*
X207462272Y-88664590D02*
X207354523Y-88556841D01*
X207354523Y-88556841D02*
X207273711Y-88529903D01*
X207273711Y-88529903D02*
X207219836Y-88529903D01*
X207219836Y-88529903D02*
X207139024Y-88556841D01*
X206169277Y-87633085D02*
X205603592Y-87067399D01*
X205603592Y-87067399D02*
X205738279Y-86932712D01*
X205738279Y-86932712D02*
X205846028Y-86878838D01*
X205846028Y-86878838D02*
X205953778Y-86878838D01*
X205953778Y-86878838D02*
X206034590Y-86905775D01*
X206034590Y-86905775D02*
X206169277Y-86986587D01*
X206169277Y-86986587D02*
X206250089Y-87067399D01*
X206250089Y-87067399D02*
X206330901Y-87202086D01*
X206330901Y-87202086D02*
X206357839Y-87282899D01*
X206357839Y-87282899D02*
X206357839Y-87390648D01*
X206357839Y-87390648D02*
X206303964Y-87498398D01*
X206303964Y-87498398D02*
X206169277Y-87633085D01*
X206196214Y-86582526D02*
X206196214Y-86528651D01*
X206196214Y-86528651D02*
X206223152Y-86447839D01*
X206223152Y-86447839D02*
X206357839Y-86313152D01*
X206357839Y-86313152D02*
X206438651Y-86286215D01*
X206438651Y-86286215D02*
X206492526Y-86286215D01*
X206492526Y-86286215D02*
X206573338Y-86313152D01*
X206573338Y-86313152D02*
X206627213Y-86367027D01*
X206627213Y-86367027D02*
X206681088Y-86474777D01*
X206681088Y-86474777D02*
X206681088Y-87121274D01*
X206681088Y-87121274D02*
X207031274Y-86771088D01*
X207300648Y-86501714D02*
X207408398Y-86393964D01*
X207408398Y-86393964D02*
X207435335Y-86313152D01*
X207435335Y-86313152D02*
X207435335Y-86259277D01*
X207435335Y-86259277D02*
X207408398Y-86124590D01*
X207408398Y-86124590D02*
X207327585Y-85989903D01*
X207327585Y-85989903D02*
X207112086Y-85774404D01*
X207112086Y-85774404D02*
X207031274Y-85747467D01*
X207031274Y-85747467D02*
X206977399Y-85747467D01*
X206977399Y-85747467D02*
X206896587Y-85774404D01*
X206896587Y-85774404D02*
X206788837Y-85882154D01*
X206788837Y-85882154D02*
X206761900Y-85962966D01*
X206761900Y-85962966D02*
X206761900Y-86016841D01*
X206761900Y-86016841D02*
X206788837Y-86097653D01*
X206788837Y-86097653D02*
X206923524Y-86232340D01*
X206923524Y-86232340D02*
X207004337Y-86259277D01*
X207004337Y-86259277D02*
X207058211Y-86259277D01*
X207058211Y-86259277D02*
X207139024Y-86232340D01*
X207139024Y-86232340D02*
X207246773Y-86124590D01*
X207246773Y-86124590D02*
X207273711Y-86043778D01*
X207273711Y-86043778D02*
X207273711Y-85989903D01*
X207273711Y-85989903D02*
X207246773Y-85909091D01*
X205536248Y-84594743D02*
X206290496Y-84971866D01*
X206290496Y-84971866D02*
X205913372Y-84217619D01*
X206936993Y-84217619D02*
X206936993Y-84271494D01*
X206936993Y-84271494D02*
X206883118Y-84379244D01*
X206883118Y-84379244D02*
X206829243Y-84433118D01*
X206829243Y-84433118D02*
X206721494Y-84486993D01*
X206721494Y-84486993D02*
X206613744Y-84486993D01*
X206613744Y-84486993D02*
X206532932Y-84460056D01*
X206532932Y-84460056D02*
X206398245Y-84379244D01*
X206398245Y-84379244D02*
X206317433Y-84298431D01*
X206317433Y-84298431D02*
X206236621Y-84163744D01*
X206236621Y-84163744D02*
X206209683Y-84082932D01*
X206209683Y-84082932D02*
X206209683Y-83975183D01*
X206209683Y-83975183D02*
X206263558Y-83867433D01*
X206263558Y-83867433D02*
X206317433Y-83813558D01*
X206317433Y-83813558D02*
X206425182Y-83759683D01*
X206425182Y-83759683D02*
X206479057Y-83759683D01*
X207502678Y-83651934D02*
X207502678Y-83705809D01*
X207502678Y-83705809D02*
X207448804Y-83813558D01*
X207448804Y-83813558D02*
X207394929Y-83867433D01*
X207394929Y-83867433D02*
X207287179Y-83921308D01*
X207287179Y-83921308D02*
X207179430Y-83921308D01*
X207179430Y-83921308D02*
X207098617Y-83894370D01*
X207098617Y-83894370D02*
X206963930Y-83813558D01*
X206963930Y-83813558D02*
X206883118Y-83732746D01*
X206883118Y-83732746D02*
X206802306Y-83598059D01*
X206802306Y-83598059D02*
X206775369Y-83517247D01*
X206775369Y-83517247D02*
X206775369Y-83409497D01*
X206775369Y-83409497D02*
X206829243Y-83301748D01*
X206829243Y-83301748D02*
X206883118Y-83247873D01*
X206883118Y-83247873D02*
X206990868Y-83193998D01*
X206990868Y-83193998D02*
X207044743Y-83193998D01*
X206546401Y-82175961D02*
X206088465Y-82095149D01*
X206223152Y-82499210D02*
X205657467Y-81933524D01*
X205657467Y-81933524D02*
X205872966Y-81718025D01*
X205872966Y-81718025D02*
X205953778Y-81691088D01*
X205953778Y-81691088D02*
X206007653Y-81691088D01*
X206007653Y-81691088D02*
X206088465Y-81718025D01*
X206088465Y-81718025D02*
X206169277Y-81798837D01*
X206169277Y-81798837D02*
X206196215Y-81879649D01*
X206196215Y-81879649D02*
X206196215Y-81933524D01*
X206196215Y-81933524D02*
X206169277Y-82014336D01*
X206169277Y-82014336D02*
X205953778Y-82229836D01*
X206734963Y-81933524D02*
X206842712Y-81879649D01*
X206842712Y-81879649D02*
X206977399Y-81744962D01*
X206977399Y-81744962D02*
X207004337Y-81664150D01*
X207004337Y-81664150D02*
X207004337Y-81610275D01*
X207004337Y-81610275D02*
X206977399Y-81529463D01*
X206977399Y-81529463D02*
X206923525Y-81475588D01*
X206923525Y-81475588D02*
X206842712Y-81448651D01*
X206842712Y-81448651D02*
X206788838Y-81448651D01*
X206788838Y-81448651D02*
X206708025Y-81475588D01*
X206708025Y-81475588D02*
X206573338Y-81556401D01*
X206573338Y-81556401D02*
X206492526Y-81583338D01*
X206492526Y-81583338D02*
X206438651Y-81583338D01*
X206438651Y-81583338D02*
X206357839Y-81556401D01*
X206357839Y-81556401D02*
X206303964Y-81502526D01*
X206303964Y-81502526D02*
X206277027Y-81421714D01*
X206277027Y-81421714D02*
X206277027Y-81367839D01*
X206277027Y-81367839D02*
X206303964Y-81287027D01*
X206303964Y-81287027D02*
X206438651Y-81152340D01*
X206438651Y-81152340D02*
X206546401Y-81098465D01*
X206681088Y-80909903D02*
X207004337Y-80586654D01*
X207408398Y-81313964D02*
X206842713Y-80748278D01*
X205886435Y-79218431D02*
X205805623Y-79245368D01*
X205805623Y-79245368D02*
X205724811Y-79326180D01*
X205724811Y-79326180D02*
X205670936Y-79433930D01*
X205670936Y-79433930D02*
X205670936Y-79541680D01*
X205670936Y-79541680D02*
X205697873Y-79622492D01*
X205697873Y-79622492D02*
X205778685Y-79757179D01*
X205778685Y-79757179D02*
X205859498Y-79837991D01*
X205859498Y-79837991D02*
X205994185Y-79918803D01*
X205994185Y-79918803D02*
X206074997Y-79945741D01*
X206074997Y-79945741D02*
X206182746Y-79945741D01*
X206182746Y-79945741D02*
X206290496Y-79891866D01*
X206290496Y-79891866D02*
X206344371Y-79837991D01*
X206344371Y-79837991D02*
X206398246Y-79730241D01*
X206398246Y-79730241D02*
X206398246Y-79676367D01*
X206398246Y-79676367D02*
X206209684Y-79487805D01*
X206209684Y-79487805D02*
X206101934Y-79595554D01*
X206694557Y-79487805D02*
X206128872Y-78922119D01*
X206128872Y-78922119D02*
X207017806Y-79164556D01*
X207017806Y-79164556D02*
X206452120Y-78598871D01*
X207287180Y-78895182D02*
X206721494Y-78329497D01*
X206721494Y-78329497D02*
X206856181Y-78194810D01*
X206856181Y-78194810D02*
X206963931Y-78140935D01*
X206963931Y-78140935D02*
X207071680Y-78140935D01*
X207071680Y-78140935D02*
X207152493Y-78167872D01*
X207152493Y-78167872D02*
X207287180Y-78248685D01*
X207287180Y-78248685D02*
X207367992Y-78329497D01*
X207367992Y-78329497D02*
X207448804Y-78464184D01*
X207448804Y-78464184D02*
X207475741Y-78544996D01*
X207475741Y-78544996D02*
X207475741Y-78652746D01*
X207475741Y-78652746D02*
X207421867Y-78760495D01*
X207421867Y-78760495D02*
X207287180Y-78895182D01*
X206465589Y-77176773D02*
X206007653Y-77095961D01*
X206142340Y-77500022D02*
X205576654Y-76934337D01*
X205576654Y-76934337D02*
X205792154Y-76718837D01*
X205792154Y-76718837D02*
X205872966Y-76691900D01*
X205872966Y-76691900D02*
X205926841Y-76691900D01*
X205926841Y-76691900D02*
X206007653Y-76718837D01*
X206007653Y-76718837D02*
X206088465Y-76799650D01*
X206088465Y-76799650D02*
X206115402Y-76880462D01*
X206115402Y-76880462D02*
X206115402Y-76934337D01*
X206115402Y-76934337D02*
X206088465Y-77015149D01*
X206088465Y-77015149D02*
X205872966Y-77230648D01*
X206519463Y-76799650D02*
X206788837Y-76530276D01*
X206627213Y-77015149D02*
X206250089Y-76260902D01*
X206250089Y-76260902D02*
X207004337Y-76638025D01*
X206573338Y-75937653D02*
X207273710Y-76368651D01*
X207273710Y-76368651D02*
X206977399Y-75856841D01*
X206977399Y-75856841D02*
X207489210Y-76153152D01*
X207489210Y-76153152D02*
X207058211Y-75452780D01*
X206357839Y-74744523D02*
X205792154Y-74178837D01*
X205792154Y-74178837D02*
X205926841Y-74044150D01*
X205926841Y-74044150D02*
X206034590Y-73990276D01*
X206034590Y-73990276D02*
X206142340Y-73990276D01*
X206142340Y-73990276D02*
X206223152Y-74017213D01*
X206223152Y-74017213D02*
X206357839Y-74098025D01*
X206357839Y-74098025D02*
X206438651Y-74178837D01*
X206438651Y-74178837D02*
X206519463Y-74313524D01*
X206519463Y-74313524D02*
X206546401Y-74394337D01*
X206546401Y-74394337D02*
X206546401Y-74502086D01*
X206546401Y-74502086D02*
X206492526Y-74609836D01*
X206492526Y-74609836D02*
X206357839Y-74744523D01*
X206708025Y-73963338D02*
X207139024Y-73532340D01*
%TO.C,MCU1*%
X210650000Y-77800000D02*
X208110000Y-77800000D01*
X210650000Y-75260000D02*
X208110000Y-75260000D01*
X210650000Y-75260000D02*
X210650000Y-77800000D01*
X225890000Y-72720000D02*
X208110000Y-72720000D01*
X225890000Y-105740000D02*
X225890000Y-72720000D01*
X208110000Y-105740000D02*
X225890000Y-105740000D01*
X208110000Y-72720000D02*
X208110000Y-105740000D01*
D11*
%TO.C,D1*%
X100250000Y-105000000D02*
X100750000Y-105000000D01*
X100250000Y-105400000D02*
X99650000Y-105000000D01*
X100250000Y-104600000D02*
X100250000Y-105400000D01*
X99650000Y-105000000D02*
X100250000Y-104600000D01*
X99650000Y-105000000D02*
X99650000Y-105550000D01*
X99650000Y-105000000D02*
X99650000Y-104450000D01*
X99250000Y-105000000D02*
X99650000Y-105000000D01*
%TO.C,D2*%
X100250000Y-88000000D02*
X100750000Y-88000000D01*
X100250000Y-88400000D02*
X99650000Y-88000000D01*
X100250000Y-87600000D02*
X100250000Y-88400000D01*
X99650000Y-88000000D02*
X100250000Y-87600000D01*
X99650000Y-88000000D02*
X99650000Y-88550000D01*
X99650000Y-88000000D02*
X99650000Y-87450000D01*
X99250000Y-88000000D02*
X99650000Y-88000000D01*
%TO.C,D3*%
X118250000Y-105000000D02*
X118750000Y-105000000D01*
X118250000Y-105400000D02*
X117650000Y-105000000D01*
X118250000Y-104600000D02*
X118250000Y-105400000D01*
X117650000Y-105000000D02*
X118250000Y-104600000D01*
X117650000Y-105000000D02*
X117650000Y-105550000D01*
X117650000Y-105000000D02*
X117650000Y-104450000D01*
X117250000Y-105000000D02*
X117650000Y-105000000D01*
%TO.C,D4*%
X118250000Y-88000000D02*
X118750000Y-88000000D01*
X118250000Y-88400000D02*
X117650000Y-88000000D01*
X118250000Y-87600000D02*
X118250000Y-88400000D01*
X117650000Y-88000000D02*
X118250000Y-87600000D01*
X117650000Y-88000000D02*
X117650000Y-88550000D01*
X117650000Y-88000000D02*
X117650000Y-87450000D01*
X117250000Y-88000000D02*
X117650000Y-88000000D01*
%TO.C,D5*%
X136250000Y-105000000D02*
X136750000Y-105000000D01*
X136250000Y-105400000D02*
X135650000Y-105000000D01*
X136250000Y-104600000D02*
X136250000Y-105400000D01*
X135650000Y-105000000D02*
X136250000Y-104600000D01*
X135650000Y-105000000D02*
X135650000Y-105550000D01*
X135650000Y-105000000D02*
X135650000Y-104450000D01*
X135250000Y-105000000D02*
X135650000Y-105000000D01*
%TO.C,D6*%
X136250000Y-88000000D02*
X136750000Y-88000000D01*
X136250000Y-88400000D02*
X135650000Y-88000000D01*
X136250000Y-87600000D02*
X136250000Y-88400000D01*
X135650000Y-88000000D02*
X136250000Y-87600000D01*
X135650000Y-88000000D02*
X135650000Y-88550000D01*
X135650000Y-88000000D02*
X135650000Y-87450000D01*
X135250000Y-88000000D02*
X135650000Y-88000000D01*
%TO.C,D7*%
X154250000Y-105000000D02*
X154750000Y-105000000D01*
X154250000Y-105400000D02*
X153650000Y-105000000D01*
X154250000Y-104600000D02*
X154250000Y-105400000D01*
X153650000Y-105000000D02*
X154250000Y-104600000D01*
X153650000Y-105000000D02*
X153650000Y-105550000D01*
X153650000Y-105000000D02*
X153650000Y-104450000D01*
X153250000Y-105000000D02*
X153650000Y-105000000D01*
%TO.C,D8*%
X154250000Y-88000000D02*
X154750000Y-88000000D01*
X154250000Y-88400000D02*
X153650000Y-88000000D01*
X154250000Y-87600000D02*
X154250000Y-88400000D01*
X153650000Y-88000000D02*
X154250000Y-87600000D01*
X153650000Y-88000000D02*
X153650000Y-88550000D01*
X153650000Y-88000000D02*
X153650000Y-87450000D01*
X153250000Y-88000000D02*
X153650000Y-88000000D01*
%TO.C,D9*%
X172250000Y-105000000D02*
X172750000Y-105000000D01*
X172250000Y-105400000D02*
X171650000Y-105000000D01*
X172250000Y-104600000D02*
X172250000Y-105400000D01*
X171650000Y-105000000D02*
X172250000Y-104600000D01*
X171650000Y-105000000D02*
X171650000Y-105550000D01*
X171650000Y-105000000D02*
X171650000Y-104450000D01*
X171250000Y-105000000D02*
X171650000Y-105000000D01*
%TO.C,D10*%
X172250000Y-88000000D02*
X172750000Y-88000000D01*
X172250000Y-88400000D02*
X171650000Y-88000000D01*
X172250000Y-87600000D02*
X172250000Y-88400000D01*
X171650000Y-88000000D02*
X172250000Y-87600000D01*
X171650000Y-88000000D02*
X171650000Y-88550000D01*
X171650000Y-88000000D02*
X171650000Y-87450000D01*
X171250000Y-88000000D02*
X171650000Y-88000000D01*
%TO.C,D11*%
X190250000Y-105000000D02*
X190750000Y-105000000D01*
X190250000Y-105400000D02*
X189650000Y-105000000D01*
X190250000Y-104600000D02*
X190250000Y-105400000D01*
X189650000Y-105000000D02*
X190250000Y-104600000D01*
X189650000Y-105000000D02*
X189650000Y-105550000D01*
X189650000Y-105000000D02*
X189650000Y-104450000D01*
X189250000Y-105000000D02*
X189650000Y-105000000D01*
%TO.C,D12*%
X190250000Y-88000000D02*
X190750000Y-88000000D01*
X190250000Y-88400000D02*
X189650000Y-88000000D01*
X190250000Y-87600000D02*
X190250000Y-88400000D01*
X189650000Y-88000000D02*
X190250000Y-87600000D01*
X189650000Y-88000000D02*
X189650000Y-88550000D01*
X189650000Y-88000000D02*
X189650000Y-87450000D01*
X189250000Y-88000000D02*
X189650000Y-88000000D01*
%TO.C,D13*%
X244250000Y-105000000D02*
X244750000Y-105000000D01*
X244250000Y-105400000D02*
X243650000Y-105000000D01*
X244250000Y-104600000D02*
X244250000Y-105400000D01*
X243650000Y-105000000D02*
X244250000Y-104600000D01*
X243650000Y-105000000D02*
X243650000Y-105550000D01*
X243650000Y-105000000D02*
X243650000Y-104450000D01*
X243250000Y-105000000D02*
X243650000Y-105000000D01*
%TO.C,D14*%
X244250000Y-88000000D02*
X244750000Y-88000000D01*
X244250000Y-88400000D02*
X243650000Y-88000000D01*
X244250000Y-87600000D02*
X244250000Y-88400000D01*
X243650000Y-88000000D02*
X244250000Y-87600000D01*
X243650000Y-88000000D02*
X243650000Y-88550000D01*
X243650000Y-88000000D02*
X243650000Y-87450000D01*
X243250000Y-88000000D02*
X243650000Y-88000000D01*
%TO.C,D15*%
X262250000Y-105000000D02*
X262750000Y-105000000D01*
X262250000Y-105400000D02*
X261650000Y-105000000D01*
X262250000Y-104600000D02*
X262250000Y-105400000D01*
X261650000Y-105000000D02*
X262250000Y-104600000D01*
X261650000Y-105000000D02*
X261650000Y-105550000D01*
X261650000Y-105000000D02*
X261650000Y-104450000D01*
X261250000Y-105000000D02*
X261650000Y-105000000D01*
%TO.C,D16*%
X262250000Y-88000000D02*
X262750000Y-88000000D01*
X262250000Y-88400000D02*
X261650000Y-88000000D01*
X262250000Y-87600000D02*
X262250000Y-88400000D01*
X261650000Y-88000000D02*
X262250000Y-87600000D01*
X261650000Y-88000000D02*
X261650000Y-88550000D01*
X261650000Y-88000000D02*
X261650000Y-87450000D01*
X261250000Y-88000000D02*
X261650000Y-88000000D01*
%TO.C,D17*%
X280250000Y-105000000D02*
X280750000Y-105000000D01*
X280250000Y-105400000D02*
X279650000Y-105000000D01*
X280250000Y-104600000D02*
X280250000Y-105400000D01*
X279650000Y-105000000D02*
X280250000Y-104600000D01*
X279650000Y-105000000D02*
X279650000Y-105550000D01*
X279650000Y-105000000D02*
X279650000Y-104450000D01*
X279250000Y-105000000D02*
X279650000Y-105000000D01*
%TO.C,D18*%
X280250000Y-88000000D02*
X280750000Y-88000000D01*
X280250000Y-88400000D02*
X279650000Y-88000000D01*
X280250000Y-87600000D02*
X280250000Y-88400000D01*
X279650000Y-88000000D02*
X280250000Y-87600000D01*
X279650000Y-88000000D02*
X279650000Y-88550000D01*
X279650000Y-88000000D02*
X279650000Y-87450000D01*
X279250000Y-88000000D02*
X279650000Y-88000000D01*
%TO.C,D19*%
X298250000Y-105000000D02*
X298750000Y-105000000D01*
X298250000Y-105400000D02*
X297650000Y-105000000D01*
X298250000Y-104600000D02*
X298250000Y-105400000D01*
X297650000Y-105000000D02*
X298250000Y-104600000D01*
X297650000Y-105000000D02*
X297650000Y-105550000D01*
X297650000Y-105000000D02*
X297650000Y-104450000D01*
X297250000Y-105000000D02*
X297650000Y-105000000D01*
%TO.C,D20*%
X298250000Y-88000000D02*
X298750000Y-88000000D01*
X298250000Y-88400000D02*
X297650000Y-88000000D01*
X298250000Y-87600000D02*
X298250000Y-88400000D01*
X297650000Y-88000000D02*
X298250000Y-87600000D01*
X297650000Y-88000000D02*
X297650000Y-88550000D01*
X297650000Y-88000000D02*
X297650000Y-87450000D01*
X297250000Y-88000000D02*
X297650000Y-88000000D01*
%TO.C,D21*%
X316250000Y-105000000D02*
X316750000Y-105000000D01*
X316250000Y-105400000D02*
X315650000Y-105000000D01*
X316250000Y-104600000D02*
X316250000Y-105400000D01*
X315650000Y-105000000D02*
X316250000Y-104600000D01*
X315650000Y-105000000D02*
X315650000Y-105550000D01*
X315650000Y-105000000D02*
X315650000Y-104450000D01*
X315250000Y-105000000D02*
X315650000Y-105000000D01*
%TO.C,D22*%
X316250000Y-88000000D02*
X316750000Y-88000000D01*
X316250000Y-88400000D02*
X315650000Y-88000000D01*
X316250000Y-87600000D02*
X316250000Y-88400000D01*
X315650000Y-88000000D02*
X316250000Y-87600000D01*
X315650000Y-88000000D02*
X315650000Y-88550000D01*
X315650000Y-88000000D02*
X315650000Y-87450000D01*
X315250000Y-88000000D02*
X315650000Y-88000000D01*
%TO.C,D23*%
X334250000Y-105000000D02*
X334750000Y-105000000D01*
X334250000Y-105400000D02*
X333650000Y-105000000D01*
X334250000Y-104600000D02*
X334250000Y-105400000D01*
X333650000Y-105000000D02*
X334250000Y-104600000D01*
X333650000Y-105000000D02*
X333650000Y-105550000D01*
X333650000Y-105000000D02*
X333650000Y-104450000D01*
X333250000Y-105000000D02*
X333650000Y-105000000D01*
%TO.C,D24*%
X334250000Y-88000000D02*
X334750000Y-88000000D01*
X334250000Y-88400000D02*
X333650000Y-88000000D01*
X334250000Y-87600000D02*
X334250000Y-88400000D01*
X333650000Y-88000000D02*
X334250000Y-87600000D01*
X333650000Y-88000000D02*
X333650000Y-88550000D01*
X333650000Y-88000000D02*
X333650000Y-87450000D01*
X333250000Y-88000000D02*
X333650000Y-88000000D01*
%TO.C,D25*%
X172250000Y-139000000D02*
X172750000Y-139000000D01*
X172250000Y-139400000D02*
X171650000Y-139000000D01*
X172250000Y-138600000D02*
X172250000Y-139400000D01*
X171650000Y-139000000D02*
X172250000Y-138600000D01*
X171650000Y-139000000D02*
X171650000Y-139550000D01*
X171650000Y-139000000D02*
X171650000Y-138450000D01*
X171250000Y-139000000D02*
X171650000Y-139000000D01*
%TO.C,D26*%
X190250000Y-139000000D02*
X190750000Y-139000000D01*
X190250000Y-139400000D02*
X189650000Y-139000000D01*
X190250000Y-138600000D02*
X190250000Y-139400000D01*
X189650000Y-139000000D02*
X190250000Y-138600000D01*
X189650000Y-139000000D02*
X189650000Y-139550000D01*
X189650000Y-139000000D02*
X189650000Y-138450000D01*
X189250000Y-139000000D02*
X189650000Y-139000000D01*
%TO.C,D27*%
X244250000Y-139000000D02*
X244750000Y-139000000D01*
X244250000Y-139400000D02*
X243650000Y-139000000D01*
X244250000Y-138600000D02*
X244250000Y-139400000D01*
X243650000Y-139000000D02*
X244250000Y-138600000D01*
X243650000Y-139000000D02*
X243650000Y-139550000D01*
X243650000Y-139000000D02*
X243650000Y-138450000D01*
X243250000Y-139000000D02*
X243650000Y-139000000D01*
%TO.C,D28*%
X262250000Y-139000000D02*
X262750000Y-139000000D01*
X262250000Y-139400000D02*
X261650000Y-139000000D01*
X262250000Y-138600000D02*
X262250000Y-139400000D01*
X261650000Y-139000000D02*
X262250000Y-138600000D01*
X261650000Y-139000000D02*
X261650000Y-139550000D01*
X261650000Y-139000000D02*
X261650000Y-138450000D01*
X261250000Y-139000000D02*
X261650000Y-139000000D01*
%TD*%
D12*
%TO.C,MCU1*%
X224620000Y-104470000D03*
X224620000Y-101930000D03*
X224620000Y-99390000D03*
X224620000Y-96850000D03*
X224620000Y-94310000D03*
X224620000Y-91770000D03*
X224620000Y-89230000D03*
X224620000Y-86690000D03*
X224620000Y-84150000D03*
X224620000Y-81610000D03*
X224620000Y-79070000D03*
X224620000Y-76530000D03*
X224620000Y-73990000D03*
X211920000Y-104470000D03*
X214460000Y-104470000D03*
X217000000Y-104470000D03*
X219540000Y-104470000D03*
X222080000Y-104470000D03*
X209380000Y-104470000D03*
X209380000Y-101930000D03*
X209380000Y-99390000D03*
X209380000Y-96850000D03*
X209380000Y-94310000D03*
X209380000Y-91770000D03*
X209380000Y-89230000D03*
X209380000Y-86690000D03*
X209380000Y-84150000D03*
X209380000Y-81610000D03*
X209380000Y-79070000D03*
D13*
X209380000Y-76530000D03*
D12*
X209380000Y-73990000D03*
%TD*%
M02*
