0
SECTION
2
HEADER
9
$INSUNITS
70
4
0
ENDSEC
0
SECTION
2
TABLES
0
TABLE
2
LTYPE
0
LTYPE
72
65
70
64
2
CONTINUOUS
3
______
73
0
40
0
0
ENDTAB
0
TABLE
2
LAYER
0
ENDTAB
0
ENDSEC
0
SECTION
2
ENTITIES
0
LINE
8
0
10
143
20
-110.5
11
143
21
-108.25
0
LINE
8
0
10
143
20
-91.75
11
143
21
-91.25
0
LINE
8
0
10
143
20
-74.75
11
143
21
-72.5
0
LINE
8
0
10
143
20
-72.5
11
234
21
-72.5
0
LINE
8
0
10
234
20
-72.5
11
234
21
-74.75
0
LINE
8
0
10
234
20
-108.25
11
234
21
-110.5
0
LINE
8
0
10
234
20
-91.25
11
234
21
-91.75
0
LINE
8
0
10
234
20
-110.5
11
198
21
-110.5
0
LINE
8
0
10
198
20
-110.5
11
198
21
-144.5
0
LINE
8
0
10
198
20
-144.5
11
161
21
-144.5
0
LINE
8
0
10
161
20
-144.5
11
159.8088235
21
-142.25
0
LINE
8
0
10
151.0735294
20
-125.75
11
143
21
-110.5
0
LINE
8
0
10
143
20
-108.25
11
144.75
21
-108.25
0
LINE
8
0
10
144.75
20
-108.25
11
144.75
21
-91.75
0
LINE
8
0
10
144.75
20
-91.75
11
143
21
-91.75
0
LINE
8
0
10
143
20
-91.25
11
144.75
21
-91.25
0
LINE
8
0
10
144.75
20
-91.25
11
144.75
21
-74.75
0
LINE
8
0
10
144.75
20
-74.75
11
143
21
-74.75
0
LINE
8
0
10
145.25
20
-108.25
11
213.75
21
-108.25
0
LINE
8
0
10
145.25
20
-91.75
11
213.75
21
-91.75
0
LINE
8
0
10
145.25
20
-91.75
11
145.25
21
-108.25
0
LINE
8
0
10
145.25
20
-91.25
11
213.75
21
-91.25
0
LINE
8
0
10
145.25
20
-74.75
11
213.75
21
-74.75
0
LINE
8
0
10
145.25
20
-74.75
11
145.25
21
-91.25
0
LINE
8
0
10
159.8088235
20
-142.25
11
195.75
21
-142.25
0
LINE
8
0
10
151.0735294
20
-125.75
11
195.75
21
-125.75
0
LINE
8
0
10
213.75
20
-108.25
11
213.75
21
-91.75
0
LINE
8
0
10
213.75
20
-91.25
11
213.75
21
-74.75
0
LINE
8
0
10
214.25
20
-108.25
11
231.75
21
-108.25
0
LINE
8
0
10
231.75
20
-108.25
11
231.75
21
-91.75
0
LINE
8
0
10
231.75
20
-91.75
11
214.25
21
-91.75
0
LINE
8
0
10
214.25
20
-91.75
11
214.25
21
-108.25
0
LINE
8
0
10
214.25
20
-91.25
11
231.75
21
-91.25
0
LINE
8
0
10
231.75
20
-91.25
11
231.75
21
-74.75
0
LINE
8
0
10
231.75
20
-74.75
11
214.25
21
-74.75
0
LINE
8
0
10
214.25
20
-74.75
11
214.25
21
-91.25
0
LINE
8
0
10
232.25
20
-108.25
11
234
21
-108.25
0
LINE
8
0
10
234
20
-91.75
11
232.25
21
-91.75
0
LINE
8
0
10
232.25
20
-91.75
11
232.25
21
-108.25
0
LINE
8
0
10
232.25
20
-91.25
11
234
21
-91.25
0
LINE
8
0
10
234
20
-74.75
11
232.25
21
-74.75
0
LINE
8
0
10
232.25
20
-74.75
11
232.25
21
-91.25
0
LINE
8
0
10
195.75
20
-142.25
11
195.75
21
-125.75
0
ENDSEC
0
EOF