0
SECTION
2
HEADER
9
$INSUNITS
70
4
0
ENDSEC
0
SECTION
2
TABLES
0
TABLE
2
LTYPE
0
LTYPE
72
65
70
64
2
CONTINUOUS
3
______
73
0
40
0
0
ENDTAB
0
TABLE
2
LAYER
0
ENDTAB
0
ENDSEC
0
SECTION
2
ENTITIES
0
LINE
8
0
10
88.5
20
-108
11
88.5
21
-75
0
LINE
8
0
10
91.5
20
-72
11
342.5
21
-72
0
LINE
8
0
10
345.5
20
-75
11
345.5
21
-108
0
LINE
8
0
10
342.5
20
-111
11
276.5
21
-111
0
LINE
8
0
10
273.5
20
-114
11
273.5
21
-142
0
LINE
8
0
10
270.5
20
-145
11
163.5
21
-145
0
LINE
8
0
10
160.5
20
-142
11
160.5
21
-114
0
LINE
8
0
10
157.5
20
-111
11
91.5
21
-111
0
ARC
8
0
10
91.5
20
-75
40
3
50
90
51
180
0
ARC
8
0
10
342.5
20
-75
40
3
50
0
51
90
0
ARC
8
0
10
342.5
20
-108
40
3
50
270
51
0
0
ARC
8
0
10
276.5
20
-114
40
3
50
90
51
180
0
ARC
8
0
10
270.5
20
-142
40
3
50
270
51
0
0
ARC
8
0
10
163.5
20
-142
40
3
50
180
51
270
0
ARC
8
0
10
157.5
20
-114
40
3
50
0
51
90
0
ARC
8
0
10
91.5
20
-108
40
3
50
180
51
270
0
LINE
8
0
10
91
20
-105.5
11
91
21
-77.5
0
LINE
8
0
10
94
20
-74.5
11
340
21
-74.5
0
LINE
8
0
10
343
20
-77.5
11
343
21
-105.5
0
LINE
8
0
10
340
20
-108.5
11
274
21
-108.5
0
LINE
8
0
10
271
20
-111.5
11
271
21
-139.5
0
LINE
8
0
10
268
20
-142.5
11
166
21
-142.5
0
LINE
8
0
10
163
20
-139.5
11
163
21
-111.5
0
LINE
8
0
10
160
20
-108.5
11
94
21
-108.5
0
ARC
8
0
10
94
20
-77.5
40
3
50
90
51
180
0
ARC
8
0
10
340
20
-77.5
40
3
50
0
51
90
0
ARC
8
0
10
340
20
-105.5
40
3
50
270
51
0
0
ARC
8
0
10
274
20
-111.5
40
3
50
90
51
180
0
ARC
8
0
10
268
20
-139.5
40
3
50
270
51
0
0
ARC
8
0
10
166
20
-139.5
40
3
50
180
51
270
0
ARC
8
0
10
160
20
-111.5
40
3
50
0
51
90
0
ARC
8
0
10
94
20
-105.5
40
3
50
180
51
270
0
ENDSEC
0
EOF