0
SECTION
2
HEADER
9
$INSUNITS
70
4
0
ENDSEC
0
SECTION
2
TABLES
0
TABLE
2
LTYPE
0
LTYPE
72
65
70
64
2
CONTINUOUS
3
______
73
0
40
0
0
ENDTAB
0
TABLE
2
LAYER
0
ENDTAB
0
ENDSEC
0
SECTION
2
ENTITIES
0
LINE
8
0
10
86.5
20
-110
11
86.5
21
-73
0
LINE
8
0
10
89.5
20
-70
11
204
21
-70
0
LINE
8
0
10
230
20
-70
11
344.5
21
-70
0
LINE
8
0
10
347.5
20
-73
11
347.5
21
-110
0
LINE
8
0
10
344.5
20
-113
11
278.5
21
-113
0
LINE
8
0
10
275.5
20
-116
11
275.5
21
-144
0
LINE
8
0
10
272.5
20
-147
11
161.5
21
-147
0
LINE
8
0
10
158.5
20
-144
11
158.5
21
-116
0
LINE
8
0
10
155.5
20
-113
11
89.5
21
-113
0
ARC
8
0
10
89.5
20
-73
40
3
50
90
51
180
0
ARC
8
0
10
344.5
20
-73
40
3
50
0
51
90
0
ARC
8
0
10
344.5
20
-110
40
3
50
270
51
0
0
ARC
8
0
10
278.5
20
-116
40
3
50
90
51
180
0
ARC
8
0
10
272.5
20
-144
40
3
50
270
51
0
0
ARC
8
0
10
161.5
20
-144
40
3
50
180
51
270
0
ARC
8
0
10
155.5
20
-116
40
3
50
0
51
90
0
ARC
8
0
10
89.5
20
-110
40
3
50
180
51
270
0
LINE
8
0
10
207
20
-104
11
207
21
-73
0
LINE
8
0
10
227
20
-73
11
227
21
-104
0
LINE
8
0
10
224
20
-107
11
210
21
-107
0
ARC
8
0
10
204
20
-73
40
3
50
0
51
90
0
ARC
8
0
10
210
20
-104
40
3
50
180
51
270
0
ARC
8
0
10
224
20
-104
40
3
50
270
51
0
0
ARC
8
0
10
230
20
-73
40
3
50
90
51
180
0
LINE
8
0
10
92.75
20
-107.2
11
107.25
21
-107.2
0
LINE
8
0
10
107.25
20
-107.2
11
107.25
21
-92.8
0
LINE
8
0
10
107.25
20
-92.8
11
92.75
21
-92.8
0
LINE
8
0
10
92.75
20
-92.8
11
92.75
21
-107.2
0
LINE
8
0
10
92.75
20
-90.2
11
107.25
21
-90.2
0
LINE
8
0
10
107.25
20
-90.2
11
107.25
21
-75.8
0
LINE
8
0
10
107.25
20
-75.8
11
92.75
21
-75.8
0
LINE
8
0
10
92.75
20
-75.8
11
92.75
21
-90.2
0
LINE
8
0
10
110.75
20
-107.2
11
125.25
21
-107.2
0
LINE
8
0
10
125.25
20
-107.2
11
125.25
21
-92.8
0
LINE
8
0
10
125.25
20
-92.8
11
110.75
21
-92.8
0
LINE
8
0
10
110.75
20
-92.8
11
110.75
21
-107.2
0
LINE
8
0
10
110.75
20
-90.2
11
125.25
21
-90.2
0
LINE
8
0
10
125.25
20
-90.2
11
125.25
21
-75.8
0
LINE
8
0
10
125.25
20
-75.8
11
110.75
21
-75.8
0
LINE
8
0
10
110.75
20
-75.8
11
110.75
21
-90.2
0
LINE
8
0
10
128.75
20
-107.2
11
143.25
21
-107.2
0
LINE
8
0
10
143.25
20
-107.2
11
143.25
21
-92.8
0
LINE
8
0
10
143.25
20
-92.8
11
128.75
21
-92.8
0
LINE
8
0
10
128.75
20
-92.8
11
128.75
21
-107.2
0
LINE
8
0
10
128.75
20
-90.2
11
143.25
21
-90.2
0
LINE
8
0
10
143.25
20
-90.2
11
143.25
21
-75.8
0
LINE
8
0
10
143.25
20
-75.8
11
128.75
21
-75.8
0
LINE
8
0
10
128.75
20
-75.8
11
128.75
21
-90.2
0
LINE
8
0
10
146.75
20
-107.2
11
161.25
21
-107.2
0
LINE
8
0
10
161.25
20
-107.2
11
161.25
21
-92.8
0
LINE
8
0
10
161.25
20
-92.8
11
146.75
21
-92.8
0
LINE
8
0
10
146.75
20
-92.8
11
146.75
21
-107.2
0
LINE
8
0
10
146.75
20
-90.2
11
161.25
21
-90.2
0
LINE
8
0
10
161.25
20
-90.2
11
161.25
21
-75.8
0
LINE
8
0
10
161.25
20
-75.8
11
146.75
21
-75.8
0
LINE
8
0
10
146.75
20
-75.8
11
146.75
21
-90.2
0
LINE
8
0
10
164.75
20
-107.2
11
179.25
21
-107.2
0
LINE
8
0
10
179.25
20
-107.2
11
179.25
21
-92.8
0
LINE
8
0
10
179.25
20
-92.8
11
164.75
21
-92.8
0
LINE
8
0
10
164.75
20
-92.8
11
164.75
21
-107.2
0
LINE
8
0
10
164.75
20
-90.2
11
179.25
21
-90.2
0
LINE
8
0
10
179.25
20
-90.2
11
179.25
21
-75.8
0
LINE
8
0
10
179.25
20
-75.8
11
164.75
21
-75.8
0
LINE
8
0
10
164.75
20
-75.8
11
164.75
21
-90.2
0
LINE
8
0
10
182.75
20
-107.2
11
197.25
21
-107.2
0
LINE
8
0
10
197.25
20
-107.2
11
197.25
21
-92.8
0
LINE
8
0
10
197.25
20
-92.8
11
182.75
21
-92.8
0
LINE
8
0
10
182.75
20
-92.8
11
182.75
21
-107.2
0
LINE
8
0
10
182.75
20
-90.2
11
197.25
21
-90.2
0
LINE
8
0
10
197.25
20
-90.2
11
197.25
21
-75.8
0
LINE
8
0
10
197.25
20
-75.8
11
182.75
21
-75.8
0
LINE
8
0
10
182.75
20
-75.8
11
182.75
21
-90.2
0
LINE
8
0
10
236.75
20
-107.2
11
251.25
21
-107.2
0
LINE
8
0
10
251.25
20
-107.2
11
251.25
21
-92.8
0
LINE
8
0
10
251.25
20
-92.8
11
236.75
21
-92.8
0
LINE
8
0
10
236.75
20
-92.8
11
236.75
21
-107.2
0
LINE
8
0
10
236.75
20
-90.2
11
251.25
21
-90.2
0
LINE
8
0
10
251.25
20
-90.2
11
251.25
21
-75.8
0
LINE
8
0
10
251.25
20
-75.8
11
236.75
21
-75.8
0
LINE
8
0
10
236.75
20
-75.8
11
236.75
21
-90.2
0
LINE
8
0
10
254.75
20
-107.2
11
269.25
21
-107.2
0
LINE
8
0
10
269.25
20
-107.2
11
269.25
21
-92.8
0
LINE
8
0
10
269.25
20
-92.8
11
254.75
21
-92.8
0
LINE
8
0
10
254.75
20
-92.8
11
254.75
21
-107.2
0
LINE
8
0
10
254.75
20
-90.2
11
269.25
21
-90.2
0
LINE
8
0
10
269.25
20
-90.2
11
269.25
21
-75.8
0
LINE
8
0
10
269.25
20
-75.8
11
254.75
21
-75.8
0
LINE
8
0
10
254.75
20
-75.8
11
254.75
21
-90.2
0
LINE
8
0
10
272.75
20
-107.2
11
287.25
21
-107.2
0
LINE
8
0
10
287.25
20
-107.2
11
287.25
21
-92.8
0
LINE
8
0
10
287.25
20
-92.8
11
272.75
21
-92.8
0
LINE
8
0
10
272.75
20
-92.8
11
272.75
21
-107.2
0
LINE
8
0
10
272.75
20
-90.2
11
287.25
21
-90.2
0
LINE
8
0
10
287.25
20
-90.2
11
287.25
21
-75.8
0
LINE
8
0
10
287.25
20
-75.8
11
272.75
21
-75.8
0
LINE
8
0
10
272.75
20
-75.8
11
272.75
21
-90.2
0
LINE
8
0
10
290.75
20
-107.2
11
305.25
21
-107.2
0
LINE
8
0
10
305.25
20
-107.2
11
305.25
21
-92.8
0
LINE
8
0
10
305.25
20
-92.8
11
290.75
21
-92.8
0
LINE
8
0
10
290.75
20
-92.8
11
290.75
21
-107.2
0
LINE
8
0
10
290.75
20
-90.2
11
305.25
21
-90.2
0
LINE
8
0
10
305.25
20
-90.2
11
305.25
21
-75.8
0
LINE
8
0
10
305.25
20
-75.8
11
290.75
21
-75.8
0
LINE
8
0
10
290.75
20
-75.8
11
290.75
21
-90.2
0
LINE
8
0
10
308.75
20
-107.2
11
323.25
21
-107.2
0
LINE
8
0
10
323.25
20
-107.2
11
323.25
21
-92.8
0
LINE
8
0
10
323.25
20
-92.8
11
308.75
21
-92.8
0
LINE
8
0
10
308.75
20
-92.8
11
308.75
21
-107.2
0
LINE
8
0
10
308.75
20
-90.2
11
323.25
21
-90.2
0
LINE
8
0
10
323.25
20
-90.2
11
323.25
21
-75.8
0
LINE
8
0
10
323.25
20
-75.8
11
308.75
21
-75.8
0
LINE
8
0
10
308.75
20
-75.8
11
308.75
21
-90.2
0
LINE
8
0
10
326.75
20
-107.2
11
341.25
21
-107.2
0
LINE
8
0
10
341.25
20
-107.2
11
341.25
21
-92.8
0
LINE
8
0
10
341.25
20
-92.8
11
326.75
21
-92.8
0
LINE
8
0
10
326.75
20
-92.8
11
326.75
21
-107.2
0
LINE
8
0
10
326.75
20
-90.2
11
341.25
21
-90.2
0
LINE
8
0
10
341.25
20
-90.2
11
341.25
21
-75.8
0
LINE
8
0
10
341.25
20
-75.8
11
326.75
21
-75.8
0
LINE
8
0
10
326.75
20
-75.8
11
326.75
21
-90.2
0
LINE
8
0
10
164.75
20
-141.2
11
179.25
21
-141.2
0
LINE
8
0
10
179.25
20
-141.2
11
179.25
21
-126.8
0
LINE
8
0
10
179.25
20
-126.8
11
164.75
21
-126.8
0
LINE
8
0
10
164.75
20
-126.8
11
164.75
21
-141.2
0
LINE
8
0
10
182.75
20
-141.2
11
197.25
21
-141.2
0
LINE
8
0
10
197.25
20
-141.2
11
197.25
21
-126.8
0
LINE
8
0
10
197.25
20
-126.8
11
182.75
21
-126.8
0
LINE
8
0
10
182.75
20
-126.8
11
182.75
21
-141.2
0
LINE
8
0
10
236.75
20
-141.2
11
251.25
21
-141.2
0
LINE
8
0
10
251.25
20
-141.2
11
251.25
21
-126.8
0
LINE
8
0
10
251.25
20
-126.8
11
236.75
21
-126.8
0
LINE
8
0
10
236.75
20
-126.8
11
236.75
21
-141.2
0
LINE
8
0
10
254.75
20
-141.2
11
269.25
21
-141.2
0
LINE
8
0
10
269.25
20
-141.2
11
269.25
21
-126.8
0
LINE
8
0
10
269.25
20
-126.8
11
254.75
21
-126.8
0
LINE
8
0
10
254.75
20
-126.8
11
254.75
21
-141.2
0
ENDSEC
0
EOF