0
SECTION
2
HEADER
9
$INSUNITS
70
4
0
ENDSEC
0
SECTION
2
TABLES
0
TABLE
2
LTYPE
0
LTYPE
72
65
70
64
2
CONTINUOUS
3
______
73
0
40
0
0
ENDTAB
0
TABLE
2
LAYER
0
ENDTAB
0
ENDSEC
0
SECTION
2
ENTITIES
0
LINE
8
0
10
86.5
20
-110
11
86.5
21
-73
0
LINE
8
0
10
89.5
20
-70
11
197.85
21
-70
0
LINE
8
0
10
236.15
20
-70
11
344.5
21
-70
0
LINE
8
0
10
347.5
20
-73
11
347.5
21
-110
0
LINE
8
0
10
344.5
20
-113
11
278.5
21
-113
0
LINE
8
0
10
275.5
20
-116
11
275.5
21
-144
0
LINE
8
0
10
272.5
20
-147
11
161.5
21
-147
0
LINE
8
0
10
158.5
20
-144
11
158.5
21
-116
0
LINE
8
0
10
155.5
20
-113
11
89.5
21
-113
0
ARC
8
0
10
89.5
20
-73
40
3
50
90
51
180
0
ARC
8
0
10
344.5
20
-73
40
3
50
0
51
90
0
ARC
8
0
10
344.5
20
-110
40
3
50
270
51
0
0
ARC
8
0
10
278.5
20
-116
40
3
50
90
51
180
0
ARC
8
0
10
272.5
20
-144
40
3
50
270
51
0
0
ARC
8
0
10
161.5
20
-144
40
3
50
180
51
270
0
ARC
8
0
10
155.5
20
-116
40
3
50
0
51
90
0
ARC
8
0
10
89.5
20
-110
40
3
50
180
51
270
0
LINE
8
0
10
200.85
20
-105.5
11
200.85
21
-73
0
LINE
8
0
10
233.15
20
-73
11
233.15
21
-105.5
0
LINE
8
0
10
230.15
20
-108.5
11
203.85
21
-108.5
0
ARC
8
0
10
197.85
20
-73
40
3
50
0
51
90
0
ARC
8
0
10
203.85
20
-105.5
40
3
50
180
51
270
0
ARC
8
0
10
230.15
20
-105.5
40
3
50
270
51
0
0
ARC
8
0
10
236.15
20
-73
40
3
50
90
51
180
0
LINE
8
0
10
92.85
20
-107.15
11
107.15
21
-107.15
0
LINE
8
0
10
107.15
20
-107.15
11
107.15
21
-92.85
0
LINE
8
0
10
107.15
20
-92.85
11
92.85
21
-92.85
0
LINE
8
0
10
92.85
20
-92.85
11
92.85
21
-107.15
0
LINE
8
0
10
92.85
20
-90.15
11
107.15
21
-90.15
0
LINE
8
0
10
107.15
20
-90.15
11
107.15
21
-75.85
0
LINE
8
0
10
107.15
20
-75.85
11
92.85
21
-75.85
0
LINE
8
0
10
92.85
20
-75.85
11
92.85
21
-90.15
0
LINE
8
0
10
110.85
20
-107.15
11
125.15
21
-107.15
0
LINE
8
0
10
125.15
20
-107.15
11
125.15
21
-92.85
0
LINE
8
0
10
125.15
20
-92.85
11
110.85
21
-92.85
0
LINE
8
0
10
110.85
20
-92.85
11
110.85
21
-107.15
0
LINE
8
0
10
110.85
20
-90.15
11
125.15
21
-90.15
0
LINE
8
0
10
125.15
20
-90.15
11
125.15
21
-75.85
0
LINE
8
0
10
125.15
20
-75.85
11
110.85
21
-75.85
0
LINE
8
0
10
110.85
20
-75.85
11
110.85
21
-90.15
0
LINE
8
0
10
128.85
20
-107.15
11
143.15
21
-107.15
0
LINE
8
0
10
143.15
20
-107.15
11
143.15
21
-92.85
0
LINE
8
0
10
143.15
20
-92.85
11
128.85
21
-92.85
0
LINE
8
0
10
128.85
20
-92.85
11
128.85
21
-107.15
0
LINE
8
0
10
128.85
20
-90.15
11
143.15
21
-90.15
0
LINE
8
0
10
143.15
20
-90.15
11
143.15
21
-75.85
0
LINE
8
0
10
143.15
20
-75.85
11
128.85
21
-75.85
0
LINE
8
0
10
128.85
20
-75.85
11
128.85
21
-90.15
0
LINE
8
0
10
146.85
20
-107.15
11
161.15
21
-107.15
0
LINE
8
0
10
161.15
20
-107.15
11
161.15
21
-92.85
0
LINE
8
0
10
161.15
20
-92.85
11
146.85
21
-92.85
0
LINE
8
0
10
146.85
20
-92.85
11
146.85
21
-107.15
0
LINE
8
0
10
146.85
20
-90.15
11
161.15
21
-90.15
0
LINE
8
0
10
161.15
20
-90.15
11
161.15
21
-75.85
0
LINE
8
0
10
161.15
20
-75.85
11
146.85
21
-75.85
0
LINE
8
0
10
146.85
20
-75.85
11
146.85
21
-90.15
0
LINE
8
0
10
164.85
20
-107.15
11
179.15
21
-107.15
0
LINE
8
0
10
179.15
20
-107.15
11
179.15
21
-92.85
0
LINE
8
0
10
179.15
20
-92.85
11
164.85
21
-92.85
0
LINE
8
0
10
164.85
20
-92.85
11
164.85
21
-107.15
0
LINE
8
0
10
164.85
20
-90.15
11
179.15
21
-90.15
0
LINE
8
0
10
179.15
20
-90.15
11
179.15
21
-75.85
0
LINE
8
0
10
179.15
20
-75.85
11
164.85
21
-75.85
0
LINE
8
0
10
164.85
20
-75.85
11
164.85
21
-90.15
0
LINE
8
0
10
182.85
20
-107.15
11
197.15
21
-107.15
0
LINE
8
0
10
197.15
20
-107.15
11
197.15
21
-92.85
0
LINE
8
0
10
197.15
20
-92.85
11
182.85
21
-92.85
0
LINE
8
0
10
182.85
20
-92.85
11
182.85
21
-107.15
0
LINE
8
0
10
182.85
20
-90.15
11
197.15
21
-90.15
0
LINE
8
0
10
197.15
20
-90.15
11
197.15
21
-75.85
0
LINE
8
0
10
197.15
20
-75.85
11
182.85
21
-75.85
0
LINE
8
0
10
182.85
20
-75.85
11
182.85
21
-90.15
0
LINE
8
0
10
236.85
20
-107.15
11
251.15
21
-107.15
0
LINE
8
0
10
251.15
20
-107.15
11
251.15
21
-92.85
0
LINE
8
0
10
251.15
20
-92.85
11
236.85
21
-92.85
0
LINE
8
0
10
236.85
20
-92.85
11
236.85
21
-107.15
0
LINE
8
0
10
236.85
20
-90.15
11
251.15
21
-90.15
0
LINE
8
0
10
251.15
20
-90.15
11
251.15
21
-75.85
0
LINE
8
0
10
251.15
20
-75.85
11
236.85
21
-75.85
0
LINE
8
0
10
236.85
20
-75.85
11
236.85
21
-90.15
0
LINE
8
0
10
254.85
20
-107.15
11
269.15
21
-107.15
0
LINE
8
0
10
269.15
20
-107.15
11
269.15
21
-92.85
0
LINE
8
0
10
269.15
20
-92.85
11
254.85
21
-92.85
0
LINE
8
0
10
254.85
20
-92.85
11
254.85
21
-107.15
0
LINE
8
0
10
254.85
20
-90.15
11
269.15
21
-90.15
0
LINE
8
0
10
269.15
20
-90.15
11
269.15
21
-75.85
0
LINE
8
0
10
269.15
20
-75.85
11
254.85
21
-75.85
0
LINE
8
0
10
254.85
20
-75.85
11
254.85
21
-90.15
0
LINE
8
0
10
272.85
20
-107.15
11
287.15
21
-107.15
0
LINE
8
0
10
287.15
20
-107.15
11
287.15
21
-92.85
0
LINE
8
0
10
287.15
20
-92.85
11
272.85
21
-92.85
0
LINE
8
0
10
272.85
20
-92.85
11
272.85
21
-107.15
0
LINE
8
0
10
272.85
20
-90.15
11
287.15
21
-90.15
0
LINE
8
0
10
287.15
20
-90.15
11
287.15
21
-75.85
0
LINE
8
0
10
287.15
20
-75.85
11
272.85
21
-75.85
0
LINE
8
0
10
272.85
20
-75.85
11
272.85
21
-90.15
0
LINE
8
0
10
290.85
20
-107.15
11
305.15
21
-107.15
0
LINE
8
0
10
305.15
20
-107.15
11
305.15
21
-92.85
0
LINE
8
0
10
305.15
20
-92.85
11
290.85
21
-92.85
0
LINE
8
0
10
290.85
20
-92.85
11
290.85
21
-107.15
0
LINE
8
0
10
290.85
20
-90.15
11
305.15
21
-90.15
0
LINE
8
0
10
305.15
20
-90.15
11
305.15
21
-75.85
0
LINE
8
0
10
305.15
20
-75.85
11
290.85
21
-75.85
0
LINE
8
0
10
290.85
20
-75.85
11
290.85
21
-90.15
0
LINE
8
0
10
308.85
20
-107.15
11
323.15
21
-107.15
0
LINE
8
0
10
323.15
20
-107.15
11
323.15
21
-92.85
0
LINE
8
0
10
323.15
20
-92.85
11
308.85
21
-92.85
0
LINE
8
0
10
308.85
20
-92.85
11
308.85
21
-107.15
0
LINE
8
0
10
308.85
20
-90.15
11
323.15
21
-90.15
0
LINE
8
0
10
323.15
20
-90.15
11
323.15
21
-75.85
0
LINE
8
0
10
323.15
20
-75.85
11
308.85
21
-75.85
0
LINE
8
0
10
308.85
20
-75.85
11
308.85
21
-90.15
0
LINE
8
0
10
326.85
20
-107.15
11
341.15
21
-107.15
0
LINE
8
0
10
341.15
20
-107.15
11
341.15
21
-92.85
0
LINE
8
0
10
341.15
20
-92.85
11
326.85
21
-92.85
0
LINE
8
0
10
326.85
20
-92.85
11
326.85
21
-107.15
0
LINE
8
0
10
326.85
20
-90.15
11
341.15
21
-90.15
0
LINE
8
0
10
341.15
20
-90.15
11
341.15
21
-75.85
0
LINE
8
0
10
341.15
20
-75.85
11
326.85
21
-75.85
0
LINE
8
0
10
326.85
20
-75.85
11
326.85
21
-90.15
0
LINE
8
0
10
164.85
20
-141.15
11
179.15
21
-141.15
0
LINE
8
0
10
179.15
20
-141.15
11
179.15
21
-126.85
0
LINE
8
0
10
179.15
20
-126.85
11
164.85
21
-126.85
0
LINE
8
0
10
164.85
20
-126.85
11
164.85
21
-141.15
0
LINE
8
0
10
182.85
20
-141.15
11
197.15
21
-141.15
0
LINE
8
0
10
197.15
20
-141.15
11
197.15
21
-126.85
0
LINE
8
0
10
197.15
20
-126.85
11
182.85
21
-126.85
0
LINE
8
0
10
182.85
20
-126.85
11
182.85
21
-141.15
0
LINE
8
0
10
236.85
20
-141.15
11
251.15
21
-141.15
0
LINE
8
0
10
251.15
20
-141.15
11
251.15
21
-126.85
0
LINE
8
0
10
251.15
20
-126.85
11
236.85
21
-126.85
0
LINE
8
0
10
236.85
20
-126.85
11
236.85
21
-141.15
0
LINE
8
0
10
254.85
20
-141.15
11
269.15
21
-141.15
0
LINE
8
0
10
269.15
20
-141.15
11
269.15
21
-126.85
0
LINE
8
0
10
269.15
20
-126.85
11
254.85
21
-126.85
0
LINE
8
0
10
254.85
20
-126.85
11
254.85
21
-141.15
0
ENDSEC
0
EOF