%TF.GenerationSoftware,KiCad,Pcbnew,9.0.0*%
%TF.CreationDate,2025-04-18T14:09:36+02:00*%
%TF.ProjectId,pcb,7063622e-6b69-4636-9164-5f7063625858,v1.0.0*%
%TF.SameCoordinates,Original*%
%TF.FileFunction,Copper,L2,Bot*%
%TF.FilePolarity,Positive*%
%FSLAX46Y46*%
G04 Gerber Fmt 4.6, Leading zero omitted, Abs format (unit mm)*
G04 Created by KiCad (PCBNEW 9.0.0) date 2025-04-18 14:09:36*
%MOMM*%
%LPD*%
G01*
G04 APERTURE LIST*
%TA.AperFunction,SMDPad,CuDef*%
%ADD10R,2.600000X2.600000*%
%TD*%
%TA.AperFunction,SMDPad,CuDef*%
%ADD11R,0.900000X1.200000*%
%TD*%
%TA.AperFunction,ComponentPad*%
%ADD12R,1.778000X1.778000*%
%TD*%
%TA.AperFunction,ComponentPad*%
%ADD13C,1.905000*%
%TD*%
%TA.AperFunction,ComponentPad*%
%ADD14C,1.752600*%
%TD*%
%TA.AperFunction,ComponentPad*%
%ADD15R,1.752600X1.752600*%
%TD*%
%TA.AperFunction,SMDPad,CuDef*%
%ADD16R,1.800000X1.100000*%
%TD*%
%TA.AperFunction,ComponentPad*%
%ADD17C,4.400000*%
%TD*%
%TA.AperFunction,ComponentPad*%
%ADD18C,0.700000*%
%TD*%
%TA.AperFunction,Conductor*%
%ADD19C,0.250000*%
%TD*%
G04 APERTURE END LIST*
D10*
%TO.P,S1,1*%
%TO.N,D23*%
X96725000Y-94050000D03*
%TO.P,S1,2*%
%TO.N,outer_lbottom*%
X108275000Y-96250000D03*
%TD*%
%TO.P,S2,1*%
%TO.N,D23*%
X96725000Y-77050000D03*
%TO.P,S2,2*%
%TO.N,outer_ltop*%
X108275000Y-79250000D03*
%TD*%
%TO.P,S3,1*%
%TO.N,D20*%
X114725000Y-94050000D03*
%TO.P,S3,2*%
%TO.N,pinky_lbottom*%
X126275000Y-96250000D03*
%TD*%
%TO.P,S4,1*%
%TO.N,D20*%
X114725000Y-77050000D03*
%TO.P,S4,2*%
%TO.N,pinky_ltop*%
X126275000Y-79250000D03*
%TD*%
%TO.P,S5,1*%
%TO.N,D22*%
X132725000Y-94050000D03*
%TO.P,S5,2*%
%TO.N,ring_lbottom*%
X144275000Y-96250000D03*
%TD*%
%TO.P,S6,1*%
%TO.N,D22*%
X132725000Y-77050000D03*
%TO.P,S6,2*%
%TO.N,ring_ltop*%
X144275000Y-79250000D03*
%TD*%
%TO.P,S7,1*%
%TO.N,D26*%
X150725000Y-94050000D03*
%TO.P,S7,2*%
%TO.N,middle_lbottom*%
X162275000Y-96250000D03*
%TD*%
%TO.P,S8,1*%
%TO.N,D26*%
X150725000Y-77050000D03*
%TO.P,S8,2*%
%TO.N,middle_ltop*%
X162275000Y-79250000D03*
%TD*%
%TO.P,S9,1*%
%TO.N,D27*%
X168725000Y-94050000D03*
%TO.P,S9,2*%
%TO.N,index_lbottom*%
X180275000Y-96250000D03*
%TD*%
%TO.P,S10,1*%
%TO.N,D27*%
X168725000Y-77050000D03*
%TO.P,S10,2*%
%TO.N,index_ltop*%
X180275000Y-79250000D03*
%TD*%
%TO.P,S11,1*%
%TO.N,D28*%
X186725000Y-94050000D03*
%TO.P,S11,2*%
%TO.N,inner_lbottom*%
X198275000Y-96250000D03*
%TD*%
%TO.P,S12,1*%
%TO.N,D28*%
X186725000Y-77050000D03*
%TO.P,S12,2*%
%TO.N,inner_ltop*%
X198275000Y-79250000D03*
%TD*%
%TO.P,S13,1*%
%TO.N,D3*%
X240725000Y-94050000D03*
%TO.P,S13,2*%
%TO.N,inner_rbottom*%
X252275000Y-96250000D03*
%TD*%
%TO.P,S14,1*%
%TO.N,D3*%
X240725000Y-77050000D03*
%TO.P,S14,2*%
%TO.N,inner_rtop*%
X252275000Y-79250000D03*
%TD*%
%TO.P,S15,1*%
%TO.N,D4*%
X258725000Y-94050000D03*
%TO.P,S15,2*%
%TO.N,index_rbottom*%
X270275000Y-96250000D03*
%TD*%
%TO.P,S16,1*%
%TO.N,D4*%
X258725000Y-77050000D03*
%TO.P,S16,2*%
%TO.N,index_rtop*%
X270275000Y-79250000D03*
%TD*%
%TO.P,S17,1*%
%TO.N,D5*%
X276725000Y-94050000D03*
%TO.P,S17,2*%
%TO.N,middle_rbottom*%
X288275000Y-96250000D03*
%TD*%
%TO.P,S18,1*%
%TO.N,D5*%
X276725000Y-77050000D03*
%TO.P,S18,2*%
%TO.N,middle_rtop*%
X288275000Y-79250000D03*
%TD*%
%TO.P,S19,1*%
%TO.N,D6*%
X294725000Y-94050000D03*
%TO.P,S19,2*%
%TO.N,ring_rbottom*%
X306275000Y-96250000D03*
%TD*%
%TO.P,S20,1*%
%TO.N,D6*%
X294725000Y-77050000D03*
%TO.P,S20,2*%
%TO.N,ring_rtop*%
X306275000Y-79250000D03*
%TD*%
%TO.P,S21,1*%
%TO.N,D7*%
X312725000Y-94050000D03*
%TO.P,S21,2*%
%TO.N,pinky_rbottom*%
X324275000Y-96250000D03*
%TD*%
%TO.P,S22,1*%
%TO.N,D7*%
X312725000Y-77050000D03*
%TO.P,S22,2*%
%TO.N,pinky_rtop*%
X324275000Y-79250000D03*
%TD*%
%TO.P,S23,1*%
%TO.N,D8*%
X330725000Y-94050000D03*
%TO.P,S23,2*%
%TO.N,outer_rbottom*%
X342275000Y-96250000D03*
%TD*%
%TO.P,S24,1*%
%TO.N,D8*%
X330725000Y-77050000D03*
%TO.P,S24,2*%
%TO.N,outer_rtop*%
X342275000Y-79250000D03*
%TD*%
%TO.P,S25,1*%
%TO.N,D27*%
X168725000Y-128050000D03*
%TO.P,S25,2*%
%TO.N,outer_lttop*%
X180275000Y-130250000D03*
%TD*%
%TO.P,S26,1*%
%TO.N,D28*%
X186725000Y-128050000D03*
%TO.P,S26,2*%
%TO.N,inner_lttop*%
X198275000Y-130250000D03*
%TD*%
%TO.P,S27,1*%
%TO.N,D3*%
X240725000Y-128050000D03*
%TO.P,S27,2*%
%TO.N,inner_rttop*%
X252275000Y-130250000D03*
%TD*%
%TO.P,S28,1*%
%TO.N,D4*%
X258725000Y-128050000D03*
%TO.P,S28,2*%
%TO.N,outer_rttop*%
X270275000Y-130250000D03*
%TD*%
D11*
%TO.P,D1,2*%
%TO.N,outer_lbottom*%
X101650000Y-105000000D03*
%TO.P,D1,1*%
%TO.N,D21*%
X98350000Y-105000000D03*
D12*
X96190000Y-105000000D03*
D13*
%TO.P,D1,2*%
%TO.N,outer_lbottom*%
X103810000Y-105000000D03*
%TD*%
D11*
%TO.P,D2,2*%
%TO.N,outer_ltop*%
X101650000Y-88000000D03*
%TO.P,D2,1*%
%TO.N,D29*%
X98350000Y-88000000D03*
D12*
X96190000Y-88000000D03*
D13*
%TO.P,D2,2*%
%TO.N,outer_ltop*%
X103810000Y-88000000D03*
%TD*%
D11*
%TO.P,D3,2*%
%TO.N,pinky_lbottom*%
X119650000Y-105000000D03*
%TO.P,D3,1*%
%TO.N,D21*%
X116350000Y-105000000D03*
D12*
X114190000Y-105000000D03*
D13*
%TO.P,D3,2*%
%TO.N,pinky_lbottom*%
X121810000Y-105000000D03*
%TD*%
D11*
%TO.P,D4,2*%
%TO.N,pinky_ltop*%
X119650000Y-88000000D03*
%TO.P,D4,1*%
%TO.N,D29*%
X116350000Y-88000000D03*
D12*
X114190000Y-88000000D03*
D13*
%TO.P,D4,2*%
%TO.N,pinky_ltop*%
X121810000Y-88000000D03*
%TD*%
D11*
%TO.P,D5,2*%
%TO.N,ring_lbottom*%
X137650000Y-105000000D03*
%TO.P,D5,1*%
%TO.N,D21*%
X134350000Y-105000000D03*
D12*
X132190000Y-105000000D03*
D13*
%TO.P,D5,2*%
%TO.N,ring_lbottom*%
X139810000Y-105000000D03*
%TD*%
D11*
%TO.P,D6,2*%
%TO.N,ring_ltop*%
X137650000Y-88000000D03*
%TO.P,D6,1*%
%TO.N,D29*%
X134350000Y-88000000D03*
D12*
X132190000Y-88000000D03*
D13*
%TO.P,D6,2*%
%TO.N,ring_ltop*%
X139810000Y-88000000D03*
%TD*%
D11*
%TO.P,D7,2*%
%TO.N,middle_lbottom*%
X155650000Y-105000000D03*
%TO.P,D7,1*%
%TO.N,D21*%
X152350000Y-105000000D03*
D12*
X150190000Y-105000000D03*
D13*
%TO.P,D7,2*%
%TO.N,middle_lbottom*%
X157810000Y-105000000D03*
%TD*%
D11*
%TO.P,D8,2*%
%TO.N,middle_ltop*%
X155650000Y-88000000D03*
%TO.P,D8,1*%
%TO.N,D29*%
X152350000Y-88000000D03*
D12*
X150190000Y-88000000D03*
D13*
%TO.P,D8,2*%
%TO.N,middle_ltop*%
X157810000Y-88000000D03*
%TD*%
D11*
%TO.P,D9,2*%
%TO.N,index_lbottom*%
X173650000Y-105000000D03*
%TO.P,D9,1*%
%TO.N,D21*%
X170350000Y-105000000D03*
D12*
X168190000Y-105000000D03*
D13*
%TO.P,D9,2*%
%TO.N,index_lbottom*%
X175810000Y-105000000D03*
%TD*%
D11*
%TO.P,D10,2*%
%TO.N,index_ltop*%
X173650000Y-88000000D03*
%TO.P,D10,1*%
%TO.N,D29*%
X170350000Y-88000000D03*
D12*
X168190000Y-88000000D03*
D13*
%TO.P,D10,2*%
%TO.N,index_ltop*%
X175810000Y-88000000D03*
%TD*%
D11*
%TO.P,D11,2*%
%TO.N,inner_lbottom*%
X191650000Y-105000000D03*
%TO.P,D11,1*%
%TO.N,D21*%
X188350000Y-105000000D03*
D12*
X186190000Y-105000000D03*
D13*
%TO.P,D11,2*%
%TO.N,inner_lbottom*%
X193810000Y-105000000D03*
%TD*%
D11*
%TO.P,D12,2*%
%TO.N,inner_ltop*%
X191650000Y-88000000D03*
%TO.P,D12,1*%
%TO.N,D29*%
X188350000Y-88000000D03*
D12*
X186190000Y-88000000D03*
D13*
%TO.P,D12,2*%
%TO.N,inner_ltop*%
X193810000Y-88000000D03*
%TD*%
D11*
%TO.P,D13,2*%
%TO.N,inner_rbottom*%
X245650000Y-105000000D03*
%TO.P,D13,1*%
%TO.N,D9*%
X242350000Y-105000000D03*
D12*
X240190000Y-105000000D03*
D13*
%TO.P,D13,2*%
%TO.N,inner_rbottom*%
X247810000Y-105000000D03*
%TD*%
D11*
%TO.P,D14,2*%
%TO.N,inner_rtop*%
X245650000Y-88000000D03*
%TO.P,D14,1*%
%TO.N,D2*%
X242350000Y-88000000D03*
D12*
X240190000Y-88000000D03*
D13*
%TO.P,D14,2*%
%TO.N,inner_rtop*%
X247810000Y-88000000D03*
%TD*%
D11*
%TO.P,D15,2*%
%TO.N,index_rbottom*%
X263650000Y-105000000D03*
%TO.P,D15,1*%
%TO.N,D9*%
X260350000Y-105000000D03*
D12*
X258190000Y-105000000D03*
D13*
%TO.P,D15,2*%
%TO.N,index_rbottom*%
X265810000Y-105000000D03*
%TD*%
D11*
%TO.P,D16,2*%
%TO.N,index_rtop*%
X263650000Y-88000000D03*
%TO.P,D16,1*%
%TO.N,D2*%
X260350000Y-88000000D03*
D12*
X258190000Y-88000000D03*
D13*
%TO.P,D16,2*%
%TO.N,index_rtop*%
X265810000Y-88000000D03*
%TD*%
D11*
%TO.P,D17,2*%
%TO.N,middle_rbottom*%
X281650000Y-105000000D03*
%TO.P,D17,1*%
%TO.N,D9*%
X278350000Y-105000000D03*
D12*
X276190000Y-105000000D03*
D13*
%TO.P,D17,2*%
%TO.N,middle_rbottom*%
X283810000Y-105000000D03*
%TD*%
D11*
%TO.P,D18,2*%
%TO.N,middle_rtop*%
X281650000Y-88000000D03*
%TO.P,D18,1*%
%TO.N,D2*%
X278350000Y-88000000D03*
D12*
X276190000Y-88000000D03*
D13*
%TO.P,D18,2*%
%TO.N,middle_rtop*%
X283810000Y-88000000D03*
%TD*%
D11*
%TO.P,D19,2*%
%TO.N,ring_rbottom*%
X299650000Y-105000000D03*
%TO.P,D19,1*%
%TO.N,D9*%
X296350000Y-105000000D03*
D12*
X294190000Y-105000000D03*
D13*
%TO.P,D19,2*%
%TO.N,ring_rbottom*%
X301810000Y-105000000D03*
%TD*%
D11*
%TO.P,D20,2*%
%TO.N,ring_rtop*%
X299650000Y-88000000D03*
%TO.P,D20,1*%
%TO.N,D2*%
X296350000Y-88000000D03*
D12*
X294190000Y-88000000D03*
D13*
%TO.P,D20,2*%
%TO.N,ring_rtop*%
X301810000Y-88000000D03*
%TD*%
D11*
%TO.P,D21,2*%
%TO.N,pinky_rbottom*%
X317650000Y-105000000D03*
%TO.P,D21,1*%
%TO.N,D9*%
X314350000Y-105000000D03*
D12*
X312190000Y-105000000D03*
D13*
%TO.P,D21,2*%
%TO.N,pinky_rbottom*%
X319810000Y-105000000D03*
%TD*%
D11*
%TO.P,D22,2*%
%TO.N,pinky_rtop*%
X317650000Y-88000000D03*
%TO.P,D22,1*%
%TO.N,D2*%
X314350000Y-88000000D03*
D12*
X312190000Y-88000000D03*
D13*
%TO.P,D22,2*%
%TO.N,pinky_rtop*%
X319810000Y-88000000D03*
%TD*%
D11*
%TO.P,D23,2*%
%TO.N,outer_rbottom*%
X335650000Y-105000000D03*
%TO.P,D23,1*%
%TO.N,D9*%
X332350000Y-105000000D03*
D12*
X330190000Y-105000000D03*
D13*
%TO.P,D23,2*%
%TO.N,outer_rbottom*%
X337810000Y-105000000D03*
%TD*%
D11*
%TO.P,D24,2*%
%TO.N,outer_rtop*%
X335650000Y-88000000D03*
%TO.P,D24,1*%
%TO.N,D2*%
X332350000Y-88000000D03*
D12*
X330190000Y-88000000D03*
D13*
%TO.P,D24,2*%
%TO.N,outer_rtop*%
X337810000Y-88000000D03*
%TD*%
D11*
%TO.P,D25,2*%
%TO.N,outer_lttop*%
X173650000Y-139000000D03*
%TO.P,D25,1*%
%TO.N,D1*%
X170350000Y-139000000D03*
D12*
X168190000Y-139000000D03*
D13*
%TO.P,D25,2*%
%TO.N,outer_lttop*%
X175810000Y-139000000D03*
%TD*%
D11*
%TO.P,D26,2*%
%TO.N,inner_lttop*%
X191650000Y-139000000D03*
%TO.P,D26,1*%
%TO.N,D1*%
X188350000Y-139000000D03*
D12*
X186190000Y-139000000D03*
D13*
%TO.P,D26,2*%
%TO.N,inner_lttop*%
X193810000Y-139000000D03*
%TD*%
D11*
%TO.P,D27,2*%
%TO.N,inner_rttop*%
X245650000Y-139000000D03*
%TO.P,D27,1*%
%TO.N,D1*%
X242350000Y-139000000D03*
D12*
X240190000Y-139000000D03*
D13*
%TO.P,D27,2*%
%TO.N,inner_rttop*%
X247810000Y-139000000D03*
%TD*%
D11*
%TO.P,D28,2*%
%TO.N,outer_rttop*%
X263650000Y-139000000D03*
%TO.P,D28,1*%
%TO.N,D1*%
X260350000Y-139000000D03*
D12*
X258190000Y-139000000D03*
D13*
%TO.P,D28,2*%
%TO.N,outer_rttop*%
X265810000Y-139000000D03*
%TD*%
D14*
%TO.P,MCU1,2*%
%TO.N,Dm*%
X209380000Y-73990000D03*
D15*
%TO.P,MCU1,1*%
%TO.N,RAW*%
X209380000Y-76530000D03*
D14*
%TO.P,MCU1,2*%
%TO.N,GND*%
X209380000Y-79070000D03*
%TO.P,MCU1,3*%
%TO.N,RST*%
X209380000Y-81610000D03*
%TO.P,MCU1,4*%
%TO.N,VCC*%
X209380000Y-84150000D03*
%TO.P,MCU1,5*%
%TO.N,D29*%
X209380000Y-86690000D03*
%TO.P,MCU1,6*%
%TO.N,D28*%
X209380000Y-89230000D03*
%TO.P,MCU1,7*%
%TO.N,D27*%
X209380000Y-91770000D03*
%TO.P,MCU1,8*%
%TO.N,D26*%
X209380000Y-94310000D03*
%TO.P,MCU1,9*%
%TO.N,D22*%
X209380000Y-96850000D03*
%TO.P,MCU1,10*%
%TO.N,D20*%
X209380000Y-99390000D03*
%TO.P,MCU1,11*%
%TO.N,D23*%
X209380000Y-101930000D03*
%TO.P,MCU1,12*%
%TO.N,D21*%
X209380000Y-104470000D03*
%TO.P,MCU1,13*%
%TO.N,D12*%
X222080000Y-104470000D03*
%TO.P,MCU1,14*%
%TO.N,D13*%
X219540000Y-104470000D03*
%TO.P,MCU1,15*%
%TO.N,D14*%
X217000000Y-104470000D03*
%TO.P,MCU1,16*%
%TO.N,D15*%
X214460000Y-104470000D03*
%TO.P,MCU1,17*%
%TO.N,D16*%
X211920000Y-104470000D03*
%TO.P,MCU1,18*%
%TO.N,Dp*%
X224620000Y-73990000D03*
%TO.P,MCU1,19*%
%TO.N,D0*%
X224620000Y-76530000D03*
%TO.P,MCU1,20*%
%TO.N,D1*%
X224620000Y-79070000D03*
%TO.P,MCU1,21*%
%TO.N,GND*%
X224620000Y-81610000D03*
%TO.P,MCU1,22*%
X224620000Y-84150000D03*
%TO.P,MCU1,23*%
%TO.N,D2*%
X224620000Y-86690000D03*
%TO.P,MCU1,24*%
%TO.N,D3*%
X224620000Y-89230000D03*
%TO.P,MCU1,25*%
%TO.N,D4*%
X224620000Y-91770000D03*
%TO.P,MCU1,26*%
%TO.N,D5*%
X224620000Y-94310000D03*
%TO.P,MCU1,27*%
%TO.N,D6*%
X224620000Y-96850000D03*
%TO.P,MCU1,28*%
%TO.N,D7*%
X224620000Y-99390000D03*
%TO.P,MCU1,29*%
%TO.N,D8*%
X224620000Y-101930000D03*
%TO.P,MCU1,30*%
%TO.N,D9*%
X224620000Y-104470000D03*
%TD*%
D16*
%TO.P,B1,1*%
%TO.N,GND*%
X213900000Y-89650000D03*
X220100000Y-89650000D03*
%TO.P,B1,2*%
%TO.N,RST*%
X213900000Y-93350000D03*
X220100000Y-93350000D03*
%TD*%
D17*
%TO.P,_1,1*%
%TO.N,N/C*%
X109000000Y-91500000D03*
D18*
X110629630Y-91500000D03*
X110152322Y-92652322D03*
X109000000Y-93129630D03*
X107847678Y-92652322D03*
X107370370Y-91500000D03*
X107847678Y-90347678D03*
X109000000Y-89870370D03*
X110152322Y-90347678D03*
%TD*%
D17*
%TO.P,_2,1*%
%TO.N,N/C*%
X181000000Y-91500000D03*
D18*
X182629630Y-91500000D03*
X182152322Y-92652322D03*
X181000000Y-93129630D03*
X179847678Y-92652322D03*
X179370370Y-91500000D03*
X179847678Y-90347678D03*
X181000000Y-89870370D03*
X182152322Y-90347678D03*
%TD*%
D17*
%TO.P,_3,1*%
%TO.N,N/C*%
X181000000Y-108500000D03*
D18*
X182629630Y-108500000D03*
X182152322Y-109652322D03*
X181000000Y-110129630D03*
X179847678Y-109652322D03*
X179370370Y-108500000D03*
X179847678Y-107347678D03*
X181000000Y-106870370D03*
X182152322Y-107347678D03*
%TD*%
D17*
%TO.P,_4,1*%
%TO.N,N/C*%
X199000000Y-91500000D03*
D18*
X200629630Y-91500000D03*
X200152322Y-92652322D03*
X199000000Y-93129630D03*
X197847678Y-92652322D03*
X197370370Y-91500000D03*
X197847678Y-90347678D03*
X199000000Y-89870370D03*
X200152322Y-90347678D03*
%TD*%
D17*
%TO.P,_5,1*%
%TO.N,N/C*%
X199000000Y-117000000D03*
D18*
X200629630Y-117000000D03*
X200152322Y-118152322D03*
X199000000Y-118629630D03*
X197847678Y-118152322D03*
X197370370Y-117000000D03*
X197847678Y-115847678D03*
X199000000Y-115370370D03*
X200152322Y-115847678D03*
%TD*%
D17*
%TO.P,_6,1*%
%TO.N,N/C*%
X181000000Y-125500000D03*
D18*
X182629630Y-125500000D03*
X182152322Y-126652322D03*
X181000000Y-127129630D03*
X179847678Y-126652322D03*
X179370370Y-125500000D03*
X179847678Y-124347678D03*
X181000000Y-123870370D03*
X182152322Y-124347678D03*
%TD*%
D17*
%TO.P,_7,1*%
%TO.N,N/C*%
X325000000Y-91500000D03*
D18*
X326629630Y-91500000D03*
X326152322Y-92652322D03*
X325000000Y-93129630D03*
X323847678Y-92652322D03*
X323370370Y-91500000D03*
X323847678Y-90347678D03*
X325000000Y-89870370D03*
X326152322Y-90347678D03*
%TD*%
D17*
%TO.P,_8,1*%
%TO.N,N/C*%
X253000000Y-91500000D03*
D18*
X254629630Y-91500000D03*
X254152322Y-92652322D03*
X253000000Y-93129630D03*
X251847678Y-92652322D03*
X251370370Y-91500000D03*
X251847678Y-90347678D03*
X253000000Y-89870370D03*
X254152322Y-90347678D03*
%TD*%
D17*
%TO.P,_9,1*%
%TO.N,N/C*%
X253000000Y-108500000D03*
D18*
X254629630Y-108500000D03*
X254152322Y-109652322D03*
X253000000Y-110129630D03*
X251847678Y-109652322D03*
X251370370Y-108500000D03*
X251847678Y-107347678D03*
X253000000Y-106870370D03*
X254152322Y-107347678D03*
%TD*%
D17*
%TO.P,_10,1*%
%TO.N,N/C*%
X235000000Y-91500000D03*
D18*
X236629630Y-91500000D03*
X236152322Y-92652322D03*
X235000000Y-93129630D03*
X233847678Y-92652322D03*
X233370370Y-91500000D03*
X233847678Y-90347678D03*
X235000000Y-89870370D03*
X236152322Y-90347678D03*
%TD*%
D17*
%TO.P,_11,1*%
%TO.N,N/C*%
X235000000Y-117000000D03*
D18*
X236629630Y-117000000D03*
X236152322Y-118152322D03*
X235000000Y-118629630D03*
X233847678Y-118152322D03*
X233370370Y-117000000D03*
X233847678Y-115847678D03*
X235000000Y-115370370D03*
X236152322Y-115847678D03*
%TD*%
D17*
%TO.P,_12,1*%
%TO.N,N/C*%
X253000000Y-125500000D03*
D18*
X254629630Y-125500000D03*
X254152322Y-126652322D03*
X253000000Y-127129630D03*
X251847678Y-126652322D03*
X251370370Y-125500000D03*
X251847678Y-124347678D03*
X253000000Y-123870370D03*
X254152322Y-124347678D03*
%TD*%
D17*
%TO.P,_13,1*%
%TO.N,N/C*%
X217000000Y-134000000D03*
D18*
X218629630Y-134000000D03*
X218152322Y-135152322D03*
X217000000Y-135629630D03*
X215847678Y-135152322D03*
X215370370Y-134000000D03*
X215847678Y-132847678D03*
X217000000Y-132370370D03*
X218152322Y-132847678D03*
%TD*%
D19*
%TO.N,D8*%
X330725000Y-94050000D02*
X327000000Y-97775000D01*
X229500000Y-141189050D02*
X229500000Y-102500000D01*
X327000000Y-97775000D02*
X327000000Y-109500000D01*
X271137810Y-143500000D02*
X231810950Y-143500000D01*
X229500000Y-102500000D02*
X228930000Y-101930000D01*
X272500000Y-110000000D02*
X272500000Y-142137810D01*
X231810950Y-143500000D02*
X229500000Y-141189050D01*
X273000000Y-109500000D02*
X272500000Y-110000000D01*
X327000000Y-109500000D02*
X273000000Y-109500000D01*
X272500000Y-142137810D02*
X271137810Y-143500000D01*
X228930000Y-101930000D02*
X224620000Y-101930000D01*
%TO.N,GND*%
X209380000Y-79070000D02*
X222080000Y-79070000D01*
X222080000Y-79070000D02*
X224620000Y-81610000D01*
X224620000Y-84150000D02*
X224620000Y-81610000D01*
X220100000Y-89650000D02*
X220100000Y-88670000D01*
X220100000Y-88670000D02*
X224620000Y-84150000D01*
X213900000Y-89650000D02*
X220100000Y-89650000D01*
%TO.N,RST*%
X213900000Y-93350000D02*
X210582300Y-90032300D01*
X210582300Y-82812300D02*
X209380000Y-81610000D01*
X210582300Y-90032300D02*
X210582300Y-82812300D01*
X213900000Y-93350000D02*
X220100000Y-93350000D01*
%TO.N,D7*%
X309000000Y-108500000D02*
X308500000Y-109000000D01*
X272862190Y-109000000D02*
X272000000Y-109862190D01*
X229341000Y-99390000D02*
X224620000Y-99390000D01*
X271000000Y-143000000D02*
X231948760Y-143000000D01*
X308500000Y-109000000D02*
X272862190Y-109000000D01*
X272000000Y-109862190D02*
X272000000Y-142000000D01*
X231948760Y-143000000D02*
X230000000Y-141051240D01*
X309000000Y-97775000D02*
X309000000Y-108500000D01*
X230000000Y-141051240D02*
X230000000Y-100049000D01*
X272000000Y-142000000D02*
X271000000Y-143000000D01*
X230000000Y-100049000D02*
X229341000Y-99390000D01*
X312725000Y-94050000D02*
X309000000Y-97775000D01*
%TO.N,D6*%
X294725000Y-94050000D02*
X291000000Y-97775000D01*
X262068905Y-142500000D02*
X232086570Y-142500000D01*
X290500000Y-108500000D02*
X265500000Y-108500000D01*
X291000000Y-97775000D02*
X291000000Y-108000000D01*
X291000000Y-108000000D02*
X290500000Y-108500000D01*
X265500000Y-108500000D02*
X265000000Y-109000000D01*
X265000000Y-136137810D02*
X264137810Y-137000000D01*
X264137810Y-137000000D02*
X262862190Y-137000000D01*
X265000000Y-109000000D02*
X265000000Y-136137810D01*
X262862190Y-137000000D02*
X262500000Y-137362190D01*
X262500000Y-137362190D02*
X262500000Y-142068905D01*
X262500000Y-142068905D02*
X262068905Y-142500000D01*
X232086570Y-142500000D02*
X230500000Y-140913430D01*
X230500000Y-140913430D02*
X230500000Y-97500000D01*
X229850000Y-96850000D02*
X224620000Y-96850000D01*
X230500000Y-97500000D02*
X229850000Y-96850000D01*
%TO.N,D5*%
X276725000Y-94050000D02*
X273000000Y-97775000D01*
X261000000Y-142000000D02*
X232224380Y-142000000D01*
X273000000Y-97775000D02*
X273000000Y-107500000D01*
X264000000Y-136500000D02*
X262000000Y-136500000D01*
X272500000Y-108000000D02*
X265362190Y-108000000D01*
X273000000Y-107500000D02*
X272500000Y-108000000D01*
X265362190Y-108000000D02*
X264500000Y-108862190D01*
X231000000Y-95000000D02*
X230310000Y-94310000D01*
X261500000Y-137000000D02*
X261500000Y-141500000D01*
X264500000Y-108862190D02*
X264500000Y-136000000D01*
X264500000Y-136000000D02*
X264000000Y-136500000D01*
X261500000Y-141500000D02*
X261000000Y-142000000D01*
X262000000Y-136500000D02*
X261500000Y-137000000D01*
X232224380Y-142000000D02*
X231000000Y-140775620D01*
X231000000Y-140775620D02*
X231000000Y-95000000D01*
X230310000Y-94310000D02*
X224620000Y-94310000D01*
%TO.N,D4*%
X255000000Y-131775000D02*
X255000000Y-141000000D01*
X254549000Y-141451000D02*
X232313190Y-141451000D01*
X258725000Y-128050000D02*
X255000000Y-131775000D01*
X232313190Y-141451000D02*
X231500000Y-140637810D01*
X255000000Y-141000000D02*
X254549000Y-141451000D01*
X231500000Y-140637810D02*
X231500000Y-92500000D01*
X231500000Y-92500000D02*
X230770000Y-91770000D01*
X230770000Y-91770000D02*
X224620000Y-91770000D01*
%TO.N,D3*%
X240725000Y-128050000D02*
X237000000Y-131775000D01*
X237000000Y-140500000D02*
X236500000Y-141000000D01*
X237000000Y-131775000D02*
X237000000Y-140500000D01*
X236500000Y-141000000D02*
X232500000Y-141000000D01*
X232500000Y-141000000D02*
X232000000Y-140500000D01*
X232000000Y-140500000D02*
X232000000Y-90000000D01*
X232000000Y-90000000D02*
X231230000Y-89230000D01*
X231230000Y-89230000D02*
X224620000Y-89230000D01*
%TO.N,D23*%
X93000000Y-97775000D02*
X93000000Y-107000000D01*
X163000000Y-108500000D02*
X163000000Y-141551240D01*
X93000000Y-107000000D02*
X94000000Y-108000000D01*
X94000000Y-108000000D02*
X162500000Y-108000000D01*
X162500000Y-108000000D02*
X163000000Y-108500000D01*
X205070000Y-101930000D02*
X209380000Y-101930000D01*
X96725000Y-94050000D02*
X93000000Y-97775000D01*
X204500000Y-140689049D02*
X204500000Y-102500000D01*
X204500000Y-102500000D02*
X205070000Y-101930000D01*
X163000000Y-141551240D02*
X164948760Y-143500000D01*
X164948760Y-143500000D02*
X201689049Y-143500000D01*
X201689049Y-143500000D02*
X204500000Y-140689049D01*
%TO.N,D20*%
X112000000Y-107500000D02*
X162637810Y-107500000D01*
X204610000Y-99390000D02*
X209380000Y-99390000D01*
X162637810Y-107500000D02*
X163500000Y-108362190D01*
X114725000Y-94050000D02*
X111000000Y-97775000D01*
X111000000Y-97775000D02*
X111000000Y-106500000D01*
X204000000Y-140551239D02*
X204000000Y-100000000D01*
X111000000Y-106500000D02*
X112000000Y-107500000D01*
X163500000Y-108362190D02*
X163500000Y-141413430D01*
X163500000Y-141413430D02*
X165086570Y-143000000D01*
X201551239Y-143000000D02*
X204000000Y-140551239D01*
X165086570Y-143000000D02*
X201551239Y-143000000D01*
X204000000Y-100000000D02*
X204610000Y-99390000D01*
%TO.N,D22*%
X132725000Y-94050000D02*
X129000000Y-97775000D01*
X129000000Y-97775000D02*
X129000000Y-106000000D01*
X130000000Y-107000000D02*
X163000000Y-107000000D01*
X129000000Y-106000000D02*
X130000000Y-107000000D01*
X164000000Y-108000000D02*
X164000000Y-141275620D01*
X203500000Y-97500000D02*
X204150000Y-96850000D01*
X204150000Y-96850000D02*
X209380000Y-96850000D01*
X163000000Y-107000000D02*
X164000000Y-108000000D01*
X165224380Y-142500000D02*
X201413429Y-142500000D01*
X201413429Y-142500000D02*
X203500000Y-140413429D01*
X164000000Y-141275620D02*
X165224380Y-142500000D01*
X203500000Y-140413429D02*
X203500000Y-97500000D01*
%TO.N,D26*%
X147000000Y-106000000D02*
X147500000Y-106500000D01*
X150725000Y-94050000D02*
X147000000Y-97775000D01*
X164549000Y-141186810D02*
X165362190Y-142000000D01*
X163137810Y-106500000D02*
X164549000Y-107911190D01*
X147500000Y-106500000D02*
X163137810Y-106500000D01*
X147000000Y-97775000D02*
X147000000Y-106000000D01*
X164549000Y-107911190D02*
X164549000Y-141186810D01*
X201275619Y-142000000D02*
X203000000Y-140275619D01*
X203000000Y-140275619D02*
X203000000Y-95000000D01*
X203000000Y-95000000D02*
X203690000Y-94310000D01*
X165362190Y-142000000D02*
X201275619Y-142000000D01*
X203690000Y-94310000D02*
X209380000Y-94310000D01*
%TO.N,D27*%
X168725000Y-128050000D02*
X165000000Y-131775000D01*
X203230000Y-91770000D02*
X209380000Y-91770000D01*
X165000000Y-141000000D02*
X165451000Y-141451000D01*
X165451000Y-141451000D02*
X201186809Y-141451000D01*
X165000000Y-131775000D02*
X165000000Y-141000000D01*
X201186809Y-141451000D02*
X202500000Y-140137809D01*
X202500000Y-140137809D02*
X202500000Y-92500000D01*
X202500000Y-92500000D02*
X203230000Y-91770000D01*
%TO.N,D28*%
X183000000Y-131775000D02*
X183000000Y-140500000D01*
X200999999Y-141000000D02*
X202000000Y-139999999D01*
X186725000Y-128050000D02*
X183000000Y-131775000D01*
X183000000Y-140500000D02*
X183500000Y-141000000D01*
X202000000Y-139999999D02*
X202000000Y-90000000D01*
X183500000Y-141000000D02*
X200999999Y-141000000D01*
X202770000Y-89230000D02*
X209380000Y-89230000D01*
X202000000Y-90000000D02*
X202770000Y-89230000D01*
%TO.N,D27*%
X168725000Y-94050000D02*
X165000000Y-97775000D01*
X165000000Y-97775000D02*
X165000000Y-124325000D01*
X165000000Y-124325000D02*
X168725000Y-128050000D01*
%TO.N,outer_rttop*%
X263650000Y-139000000D02*
X265810000Y-139000000D01*
%TO.N,D1*%
X258190000Y-139000000D02*
X260350000Y-139000000D01*
%TO.N,inner_rttop*%
X245650000Y-139000000D02*
X247810000Y-139000000D01*
%TO.N,D1*%
X240190000Y-139000000D02*
X242350000Y-139000000D01*
%TO.N,D9*%
X242350000Y-105000000D02*
X240190000Y-105000000D01*
%TO.N,inner_rbottom*%
X247810000Y-105000000D02*
X245650000Y-105000000D01*
%TO.N,D9*%
X260350000Y-105000000D02*
X258190000Y-105000000D01*
%TO.N,index_rbottom*%
X265810000Y-105000000D02*
X263650000Y-105000000D01*
%TO.N,D9*%
X278350000Y-105000000D02*
X276190000Y-105000000D01*
%TO.N,middle_rbottom*%
X283810000Y-105000000D02*
X281650000Y-105000000D01*
%TO.N,D9*%
X296350000Y-105000000D02*
X294190000Y-105000000D01*
%TO.N,ring_rbottom*%
X301810000Y-105000000D02*
X299650000Y-105000000D01*
%TO.N,D9*%
X314350000Y-105000000D02*
X312190000Y-105000000D01*
%TO.N,pinky_rbottom*%
X319810000Y-105000000D02*
X317650000Y-105000000D01*
%TO.N,D9*%
X332350000Y-105000000D02*
X330190000Y-105000000D01*
%TO.N,outer_rbottom*%
X337810000Y-105000000D02*
X335650000Y-105000000D01*
%TO.N,outer_rtop*%
X335650000Y-88000000D02*
X337810000Y-88000000D01*
%TO.N,D2*%
X330190000Y-88000000D02*
X332350000Y-88000000D01*
%TO.N,pinky_rtop*%
X317650000Y-88000000D02*
X319810000Y-88000000D01*
%TO.N,D2*%
X312190000Y-88000000D02*
X314350000Y-88000000D01*
%TO.N,ring_rtop*%
X299650000Y-88000000D02*
X301810000Y-88000000D01*
%TO.N,D2*%
X294190000Y-88000000D02*
X296350000Y-88000000D01*
%TO.N,middle_rtop*%
X281650000Y-88000000D02*
X283810000Y-88000000D01*
%TO.N,D2*%
X276190000Y-88000000D02*
X278350000Y-88000000D01*
%TO.N,index_rtop*%
X263650000Y-88000000D02*
X265810000Y-88000000D01*
%TO.N,D2*%
X258190000Y-88000000D02*
X260350000Y-88000000D01*
%TO.N,inner_rtop*%
X245650000Y-88000000D02*
X247810000Y-88000000D01*
%TO.N,D2*%
X240190000Y-88000000D02*
X242350000Y-88000000D01*
%TO.N,inner_ltop*%
X191650000Y-88000000D02*
X193810000Y-88000000D01*
%TO.N,D29*%
X186190000Y-88000000D02*
X188350000Y-88000000D01*
%TO.N,index_ltop*%
X173650000Y-88000000D02*
X175810000Y-88000000D01*
%TO.N,D29*%
X168190000Y-88000000D02*
X170350000Y-88000000D01*
%TO.N,middle_ltop*%
X155650000Y-88000000D02*
X157810000Y-88000000D01*
%TO.N,D29*%
X150190000Y-88000000D02*
X152350000Y-88000000D01*
%TO.N,ring_ltop*%
X137650000Y-88000000D02*
X139810000Y-88000000D01*
%TO.N,D29*%
X132190000Y-88000000D02*
X134350000Y-88000000D01*
%TO.N,pinky_ltop*%
X119650000Y-88000000D02*
X121810000Y-88000000D01*
%TO.N,D29*%
X114190000Y-88000000D02*
X116350000Y-88000000D01*
%TO.N,outer_ltop*%
X101650000Y-88000000D02*
X103810000Y-88000000D01*
%TO.N,D29*%
X96190000Y-88000000D02*
X98350000Y-88000000D01*
%TO.N,D21*%
X98350000Y-105000000D02*
X96190000Y-105000000D01*
%TO.N,outer_lbottom*%
X103810000Y-105000000D02*
X101650000Y-105000000D01*
%TO.N,D21*%
X116350000Y-105000000D02*
X114190000Y-105000000D01*
%TO.N,pinky_lbottom*%
X121810000Y-105000000D02*
X119650000Y-105000000D01*
%TO.N,D21*%
X134350000Y-105000000D02*
X132190000Y-105000000D01*
%TO.N,ring_lbottom*%
X139810000Y-105000000D02*
X137650000Y-105000000D01*
%TO.N,D21*%
X152350000Y-105000000D02*
X150190000Y-105000000D01*
%TO.N,middle_lbottom*%
X157810000Y-105000000D02*
X155650000Y-105000000D01*
%TO.N,D21*%
X170350000Y-105000000D02*
X168190000Y-105000000D01*
%TO.N,index_lbottom*%
X175810000Y-105000000D02*
X173650000Y-105000000D01*
%TO.N,D21*%
X188350000Y-105000000D02*
X186190000Y-105000000D01*
%TO.N,inner_lbottom*%
X193810000Y-105000000D02*
X191650000Y-105000000D01*
%TO.N,D1*%
X170350000Y-139000000D02*
X168190000Y-139000000D01*
%TO.N,outer_lttop*%
X175810000Y-139000000D02*
X173650000Y-139000000D01*
%TO.N,inner_lttop*%
X191650000Y-139000000D02*
X193810000Y-139000000D01*
%TO.N,D1*%
X186190000Y-139000000D02*
X188350000Y-139000000D01*
%TO.N,index_rbottom*%
X265810000Y-105000000D02*
X270275000Y-100535000D01*
X270275000Y-100535000D02*
X270275000Y-96250000D01*
%TO.N,middle_rbottom*%
X283810000Y-105000000D02*
X288275000Y-100535000D01*
X288275000Y-100535000D02*
X288275000Y-96250000D01*
%TO.N,ring_rbottom*%
X301810000Y-105000000D02*
X306275000Y-100535000D01*
X306275000Y-100535000D02*
X306275000Y-96250000D01*
%TO.N,pinky_rbottom*%
X319810000Y-105000000D02*
X324275000Y-100535000D01*
X324275000Y-100535000D02*
X324275000Y-96250000D01*
%TO.N,outer_rbottom*%
X337810000Y-105000000D02*
X342275000Y-100535000D01*
X342275000Y-100535000D02*
X342275000Y-96250000D01*
%TO.N,outer_rtop*%
X337810000Y-88000000D02*
X342275000Y-83535000D01*
X342275000Y-83535000D02*
X342275000Y-79250000D01*
%TO.N,pinky_rtop*%
X319810000Y-88000000D02*
X324275000Y-83535000D01*
X324275000Y-83535000D02*
X324275000Y-79250000D01*
%TO.N,ring_rtop*%
X301810000Y-88000000D02*
X306275000Y-83535000D01*
X306275000Y-83535000D02*
X306275000Y-79250000D01*
%TO.N,middle_rtop*%
X283810000Y-88000000D02*
X288275000Y-83535000D01*
X288275000Y-83535000D02*
X288275000Y-79250000D01*
%TO.N,index_rtop*%
X265810000Y-88000000D02*
X270275000Y-83535000D01*
X270275000Y-83535000D02*
X270275000Y-79250000D01*
%TO.N,inner_rtop*%
X247810000Y-88000000D02*
X252275000Y-83535000D01*
X252275000Y-83535000D02*
X252275000Y-79250000D01*
%TO.N,inner_rbottom*%
X247810000Y-105000000D02*
X252275000Y-100535000D01*
X252275000Y-100535000D02*
X252275000Y-96250000D01*
%TO.N,outer_rttop*%
X265810000Y-139000000D02*
X270275000Y-134535000D01*
X270275000Y-134535000D02*
X270275000Y-130250000D01*
%TO.N,inner_rttop*%
X247810000Y-139000000D02*
X252275000Y-134535000D01*
X252275000Y-134535000D02*
X252275000Y-130250000D01*
%TO.N,D8*%
X330725000Y-77050000D02*
X327000000Y-80775000D01*
X327000000Y-80775000D02*
X327000000Y-89927696D01*
X327000000Y-89927696D02*
X330725000Y-93652696D01*
X330725000Y-93652696D02*
X330725000Y-94050000D01*
%TO.N,D7*%
X312725000Y-77050000D02*
X309273100Y-80501900D01*
X309273100Y-80501900D02*
X309273100Y-90598100D01*
X309273100Y-90598100D02*
X312725000Y-94050000D01*
%TO.N,D6*%
X294725000Y-77050000D02*
X291273100Y-80501900D01*
X291273100Y-80501900D02*
X291273100Y-90598100D01*
X291273100Y-90598100D02*
X294725000Y-94050000D01*
%TO.N,D5*%
X276725000Y-77050000D02*
X273273100Y-80501900D01*
X273273100Y-80501900D02*
X273273100Y-90598100D01*
X273273100Y-90598100D02*
X276725000Y-94050000D01*
%TO.N,D4*%
X258725000Y-94050000D02*
X255000000Y-97775000D01*
X255000000Y-97775000D02*
X255000000Y-105500000D01*
X255000000Y-105500000D02*
X258725000Y-109225000D01*
X258725000Y-109225000D02*
X258725000Y-128050000D01*
%TO.N,D3*%
X240725000Y-94050000D02*
X237000000Y-97775000D01*
X237000000Y-105500000D02*
X240725000Y-109225000D01*
X237000000Y-97775000D02*
X237000000Y-105500000D01*
X240725000Y-109225000D02*
X240725000Y-128050000D01*
%TO.N,D4*%
X258725000Y-77050000D02*
X255273100Y-80501900D01*
X258725000Y-93652696D02*
X258725000Y-94050000D01*
X255273100Y-80501900D02*
X255273100Y-90200796D01*
X255273100Y-90200796D02*
X258725000Y-93652696D01*
%TO.N,D3*%
X240725000Y-77050000D02*
X237273100Y-80501900D01*
X237273100Y-80501900D02*
X237273100Y-90200796D01*
X237273100Y-90200796D02*
X240725000Y-93652696D01*
X240725000Y-93652696D02*
X240725000Y-94050000D01*
%TO.N,D28*%
X186725000Y-94050000D02*
X183273100Y-97501900D01*
X183273100Y-105773100D02*
X186725000Y-109225000D01*
X183273100Y-97501900D02*
X183273100Y-105773100D01*
X186725000Y-109225000D02*
X186725000Y-128050000D01*
X186725000Y-77050000D02*
X183273100Y-80501900D01*
X186725000Y-93652696D02*
X186725000Y-94050000D01*
X183273100Y-80501900D02*
X183273100Y-90200796D01*
X183273100Y-90200796D02*
X186725000Y-93652696D01*
%TO.N,D27*%
X168725000Y-77050000D02*
X165273100Y-80501900D01*
X165273100Y-80501900D02*
X165273100Y-90598100D01*
X165273100Y-90598100D02*
X168725000Y-94050000D01*
%TO.N,D26*%
X150725000Y-77050000D02*
X147273100Y-80501900D01*
X147273100Y-80501900D02*
X147273100Y-90598100D01*
X147273100Y-90598100D02*
X150725000Y-94050000D01*
%TO.N,D22*%
X132725000Y-77050000D02*
X129273100Y-80501900D01*
X129273100Y-80501900D02*
X129273100Y-90598100D01*
X129273100Y-90598100D02*
X132725000Y-94050000D01*
%TO.N,D20*%
X114725000Y-77050000D02*
X111273100Y-80501900D01*
X111273100Y-80501900D02*
X111273100Y-90200796D01*
X111273100Y-90200796D02*
X114725000Y-93652696D01*
X114725000Y-93652696D02*
X114725000Y-94050000D01*
%TO.N,D23*%
X96725000Y-77050000D02*
X93273100Y-80501900D01*
X93273100Y-80501900D02*
X93273100Y-90598100D01*
X93273100Y-90598100D02*
X96725000Y-94050000D01*
%TO.N,inner_lttop*%
X193810000Y-139000000D02*
X198275000Y-134535000D01*
X198275000Y-134535000D02*
X198275000Y-130250000D01*
%TO.N,outer_lttop*%
X175810000Y-139000000D02*
X180275000Y-134535000D01*
X180275000Y-134535000D02*
X180275000Y-130250000D01*
%TO.N,index_lbottom*%
X175810000Y-105000000D02*
X180275000Y-100535000D01*
X180275000Y-100535000D02*
X180275000Y-96250000D01*
%TO.N,middle_lbottom*%
X157810000Y-105000000D02*
X162275000Y-100535000D01*
X162275000Y-100535000D02*
X162275000Y-96250000D01*
%TO.N,ring_lbottom*%
X139810000Y-105000000D02*
X144275000Y-100535000D01*
X144275000Y-100535000D02*
X144275000Y-96250000D01*
%TO.N,pinky_lbottom*%
X121810000Y-105000000D02*
X126275000Y-100535000D01*
X126275000Y-100535000D02*
X126275000Y-96250000D01*
%TO.N,outer_lbottom*%
X103810000Y-105000000D02*
X108275000Y-100535000D01*
X108275000Y-100535000D02*
X108275000Y-96250000D01*
%TO.N,outer_ltop*%
X103810000Y-88000000D02*
X108275000Y-83535000D01*
X108275000Y-83535000D02*
X108275000Y-79250000D01*
%TO.N,pinky_ltop*%
X121810000Y-88000000D02*
X126275000Y-83535000D01*
X126275000Y-83535000D02*
X126275000Y-79250000D01*
%TO.N,ring_ltop*%
X139810000Y-88000000D02*
X144275000Y-83535000D01*
X144275000Y-83535000D02*
X144275000Y-79250000D01*
%TO.N,middle_ltop*%
X157810000Y-88000000D02*
X162275000Y-83535000D01*
X162275000Y-83535000D02*
X162275000Y-79250000D01*
%TO.N,index_ltop*%
X175810000Y-88000000D02*
X180275000Y-83535000D01*
X180275000Y-83535000D02*
X180275000Y-79250000D01*
%TO.N,inner_ltop*%
X193810000Y-88000000D02*
X198275000Y-83535000D01*
X198275000Y-83535000D02*
X198275000Y-79250000D01*
%TO.N,inner_lbottom*%
X193810000Y-105000000D02*
X198275000Y-100535000D01*
X198275000Y-100535000D02*
X198275000Y-96250000D01*
%TD*%
M02*
