%TF.GenerationSoftware,KiCad,Pcbnew,9.0.0*%
%TF.CreationDate,2025-03-09T18:38:06+01:00*%
%TF.ProjectId,pcb,7063622e-6b69-4636-9164-5f7063625858,v1.0.0*%
%TF.SameCoordinates,Original*%
%TF.FileFunction,Soldermask,Bot*%
%TF.FilePolarity,Negative*%
%FSLAX46Y46*%
G04 Gerber Fmt 4.6, Leading zero omitted, Abs format (unit mm)*
G04 Created by KiCad (PCBNEW 9.0.0) date 2025-03-09 18:38:06*
%MOMM*%
%LPD*%
G01*
G04 APERTURE LIST*
G04 Aperture macros list*
%AMRoundRect*
0 Rectangle with rounded corners*
0 $1 Rounding radius*
0 $2 $3 $4 $5 $6 $7 $8 $9 X,Y pos of 4 corners*
0 Add a 4 corners polygon primitive as box body*
4,1,4,$2,$3,$4,$5,$6,$7,$8,$9,$2,$3,0*
0 Add four circle primitives for the rounded corners*
1,1,$1+$1,$2,$3*
1,1,$1+$1,$4,$5*
1,1,$1+$1,$6,$7*
1,1,$1+$1,$8,$9*
0 Add four rect primitives between the rounded corners*
20,1,$1+$1,$2,$3,$4,$5,0*
20,1,$1+$1,$4,$5,$6,$7,0*
20,1,$1+$1,$6,$7,$8,$9,0*
20,1,$1+$1,$8,$9,$2,$3,0*%
G04 Aperture macros list end*
%ADD10C,1.801800*%
%ADD11C,3.100000*%
%ADD12C,3.529000*%
%ADD13RoundRect,0.050000X-1.300000X-1.300000X1.300000X-1.300000X1.300000X1.300000X-1.300000X1.300000X0*%
%ADD14RoundRect,0.050000X-0.889000X-0.889000X0.889000X-0.889000X0.889000X0.889000X-0.889000X0.889000X0*%
%ADD15RoundRect,0.050000X-0.450000X-0.600000X0.450000X-0.600000X0.450000X0.600000X-0.450000X0.600000X0*%
%ADD16C,2.005000*%
%ADD17C,0.800000*%
%ADD18C,4.500000*%
%ADD19O,1.900000X1.900000*%
%ADD20O,1.600000X1.600000*%
%ADD21O,1.800000X1.800000*%
%ADD22RoundRect,0.050000X-0.850000X-0.850000X0.850000X-0.850000X0.850000X0.850000X-0.850000X0.850000X0*%
G04 APERTURE END LIST*
D10*
%TO.C,S25*%
X217500000Y-134000000D03*
D11*
X223000000Y-128050000D03*
D12*
X223000000Y-134000000D03*
D11*
X228000000Y-130250000D03*
D10*
X228500000Y-134000000D03*
D13*
X219725000Y-128050000D03*
X231275000Y-130250000D03*
%TD*%
D10*
%TO.C,S12*%
X217500000Y-83000000D03*
D11*
X223000000Y-77050000D03*
D12*
X223000000Y-83000000D03*
D11*
X228000000Y-79250000D03*
D10*
X228500000Y-83000000D03*
D13*
X219725000Y-77050000D03*
X231275000Y-79250000D03*
%TD*%
D10*
%TO.C,S24*%
X166500000Y-134000000D03*
D11*
X172000000Y-128050000D03*
D12*
X172000000Y-134000000D03*
D11*
X177000000Y-130250000D03*
D10*
X177500000Y-134000000D03*
D13*
X168725000Y-128050000D03*
X180275000Y-130250000D03*
%TD*%
D10*
%TO.C,S8*%
X148500000Y-83000000D03*
D11*
X154000000Y-77050000D03*
D12*
X154000000Y-83000000D03*
D11*
X159000000Y-79250000D03*
D10*
X159500000Y-83000000D03*
D13*
X150725000Y-77050000D03*
X162275000Y-79250000D03*
%TD*%
D14*
%TO.C,D7*%
X150190000Y-105000000D03*
D15*
X152350000Y-105000000D03*
X155650000Y-105000000D03*
D16*
X157810000Y-105000000D03*
%TD*%
D17*
%TO.C,_8*%
X195850000Y-139000000D03*
X196333274Y-137833274D03*
X196333274Y-140166726D03*
X197500000Y-137350000D03*
D18*
X197500000Y-139000000D03*
D17*
X197500000Y-140650000D03*
X198666726Y-137833274D03*
X198666726Y-140166726D03*
X199150000Y-139000000D03*
%TD*%
D14*
%TO.C,D14*%
X237190000Y-88000000D03*
D15*
X239350000Y-88000000D03*
X242650000Y-88000000D03*
D16*
X244810000Y-88000000D03*
%TD*%
D14*
%TO.C,D18*%
X273190000Y-88000000D03*
D15*
X275350000Y-88000000D03*
X278650000Y-88000000D03*
D16*
X280810000Y-88000000D03*
%TD*%
D10*
%TO.C,S4*%
X112500000Y-83000000D03*
D11*
X118000000Y-77050000D03*
D12*
X118000000Y-83000000D03*
D11*
X123000000Y-79250000D03*
D10*
X123500000Y-83000000D03*
D13*
X114725000Y-77050000D03*
X126275000Y-79250000D03*
%TD*%
D14*
%TO.C,D3*%
X114190000Y-105000000D03*
D15*
X116350000Y-105000000D03*
X119650000Y-105000000D03*
D16*
X121810000Y-105000000D03*
%TD*%
D10*
%TO.C,S16*%
X253500000Y-83000000D03*
D11*
X259000000Y-77050000D03*
D12*
X259000000Y-83000000D03*
D11*
X264000000Y-79250000D03*
D10*
X264500000Y-83000000D03*
D13*
X255725000Y-77050000D03*
X267275000Y-79250000D03*
%TD*%
D10*
%TO.C,S14*%
X235500000Y-83000000D03*
D11*
X241000000Y-77050000D03*
D12*
X241000000Y-83000000D03*
D11*
X246000000Y-79250000D03*
D10*
X246500000Y-83000000D03*
D13*
X237725000Y-77050000D03*
X249275000Y-79250000D03*
%TD*%
D14*
%TO.C,D6*%
X132190000Y-88000000D03*
D15*
X134350000Y-88000000D03*
X137650000Y-88000000D03*
D16*
X139810000Y-88000000D03*
%TD*%
D10*
%TO.C,S17*%
X271500000Y-100000000D03*
D11*
X277000000Y-94050000D03*
D12*
X277000000Y-100000000D03*
D11*
X282000000Y-96250000D03*
D10*
X282500000Y-100000000D03*
D13*
X273725000Y-94050000D03*
X285275000Y-96250000D03*
%TD*%
D14*
%TO.C,D23*%
X150190000Y-139000000D03*
D15*
X152350000Y-139000000D03*
X155650000Y-139000000D03*
D16*
X157810000Y-139000000D03*
%TD*%
D14*
%TO.C,D17*%
X273190000Y-105000000D03*
D15*
X275350000Y-105000000D03*
X278650000Y-105000000D03*
D16*
X280810000Y-105000000D03*
%TD*%
D10*
%TO.C,S20*%
X289500000Y-83000000D03*
D11*
X295000000Y-77050000D03*
D12*
X295000000Y-83000000D03*
D11*
X300000000Y-79250000D03*
D10*
X300500000Y-83000000D03*
D13*
X291725000Y-77050000D03*
X303275000Y-79250000D03*
%TD*%
D14*
%TO.C,D2*%
X96190000Y-88000000D03*
D15*
X98350000Y-88000000D03*
X101650000Y-88000000D03*
D16*
X103810000Y-88000000D03*
%TD*%
D17*
%TO.C,_2*%
X107350000Y-92000000D03*
X107833274Y-90833274D03*
X107833274Y-93166726D03*
X109000000Y-90350000D03*
D18*
X109000000Y-92000000D03*
D17*
X109000000Y-93650000D03*
X110166726Y-90833274D03*
X110166726Y-93166726D03*
X110650000Y-92000000D03*
%TD*%
D14*
%TO.C,D16*%
X255190000Y-88000000D03*
D15*
X257350000Y-88000000D03*
X260650000Y-88000000D03*
D16*
X262810000Y-88000000D03*
%TD*%
D14*
%TO.C,D11*%
X219190000Y-105000000D03*
D15*
X221350000Y-105000000D03*
X224650000Y-105000000D03*
D16*
X226810000Y-105000000D03*
%TD*%
D17*
%TO.C,_6*%
X152350000Y-117000000D03*
X152833274Y-115833274D03*
X152833274Y-118166726D03*
X154000000Y-115350000D03*
D18*
X154000000Y-117000000D03*
D17*
X154000000Y-118650000D03*
X155166726Y-115833274D03*
X155166726Y-118166726D03*
X155650000Y-117000000D03*
%TD*%
D10*
%TO.C,S1*%
X94500000Y-100000000D03*
D11*
X100000000Y-94050000D03*
D12*
X100000000Y-100000000D03*
D11*
X105000000Y-96250000D03*
D10*
X105500000Y-100000000D03*
D13*
X96725000Y-94050000D03*
X108275000Y-96250000D03*
%TD*%
D10*
%TO.C,S19*%
X289500000Y-100000000D03*
D11*
X295000000Y-94050000D03*
D12*
X295000000Y-100000000D03*
D11*
X300000000Y-96250000D03*
D10*
X300500000Y-100000000D03*
D13*
X291725000Y-94050000D03*
X303275000Y-96250000D03*
%TD*%
D14*
%TO.C,D25*%
X219190000Y-139000000D03*
D15*
X221350000Y-139000000D03*
X224650000Y-139000000D03*
D16*
X226810000Y-139000000D03*
%TD*%
D14*
%TO.C,D21*%
X309190000Y-105000000D03*
D15*
X311350000Y-105000000D03*
X314650000Y-105000000D03*
D16*
X316810000Y-105000000D03*
%TD*%
D10*
%TO.C,S22*%
X307500000Y-83000000D03*
D11*
X313000000Y-77050000D03*
D12*
X313000000Y-83000000D03*
D11*
X318000000Y-79250000D03*
D10*
X318500000Y-83000000D03*
D13*
X309725000Y-77050000D03*
X321275000Y-79250000D03*
%TD*%
D19*
%TO.C,_1*%
X194775000Y-76000000D03*
D20*
X195075000Y-79030000D03*
X199925000Y-79030000D03*
D19*
X200225000Y-76000000D03*
D21*
X188610000Y-75870000D03*
X188610000Y-78410000D03*
D22*
X188610000Y-80950000D03*
D21*
X188610000Y-83490000D03*
X188610000Y-86030000D03*
X188610000Y-88570000D03*
X188610000Y-91110000D03*
D22*
X188610000Y-93650000D03*
D21*
X188610000Y-96190000D03*
X188610000Y-98730000D03*
X188610000Y-101270000D03*
X188610000Y-103810000D03*
D22*
X188610000Y-106350000D03*
D21*
X188610000Y-108890000D03*
X188610000Y-111430000D03*
X188610000Y-113970000D03*
X188610000Y-116510000D03*
D22*
X188610000Y-119050000D03*
D21*
X188610000Y-121590000D03*
X188610000Y-124130000D03*
X206390000Y-124130000D03*
X206390000Y-121590000D03*
D22*
X206390000Y-119050000D03*
D21*
X206390000Y-116510000D03*
X206390000Y-113970000D03*
X206390000Y-111430000D03*
X206390000Y-108890000D03*
D22*
X206390000Y-106350000D03*
D21*
X206390000Y-103810000D03*
X206390000Y-101270000D03*
X206390000Y-98730000D03*
X206390000Y-96190000D03*
D22*
X206390000Y-93650000D03*
D21*
X206390000Y-91110000D03*
X206390000Y-88570000D03*
X206390000Y-86030000D03*
X206390000Y-83490000D03*
D22*
X206390000Y-80950000D03*
D21*
X206390000Y-78410000D03*
X206390000Y-75870000D03*
X194960000Y-123900000D03*
D22*
X197500000Y-123900000D03*
D21*
X200040000Y-123900000D03*
%TD*%
D10*
%TO.C,S13*%
X235500000Y-100000000D03*
D11*
X241000000Y-94050000D03*
D12*
X241000000Y-100000000D03*
D11*
X246000000Y-96250000D03*
D10*
X246500000Y-100000000D03*
D13*
X237725000Y-94050000D03*
X249275000Y-96250000D03*
%TD*%
D10*
%TO.C,S15*%
X253500000Y-100000000D03*
D11*
X259000000Y-94050000D03*
D12*
X259000000Y-100000000D03*
D11*
X264000000Y-96250000D03*
D10*
X264500000Y-100000000D03*
D13*
X255725000Y-94050000D03*
X267275000Y-96250000D03*
%TD*%
D17*
%TO.C,_4*%
X230350000Y-92000000D03*
X230833274Y-90833274D03*
X230833274Y-93166726D03*
X232000000Y-90350000D03*
D18*
X232000000Y-92000000D03*
D17*
X232000000Y-93650000D03*
X233166726Y-90833274D03*
X233166726Y-93166726D03*
X233650000Y-92000000D03*
%TD*%
D10*
%TO.C,S10*%
X166500000Y-83000000D03*
D11*
X172000000Y-77050000D03*
D12*
X172000000Y-83000000D03*
D11*
X177000000Y-79250000D03*
D10*
X177500000Y-83000000D03*
D13*
X168725000Y-77050000D03*
X180275000Y-79250000D03*
%TD*%
D14*
%TO.C,D26*%
X237190000Y-139000000D03*
D15*
X239350000Y-139000000D03*
X242650000Y-139000000D03*
D16*
X244810000Y-139000000D03*
%TD*%
D14*
%TO.C,D22*%
X309190000Y-88000000D03*
D15*
X311350000Y-88000000D03*
X314650000Y-88000000D03*
D16*
X316810000Y-88000000D03*
%TD*%
D14*
%TO.C,D9*%
X168190000Y-105000000D03*
D15*
X170350000Y-105000000D03*
X173650000Y-105000000D03*
D16*
X175810000Y-105000000D03*
%TD*%
D14*
%TO.C,D10*%
X168190000Y-88000000D03*
D15*
X170350000Y-88000000D03*
X173650000Y-88000000D03*
D16*
X175810000Y-88000000D03*
%TD*%
D14*
%TO.C,D20*%
X291190000Y-88000000D03*
D15*
X293350000Y-88000000D03*
X296650000Y-88000000D03*
D16*
X298810000Y-88000000D03*
%TD*%
D14*
%TO.C,D13*%
X237190000Y-105000000D03*
D15*
X239350000Y-105000000D03*
X242650000Y-105000000D03*
D16*
X244810000Y-105000000D03*
%TD*%
D14*
%TO.C,D5*%
X132190000Y-105000000D03*
D15*
X134350000Y-105000000D03*
X137650000Y-105000000D03*
D16*
X139810000Y-105000000D03*
%TD*%
D14*
%TO.C,D4*%
X114190000Y-88000000D03*
D15*
X116350000Y-88000000D03*
X119650000Y-88000000D03*
D16*
X121810000Y-88000000D03*
%TD*%
D14*
%TO.C,D24*%
X168190000Y-139000000D03*
D15*
X170350000Y-139000000D03*
X173650000Y-139000000D03*
D16*
X175810000Y-139000000D03*
%TD*%
D17*
%TO.C,_3*%
X161350000Y-92000000D03*
X161833274Y-90833274D03*
X161833274Y-93166726D03*
X163000000Y-90350000D03*
D18*
X163000000Y-92000000D03*
D17*
X163000000Y-93650000D03*
X164166726Y-90833274D03*
X164166726Y-93166726D03*
X164650000Y-92000000D03*
%TD*%
D14*
%TO.C,D12*%
X219190000Y-88000000D03*
D15*
X221350000Y-88000000D03*
X224650000Y-88000000D03*
D16*
X226810000Y-88000000D03*
%TD*%
D10*
%TO.C,S5*%
X130500000Y-100000000D03*
D11*
X136000000Y-94050000D03*
D12*
X136000000Y-100000000D03*
D11*
X141000000Y-96250000D03*
D10*
X141500000Y-100000000D03*
D13*
X132725000Y-94050000D03*
X144275000Y-96250000D03*
%TD*%
D10*
%TO.C,S7*%
X148500000Y-100000000D03*
D11*
X154000000Y-94050000D03*
D12*
X154000000Y-100000000D03*
D11*
X159000000Y-96250000D03*
D10*
X159500000Y-100000000D03*
D13*
X150725000Y-94050000D03*
X162275000Y-96250000D03*
%TD*%
D10*
%TO.C,S26*%
X235500000Y-134000000D03*
D11*
X241000000Y-128050000D03*
D12*
X241000000Y-134000000D03*
D11*
X246000000Y-130250000D03*
D10*
X246500000Y-134000000D03*
D13*
X237725000Y-128050000D03*
X249275000Y-130250000D03*
%TD*%
D10*
%TO.C,S9*%
X166500000Y-100000000D03*
D11*
X172000000Y-94050000D03*
D12*
X172000000Y-100000000D03*
D11*
X177000000Y-96250000D03*
D10*
X177500000Y-100000000D03*
D13*
X168725000Y-94050000D03*
X180275000Y-96250000D03*
%TD*%
D14*
%TO.C,D19*%
X291190000Y-105000000D03*
D15*
X293350000Y-105000000D03*
X296650000Y-105000000D03*
D16*
X298810000Y-105000000D03*
%TD*%
D10*
%TO.C,S23*%
X148500000Y-134000000D03*
D11*
X154000000Y-128050000D03*
D12*
X154000000Y-134000000D03*
D11*
X159000000Y-130250000D03*
D10*
X159500000Y-134000000D03*
D13*
X150725000Y-128050000D03*
X162275000Y-130250000D03*
%TD*%
D10*
%TO.C,S21*%
X307500000Y-100000000D03*
D11*
X313000000Y-94050000D03*
D12*
X313000000Y-100000000D03*
D11*
X318000000Y-96250000D03*
D10*
X318500000Y-100000000D03*
D13*
X309725000Y-94050000D03*
X321275000Y-96250000D03*
%TD*%
D14*
%TO.C,D8*%
X150190000Y-88000000D03*
D15*
X152350000Y-88000000D03*
X155650000Y-88000000D03*
D16*
X157810000Y-88000000D03*
%TD*%
D10*
%TO.C,S6*%
X130500000Y-83000000D03*
D11*
X136000000Y-77050000D03*
D12*
X136000000Y-83000000D03*
D11*
X141000000Y-79250000D03*
D10*
X141500000Y-83000000D03*
D13*
X132725000Y-77050000D03*
X144275000Y-79250000D03*
%TD*%
D14*
%TO.C,D1*%
X96190000Y-105000000D03*
D15*
X98350000Y-105000000D03*
X101650000Y-105000000D03*
D16*
X103810000Y-105000000D03*
%TD*%
D10*
%TO.C,S18*%
X271500000Y-83000000D03*
D11*
X277000000Y-77050000D03*
D12*
X277000000Y-83000000D03*
D11*
X282000000Y-79250000D03*
D10*
X282500000Y-83000000D03*
D13*
X273725000Y-77050000D03*
X285275000Y-79250000D03*
%TD*%
D10*
%TO.C,S2*%
X94500000Y-83000000D03*
D11*
X100000000Y-77050000D03*
D12*
X100000000Y-83000000D03*
D11*
X105000000Y-79250000D03*
D10*
X105500000Y-83000000D03*
D13*
X96725000Y-77050000D03*
X108275000Y-79250000D03*
%TD*%
D14*
%TO.C,D15*%
X255190000Y-105000000D03*
D15*
X257350000Y-105000000D03*
X260650000Y-105000000D03*
D16*
X262810000Y-105000000D03*
%TD*%
D10*
%TO.C,S11*%
X217500000Y-100000000D03*
D11*
X223000000Y-94050000D03*
D12*
X223000000Y-100000000D03*
D11*
X228000000Y-96250000D03*
D10*
X228500000Y-100000000D03*
D13*
X219725000Y-94050000D03*
X231275000Y-96250000D03*
%TD*%
D17*
%TO.C,_5*%
X302350000Y-92000000D03*
X302833274Y-90833274D03*
X302833274Y-93166726D03*
X304000000Y-90350000D03*
D18*
X304000000Y-92000000D03*
D17*
X304000000Y-93650000D03*
X305166726Y-90833274D03*
X305166726Y-93166726D03*
X305650000Y-92000000D03*
%TD*%
%TO.C,_7*%
X239350000Y-117000000D03*
X239833274Y-115833274D03*
X239833274Y-118166726D03*
X241000000Y-115350000D03*
D18*
X241000000Y-117000000D03*
D17*
X241000000Y-118650000D03*
X242166726Y-115833274D03*
X242166726Y-118166726D03*
X242650000Y-117000000D03*
%TD*%
D10*
%TO.C,S3*%
X112500000Y-100000000D03*
D11*
X118000000Y-94050000D03*
D12*
X118000000Y-100000000D03*
D11*
X123000000Y-96250000D03*
D10*
X123500000Y-100000000D03*
D13*
X114725000Y-94050000D03*
X126275000Y-96250000D03*
%TD*%
M02*
