%TF.GenerationSoftware,KiCad,Pcbnew,9.0.0*%
%TF.CreationDate,2025-03-09T18:38:06+01:00*%
%TF.ProjectId,pcb,7063622e-6b69-4636-9164-5f7063625858,v1.0.0*%
%TF.SameCoordinates,Original*%
%TF.FileFunction,Copper,L1,Top*%
%TF.FilePolarity,Positive*%
%FSLAX46Y46*%
G04 Gerber Fmt 4.6, Leading zero omitted, Abs format (unit mm)*
G04 Created by KiCad (PCBNEW 9.0.0) date 2025-03-09 18:38:06*
%MOMM*%
%LPD*%
G01*
G04 APERTURE LIST*
%TA.AperFunction,SMDPad,CuDef*%
%ADD10R,1.800000X1.100000*%
%TD*%
%TA.AperFunction,ComponentPad*%
%ADD11R,1.778000X1.778000*%
%TD*%
%TA.AperFunction,SMDPad,CuDef*%
%ADD12R,0.900000X1.200000*%
%TD*%
%TA.AperFunction,ComponentPad*%
%ADD13C,1.905000*%
%TD*%
%TA.AperFunction,ComponentPad*%
%ADD14C,0.700000*%
%TD*%
%TA.AperFunction,ComponentPad*%
%ADD15C,4.400000*%
%TD*%
%TA.AperFunction,ComponentPad*%
%ADD16O,1.700000X1.700000*%
%TD*%
%TA.AperFunction,SMDPad,CuDef*%
%ADD17R,3.500000X1.700000*%
%TD*%
%TA.AperFunction,ComponentPad*%
%ADD18R,1.700000X1.700000*%
%TD*%
%TA.AperFunction,SMDPad,CuDef*%
%ADD19R,1.700000X3.500000*%
%TD*%
%TA.AperFunction,Conductor*%
%ADD20C,0.250000*%
%TD*%
G04 APERTURE END LIST*
D10*
%TO.P,B1,1*%
%TO.N,GND*%
X200600000Y-132850000D03*
X194400000Y-132850000D03*
%TO.P,B1,2*%
%TO.N,RUN*%
X200600000Y-129150000D03*
X194400000Y-129150000D03*
%TD*%
D11*
%TO.P,D7,1*%
%TO.N,GP9*%
X150190000Y-105000000D03*
D12*
X152350000Y-105000000D03*
%TO.P,D7,2*%
%TO.N,index_bottom*%
X155650000Y-105000000D03*
D13*
X157810000Y-105000000D03*
%TD*%
D14*
%TO.P,_8,1*%
%TO.N,N/C*%
X195850000Y-139000000D03*
X196333274Y-137833274D03*
X196333274Y-140166726D03*
X197500000Y-137350000D03*
D15*
X197500000Y-139000000D03*
D14*
X197500000Y-140650000D03*
X198666726Y-137833274D03*
X198666726Y-140166726D03*
X199150000Y-139000000D03*
%TD*%
D11*
%TO.P,D14,1*%
%TO.N,GP28*%
X237190000Y-88000000D03*
D12*
X239350000Y-88000000D03*
%TO.P,D14,2*%
%TO.N,index_top*%
X242650000Y-88000000D03*
D13*
X244810000Y-88000000D03*
%TD*%
D11*
%TO.P,D18,1*%
%TO.N,GP28*%
X273190000Y-88000000D03*
D12*
X275350000Y-88000000D03*
%TO.P,D18,2*%
%TO.N,ring_top*%
X278650000Y-88000000D03*
D13*
X280810000Y-88000000D03*
%TD*%
D11*
%TO.P,D3,1*%
%TO.N,GP9*%
X114190000Y-105000000D03*
D12*
X116350000Y-105000000D03*
%TO.P,D3,2*%
%TO.N,ring_bottom*%
X119650000Y-105000000D03*
D13*
X121810000Y-105000000D03*
%TD*%
D11*
%TO.P,D6,1*%
%TO.N,GP5*%
X132190000Y-88000000D03*
D12*
X134350000Y-88000000D03*
%TO.P,D6,2*%
%TO.N,middle_top*%
X137650000Y-88000000D03*
D13*
X139810000Y-88000000D03*
%TD*%
D11*
%TO.P,D23,1*%
%TO.N,GP15*%
X150190000Y-139000000D03*
D12*
X152350000Y-139000000D03*
%TO.P,D23,2*%
%TO.N,outer_top*%
X155650000Y-139000000D03*
D13*
X157810000Y-139000000D03*
%TD*%
D11*
%TO.P,D17,1*%
%TO.N,GP22*%
X273190000Y-105000000D03*
D12*
X275350000Y-105000000D03*
%TO.P,D17,2*%
%TO.N,ring_bottom*%
X278650000Y-105000000D03*
D13*
X280810000Y-105000000D03*
%TD*%
D11*
%TO.P,D2,1*%
%TO.N,GP5*%
X96190000Y-88000000D03*
D12*
X98350000Y-88000000D03*
%TO.P,D2,2*%
%TO.N,pinky_top*%
X101650000Y-88000000D03*
D13*
X103810000Y-88000000D03*
%TD*%
D14*
%TO.P,_2,1*%
%TO.N,N/C*%
X107350000Y-92000000D03*
X107833274Y-90833274D03*
X107833274Y-93166726D03*
X109000000Y-90350000D03*
D15*
X109000000Y-92000000D03*
D14*
X109000000Y-93650000D03*
X110166726Y-90833274D03*
X110166726Y-93166726D03*
X110650000Y-92000000D03*
%TD*%
D11*
%TO.P,D16,1*%
%TO.N,GP28*%
X255190000Y-88000000D03*
D12*
X257350000Y-88000000D03*
%TO.P,D16,2*%
%TO.N,middle_top*%
X260650000Y-88000000D03*
D13*
X262810000Y-88000000D03*
%TD*%
D11*
%TO.P,D11,1*%
%TO.N,GP22*%
X219190000Y-105000000D03*
D12*
X221350000Y-105000000D03*
%TO.P,D11,2*%
%TO.N,inner_bottom*%
X224650000Y-105000000D03*
D13*
X226810000Y-105000000D03*
%TD*%
D14*
%TO.P,_6,1*%
%TO.N,N/C*%
X152350000Y-117000000D03*
X152833274Y-115833274D03*
X152833274Y-118166726D03*
X154000000Y-115350000D03*
D15*
X154000000Y-117000000D03*
D14*
X154000000Y-118650000D03*
X155166726Y-115833274D03*
X155166726Y-118166726D03*
X155650000Y-117000000D03*
%TD*%
D11*
%TO.P,D25,1*%
%TO.N,GP15*%
X219190000Y-139000000D03*
D12*
X221350000Y-139000000D03*
%TO.P,D25,2*%
%TO.N,inner_top*%
X224650000Y-139000000D03*
D13*
X226810000Y-139000000D03*
%TD*%
D11*
%TO.P,D21,1*%
%TO.N,GP22*%
X309190000Y-105000000D03*
D12*
X311350000Y-105000000D03*
%TO.P,D21,2*%
%TO.N,outer_bottom*%
X314650000Y-105000000D03*
D13*
X316810000Y-105000000D03*
%TD*%
D16*
%TO.P,_1,1*%
%TO.N,GP0*%
X188610000Y-75870000D03*
D17*
X187710000Y-75870000D03*
D16*
%TO.P,_1,2*%
%TO.N,GP1*%
X188610000Y-78410000D03*
D17*
X187710000Y-78410000D03*
D18*
%TO.P,_1,3*%
%TO.N,GND*%
X188610000Y-80950000D03*
D17*
X187710000Y-80950000D03*
D16*
%TO.P,_1,4*%
%TO.N,GP2*%
X188610000Y-83490000D03*
D17*
X187710000Y-83490000D03*
D16*
%TO.P,_1,5*%
%TO.N,GP3*%
X188610000Y-86030000D03*
D17*
X187710000Y-86030000D03*
D16*
%TO.P,_1,6*%
%TO.N,GP4*%
X188610000Y-88570000D03*
D17*
X187710000Y-88570000D03*
D16*
%TO.P,_1,7*%
%TO.N,GP5*%
X188610000Y-91110000D03*
D17*
X187710000Y-91110000D03*
D18*
%TO.P,_1,8*%
%TO.N,GND*%
X188610000Y-93650000D03*
D17*
X187710000Y-93650000D03*
D16*
%TO.P,_1,9*%
%TO.N,GP6*%
X188610000Y-96190000D03*
D17*
X187710000Y-96190000D03*
D16*
%TO.P,_1,10*%
%TO.N,GP7*%
X188610000Y-98730000D03*
D17*
X187710000Y-98730000D03*
D16*
%TO.P,_1,11*%
%TO.N,GP8*%
X188610000Y-101270000D03*
D17*
X187710000Y-101270000D03*
D16*
%TO.P,_1,12*%
%TO.N,GP9*%
X188610000Y-103810000D03*
D17*
X187710000Y-103810000D03*
D18*
%TO.P,_1,13*%
%TO.N,GND*%
X188610000Y-106350000D03*
D17*
X187710000Y-106350000D03*
D16*
%TO.P,_1,14*%
%TO.N,GP10*%
X188610000Y-108890000D03*
D17*
X187710000Y-108890000D03*
D16*
%TO.P,_1,15*%
%TO.N,GP11*%
X188610000Y-111430000D03*
D17*
X187710000Y-111430000D03*
D16*
%TO.P,_1,16*%
%TO.N,GP12*%
X188610000Y-113970000D03*
D17*
X187710000Y-113970000D03*
D16*
%TO.P,_1,17*%
%TO.N,GP13*%
X188610000Y-116510000D03*
D17*
X187710000Y-116510000D03*
D18*
%TO.P,_1,18*%
%TO.N,GND*%
X188610000Y-119050000D03*
D17*
X187710000Y-119050000D03*
D16*
%TO.P,_1,19*%
%TO.N,GP14*%
X188610000Y-121590000D03*
D17*
X187710000Y-121590000D03*
D16*
%TO.P,_1,20*%
%TO.N,GP15*%
X188610000Y-124130000D03*
D17*
X187710000Y-124130000D03*
D16*
%TO.P,_1,21*%
%TO.N,GP16*%
X206390000Y-124130000D03*
D17*
X207290000Y-124130000D03*
D16*
%TO.P,_1,22*%
%TO.N,GP17*%
X206390000Y-121590000D03*
D17*
X207290000Y-121590000D03*
D18*
%TO.P,_1,23*%
%TO.N,GND*%
X206390000Y-119050000D03*
D17*
X207290000Y-119050000D03*
D16*
%TO.P,_1,24*%
%TO.N,GP18*%
X206390000Y-116510000D03*
D17*
X207290000Y-116510000D03*
D16*
%TO.P,_1,25*%
%TO.N,GP19*%
X206390000Y-113970000D03*
D17*
X207290000Y-113970000D03*
D16*
%TO.P,_1,26*%
%TO.N,GP20*%
X206390000Y-111430000D03*
D17*
X207290000Y-111430000D03*
D16*
%TO.P,_1,27*%
%TO.N,GP21*%
X206390000Y-108890000D03*
D17*
X207290000Y-108890000D03*
D18*
%TO.P,_1,28*%
%TO.N,GND*%
X206390000Y-106350000D03*
D17*
X207290000Y-106350000D03*
D16*
%TO.P,_1,29*%
%TO.N,GP22*%
X206390000Y-103810000D03*
D17*
X207290000Y-103810000D03*
D16*
%TO.P,_1,30*%
%TO.N,RUN*%
X206390000Y-101270000D03*
D17*
X207290000Y-101270000D03*
D16*
%TO.P,_1,31*%
%TO.N,GP26*%
X206390000Y-98730000D03*
D17*
X207290000Y-98730000D03*
D16*
%TO.P,_1,32*%
%TO.N,GP27*%
X206390000Y-96190000D03*
D17*
X207290000Y-96190000D03*
D18*
%TO.P,_1,33*%
%TO.N,AGND*%
X206390000Y-93650000D03*
D17*
X207290000Y-93650000D03*
D16*
%TO.P,_1,34*%
%TO.N,GP28*%
X206390000Y-91110000D03*
D17*
X207290000Y-91110000D03*
D16*
%TO.P,_1,35*%
%TO.N,ADC_VREF*%
X206390000Y-88570000D03*
D17*
X207290000Y-88570000D03*
D16*
%TO.P,_1,36*%
%TO.N,3V3*%
X206390000Y-86030000D03*
D17*
X207290000Y-86030000D03*
D16*
%TO.P,_1,37*%
%TO.N,3V3_EN*%
X206390000Y-83490000D03*
D17*
X207290000Y-83490000D03*
D18*
%TO.P,_1,38*%
%TO.N,GND*%
X206390000Y-80950000D03*
D17*
X207290000Y-80950000D03*
D16*
%TO.P,_1,39*%
%TO.N,VSYS*%
X206390000Y-78410000D03*
D17*
X207290000Y-78410000D03*
D16*
%TO.P,_1,40*%
%TO.N,VBUS*%
X206390000Y-75870000D03*
D17*
X207290000Y-75870000D03*
D16*
%TO.P,_1,41*%
%TO.N,N/C*%
X194960000Y-123900000D03*
D19*
X194960000Y-124800000D03*
D18*
%TO.P,_1,42*%
X197500000Y-123900000D03*
D19*
X197500000Y-124800000D03*
D16*
%TO.P,_1,43*%
X200040000Y-123900000D03*
D19*
X200040000Y-124800000D03*
%TD*%
D14*
%TO.P,_4,1*%
%TO.N,N/C*%
X230350000Y-92000000D03*
X230833274Y-90833274D03*
X230833274Y-93166726D03*
X232000000Y-90350000D03*
D15*
X232000000Y-92000000D03*
D14*
X232000000Y-93650000D03*
X233166726Y-90833274D03*
X233166726Y-93166726D03*
X233650000Y-92000000D03*
%TD*%
D11*
%TO.P,D26,1*%
%TO.N,GP15*%
X237190000Y-139000000D03*
D12*
X239350000Y-139000000D03*
%TO.P,D26,2*%
%TO.N,outer_top*%
X242650000Y-139000000D03*
D13*
X244810000Y-139000000D03*
%TD*%
D11*
%TO.P,D22,1*%
%TO.N,GP28*%
X309190000Y-88000000D03*
D12*
X311350000Y-88000000D03*
%TO.P,D22,2*%
%TO.N,outer_top*%
X314650000Y-88000000D03*
D13*
X316810000Y-88000000D03*
%TD*%
D11*
%TO.P,D9,1*%
%TO.N,GP9*%
X168190000Y-105000000D03*
D12*
X170350000Y-105000000D03*
%TO.P,D9,2*%
%TO.N,inner_bottom*%
X173650000Y-105000000D03*
D13*
X175810000Y-105000000D03*
%TD*%
D11*
%TO.P,D10,1*%
%TO.N,GP5*%
X168190000Y-88000000D03*
D12*
X170350000Y-88000000D03*
%TO.P,D10,2*%
%TO.N,inner_top*%
X173650000Y-88000000D03*
D13*
X175810000Y-88000000D03*
%TD*%
D11*
%TO.P,D20,1*%
%TO.N,GP28*%
X291190000Y-88000000D03*
D12*
X293350000Y-88000000D03*
%TO.P,D20,2*%
%TO.N,pinky_top*%
X296650000Y-88000000D03*
D13*
X298810000Y-88000000D03*
%TD*%
D11*
%TO.P,D13,1*%
%TO.N,GP22*%
X237190000Y-105000000D03*
D12*
X239350000Y-105000000D03*
%TO.P,D13,2*%
%TO.N,index_bottom*%
X242650000Y-105000000D03*
D13*
X244810000Y-105000000D03*
%TD*%
D11*
%TO.P,D5,1*%
%TO.N,GP9*%
X132190000Y-105000000D03*
D12*
X134350000Y-105000000D03*
%TO.P,D5,2*%
%TO.N,middle_bottom*%
X137650000Y-105000000D03*
D13*
X139810000Y-105000000D03*
%TD*%
D11*
%TO.P,D4,1*%
%TO.N,GP5*%
X114190000Y-88000000D03*
D12*
X116350000Y-88000000D03*
%TO.P,D4,2*%
%TO.N,ring_top*%
X119650000Y-88000000D03*
D13*
X121810000Y-88000000D03*
%TD*%
D11*
%TO.P,D24,1*%
%TO.N,GP15*%
X168190000Y-139000000D03*
D12*
X170350000Y-139000000D03*
%TO.P,D24,2*%
%TO.N,inner_top*%
X173650000Y-139000000D03*
D13*
X175810000Y-139000000D03*
%TD*%
D14*
%TO.P,_3,1*%
%TO.N,N/C*%
X161350000Y-92000000D03*
X161833274Y-90833274D03*
X161833274Y-93166726D03*
X163000000Y-90350000D03*
D15*
X163000000Y-92000000D03*
D14*
X163000000Y-93650000D03*
X164166726Y-90833274D03*
X164166726Y-93166726D03*
X164650000Y-92000000D03*
%TD*%
D11*
%TO.P,D12,1*%
%TO.N,GP28*%
X219190000Y-88000000D03*
D12*
X221350000Y-88000000D03*
%TO.P,D12,2*%
%TO.N,inner_top*%
X224650000Y-88000000D03*
D13*
X226810000Y-88000000D03*
%TD*%
D11*
%TO.P,D19,1*%
%TO.N,GP22*%
X291190000Y-105000000D03*
D12*
X293350000Y-105000000D03*
%TO.P,D19,2*%
%TO.N,pinky_bottom*%
X296650000Y-105000000D03*
D13*
X298810000Y-105000000D03*
%TD*%
D11*
%TO.P,D8,1*%
%TO.N,GP5*%
X150190000Y-88000000D03*
D12*
X152350000Y-88000000D03*
%TO.P,D8,2*%
%TO.N,index_top*%
X155650000Y-88000000D03*
D13*
X157810000Y-88000000D03*
%TD*%
D11*
%TO.P,D1,1*%
%TO.N,GP9*%
X96190000Y-105000000D03*
D12*
X98350000Y-105000000D03*
%TO.P,D1,2*%
%TO.N,pinky_bottom*%
X101650000Y-105000000D03*
D13*
X103810000Y-105000000D03*
%TD*%
D11*
%TO.P,D15,1*%
%TO.N,GP22*%
X255190000Y-105000000D03*
D12*
X257350000Y-105000000D03*
%TO.P,D15,2*%
%TO.N,middle_bottom*%
X260650000Y-105000000D03*
D13*
X262810000Y-105000000D03*
%TD*%
D14*
%TO.P,_5,1*%
%TO.N,N/C*%
X302350000Y-92000000D03*
X302833274Y-90833274D03*
X302833274Y-93166726D03*
X304000000Y-90350000D03*
D15*
X304000000Y-92000000D03*
D14*
X304000000Y-93650000D03*
X305166726Y-90833274D03*
X305166726Y-93166726D03*
X305650000Y-92000000D03*
%TD*%
%TO.P,_7,1*%
%TO.N,N/C*%
X239350000Y-117000000D03*
X239833274Y-115833274D03*
X239833274Y-118166726D03*
X241000000Y-115350000D03*
D15*
X241000000Y-117000000D03*
D14*
X241000000Y-118650000D03*
X242166726Y-115833274D03*
X242166726Y-118166726D03*
X242650000Y-117000000D03*
%TD*%
D20*
%TO.N,pinky_bottom*%
X101650000Y-105000000D02*
X103810000Y-105000000D01*
X296650000Y-105000000D02*
X298810000Y-105000000D01*
%TO.N,pinky_top*%
X101650000Y-88000000D02*
X103810000Y-88000000D01*
X296650000Y-88000000D02*
X298810000Y-88000000D01*
%TO.N,ring_bottom*%
X278650000Y-105000000D02*
X280810000Y-105000000D01*
X119650000Y-105000000D02*
X121810000Y-105000000D01*
%TO.N,ring_top*%
X119650000Y-88000000D02*
X121810000Y-88000000D01*
X278650000Y-88000000D02*
X280810000Y-88000000D01*
%TO.N,middle_bottom*%
X260650000Y-105000000D02*
X262810000Y-105000000D01*
X137650000Y-105000000D02*
X139810000Y-105000000D01*
%TO.N,middle_top*%
X137650000Y-88000000D02*
X139810000Y-88000000D01*
X260650000Y-88000000D02*
X262810000Y-88000000D01*
%TO.N,index_bottom*%
X242650000Y-105000000D02*
X244810000Y-105000000D01*
X155650000Y-105000000D02*
X157810000Y-105000000D01*
%TO.N,index_top*%
X155650000Y-88000000D02*
X157810000Y-88000000D01*
X242650000Y-88000000D02*
X244810000Y-88000000D01*
%TO.N,inner_bottom*%
X224650000Y-105000000D02*
X226810000Y-105000000D01*
X173650000Y-105000000D02*
X175810000Y-105000000D01*
%TO.N,inner_top*%
X173650000Y-88000000D02*
X175810000Y-88000000D01*
X173650000Y-139000000D02*
X175810000Y-139000000D01*
X224650000Y-139000000D02*
X226810000Y-139000000D01*
X224650000Y-88000000D02*
X226810000Y-88000000D01*
%TO.N,outer_bottom*%
X314650000Y-105000000D02*
X316810000Y-105000000D01*
%TO.N,outer_top*%
X314650000Y-88000000D02*
X316810000Y-88000000D01*
X155650000Y-139000000D02*
X157810000Y-139000000D01*
X242650000Y-139000000D02*
X244810000Y-139000000D01*
%TO.N,GP9*%
X133468500Y-106278500D02*
X148911500Y-106278500D01*
X132190000Y-105000000D02*
X134350000Y-105000000D01*
X169468500Y-106278500D02*
X177221500Y-106278500D01*
X168190000Y-105000000D02*
X169468500Y-106278500D01*
X151468500Y-106278500D02*
X166911500Y-106278500D01*
X188610000Y-103810000D02*
X179690000Y-103810000D01*
X166911500Y-106278500D02*
X168190000Y-105000000D01*
X96190000Y-105000000D02*
X97468500Y-106278500D01*
X114190000Y-105000000D02*
X115468500Y-106278500D01*
X115468500Y-106278500D02*
X130911500Y-106278500D01*
X150190000Y-105000000D02*
X152350000Y-105000000D01*
X150190000Y-105000000D02*
X151468500Y-106278500D01*
X112911500Y-106278500D02*
X114190000Y-105000000D01*
X179690000Y-103810000D02*
X177221500Y-106278500D01*
X114190000Y-105000000D02*
X116350000Y-105000000D01*
X130911500Y-106278500D02*
X132190000Y-105000000D01*
X132190000Y-105000000D02*
X133468500Y-106278500D01*
X148911500Y-106278500D02*
X150190000Y-105000000D01*
X168190000Y-105000000D02*
X170350000Y-105000000D01*
X96190000Y-105000000D02*
X98350000Y-105000000D01*
X97468500Y-106278500D02*
X112911500Y-106278500D01*
%TO.N,GP5*%
X112716000Y-89474000D02*
X114190000Y-88000000D01*
X168190000Y-88000000D02*
X166911500Y-89278500D01*
X96190000Y-88000000D02*
X98350000Y-88000000D01*
X96190000Y-88000000D02*
X97664000Y-89474000D01*
X132190000Y-88000000D02*
X134350000Y-88000000D01*
X151468500Y-89278500D02*
X150190000Y-88000000D01*
X166911500Y-89278500D02*
X151468500Y-89278500D01*
X97664000Y-89474000D02*
X112716000Y-89474000D01*
X168190000Y-88000000D02*
X170350000Y-88000000D01*
X133468500Y-89278500D02*
X148911500Y-89278500D01*
X150190000Y-88000000D02*
X152350000Y-88000000D01*
X132190000Y-88000000D02*
X133468500Y-89278500D01*
X188610000Y-91110000D02*
X171300000Y-91110000D01*
X148911500Y-89278500D02*
X150190000Y-88000000D01*
X114190000Y-88000000D02*
X116350000Y-88000000D01*
X171300000Y-91110000D02*
X168190000Y-88000000D01*
X130911500Y-89278500D02*
X132190000Y-88000000D01*
X115468500Y-89278500D02*
X130911500Y-89278500D01*
X114190000Y-88000000D02*
X115468500Y-89278500D01*
%TO.N,GP22*%
X273190000Y-105000000D02*
X271911500Y-106278500D01*
X274468500Y-106278500D02*
X273190000Y-105000000D01*
X255190000Y-105000000D02*
X253911500Y-106278500D01*
X273190000Y-105000000D02*
X275350000Y-105000000D01*
X206390000Y-103810000D02*
X217810000Y-103810000D01*
X309190000Y-105000000D02*
X311350000Y-105000000D01*
X291190000Y-105000000D02*
X293350000Y-105000000D01*
X309190000Y-105000000D02*
X307911500Y-106278500D01*
X237190000Y-105000000D02*
X239350000Y-105000000D01*
X237190000Y-105000000D02*
X235911500Y-106278500D01*
X256468500Y-106278500D02*
X255190000Y-105000000D01*
X217810000Y-103810000D02*
X219000000Y-105000000D01*
X292468500Y-106278500D02*
X291190000Y-105000000D01*
X291190000Y-105000000D02*
X289911500Y-106278500D01*
X220468500Y-106278500D02*
X219190000Y-105000000D01*
X219000000Y-105000000D02*
X219190000Y-105000000D01*
X289911500Y-106278500D02*
X274468500Y-106278500D01*
X253911500Y-106278500D02*
X238468500Y-106278500D01*
X307911500Y-106278500D02*
X292468500Y-106278500D01*
X255190000Y-105000000D02*
X257350000Y-105000000D01*
X235911500Y-106278500D02*
X220468500Y-106278500D01*
X271911500Y-106278500D02*
X256468500Y-106278500D01*
X238468500Y-106278500D02*
X237190000Y-105000000D01*
X219190000Y-105000000D02*
X221350000Y-105000000D01*
%TO.N,GP28*%
X273190000Y-88000000D02*
X275350000Y-88000000D01*
X237190000Y-88000000D02*
X238690000Y-89500000D01*
X273190000Y-88000000D02*
X274468500Y-89278500D01*
X237190000Y-88000000D02*
X239350000Y-88000000D01*
X219190000Y-88000000D02*
X216080000Y-91110000D01*
X238690000Y-89500000D02*
X253690000Y-89500000D01*
X256468500Y-89278500D02*
X271911500Y-89278500D01*
X216080000Y-91110000D02*
X206390000Y-91110000D01*
X291190000Y-88000000D02*
X293350000Y-88000000D01*
X219190000Y-88000000D02*
X220664000Y-89474000D01*
X291190000Y-88000000D02*
X292468500Y-89278500D01*
X271911500Y-89278500D02*
X273190000Y-88000000D01*
X235716000Y-89474000D02*
X237190000Y-88000000D01*
X307911500Y-89278500D02*
X309190000Y-88000000D01*
X289911500Y-89278500D02*
X291190000Y-88000000D01*
X255190000Y-88000000D02*
X256468500Y-89278500D01*
X274468500Y-89278500D02*
X289911500Y-89278500D01*
X219190000Y-88000000D02*
X221350000Y-88000000D01*
X292468500Y-89278500D02*
X307911500Y-89278500D01*
X220664000Y-89474000D02*
X235716000Y-89474000D01*
X253690000Y-89500000D02*
X255190000Y-88000000D01*
X309190000Y-88000000D02*
X311350000Y-88000000D01*
X255190000Y-88000000D02*
X257350000Y-88000000D01*
%TO.N,GP15*%
X150190000Y-139000000D02*
X151468500Y-140278500D01*
X220468500Y-140278500D02*
X219190000Y-139000000D01*
X219190000Y-139000000D02*
X221350000Y-139000000D01*
X188500000Y-141526000D02*
X216664000Y-141526000D01*
X166911500Y-140278500D02*
X168190000Y-139000000D01*
X235911500Y-140278500D02*
X220468500Y-140278500D01*
X237190000Y-139000000D02*
X239350000Y-139000000D01*
X170716000Y-141526000D02*
X188500000Y-141526000D01*
X150190000Y-139000000D02*
X152350000Y-139000000D01*
X168190000Y-139000000D02*
X170350000Y-139000000D01*
X168190000Y-139000000D02*
X170716000Y-141526000D01*
X188610000Y-141416000D02*
X188500000Y-141526000D01*
X216664000Y-141526000D02*
X219190000Y-139000000D01*
X188610000Y-124130000D02*
X188610000Y-141416000D01*
X151468500Y-140278500D02*
X166911500Y-140278500D01*
X237190000Y-139000000D02*
X235911500Y-140278500D01*
%TO.N,RUN*%
X206390000Y-101270000D02*
X202500000Y-105160000D01*
X202500000Y-127250000D02*
X200600000Y-129150000D01*
X194400000Y-129150000D02*
X200600000Y-129150000D01*
X202500000Y-105160000D02*
X202500000Y-127250000D01*
%TO.N,GND*%
X188610000Y-106350000D02*
X189786000Y-105174000D01*
X189786000Y-117874000D02*
X189786000Y-107526000D01*
X189786000Y-128236000D02*
X189786000Y-120226000D01*
X205214000Y-120226000D02*
X206390000Y-119050000D01*
X205214000Y-107526000D02*
X206390000Y-106350000D01*
X188610000Y-93650000D02*
X189786000Y-92474000D01*
X189786000Y-92474000D02*
X189786000Y-82126000D01*
X188610000Y-119050000D02*
X189786000Y-117874000D01*
X194400000Y-132850000D02*
X189786000Y-128236000D01*
X189786000Y-105174000D02*
X189786000Y-94826000D01*
X205214000Y-128236000D02*
X205214000Y-120226000D01*
X189786000Y-120226000D02*
X188610000Y-119050000D01*
X200600000Y-132850000D02*
X205214000Y-128236000D01*
X189786000Y-94826000D02*
X188610000Y-93650000D01*
X205214000Y-117874000D02*
X205214000Y-107526000D01*
X206390000Y-119050000D02*
X205214000Y-117874000D01*
X189786000Y-82126000D02*
X188610000Y-80950000D01*
X194400000Y-132850000D02*
X200600000Y-132850000D01*
X189786000Y-107526000D02*
X188610000Y-106350000D01*
X188610000Y-80950000D02*
X206390000Y-80950000D01*
%TD*%
M02*
