%TF.GenerationSoftware,KiCad,Pcbnew,9.0.0*%
%TF.CreationDate,2025-04-18T14:09:36+02:00*%
%TF.ProjectId,pcb,7063622e-6b69-4636-9164-5f7063625858,v1.0.0*%
%TF.SameCoordinates,Original*%
%TF.FileFunction,Paste,Top*%
%TF.FilePolarity,Positive*%
%FSLAX46Y46*%
G04 Gerber Fmt 4.6, Leading zero omitted, Abs format (unit mm)*
G04 Created by KiCad (PCBNEW 9.0.0) date 2025-04-18 14:09:36*
%MOMM*%
%LPD*%
G01*
G04 APERTURE LIST*
%ADD10R,0.900000X1.200000*%
G04 APERTURE END LIST*
D10*
%TO.C,D1*%
X98350000Y-105000000D03*
X101650000Y-105000000D03*
%TD*%
%TO.C,D2*%
X98350000Y-88000000D03*
X101650000Y-88000000D03*
%TD*%
%TO.C,D3*%
X116350000Y-105000000D03*
X119650000Y-105000000D03*
%TD*%
%TO.C,D4*%
X116350000Y-88000000D03*
X119650000Y-88000000D03*
%TD*%
%TO.C,D5*%
X134350000Y-105000000D03*
X137650000Y-105000000D03*
%TD*%
%TO.C,D6*%
X134350000Y-88000000D03*
X137650000Y-88000000D03*
%TD*%
%TO.C,D7*%
X152350000Y-105000000D03*
X155650000Y-105000000D03*
%TD*%
%TO.C,D8*%
X152350000Y-88000000D03*
X155650000Y-88000000D03*
%TD*%
%TO.C,D9*%
X170350000Y-105000000D03*
X173650000Y-105000000D03*
%TD*%
%TO.C,D10*%
X170350000Y-88000000D03*
X173650000Y-88000000D03*
%TD*%
%TO.C,D11*%
X188350000Y-105000000D03*
X191650000Y-105000000D03*
%TD*%
%TO.C,D12*%
X188350000Y-88000000D03*
X191650000Y-88000000D03*
%TD*%
%TO.C,D13*%
X242350000Y-105000000D03*
X245650000Y-105000000D03*
%TD*%
%TO.C,D14*%
X242350000Y-88000000D03*
X245650000Y-88000000D03*
%TD*%
%TO.C,D15*%
X260350000Y-105000000D03*
X263650000Y-105000000D03*
%TD*%
%TO.C,D16*%
X260350000Y-88000000D03*
X263650000Y-88000000D03*
%TD*%
%TO.C,D17*%
X278350000Y-105000000D03*
X281650000Y-105000000D03*
%TD*%
%TO.C,D18*%
X278350000Y-88000000D03*
X281650000Y-88000000D03*
%TD*%
%TO.C,D19*%
X296350000Y-105000000D03*
X299650000Y-105000000D03*
%TD*%
%TO.C,D20*%
X296350000Y-88000000D03*
X299650000Y-88000000D03*
%TD*%
%TO.C,D21*%
X314350000Y-105000000D03*
X317650000Y-105000000D03*
%TD*%
%TO.C,D22*%
X314350000Y-88000000D03*
X317650000Y-88000000D03*
%TD*%
%TO.C,D23*%
X332350000Y-105000000D03*
X335650000Y-105000000D03*
%TD*%
%TO.C,D24*%
X332350000Y-88000000D03*
X335650000Y-88000000D03*
%TD*%
%TO.C,D25*%
X170350000Y-139000000D03*
X173650000Y-139000000D03*
%TD*%
%TO.C,D26*%
X188350000Y-139000000D03*
X191650000Y-139000000D03*
%TD*%
%TO.C,D27*%
X242350000Y-139000000D03*
X245650000Y-139000000D03*
%TD*%
%TO.C,D28*%
X260350000Y-139000000D03*
X263650000Y-139000000D03*
%TD*%
M02*
